<?xml version="1.0" encoding="utf-8"?>
<!-- Generator: Adobe Illustrator 18.0.0, SVG Export Plug-In . SVG Version: 6.00 Build 0)  -->
<!DOCTYPE svg PUBLIC "-//W3C//DTD SVG 1.1//EN" "http://www.w3.org/Graphics/SVG/1.1/DTD/svg11.dtd">
<svg version="1.1" id="Layer_1" xmlns="http://www.w3.org/2000/svg" xmlns:xlink="http://www.w3.org/1999/xlink" x="0px" y="0px"
	 viewBox="112 105.9 583 371.1" enable-background="new 112 105.9 583 371.1" xml:space="preserve">
<rect x="22" fill="#FFFFFF" width="904" height="564"/>
<g>
	<g transform="translate(80,100)">
	</g>
</g>
<g>
	<rect x="104.5" y="100" fill="#335496" width="596.8" height="384"/>
	<g transform="translate(80,100)">
	</g>
	<g transform="translate(80,100)">
		<path opacity="0.4" stroke="#EEEEEE" d="M51,0v384"/>
		<path opacity="0.4" stroke="#EEEEEE" d="M129.9,0v384"/>
		<path opacity="0.4" stroke="#EEEEEE" d="M208.7,0v384"/>
		<path opacity="0.4" stroke="#EEEEEE" d="M287.5,0v384"/>
		<path opacity="0.4" stroke="#EEEEEE" d="M366.4,0v384"/>
		<path opacity="0.4" stroke="#EEEEEE" d="M445.2,0v384"/>
		<path opacity="0.4" stroke="#EEEEEE" d="M524,0v384"/>
		<path opacity="0.4" stroke="#EEEEEE" d="M602.8,0v384"/>
		<path opacity="0.4" stroke="#EEEEEE" d="M24.5,283.6h596.8"/>
		<path opacity="0.4" stroke="#EEEEEE" d="M24.5,174.5h596.8"/>
		<path opacity="0.4" stroke="#EEEEEE" d="M24.5,65.4h596.8"/>
	</g>
	<g>
		<g>
			<path fill="none" stroke="#EF6359" stroke-width="2" stroke-miterlimit="2" d="M104.5,237.1h596.8"/>
		</g>
		<g>
			<path fill="#5EA5D1" fill-opacity="0.5" d="M104.5,433.5l5.6-2.2l5.6,2.2l5.6-34.9l5.6-19.6l5.6,30.6l5.6-13.1l5.6-24l5.6,8.7
				l5.6-15.3l5.6-4.4l5.6-13.1l5.6-4.4l5.6,4.4l5.6,13.1l5.6,17.4l5.6-50.2l5.6,4.4l5.6-2.2l5.6,61.1l5.6,6.6l11.3,39.3h5.6
				l5.6-10.9l5.6-63.3l11.3,65.5l5.6-34.9l5.6,10.9l5.6,2.2l5.6-28.4l5.6-65.5l5.6,39.3l5.6-85.1l5.6,113.5l5.6,24l5.6,10.9l5.6-24
				l5.6-80.7l5.6,58.9l5.6,15.3l5.6,45.8l5.6-17.5l5.6-6.5l5.6-19.6l5.6-26.2l5.6-78.6l5.6,124.4l5.6-17.5l5.6,17.5l5.6-19.6l5.6-24
				l5.6-6.5l5.6,17.5l5.6,6.5l5.6,41.5l5.6-17.5l5.6-10.9l5.6-32.7l5.6-61.1l5.6-4.4l5.6-37.1l5.6,102.6l5.6,10.9l5.6-41.5l5.6-21.8
				l5.6,21.8h5.6l11.3,39.3h5.6l5.6-21.8l5.6,17.5l5.6-41.5l5.6,26.2l5.6,10.9l5.6,32.7l5.6-34.9l5.6-8.7l5.6-2.2l5.6-13.1l5.6-45.8
				l5.6,26.2l5.6,28.4l5.6,2.2l5.6-6.5l5.6,26.2L600,296l5.6,41.5l5.6,26.2l5.6-21.8l5.6,26.2l5.6-30.5l5.6,2.2l5.6-48l5.6,63.3
				l5.6-10.9l5.6,37.1l5.6,21.8l5.6-19.6l5.6,10.9l5.6-30.5l5.6,15.3l5.6,39.3l5.6-10.9l5.6,4.4v-17.5l-5.6-4.4l-5.6,10.9l-5.6-37.1
				l-5.6-21.8l-5.6,28.4l-5.6-13.1l-5.6,24l-5.6-26.2l-5.6-50.2l-5.6,24l-5.6-76.4l-5.6,48l-5.6-2.2l-5.6,37.1l-5.6-34.9l-5.6,28.4
				l-5.6-19.6l-5.6-48l-5.6,72l-5.6-34.9l-5.6,10.9l-5.6-6.6l-5.6-34.9l-5.6-17.4l-5.6,54.6l-5.6,6.5l-5.6,4.4l-5.6,10.9l-5.6,43.6
				l-5.6-41.5l-5.6-4.4l-5.6-30.5l-5.6,39.3l-5.6-21.8l-5.6,28.4l-5.6-2.2l-5.6-21.8l-5.6-13.1l-5.6-2.2l-5.6-39.3l-5.6,30.5
				l-5.6,50.2l-5.6-13.1l-5.6-117.8l-5.6,50.2h-5.6l-5.6,67.6l-5.6,43.6l-5.6,13.1l-5.6,24l-5.6-54.6l-5.6,2.2l-5.6-24h-5.6
				l-5.6,30.5l-5.6,24l-5.6-19.6l-5.6,17.5l-5.6-144l-5.6,96l-5.6,24l-5.6,28.4l-5.6,8.7l-5.6,19.6l-5.6-58.9l-5.6-8.7l-5.6-74.2
				l-5.6,91.6l-5.6,32.7l-5.6-13.1l-5.6-32.7L296,219.6l-5.6,111.3l-5.6-52.4l-5.6,72l-5.6,37.1l-5.6-2.2l-5.6-15.3l-5.6,45.8
				l-5.6-34.9l-5.6-39.3l-5.6,72l-5.6,10.9h-5.6l-5.6-21.8l-5.6-28.4h-5.6l-5.6-74.2l-5.6,2.2l-5.6-2.2l-5.6,61.1l-5.6-24l-5.6-15.3
				l-5.6-4.4l-5.6,4.4l-5.6,15.3l-5.6,8.7l-5.6,19.6L144,344l-5.6,28.4l-5.6,26.2l-5.6-37.1l-5.6,15.3l-5.6,43.6l-5.6-2.2l-5.6,4.4
				V433.5z"/>
			<path fill="none" stroke="#5EA5D1" stroke-width="2" stroke-miterlimit="2" d="M104.5,422.5l5.6-4.4l5.6,2.2l5.6-43.6l5.6-15.3
				l5.6,37.1l5.6-26.2L144,344l5.6,21.8l5.6-19.6l5.6-8.7l5.6-15.3l5.6-4.4l5.6,4.4l5.6,15.3l5.6,24l5.6-61.1l5.6,2.2l5.6-2.2
				l5.6,74.2h5.6l5.6,28.4l5.6,21.8h5.6l5.6-10.9l5.6-72l5.6,39.3l5.6,34.9l5.6-45.8l5.6,15.3l5.6,2.2l5.6-37.1l5.6-72l5.6,52.4
				l5.6-111.3l5.6,135.3l5.6,32.7l5.6,13.1l5.6-32.7l5.6-91.6l5.6,74.2l5.6,8.7l5.6,58.9l5.6-19.6l5.6-8.7l5.6-28.4l5.6-24l5.6-96
				l5.6,144l5.6-17.5l5.6,19.6l5.6-24l5.6-30.5h5.6l5.6,24l5.6-2.2l5.6,54.6l5.6-24l5.6-13.1l5.6-43.6l5.6-67.6h5.6l5.6-50.2
				l5.6,117.8l5.6,13.1l5.6-50.2l5.6-30.5l5.6,39.3l5.6,2.2l5.6,13.1l5.6,21.8l5.6,2.2l5.6-28.4l5.6,21.8l5.6-39.3l5.6,30.5l5.6,4.4
				l5.6,41.5l5.6-43.6l5.6-10.9l5.6-4.4l5.6-6.5l5.6-54.6l5.6,17.4l5.6,34.9l5.6,6.6l5.6-10.9l5.6,34.9l5.6-72l5.6,48l5.6,19.6
				l5.6-28.4l5.6,34.9l5.6-37.1l5.6,2.2l5.6-48l5.6,76.4l5.6-24l5.6,50.2l5.6,26.2l5.6-24l5.6,13.1l5.6-28.4l5.6,21.8l5.6,37.1
				l5.6-10.9l5.6,4.4"/>
		</g>
		<g>
			<path fill="none" stroke="#5EA5D1" stroke-width="2" stroke-miterlimit="2" d="M104.5,433.5l5.6-2.2l5.6,2.2l5.6-34.9l5.6-19.6
				l5.6,30.6l5.6-13.1l5.6-24l5.6,8.7l5.6-15.3l5.6-4.4l5.6-13.1l5.6-4.4l5.6,4.4l5.6,13.1l5.6,17.4l5.6-50.2l5.6,4.4l5.6-2.2
				l5.6,61.1l5.6,6.6l11.3,39.3h5.6l5.6-10.9l5.6-63.3l11.3,65.5l5.6-34.9l5.6,10.9l5.6,2.2l5.6-28.4l5.6-65.5l5.6,39.3l5.6-85.1
				l5.6,113.5l5.6,24l5.6,10.9l5.6-24l5.6-80.7l5.6,58.9l5.6,15.3l5.6,45.8l5.6-17.5l5.6-6.5l5.6-19.6l5.6-26.2l5.6-78.6l5.6,124.4
				l5.6-17.5l5.6,17.5l5.6-19.6l5.6-24l5.6-6.5l5.6,17.5l5.6,6.5l5.6,41.5l5.6-17.5l5.6-10.9l5.6-32.7l5.6-61.1l5.6-4.4l5.6-37.1
				l5.6,102.6l5.6,10.9l5.6-41.5l5.6-21.8l5.6,21.8h5.6l11.3,39.3h5.6l5.6-21.8l5.6,17.5l5.6-41.5l5.6,26.2l5.6,10.9l5.6,32.7
				l5.6-34.9l5.6-8.7l5.6-2.2l5.6-13.1l5.6-45.8l5.6,26.2l5.6,28.4l5.6,2.2l5.6-6.5l5.6,26.2L600,296l5.6,41.5l5.6,26.2l5.6-21.8
				l5.6,26.2l5.6-30.5l5.6,2.2l5.6-48l5.6,63.3l5.6-10.9l5.6,37.1l5.6,21.8l5.6-19.6l5.6,10.9l5.6-30.5l5.6,15.3l5.6,39.3l5.6-10.9
				l5.6,4.4"/>
		</g>
		<g>
			<path fill="none" stroke="#33D38E" stroke-width="2" stroke-miterlimit="2" d="M104.5,396.4h11.3l5.6-58.9l5.6-4.4l5.6,15.3
				l5.6-26.2l5.6,15.3l5.6,10.9l5.6-15.3l11.3-69.8l5.6,17.5l5.6-17.5l5.6,17.5l5.6,34.9l5.6-52.4l11.3-34.9l5.6,87.3l5.6,6.5
				l5.6,61.1l5.6,13.1h5.6l5.6-13.1l5.6-85.1l5.6,50.2l5.6,34.9l5.6-30.6l5.6,15.3h5.6l5.6-61.1l5.6-78.5l5.6,87.3l5.6-120
				l5.6,157.1l5.6,30.6l5.6,13.1l5.6-58.9l5.6-109.1l5.6,87.3l5.6,37.1l5.6,30.6h5.6l5.6-15.3l5.6-45.8l5.6-41.5l5.6-85.1l5.6,141.8
				l5.6,15.3h11.3l5.6-30.5l5.6-41.5l5.6,52.4l5.6,19.6l5.6,43.6l11.3-58.9l5.6-30.6l5.6-111.3l5.6,50.2l5.6-50.2l5.6,111.3
				l16.9-45.8l5.6-50.2l5.6,69.8l5.6-4.4l5.6,15.3h5.6h5.6l5.6-15.3l5.6-13.1l5.6-17.4l5.6,61.1l5.6,15.3h5.6l5.6-15.3l5.6-30.5
				l5.6-48l5.6-17.4l5.6,50.2h16.9l5.6,15.3l5.6-30.5h5.6l5.6,15.3h5.6l11.3,30.5l5.6-15.3l5.6-65.4l5.6,69.8l5.6,10.9l5.6,15.3
				l5.6,30.6l5.6-30.6l5.6,15.3l5.6-24l5.6,50.2l5.6,19.6h5.6l5.6,15.3"/>
		</g>
		<g>
			<path fill="none" stroke="#F2BC36" stroke-width="2" stroke-miterlimit="2" d="M104.5,466.2l5.6-8.7l5.6,4.4l5.6-17.5l5.6-6.5
				l5.6,15.3l5.6-17.5h5.6l5.6,10.9l5.6-2.2l5.6-26.2l5.6,6.5l5.6-15.3l5.6,15.3l5.6,2.2l5.6,6.5l5.6-17.5l5.6-15.3l5.6,2.2
				l5.6,32.7l5.6,8.7l11.3,13.1l5.6-2.2l5.6-2.2l5.6-28.4l5.6,19.6l5.6,8.7l5.6-6.5l5.6,6.5l5.6-2.2l5.6-24l5.6-8.7l5.6,21.8
				l5.6-45.8l5.6,54.6l5.6,15.3l5.6-4.4l5.6-15.3l5.6-37.1l5.6,37.1h5.6l5.6,17.5h5.6l5.6-10.9l5.6-21.8l5.6,6.5l5.6-34.9l5.6,48
				l5.6,4.4l5.6-2.2l5.6-6.6l5.6,2.2l5.6-37.1l5.6,39.3h5.6l5.6,10.9l5.6-13.1l5.6,4.4l5.6-8.7l5.6-50.2l5.6,8.7l5.6,8.7l5.6,10.9
				l5.6,15.3l5.6-8.7l5.6-6.6l5.6-34.9l5.6,48l5.6-10.9l5.6,10.9l5.6-8.7l5.6,6.5l5.6-10.9l5.6-2.2l5.6,4.4l5.6,15.3l5.6-2.2
				l5.6,8.7l5.6-6.5l5.6-19.6l5.6-26.2l5.6,10.9l5.6,2.2l5.6,17.5l5.6-4.4l5.6-6.5l5.6,2.2l5.6-17.5l5.6,21.8l5.6-10.9l5.6-2.2
				l5.6,26.2h5.6l5.6-10.9l5.6-6.5l5.6,4.4l5.6,19.6l5.6-6.6h5.6l5.6,4.4h5.6h5.6l5.6,17.5l5.6,4.4l5.6-2.2l5.6-2.2"/>
		</g>
	</g>
	<path fill="none" stroke="#444444" d="M103.4,485h599.1 M103.4,100h599.1"/>
	<path fill="none" stroke="#444444" d="M104,100.5v384 M701.9,100.5v384"/>
	<g transform="translate(80,100)">
		<path stroke="#444444" d="M51,384.5v-5 M51,0.5v5"/>
		<path stroke="#444444" d="M129.9,384.5v-5 M129.9,0.5v5"/>
		<path stroke="#444444" d="M208.7,384.5v-5 M208.7,0.5v5"/>
		<path stroke="#444444" d="M287.5,384.5v-5 M287.5,0.5v5"/>
		<path stroke="#444444" d="M366.4,384.5v-5 M366.4,0.5v5"/>
		<path stroke="#444444" d="M445.2,384.5v-5 M445.2,0.5v5"/>
		<path stroke="#444444" d="M524,384.5v-5 M524,0.5v5"/>
		<path stroke="#444444" d="M602.8,384.5v-5 M602.8,0.5v5"/>
		<g>
			<text transform="matrix(1.1261 0 0 1 37.0561 397.5)" fill="#444444" font-family="'OpenSans'" font-size="10">Apr 6</text>
			<text transform="matrix(1.1261 0 0 1 38.1724 410.5)" fill="#444444" font-family="'OpenSans'" font-size="10">2014</text>
		</g>
		<g>
			<text transform="matrix(1.1261 0 0 1 112.6641 397.5)" fill="#444444" font-family="'OpenSans'" font-size="10">Apr 20</text>
		</g>
		<g>
			<text transform="matrix(1.1261 0 0 1 192.9697 397.5)" fill="#444444" font-family="'OpenSans'" font-size="10">May 4</text>
		</g>
		<g>
			<text transform="matrix(1.1261 0 0 1 268.5771 397.5)" fill="#444444" font-family="'OpenSans'" font-size="10">May 18</text>
		</g>
		<g>
			<text transform="matrix(1.1261 0 0 1 353.2607 397.5)" fill="#444444" font-family="'OpenSans'" font-size="10">Jun 1</text>
		</g>
		<g>
			<text transform="matrix(1.1261 0 0 1 428.8682 397.5)" fill="#444444" font-family="'OpenSans'" font-size="10">Jun 15</text>
		</g>
		<g>
			<text transform="matrix(1.1261 0 0 1 507.6953 397.5)" fill="#444444" font-family="'OpenSans'" font-size="10">Jun 29</text>
		</g>
		<g>
			<text transform="matrix(1.1261 0 0 1 588.5537 397.5)" fill="#444444" font-family="'OpenSans'" font-size="10">Jul 13</text>
		</g>
	</g>
	<g transform="translate(80,100)">
		<path stroke="#444444" d="M24.5,284.1h5.6 M621.4,284.1h-5.6"/>
		<path stroke="#444444" d="M24.5,175h5.6 M621.4,175h-5.6"/>
		<path stroke="#444444" d="M24.5,65.9h5.6 M621.4,65.9h-5.6"/>
		<g>
			<text transform="matrix(1.1261 0 0 1 8.2861 289.1299)" fill="#444444" font-family="'OpenSans'" font-size="10">50</text>
		</g>
		<g>
			<text transform="matrix(1.1261 0 0 1 1.8472 180.0303)" fill="#444444" font-family="'OpenSans'" font-size="10">100</text>
		</g>
		<g>
			<text transform="matrix(1.1261 0 0 1 1.8472 70.9404)" fill="#444444" font-family="'OpenSans'" font-size="10">150</text>
		</g>
	</g>
</g>
<g>
	<rect x="713" y="105.9" fill="#FFFFFF" width="271" height="105"/>
	<g transform="translate(0,14.5)">
		<g>
			<path fill="none" stroke="#E6E600" stroke-width="2" d="M718,105.9h30"/>
		</g>
		<text transform="matrix(1 0 0 1 753 110.57)" fill="#444444" font-family="'OpenSans'" font-size="12">Budget Product Lowest Price Offered</text>
		<rect x="713" y="96.4" pointer-events="all" fill-opacity="0" width="265.1" height="19"/>
	</g>
	<g transform="translate(0,33.5)">
		<g>
			<path fill="none" stroke="#66FF66" stroke-width="2" d="M718,105.9h30"/>
		</g>
		<text transform="matrix(1 0 0 1 753 110.57)" fill="#444444" font-family="'OpenSans'" font-size="12">Adventure Product Lowest Price Offered</text>
		<rect x="713" y="96.4" pointer-events="all" fill-opacity="0" width="265.1" height="19"/>
	</g>
	<g transform="translate(0,52.5)">
		<g>
			<path fill="#5EA5D1" fill-opacity="0.5" d="M718,105.9h30v6h-30V105.9z"/>
		</g>
		<g>
			<path fill="none" stroke="#5EA5D1" stroke-width="2" d="M718,105.9h30"/>
		</g>
		<text transform="matrix(1 0 0 1 753 110.57)" fill="#444444" font-family="'OpenSans'" font-size="12">Core Product Starting Price</text>
		<rect x="713" y="96.4" pointer-events="all" fill-opacity="0" width="265.1" height="19"/>
	</g>
	<g transform="translate(0,71.5)">
		<g>
			<path fill="none" stroke="#5EA5D1" stroke-width="2" d="M718,105.9h30"/>
		</g>
		<text transform="matrix(1 0 0 1 753 110.57)" fill="#444444" font-family="'OpenSans'" font-size="12">Core ProductHighest Price Offered</text>
		<rect x="713" y="96.4" pointer-events="all" fill-opacity="0" width="265.1" height="19"/>
	</g>
	<g transform="translate(0,90.5)">
		<g>
			<path fill="none" stroke="#FF9966" stroke-width="2" d="M718,105.9h30"/>
		</g>
		<text transform="matrix(1 0 0 1 753 110.57)" fill="#444444" font-family="'OpenSans'" font-size="12">Core Product Walkup Price</text>
		<rect x="713" y="96.4" pointer-events="all" fill-opacity="0" width="265.1" height="19"/>
	</g>
</g>
<g>
	<text transform="matrix(1 0 0 1 291.3115 83.5643)" fill="#262626" font-family="'OpenSans'" font-size="12">Previous Min and Max Prices</text>
</g>
<g>
	
		<text transform="matrix(6.123234e-17 -1 1 6.123234e-17 35.541 338.2158)" fill="#262626" font-family="'OpenSans'" font-size="11">Price</text>
</g>
<g>
	<text transform="matrix(1 0 0 1 307.4263 534)" fill="#262626" font-family="'OpenSans'" font-size="11">Trip Date</text>
</g>
</svg>
