<?xml version="1.0" encoding="utf-8"?>
<!-- Generator: Adobe Illustrator 18.0.0, SVG Export Plug-In . SVG Version: 6.00 Build 0)  -->
<!DOCTYPE svg PUBLIC "-//W3C//DTD SVG 1.1//EN" "http://www.w3.org/Graphics/SVG/1.1/DTD/svg11.dtd">
<svg version="1.1" id="Layer_1" xmlns="http://www.w3.org/2000/svg" xmlns:xlink="http://www.w3.org/1999/xlink" x="0px" y="0px"
	 viewBox="-0.9 17.3 841.5 524.1" enable-background="new -0.9 17.3 841.5 524.1" xml:space="preserve">
<rect x="0" y="17.3" fill="#FFFFFF" width="840" height="522.9"/>
<g>
	<g transform="translate(109.2,47.24999999999997)">
	</g>
</g>
<g>
	<g transform="translate(109.2,47.24999999999997)">
	</g>
	<g transform="translate(109.2,47.24999999999997)">
	</g>
	<g>
		<g>
			<path fill="none" stroke="#0074D9" stroke-width="2" stroke-miterlimit="2" d="M4.2,506.8L28,535.7l23.8-144.5l23.8-53l23.8-74.7
				l23.8,33.7l23.8-4.8l23.8-31.3l23.8-4.8l23.8,178.2l23.8,21.7l23.8-36.1L290,449l23.8-74.7l23.8,14.4l23.8-72.3l23.8-93.9
				l23.8,156.5l23.8-36.1l23.8-168.6l23.8-146.9l23.8,238.4l23.8-74.7H552l23.8-144.5L599.7,160l23.8,12l23.8,308.3l23.8-28.9
				L695,514l23.8-62.6l23.8-16.9l23.8-14.4l23.8,12l23.8,9.6l23.8-86.7"/>
			<g>
				<path fill="#0074D9" d="M9.3,507c0,2.5-2.3,4.5-5,4.5s-5-2-5-4.5s2.3-4.5,5-4.5S9.3,504.5,9.3,507z"/>
				<path fill="#0074D9" d="M32.7,535.7c0,2.5-2.3,4.5-5,4.5s-5-2-5-4.5s2.3-4.5,5-4.5S32.7,533.2,32.7,535.7z"/>
				<path fill="#0074D9" d="M58.1,392c0,2.5-2.3,4.5-5,4.5s-5-2-5-4.5s2.3-4.5,5-4.5S58.1,389.6,58.1,392z"/>
				<path fill="#0074D9" d="M81.5,339.4c0,2.5-2.3,4.5-5,4.5s-5-2-5-4.5s2.3-4.5,5-4.5S81.5,336.9,81.5,339.4z"/>
				<path fill="#0074D9" d="M105.9,265.2c0,2.5-2.3,4.5-5,4.5s-5-2-5-4.5s2.3-4.5,5-4.5S105.9,262.7,105.9,265.2z"/>
				<path fill="#0074D9" d="M129.4,298.7c0,2.5-2.3,4.5-5,4.5s-5-2-5-4.5c0-2.5,2.3-4.5,5-4.5S129.4,296.2,129.4,298.7z"/>
				<path fill="#0074D9" d="M151.8,293.9c0,2.5-2.3,4.5-5,4.5s-5-2-5-4.5s2.3-4.5,5-4.5S151.8,291.4,151.8,293.9z"/>
				<path fill="#0074D9" d="M177.2,262.8c0,2.5-2.3,4.5-5,4.5s-5-2-5-4.5s2.3-4.5,5-4.5S177.2,260.3,177.2,262.8z"/>
				<path fill="#0074D9" d="M199.6,258c0,2.5-2.3,4.5-5,4.5s-5-2-5-4.5s2.3-4.5,5-4.5S199.6,255.5,199.6,258z"/>
				<path fill="#0074D9" d="M226,435.1c0,2.5-2.3,4.5-5,4.5s-5-2-5-4.5c0-2.5,2.3-4.5,5-4.5S226,432.6,226,435.1z"/>
				<path fill="#0074D9" d="M247.5,456.7c0,2.5-2.3,4.5-5,4.5s-5-2-5-4.5s2.3-4.5,5-4.5S247.5,454.2,247.5,456.7z"/>
				<path fill="#0074D9" d="M271.9,420.8c0,2.5-2.3,4.5-5,4.5c-2.8,0-5-2-5-4.5s2.3-4.5,5-4.5C269.6,416.3,271.9,418.3,271.9,420.8z
					"/>
				<path fill="#0074D9" d="M295.3,449.5c0,2.5-2.3,4.5-5,4.5c-2.8,0-5-2-5-4.5s2.3-4.5,5-4.5C293,445,295.3,447,295.3,449.5z"/>
				<path fill="#0074D9" d="M320.7,375.3c0,2.5-2.3,4.5-5,4.5c-2.8,0-5-2-5-4.5s2.3-4.5,5-4.5C318.5,370.8,320.7,372.8,320.7,375.3z
					"/>
				<path fill="#0074D9" d="M343.1,389.7c0,2.5-2.3,4.5-5,4.5c-2.8,0-5-2-5-4.5s2.3-4.5,5-4.5C340.9,385.1,343.1,387.2,343.1,389.7z
					"/>
				<path fill="#0074D9" d="M366.6,317.8c0,2.5-2.3,4.5-5,4.5c-2.8,0-5-2-5-4.5s2.3-4.5,5-4.5C364.3,313.3,366.6,315.3,366.6,317.8z
					"/>
				<path fill="#0074D9" d="M390,224.5c0,2.5-2.3,4.5-5,4.5c-2.8,0-5-2-5-4.5c0-2.5,2.3-4.5,5-4.5C387.7,219.9,390,222,390,224.5z"
					/>
				<path fill="#0074D9" d="M414.4,380.1c0,2.5-2.3,4.5-5,4.5c-2.8,0-5-2-5-4.5c0-2.5,2.3-4.5,5-4.5
					C412.1,375.6,414.4,377.6,414.4,380.1z"/>
				<path fill="#0074D9" d="M437.8,344.2c0,2.5-2.3,4.5-5,4.5c-2.8,0-5-2-5-4.5s2.3-4.5,5-4.5C435.6,339.6,437.8,341.7,437.8,344.2z
					"/>
				<path fill="#0074D9" d="M462.2,176.6c0,2.5-2.3,4.5-5,4.5c-2.8,0-5-2-5-4.5s2.3-4.5,5-4.5C460,172.1,462.2,174.1,462.2,176.6z"
					/>
				<path fill="#0074D9" d="M485.7,30.6c0,2.5-2.3,4.5-5,4.5c-2.8,0-5-2-5-4.5s2.3-4.5,5-4.5C483.4,26,485.7,28.1,485.7,30.6z"/>
				<path fill="#0074D9" d="M511.1,266.6c0,2.5-2.3,4.5-5,4.5c-2.8,0-5-2-5-4.5s2.3-4.5,5-4.5C508.8,262,511.1,264.1,511.1,266.6z"
					/>
				<path fill="#0074D9" d="M534.5,192.3c0,2.5-2.3,4.5-5,4.5c-2.8,0-5-2-5-4.5c0-2.5,2.3-4.5,5-4.5
					C532.2,187.8,534.5,189.8,534.5,192.3z"/>
				<path fill="#0074D9" d="M555.9,192.3c0,2.5-2.3,4.5-5,4.5c-2.8,0-5-2-5-4.5c0-2.5,2.3-4.5,5-4.5
					C553.7,187.8,555.9,189.8,555.9,192.3z"/>
				<path fill="#0074D9" d="M581.3,49.7c0,2.5-2.3,4.5-5,4.5c-2.8,0-5-2-5-4.5c0-2.5,2.3-4.5,5-4.5
					C579.1,45.2,581.3,47.2,581.3,49.7z"/>
				<path fill="#0074D9" d="M606.8,161.2c0,2.5-2.3,4.5-5,4.5c-2.8,0-5-2-5-4.5c0-2.5,2.3-4.5,5-4.5
					C604.5,156.7,606.8,158.7,606.8,161.2z"/>
				<path fill="#0074D9" d="M627.2,173.2c0,2.5-2.3,4.5-5,4.5c-2.8,0-5-2-5-4.5s2.3-4.5,5-4.5C624.9,168.7,627.2,170.7,627.2,173.2z
					"/>
				<path fill="#0074D9" d="M652.6,480.6c0,2.5-2.3,4.5-5,4.5c-2.8,0-5-2-5-4.5s2.3-4.5,5-4.5C650.3,476.1,652.6,478.1,652.6,480.6z
					"/>
				<path fill="#0074D9" d="M675,451.9c0,2.5-2.3,4.5-5,4.5c-2.8,0-5-2-5-4.5s2.3-4.5,5-4.5C672.8,447.4,675,449.4,675,451.9z"/>
				<path fill="#0074D9" d="M700.4,514.1c0,2.5-2.3,4.5-5,4.5c-2.8,0-5-2-5-4.5c0-2.5,2.3-4.5,5-4.5
					C698.2,509.6,700.4,511.6,700.4,514.1z"/>
				<path fill="#0074D9" d="M724.9,451.9c0,2.5-2.3,4.5-5,4.5c-2.8,0-5-2-5-4.5s2.3-4.5,5-4.5C722.6,447.4,724.9,449.4,724.9,451.9z
					"/>
				<path fill="#0074D9" d="M748.3,435.1c0,2.5-2.3,4.5-5,4.5s-5-2-5-4.5c0-2.5,2.3-4.5,5-4.5S748.3,432.6,748.3,435.1z"/>
				<path fill="#0074D9" d="M771.7,420.8c0,2.5-2.3,4.5-5,4.5c-2.8,0-5-2-5-4.5s2.3-4.5,5-4.5C769.4,416.3,771.7,418.3,771.7,420.8z
					"/>
				<path fill="#0074D9" d="M795.1,432.7c0,2.5-2.3,4.5-5,4.5s-5-2-5-4.5c0-2.5,2.3-4.5,5-4.5S795.1,430.2,795.1,432.7z"/>
				<path fill="#0074D9" d="M818.5,442.3c0,2.5-2.3,4.5-5,4.5s-5-2-5-4.5c0-2.5,2.3-4.5,5-4.5S818.5,439.8,818.5,442.3z"/>
				<path fill="#0074D9" d="M844,356.1c0,2.5-2.3,4.5-5,4.5s-5-2-5-4.5s2.3-4.5,5-4.5S844,353.6,844,356.1z"/>
			</g>
		</g>
		<g>
			<g>
				<path opacity="0.5" fill="none" stroke="#FF4136" stroke-width="3" stroke-miterlimit="2" enable-background="new    " d="
					M35.2,535.7c0,3.7-3.4,6.8-7.6,6.8s-7.6-3-7.6-6.8c0-3.7,3.4-6.8,7.6-6.8S35.2,531.9,35.2,535.7z"/>
				<path opacity="0.5" fill="none" stroke="#FF4136" stroke-width="3" stroke-miterlimit="2" enable-background="new    " d="
					M488.2,30.6c0,3.7-3.4,6.8-7.6,6.8s-7.6-3-7.6-6.8c0-3.7,3.4-6.8,7.6-6.8S488.2,26.8,488.2,30.6z"/>
				<path opacity="0.5" fill="none" stroke="#FF4136" stroke-width="3" stroke-miterlimit="2" enable-background="new    " d="
					M537,192.3c0,3.7-3.4,6.8-7.6,6.8c-4.2,0-7.6-3-7.6-6.8c0-3.7,3.4-6.8,7.6-6.8C533.6,185.6,537,188.6,537,192.3z"/>
				<path opacity="0.5" fill="none" stroke="#FF4136" stroke-width="3" stroke-miterlimit="2" enable-background="new    " d="
					M558.4,192.3c0,3.7-3.4,6.8-7.6,6.8c-4.2,0-7.6-3-7.6-6.8c0-3.7,3.4-6.8,7.6-6.8C555.1,185.6,558.4,188.6,558.4,192.3z"/>
				<path opacity="0.5" fill="none" stroke="#FF4136" stroke-width="3" stroke-miterlimit="2" enable-background="new    " d="
					M583.9,49.7c0,3.7-3.4,6.8-7.6,6.8c-4.2,0-7.6-3-7.6-6.8s3.4-6.8,7.6-6.8C580.5,42.9,583.9,46,583.9,49.7z"/>
				<path opacity="0.5" fill="none" stroke="#FF4136" stroke-width="3" stroke-miterlimit="2" enable-background="new    " d="
					M609.3,161.2c0,3.7-3.4,6.8-7.6,6.8c-4.2,0-7.6-3-7.6-6.8c0-3.7,3.4-6.8,7.6-6.8C605.9,154.5,609.3,157.5,609.3,161.2z"/>
				<path opacity="0.5" fill="none" stroke="#FF4136" stroke-width="3" stroke-miterlimit="2" enable-background="new    " d="
					M629.7,173.2c0,3.7-3.4,6.8-7.6,6.8c-4.2,0-7.6-3-7.6-6.8c0-3.7,3.4-6.8,7.6-6.8C626.3,166.4,629.7,169.5,629.7,173.2z"/>
			</g>
		</g>
		<g>
			<path fill="none" stroke="#85144B" stroke-width="2" stroke-miterlimit="2" d="M-0.9,338.3h840"/>
		</g>
		<g>
			<path fill="none" stroke="#FF851B" stroke-width="2" stroke-miterlimit="2" d="M-0.9,525.4h840"/>
			<path fill="none" stroke="#FF851B" stroke-width="2" stroke-miterlimit="2" d="M-0.9,151.3h840"/>
		</g>
	</g>
</g>
<g>
	<rect x="708" y="33.5" fill="#FFFFFF" fill-opacity="0.5" width="95" height="86"/>
	<g transform="translate(0,14.5)">
		<g>
			<path fill="none" stroke="#0074D9" stroke-width="2" d="M713,33.5h30"/>
		</g>
		<g>
			<g>
				<path fill="#0074D9" d="M732,33.5c0,2.2-1.8,4-4,4s-4-1.8-4-4s1.8-4,4-4S732,31.2,732,33.5z"/>
			</g>
		</g>
		<text transform="matrix(1 0 0 1 748 38.1302)" fill="#444444" font-family="'OpenSans'" font-size="12">Data</text>
		<rect x="708" y="24" pointer-events="all" fill-opacity="0" width="89" height="19"/>
	</g>
	<g transform="translate(0,33.5)">
		<g>
			<g>
				<path opacity="0.5" fill="none" stroke="#FF4136" stroke-width="3" enable-background="new    " d="M734,33.5c0,3.3-2.7,6-6,6
					s-6-2.7-6-6s2.7-6,6-6S734,30.1,734,33.5z"/>
			</g>
		</g>
		<text transform="matrix(1 0 0 1 748 38.1302)" fill="#444444" font-family="'OpenSans'" font-size="12">Violation</text>
		<rect x="708" y="24" pointer-events="all" fill-opacity="0" width="89" height="19"/>
	</g>
	<g transform="translate(0,52.5)">
		<g>
			<path fill="none" stroke="#85144B" stroke-width="2" d="M713,33.5h30"/>
		</g>
		<text transform="matrix(1 0 0 1 748 38.1302)" fill="#444444" font-family="'OpenSans'" font-size="12">Center</text>
		<rect x="708" y="24" pointer-events="all" fill-opacity="0" width="89" height="19"/>
	</g>
	<g transform="translate(0,71.5)">
		<g>
			<path fill="none" stroke="#FF851B" stroke-width="2" d="M713,33.5h30"/>
		</g>
		<text transform="matrix(1 0 0 1 748 38.1302)" fill="#444444" font-family="'OpenSans'" font-size="12">LCL/UCL</text>
		<rect x="708" y="24" pointer-events="all" fill-opacity="0" width="89" height="19"/>
	</g>
</g>
</svg>
