<?xml version="1.0" encoding="utf-8"?>
<!-- Generator: Adobe Illustrator 18.0.0, SVG Export Plug-In . SVG Version: 6.00 Build 0)  -->
<!DOCTYPE svg PUBLIC "-//W3C//DTD SVG 1.1//EN" "http://www.w3.org/Graphics/SVG/1.1/DTD/svg11.dtd">
<svg version="1.1" id="Layer_1" xmlns="http://www.w3.org/2000/svg" xmlns:xlink="http://www.w3.org/1999/xlink" x="0px" y="0px"
	 viewBox="78.5 279.1 554.5 338.6" enable-background="new 78.5 279.1 554.5 338.6" xml:space="preserve">
<rect y="39" fill="#FFFFFF" width="734" height="736"/>
<g>
	<g transform="translate(80,100)">
	</g>
</g>
<g>
	<rect x="80" y="225" fill="#FFFFFF" width="553" height="395.6"/>
	<g transform="translate(80,100)">
		<path stroke="#DDDDDD" d="M0,474.4h553"/>
		<path stroke="#DDDDDD" d="M0,400.4h553"/>
		<path stroke="#DDDDDD" d="M0,326.4h553"/>
		<path stroke="#DDDDDD" d="M0,252.4h553"/>
		<path stroke="#DDDDDD" d="M0,178.3h553"/>
	</g>
	<g transform="translate(80,100)">
	</g>
	<g>
		<g>
			<path fill="none" stroke="#D62728" stroke-miterlimit="2" d="M80,505.5c11.8-3.7,20.2-4.8,25.1-3.5c10,2.8,17.4,15.7,25.1,25.6
				c9.4,12,17.5,42.5,25.1,42.2c9.6-0.5,13.7-68.4,25.1-69.9c7.2-1,15.4,20.5,25.1,22.8c7.6,1.8,17.8-0.4,25.1-4.2
				c10.6-5.5,16.7-31.8,25.1-31.9c8.3,0,17.3,31.5,25.1,31.1c9.2-0.4,14-43.4,25.1-45.7c7.2-1.5,16.3,10.5,25.1,11.7
				c8,1.1,17.6-5.4,25.1-3.5c9.7,2.5,15.5,20.6,25.1,22.8c7.6,1.7,17.5-6.5,25.1-4.9c9.5,2,17.5,12.9,25.1,21.4
				c9.4,10.4,15.5,36.3,25.1,37.3c7.6,0.8,17-12,25.1-18.7c8.6-7.1,17.8-23.7,25.1-22.9c10.5,1.2,16.6,55.2,25.1,55.3
				c8.2,0.1,15.3-50.4,25.1-51.2c7.5-0.6,17.2,17,25.1,27c9,11.3,14.7,35.4,25.1,37.3c4.9,0.9,13.3-3,25.1-11.8"/>
		</g>
		<g>
			<path fill="none" stroke="#02BFBF" stroke-miterlimit="2" d="M80,540.8c11.3-3.8,19.6-6.8,25.1-9c8.5-3.5,16.9-12,25.1-11.8
				c8.6,0.3,16.2,13.2,25.1,14.5c7.9,1.2,16.8-5,25.1-4.9c8.4,0.1,16.7,4.2,25.1,5.5c8.3,1.2,17.2,3.7,25.1,2
				c9-1.8,16.9-9.5,25.1-14.6c8.5-5.3,17.1-17,25.1-16.6c8.7,0.4,16.2,15.8,25.1,22.1c8,5.7,17.1,14.9,25.1,14.5
				c8.8-0.5,16.9-13.2,25.1-20.1c8.5-7.1,16.8-22.2,25.1-22.2c8.4,0,16.2,15.8,25.1,22.1c8,5.7,16.6,14.3,25.1,14.5
				c8.3,0.2,16.9-8.1,25.1-12.5c8.5-4.6,16.5-10.4,25.1-14.5c8.1-3.9,16.4-8,25.1-9.7c8.1-1.6,16.8-1.3,25.1-0.7
				c8.4,0.6,17.6,6.1,25.1,4.1c9.9-2.6,16.1-24.3,25.1-24.9c7.9-0.6,16,14.1,25.1,15.9c5.2,1,13.6-0.2,25.1-3.5"/>
		</g>
		<g>
			<path fill="none" stroke="#FF7F0E" stroke-miterlimit="2" d="M80,520.8c11.9,2.3,20.3,2.5,25.1,0.7c10.6-4,14.6-27.7,25.1-31.2
				c7.3-2.4,17.6,4.8,25.1,2.7c9.8-2.7,16-22.7,25.1-23.6c7.8-0.8,16.8,13.1,25.1,13.1c8.4,0,16.9-13.4,25.1-13.2
				c8.5,0.2,16.5,14.7,25.1,15.2c8.1,0.5,17.2-5.9,25.1-10.4c9-5.1,16.1-18.4,25.1-19.4c7.9-0.9,17.1,10.2,25.1,9.6
				c8.7-0.6,17.1-15.7,25.1-15.3c8.8,0.5,16,20.4,25.1,21.4c7.8,0.8,16.8-11.2,25.1-11.1c8.5,0.1,16.4,11.6,25.1,12.4
				c8.1,0.8,17.2-7.3,25.1-6.3c9,1.2,16.4,15.4,25.1,15.9c8.1,0.5,16.4-8.9,25.1-11.1c8-2,17.7,1,25.1-2.1
				c10-4.2,15.1-22.3,25.1-25.6c7.5-2.4,16.9,2.1,25.1,1.4c8.5-0.8,16.7-5.7,25.1-6.3c5.5-0.4,13.9,0.6,25.1,2.7"/>
		</g>
		<g>
			<path fill="none" stroke="#0E0EFF" stroke-miterlimit="2" d="M80,514.5c11.2,6,19.6,8.9,25.1,8.9c8.4,0,17.3-4.8,25.1-9
				c9.2-5,15.6-17.9,25.1-20.1c7.7-1.8,17.5,5.3,25.1,3.4c9.6-2.4,16.2-20.8,25.1-21.5c7.9-0.6,16.2,12.4,25.1,13.8
				c7.9,1.2,16.7-3,25.1-4.2c8.3-1.2,16.7-2.2,25.1-2.8c8.3-0.6,16.8-1.4,25.1-0.7c8.5,0.7,17.4,6.3,25.1,4.8
				c9.3-1.8,16.1-13.8,25.1-18.7c7.9-4.3,16.6-7,25.1-9.7c8.2-2.6,17.4-2.7,25.1-6.3c9.3-4.3,17.5-11.6,25.1-19.4
				c9.5-9.7,16.1-24.9,25.1-35.3c7.9-9.1,15.9-17.9,25.1-24.2c7.8-5.4,16.3-10.1,25.1-12.5c8-2.1,17.8,1.1,25.1-2.1
				c10.3-4.5,16.8-18.9,25.1-28.4c8.4-9.6,16.1-20.7,25.1-29.1c7.8-7.2,16.7-12.6,25.1-18.7c5.6-4.1,13.9-10.1,25.1-18"/>
		</g>
		<g>
			<path fill="none" stroke="#0C343D" stroke-miterlimit="2" d="M80,510.7c11.1,6.7,19.5,10.1,25.1,10.3c8.3,0.3,17.3-9.3,25.1-8.3
				c9.1,1.2,16.8,12.3,25.1,18.6c8.4,6.4,16,18.2,25.1,19.3c7.8,1,17.1-5.2,25.1-9c8.8-4.1,16.8-15.2,25.1-15.2
				c8.4,0,16.7,10.2,25.1,15.2c8.3,4.9,16.1,12.5,25.1,14.5c7.9,1.7,17.4,1.1,25.1-1.4c9.3-3,16.1-17,25.1-18
				c7.9-0.9,16.9,5.6,25.1,9c8.5,3.5,16.3,9.2,25.1,11.7c8,2.3,17,1.3,25.1,3.4c8.7,2.3,16.4,8.9,25.1,10.3c8.1,1.3,17.2-3,25.1-1.4
				c8.9,1.8,16.4,9.8,25.1,13.1c8,3,16.6,5.1,25.1,6.2c8.2,1.1,17.1-1,25.1,0.7c8.8,1.8,17.2,6,25.1,10.3
				c8.9,4.9,16.3,17.2,25.1,17.9c8,0.6,16.8-11.2,25.1-11.1c5.6,0.1,14,4.2,25.1,12.4"/>
		</g>
		<g>
			<path fill="#E5E5E5" fill-opacity="0.4" d="M80,530c11.3-24.4,19.7-36.5,25.1-36.4c8.7,0.1,16.3,28.9,25.1,42
				c8,12,17.5,34.1,25.1,33.7c9.5-0.5,13.5-44.3,25.1-56.3c7.1-7.3,17.5-8.1,25.1-14.4c9.6-7.9,14.6-27.8,25.1-30.9
				c7.3-2.2,17.4,5.7,25.1,4.2c9.3-1.8,16.6-17.6,25.1-17.8c8.2-0.2,17.7,16.3,25.1,15.2c10.2-1.5,13.8-33.4,25.1-39.8
				c7.2-4.1,17.3-1.2,25.1-4.1c9.1-3.3,17.3-16.4,25.1-15.8c9.1,0.7,15.4,23.7,25.1,25.5c7.6,1.4,18-10.2,25.1-8.2
				c12.1,3.4,16.4,51.4,25.1,51.6c8,0.2,16.1-29.3,25.1-41.9c7.9-10.9,17.6-17.8,25.1-29.5c9.9-15.5,12.3-52.1,25.1-56.3
				c7-2.3,18.2,8.7,25.1,6.2c14.6-5.3,13-74.4,25.1-76.3c7.1-1.1,16.1,15.2,25.1,20.6c5.2,3.2,13.6,6.8,25.1,11v27.5
				c-11.5,23.1-19.9,34.6-25.1,34.4c-9.1-0.4-17.7-49.2-25.1-48.8c-10,0.5-9.2,83.5-25.1,90c-6.9,2.9-18-7.2-25.1-4.8
				c-11.6,3.8-16.5,29-25.1,42.6c-8.1,12.9-17.1,23.9-25.1,37.1c-8.8,14.6-16.9,46.8-25.1,46.7c-8.5-0.1-13.2-46.9-25.1-50.2
				c-7.1-2-17.6,9.6-25.1,8.2c-9.8-1.8-16-25.3-25.1-26.2c-7.8-0.7-16.2,11.6-25.1,15.1c-7.9,3.1-17.9,1.1-25.1,5.4
				c-11.1,6.7-15,37-25.1,38.5c-7.4,1.1-16.9-15.3-25.1-15.2c-8.5,0.2-15.9,15-25.1,17.1c-7.8,1.8-17.6-4.2-25.1-2.1
				c-9.6,2.6-15.9,16.1-25.1,21.3c-7.8,4.3-18.1,3-25.1,8.9c-13.1,11-16.1,63-25.1,63.2c-7.9,0.2-15.2-34.3-25.1-46.8
				c-7.5-9.4-16.6-22.6-25.1-22.7c-5.5-0.1-13.9,6.8-25.1,20.6V530z"/>
			<path fill="none" stroke="#E5E5E5" stroke-miterlimit="2" d="M80,571.9c11.3-13.8,19.6-20.7,25.1-20.6
				c8.5,0.1,17.7,13.3,25.1,22.7c9.9,12.4,17.2,47,25.1,46.8c9-0.3,12.1-52.2,25.1-63.2c7-5.9,17.4-4.6,25.1-8.9
				c9.3-5.2,15.5-18.7,25.1-21.3c7.6-2.1,17.4,3.9,25.1,2.1c9.3-2.2,16.6-17,25.1-17.1c8.3-0.2,17.7,16.2,25.1,15.2
				c10.1-1.4,14-31.7,25.1-38.5c7.2-4.4,17.2-2.4,25.1-5.4c9-3.5,17.3-15.8,25.1-15.1c9.2,0.8,15.4,24.3,25.1,26.2
				c7.6,1.4,18-10.2,25.1-8.2c12,3.3,16.6,50.2,25.1,50.2c8.2,0.1,16.3-32.1,25.1-46.7c8-13.2,17-24.2,25.1-37.1
				c8.6-13.6,13.5-38.8,25.1-42.6c7.2-2.3,18.2,7.7,25.1,4.8c15.9-6.5,15.2-89.5,25.1-90c7.5-0.4,16,48.5,25.1,48.8
				c5.2,0.2,13.6-11.2,25.1-34.4"/>
		</g>
		<g>
			<path fill="none" stroke="#E5E5E5" stroke-miterlimit="2" d="M80,530c11.3-24.4,19.7-36.5,25.1-36.4c8.7,0.1,16.3,28.9,25.1,42
				c8,12,17.5,34.1,25.1,33.7c9.5-0.5,13.5-44.3,25.1-56.3c7.1-7.3,17.5-8.1,25.1-14.4c9.6-7.9,14.6-27.8,25.1-30.9
				c7.3-2.2,17.4,5.7,25.1,4.2c9.3-1.8,16.6-17.6,25.1-17.8c8.2-0.2,17.7,16.3,25.1,15.2c10.2-1.5,13.8-33.4,25.1-39.8
				c7.2-4.1,17.3-1.2,25.1-4.1c9.1-3.3,17.3-16.4,25.1-15.8c9.1,0.7,15.4,23.7,25.1,25.5c7.6,1.4,18-10.2,25.1-8.2
				c12.1,3.4,16.4,51.4,25.1,51.6c8,0.2,16.1-29.3,25.1-41.9c7.9-10.9,17.6-17.8,25.1-29.5c9.9-15.5,12.3-52.1,25.1-56.3
				c7-2.3,18.2,8.7,25.1,6.2c14.6-5.3,13-74.4,25.1-76.3c7.1-1.1,16.1,15.2,25.1,20.6c5.2,3.2,13.6,6.8,25.1,11"/>
		</g>
		<g>
			<path fill="#C9C9C9" fill-opacity="0.4" d="M80,531.3c11.5-18.6,19.9-27.7,25.1-27.5c9.1,0.5,16.2,28.1,25.1,40.6
				c8,11.2,17.2,31.3,25.1,31c9-0.4,15.5-31,25.1-42.6c7.6-9.1,17.1-14.4,25.1-22.7c8.8-9,14.7-26,25.1-29.5
				c7.4-2.5,17.4,3.9,25.1,2.1c9.3-2.2,16.6-17.6,25.1-17.8c8.2-0.2,17.7,16.3,25.1,15.2c10.2-1.5,13.8-32.8,25.1-39.2
				c7.2-4.1,17.3-1.2,25.1-4.1c9.1-3.3,17.3-16.4,25.1-15.8c9.1,0.7,15.5,23.8,25.1,25.5c7.6,1.3,18-10.8,25.1-8.9
				c12,3.2,16.2,51.4,25.1,51.6c8,0.2,16.5-27.1,25.1-39.8c8.1-11.9,17.4-21.5,25.1-34.3c9.3-15.4,12.7-48.2,25.1-52.2
				c7.1-2.3,18.2,8.8,25.1,6.2c14.8-5.4,14.3-77.4,25.1-78.3c7.3-0.7,14.6,26.4,25.1,32.3c4.9,2.8,13.3,4.6,25.1,5.5v13.1
				c-11.7,12.9-20,19.1-25.1,18.6c-9.6-1-17.8-36.3-25.1-35.8c-10.4,0.8-10.8,73-25.1,77.6c-7,2.2-18.1-10.3-25.1-8.3
				c-12.7,3.7-14.8,42.6-25.1,57.7c-7.4,10.8-17.5,15.9-25.1,26.1c-9.5,12.7-17,45.4-25.1,45.3c-8.6-0.1-13.1-48.4-25.1-51.6
				c-7.1-1.9-17.5,10.2-25.1,8.9c-9.6-1.6-16-23.9-25.1-24.8c-7.8-0.8-16.3,10.4-25.1,13.7c-8,3-17.9,1.6-25.1,6.1
				c-11,6.9-15,36.3-25.1,37.8c-7.4,1.1-17-14.8-25.1-14.5c-8.6,0.3-15.8,15.7-25.1,17.8c-7.7,1.7-17.8-5.1-25.1-2.8
				c-10.4,3.3-15.1,23-25.1,29.5c-7.5,4.8-18,3.2-25.1,8.9c-12.2,9.8-16.4,53.4-25.1,53.6c-8.1,0.1-15.3-33.2-25.1-45.4
				c-7.5-9.3-16.8-22.7-25.1-22.7c-5.6,0-14,7.6-25.1,22.7V531.3z"/>
			<path fill="none" stroke="#CCCCCC" stroke-miterlimit="2" d="M80,560.2c11.2-15.1,19.5-22.7,25.1-22.7c8.4,0,17.6,13.4,25.1,22.7
				c9.8,12.2,17,45.5,25.1,45.4c8.7-0.1,12.9-43.8,25.1-53.6c7.1-5.7,17.7-4.1,25.1-8.9c10-6.5,14.7-26.2,25.1-29.5
				c7.4-2.3,17.4,4.5,25.1,2.8c9.3-2.1,16.5-17.5,25.1-17.8c8.2-0.3,17.7,15.6,25.1,14.5c10.1-1.5,14.1-30.9,25.1-37.8
				c7.2-4.5,17.1-3.1,25.1-6.1c8.8-3.4,17.3-14.5,25.1-13.7c9.2,0.9,15.6,23.2,25.1,24.8c7.6,1.3,18-10.8,25.1-8.9
				c12,3.2,16.5,51.5,25.1,51.6c8.2,0.1,15.6-32.6,25.1-45.3c7.6-10.2,17.8-15.3,25.1-26.1c10.3-15.1,12.5-54,25.1-57.7
				c7-2.1,18.2,10.5,25.1,8.3c14.4-4.6,14.7-76.9,25.1-77.6c7.4-0.6,15.6,34.8,25.1,35.8c5.1,0.5,13.5-5.7,25.1-18.6"/>
		</g>
		<g>
			<path fill="none" stroke="#CCCCCC" stroke-miterlimit="2" d="M80,531.3c11.5-18.6,19.9-27.7,25.1-27.5
				c9.1,0.5,16.2,28.1,25.1,40.6c8,11.2,17.2,31.3,25.1,31c9-0.4,15.5-31,25.1-42.6c7.6-9.1,17.1-14.4,25.1-22.7
				c8.8-9,14.7-26,25.1-29.5c7.4-2.5,17.4,3.9,25.1,2.1c9.3-2.2,16.6-17.6,25.1-17.8c8.2-0.2,17.7,16.3,25.1,15.2
				c10.2-1.5,13.8-32.8,25.1-39.2c7.2-4.1,17.3-1.2,25.1-4.1c9.1-3.3,17.3-16.4,25.1-15.8c9.1,0.7,15.5,23.8,25.1,25.5
				c7.6,1.3,18-10.8,25.1-8.9c12,3.2,16.2,51.4,25.1,51.6c8,0.2,16.5-27.1,25.1-39.8c8.1-11.9,17.4-21.5,25.1-34.3
				c9.3-15.4,12.7-48.2,25.1-52.2c7.1-2.3,18.2,8.8,25.1,6.2c14.8-5.4,14.3-77.4,25.1-78.3c7.3-0.7,14.6,26.4,25.1,32.3
				c4.9,2.8,13.3,4.6,25.1,5.5"/>
		</g>
		<g>
			<path fill="none" stroke="#000083" stroke-width="4" stroke-miterlimit="2" d="M80,541c11.7-17.8,20.1-26.5,25.1-26.1
				c9.6,0.7,15.1,34.5,25.1,46.8c7.5,9.2,17.6,22.8,25.1,22c9.9-1,14.4-42.8,25.1-44.6c7.3-1.2,17.3,15.2,25.1,14.5
				c9.2-0.8,16.7-17,25.1-25.4c8.3-8.3,16.6-16.9,25.1-24.7c8.2-7.5,17.8-12.1,25.1-21.3c10.4-12.9,14.4-38.6,25.1-50.8
				c7.3-8.4,17.8-19.5,25.1-18.5c10.4,1.4,13.6,44.6,25.1,47.5c7.2,1.8,17-10.1,25.1-9.6c8.6,0.5,17.8,15.1,25.1,13.8
				c10.7-1.9,16.6-43.2,25.1-43.3c8.2-0.1,15.2,38,25.1,39.2c7.5,0.9,16.1-16,25.1-17.2c7.9-1,18.1,9.8,25.1,7.6
				c13.3-4.2,11.3-55.5,25.1-63.9c7-4.2,18,1.2,25.1-2.7c12-6.6,13.1-40.5,25.1-45.3c7.1-2.9,17.2,3.5,25.1,2.1
				c5.9-1,14.3-5.1,25.1-12.4"/>
		</g>
		<g>
			<path fill="none" stroke="#2CA02C" stroke-width="4" stroke-miterlimit="2" d="M80,550.6c11.4-19.9,19.8-29.7,25.1-29.5
				c8.8,0.3,16.5,25.4,25.1,37.2c8.1,11.1,17.7,32.2,25.1,31.6c10-0.7,11.5-54.3,25.1-61.8c7-3.9,17.8,1.8,25.1-1.3
				c10.5-4.5,14.7-27.2,25.1-30.2c7.4-2.1,17.4,5.7,25.1,4.2c9.3-1.9,16.5-18.2,25.1-18.5c8.1-0.3,17.7,15.6,25.1,14.5
				c10.1-1.5,14.2-30.3,25.1-37.1c7.2-4.5,17.2-2.9,25.1-6.1c8.9-3.6,17.3-15.7,25.1-15.1c9.1,0.7,15.5,23,25.1,24.8
				c7.6,1.4,18-9.6,25.1-7.5c12.2,3.6,16.5,51.5,25.1,51.6c8.1,0.1,16.3-30.3,25.1-44c8-12.3,17.3-21.6,25.1-34.3
				c9.2-15,12.9-46.3,25.1-50.2c7.1-2.3,18.2,8.7,25.1,6.2c14.6-5.3,14.9-76.3,25.1-77c7.4-0.5,15.3,36.7,25.1,37.8
				c5,0.6,13.4-5.4,25.1-17.9"/>
		</g>
	</g>
	<path fill="none" stroke="#000000" stroke-opacity="0" d="M78,621.6h555"/>
	<path fill="none" stroke="#000000" stroke-opacity="0" d="M78.5,225v396.3"/>
	<g transform="translate(80,100)">
		<g>
			<text transform="matrix(1.5039 0 0 1 35.5469 530.5997)" font-family="'OpenSans'" font-size="7.979">1900</text>
		</g>
		<g>
			<text transform="matrix(1.5039 0 0 1 136.0771 530.5997)" font-family="'OpenSans'" font-size="7.979">1920</text>
		</g>
		<g>
			<text transform="matrix(1.5039 0 0 1 236.627 530.5997)" font-family="'OpenSans'" font-size="7.979">1940</text>
		</g>
		<g>
			<text transform="matrix(1.5039 0 0 1 337.1777 530.5997)" font-family="'OpenSans'" font-size="7.979">1960</text>
		</g>
		<g>
			<text transform="matrix(1.5039 0 0 1 437.7275 530.5997)" font-family="'OpenSans'" font-size="7.979">1980</text>
		</g>
		<g>
			<text transform="matrix(1.5039 0 0 1 538.2773 530.5997)" font-family="'OpenSans'" font-size="7.979">2000</text>
		</g>
	</g>
	<g transform="translate(80,100)">
		<g>
			<text transform="matrix(1.5039 0 0 1 -26.7773 479.0753)" font-family="'OpenSans'" font-size="7.979">−0.2</text>
		</g>
		<g>
			<text transform="matrix(1.5039 0 0 1 -9.8613 405.0567)" font-family="'OpenSans'" font-size="7.979">0</text>
		</g>
		<g>
			<text transform="matrix(1.5039 0 0 1 -19.916 331.0313)" font-family="'OpenSans'" font-size="7.979">0.2</text>
		</g>
		<g>
			<text transform="matrix(1.5039 0 0 1 -19.916 257.0128)" font-family="'OpenSans'" font-size="7.979">0.4</text>
		</g>
		<g>
			<text transform="matrix(1.5039 0 0 1 -19.916 182.9883)" font-family="'OpenSans'" font-size="7.979">0.6</text>
		</g>
	</g>
</g>
<g>
	<g>
		<text transform="matrix(1 0 0 1 266.6418 145.1)" font-family="'OpenSans'" font-size="17">Climate Change Attribution</text>
	</g>
	<g>
		<text transform="matrix(6.123234e-17 -1 1 6.123234e-17 37 539.7402)" font-family="'OpenSans'" font-size="14">Modeled Forcing Responses (°C)</text>
	</g>
	<rect x="91.5" y="290.6" fill="#FFFFFF" stroke="#FFFFFF" width="126.6" height="119.9"/>
	<g transform="translate(1,15.5)">
		<g>
			<path fill="none" stroke="#D62728" d="M95.1,287.6h25"/>
		</g>
		<text transform="matrix(1 0 0 1 124.2266 291.4756)" font-family="'OpenSans'" font-size="9.9929">Volcanic</text>
		<rect x="90.9" y="279.7" pointer-events="all" fill-opacity="0" width="121.3" height="15.8"/>
	</g>
	<g transform="translate(1,34.5)">
		<g>
			<path fill="none" stroke="#02BFBF" d="M95.1,284.4h25"/>
		</g>
		<text transform="matrix(1 0 0 1 124.2266 288.2979)" font-family="'OpenSans'" font-size="9.9929">Ozone</text>
		<rect x="90.9" y="276.5" pointer-events="all" fill-opacity="0" width="121.3" height="15.8"/>
	</g>
	<g transform="translate(1,53.5)">
		<g>
			<path fill="none" stroke="#FF7F0E" d="M95.1,281.2h25"/>
		</g>
		<text transform="matrix(1 0 0 1 124.2266 285.1201)" font-family="'OpenSans'" font-size="9.9929">Solar</text>
		<rect x="90.9" y="273.3" pointer-events="all" fill-opacity="0" width="121.3" height="15.8"/>
	</g>
	<g transform="translate(1,72.5)">
		<g>
			<path fill="none" stroke="#0E0EFF" d="M95.1,278h25"/>
		</g>
		<text transform="matrix(1 0 0 1 124.2266 281.9424)" font-family="'OpenSans'" font-size="9.9929">Greenhouse Gases</text>
		<rect x="90.9" y="270.1" pointer-events="all" fill-opacity="0" width="121.3" height="15.8"/>
	</g>
	<g transform="translate(1,91.5)">
		<g>
			<path fill="none" stroke="#0C343D" d="M95.1,274.9h25"/>
		</g>
		<text transform="matrix(1 0 0 1 124.2266 278.7637)" font-family="'OpenSans'" font-size="9.9929">Sulfate</text>
		<rect x="90.9" y="267" pointer-events="all" fill-opacity="0" width="121.3" height="15.8"/>
	</g>
	<g transform="translate(1,110.5)">
		<g>
			<path fill="none" stroke="#000083" stroke-width="4" d="M95.1,271.7h25"/>
		</g>
		<text transform="matrix(1 0 0 1 124.2266 275.5859)" font-family="'OpenSans'" font-size="9.9929">Modeled</text>
		<rect x="90.9" y="263.8" pointer-events="all" fill-opacity="0" width="121.3" height="15.8"/>
	</g>
	<g transform="translate(1,129.5)">
		<g>
			<path fill="none" stroke="#2CA02C" stroke-width="4" d="M95.1,268.5h25"/>
		</g>
		<text transform="matrix(1 0 0 1 124.2266 272.4082)" font-family="'OpenSans'" font-size="9.9929">Observed</text>
		<rect x="90.9" y="260.6" pointer-events="all" fill-opacity="0" width="121.3" height="15.8"/>
	</g>
</g>
</svg>
