<?xml version="1.0" encoding="utf-8"?>
<!-- Generator: Adobe Illustrator 18.0.0, SVG Export Plug-In . SVG Version: 6.00 Build 0)  -->
<!DOCTYPE svg PUBLIC "-//W3C//DTD SVG 1.1//EN" "http://www.w3.org/Graphics/SVG/1.1/DTD/svg11.dtd">
<svg version="1.1" id="Layer_1" xmlns="http://www.w3.org/2000/svg" xmlns:xlink="http://www.w3.org/1999/xlink" x="0px" y="0px"
	 viewBox="0 0 960 560" enable-background="new 0 0 960 560" xml:space="preserve">
<rect fill="#FFFFFF" width="960" height="560"/>
<g id="Layer_1_1_">
	<g>
		<g transform="translate(80,100)">
		</g>
	</g>
	<g>
		<rect x="97.9" y="102.7" fill="#FFFFFF" width="758.1" height="375.2"/>
		<g transform="translate(80,100)">
			<path stroke="#EEEEEE" d="M144.2,2.7v375.2"/>
			<path stroke="#EEEEEE" d="M270.6,2.7v375.2"/>
			<path stroke="#EEEEEE" d="M396.9,2.7v375.2"/>
			<path stroke="#EEEEEE" d="M523.3,2.7v375.2"/>
			<path stroke="#EEEEEE" d="M649.7,2.7v375.2"/>
			<path stroke="#EEEEEE" d="M17.9,366.2H776"/>
			<path stroke="#EEEEEE" d="M17.9,325.6H776"/>
			<path stroke="#EEEEEE" d="M17.9,285.1H776"/>
			<path stroke="#EEEEEE" d="M17.9,244.7H776"/>
			<path stroke="#EEEEEE" d="M17.9,204.2H776"/>
			<path stroke="#EEEEEE" d="M17.9,163.8H776"/>
			<path stroke="#EEEEEE" d="M17.9,123.2H776"/>
			<path stroke="#EEEEEE" d="M17.9,82.8H776"/>
			<path stroke="#EEEEEE" d="M17.9,42.4H776"/>
		</g>
		<g transform="translate(80,100)">
		</g>
		<g>
			<g>
				<g>
					<path opacity="0.9" fill="#FF3800" stroke="#FFFFFF" stroke-miterlimit="2" enable-background="new    " d="M478.4,449.5
						c0,3.5-2.9,6.5-6.5,6.5c-3.6,0-6.5-2.9-6.5-6.5c0-3.6,2.9-6.5,6.5-6.5C475.6,443,478.4,446,478.4,449.5L478.4,449.5z"/>
				</g>
			</g>
			<g>
				<g>
					<path opacity="0.9" fill="#FF7100" stroke="#FFFFFF" stroke-miterlimit="2" enable-background="new    " d="M328,446.2
						c0,7.4-6.1,13.5-13.5,13.5s-13.5-6.1-13.5-13.5c0-7.4,6.1-13.5,13.5-13.5C321.9,432.7,328,438.7,328,446.2L328,446.2z"/>
				</g>
			</g>
			<g>
				<g>
					<path opacity="0.9" fill="#FFA900" stroke="#FFFFFF" stroke-miterlimit="2" enable-background="new    " d="M384.1,445.7
						c0,4.6-3.7,8.3-8.3,8.3c-4.6,0-8.3-3.7-8.3-8.3c0-4.5,3.7-8.3,8.3-8.3S384.1,441.2,384.1,445.7L384.1,445.7z"/>
				</g>
			</g>
			<g>
				<g>
					<path opacity="0.9" fill="#FF8500" stroke="#FFFFFF" stroke-miterlimit="2" enable-background="new    " d="M269.9,438.9
						c0,7.3-6,13.3-13.3,13.3s-13.3-6-13.3-13.3s6-13.3,13.3-13.3S269.9,431.5,269.9,438.9L269.9,438.9z"/>
				</g>
			</g>
			<g>
				<g>
					<path opacity="0.9" fill="#FFB400" stroke="#FFFFFF" stroke-miterlimit="2" enable-background="new    " d="M441.5,395.9
						c0,6.8-5.5,12.2-12.2,12.2c-6.8,0-12.2-5.5-12.2-12.2c0-6.8,5.5-12.2,12.2-12.2C436,383.7,441.5,389.1,441.5,395.9L441.5,395.9
						z"/>
				</g>
			</g>
			<g>
				<g>
					<path opacity="0.9" fill="#FFD000" stroke="#FFFFFF" stroke-miterlimit="2" enable-background="new    " d="M408.2,393.8
						c0,4.2-3.4,7.6-7.6,7.6s-7.6-3.4-7.6-7.6c0-4.2,3.4-7.6,7.6-7.6l0,0C404.7,386.1,408.2,389.5,408.2,393.8z"/>
				</g>
			</g>
			<g>
				<g>
					<path opacity="0.9" fill="#FFE000" stroke="#FFFFFF" stroke-miterlimit="2" enable-background="new    " d="M220.9,393.4
						c0,4.9-3.9,8.8-8.8,8.8s-8.8-3.9-8.8-8.8c0-4.8,3.9-8.8,8.8-8.8S220.9,388.4,220.9,393.4L220.9,393.4z"/>
				</g>
			</g>
			<g>
				<g>
					<path opacity="0.9" fill="#FF7A00" stroke="#FFFFFF" stroke-miterlimit="2" enable-background="new    " d="M424.5,393.4
						c0,8.9-7.2,16.2-16.2,16.2s-16.2-7.2-16.2-16.2s7.2-16.2,16.2-16.2S424.5,384.3,424.5,393.4L424.5,393.4z"/>
				</g>
			</g>
			<g>
				<g>
					<path opacity="0.9" fill="#FFCB00" stroke="#FFFFFF" stroke-miterlimit="2" enable-background="new    " d="M314,393.4
						c0,6.7-5.4,12-12,12c-6.7,0-12-5.4-12-12c0-6.7,5.4-12,12-12l0,0C308.6,381.4,314,386.7,314,393.4z"/>
				</g>
			</g>
			<g>
				<g>
					<path opacity="0.9" fill="#FF7600" stroke="#FFFFFF" stroke-miterlimit="2" enable-background="new    " d="M510.8,392.9
						c0,6.7-5.4,12-12,12c-6.6,0-12-5.3-12-12c0-6.8,5.4-12,12-12l0,0C505.4,380.9,510.8,386.2,510.8,392.9z"/>
				</g>
			</g>
			<g>
				<g>
					<path opacity="0.9" fill="#FF6D00" stroke="#FFFFFF" stroke-miterlimit="2" enable-background="new    " d="M356.3,389.9
						c0,10.1-8.2,18.5-18.5,18.5c-10.1,0-18.5-8.2-18.5-18.5c0-10.3,8.2-18.5,18.5-18.5C348.1,371.4,356.3,379.8,356.3,389.9
						L356.3,389.9z"/>
				</g>
			</g>
			<g>
				<g>
					<path opacity="0.9" fill="#FFC000" stroke="#FFFFFF" stroke-miterlimit="2" enable-background="new    " d="M397.9,388.6
						c0,6.9-5.7,12.6-12.6,12.6c-6.9,0-12.6-5.7-12.6-12.6c0-6.9,5.7-12.6,12.6-12.6l0,0C392.2,376,397.9,381.7,397.9,388.6z"/>
				</g>
			</g>
			<g>
				<g>
					<path opacity="0.9" fill="#FF9100" stroke="#FFFFFF" stroke-miterlimit="2" enable-background="new    " d="M399.3,387.7
						c0,9.2-7.5,16.7-16.7,16.7c-9.2,0-16.7-7.5-16.7-16.7c0-9.2,7.5-16.7,16.7-16.7l0,0C391.7,371,399.3,378.5,399.3,387.7z"/>
				</g>
			</g>
			<g>
				<g>
					<path opacity="0.9" fill="#FF6C00" stroke="#FFFFFF" stroke-miterlimit="2" enable-background="new    " d="M807,380.2
						c0,4.2-3.4,7.6-7.6,7.6c-4.2,0-7.6-3.4-7.6-7.6c0-4.2,3.4-7.6,7.6-7.6l0,0C803.5,372.5,807,375.9,807,380.2z"/>
				</g>
			</g>
			<g>
				<g>
					<path opacity="0.9" fill="#FFA600" stroke="#FFFFFF" stroke-miterlimit="2" enable-background="new    " d="M458.1,379.3
						c0,7.7-6.3,13.9-13.9,13.9s-13.9-6.3-13.9-13.9c0-7.6,6.3-13.9,13.9-13.9C451.9,365.4,458.1,371.5,458.1,379.3L458.1,379.3z"/>
				</g>
			</g>
			<g>
				<g>
					<path opacity="0.9" fill="#FFE200" stroke="#FFFFFF" stroke-miterlimit="2" enable-background="new    " d="M410.9,377.1
						c0,2.3-1.8,4-4,4s-4-1.8-4-4c0-2.3,1.8-4,4-4l0,0C409.1,373.1,410.9,375,410.9,377.1z"/>
				</g>
			</g>
			<g>
				<g>
					<path opacity="0.9" fill="#FF8000" stroke="#FFFFFF" stroke-miterlimit="2" enable-background="new    " d="M496.7,377.1
						c0,7.6-6.3,13.9-13.9,13.9s-13.9-6.3-13.9-13.9s6.3-13.9,13.9-13.9l0,0C490.5,363.2,496.7,369.5,496.7,377.1z"/>
				</g>
			</g>
			<g>
				<g>
					<path opacity="0.9" fill="#FFEC00" stroke="#FFFFFF" stroke-miterlimit="2" enable-background="new    " d="M243.7,374.6
						c0,6.2-5,11.2-11.2,11.2c-6.2,0-11.2-5-11.2-11.2c0-6.3,5-11.2,11.2-11.2l0,0C238.7,363.3,243.7,368.5,243.7,374.6z"/>
				</g>
			</g>
			<g>
				<g>
					<path opacity="0.9" fill="#FFD500" stroke="#FFFFFF" stroke-miterlimit="2" enable-background="new    " d="M366.7,372
						c0,6.8-5.5,12.1-12.1,12.1c-6.7,0-12.1-5.5-12.1-12.1c0-6.7,5.5-12.1,12.1-12.1l0,0C361.2,359.9,366.7,365.3,366.7,372z"/>
				</g>
			</g>
			<g>
				<g>
					<path opacity="0.9" fill="#FFD200" stroke="#FFFFFF" stroke-miterlimit="2" enable-background="new    " d="M454.5,358.3
						c0,6.4-5.2,11.5-11.5,11.5c-6.4,0-11.5-5.2-11.5-11.5c0-6.4,5.2-11.5,11.5-11.5S454.5,352,454.5,358.3L454.5,358.3z"/>
				</g>
			</g>
			<g>
				<g>
					<path opacity="0.9" fill="#FF9D00" stroke="#FFFFFF" stroke-miterlimit="2" enable-background="new    " d="M432.9,357
						c0,9.4-7.7,17.2-17.2,17.2c-9.4,0-17.2-7.7-17.2-17.2c0-9.4,7.7-17.2,17.2-17.2C425.2,339.9,432.9,347.6,432.9,357L432.9,357z"
						/>
				</g>
			</g>
			<g>
				<g>
					<path opacity="0.9" fill="#FFAC00" stroke="#FFFFFF" stroke-miterlimit="2" enable-background="new    " d="M502.7,355.9
						c0,7-5.7,12.7-12.7,12.7c-7,0-12.7-5.7-12.7-12.7s5.7-12.7,12.7-12.7l0,0C497.1,343.1,502.7,348.8,502.7,355.9z"/>
				</g>
			</g>
			<g>
				<g>
					<path opacity="0.9" fill="#FFB600" stroke="#FFFFFF" stroke-miterlimit="2" enable-background="new    " d="M533.4,354.6
						c0,4.6-3.7,8.3-8.3,8.3c-4.5,0-8.3-3.7-8.3-8.3c0-4.6,3.7-8.3,8.3-8.3l0,0C529.7,346.2,533.4,350,533.4,354.6z"/>
				</g>
			</g>
			<g>
				<g>
					<path opacity="0.9" fill="#FFD000" stroke="#FFFFFF" stroke-miterlimit="2" enable-background="new    " d="M461.3,352.9
						c0,6.6-5.3,11.8-11.8,11.8c-6.5,0-11.8-5.3-11.8-11.8s5.3-11.8,11.8-11.8l0,0C456.1,341,461.3,346.2,461.3,352.9z"/>
				</g>
			</g>
			<g>
				<g>
					<path opacity="0.9" fill="#FFB800" stroke="#FFFFFF" stroke-miterlimit="2" enable-background="new    " d="M421.8,351.6
						c0,9.1-7.3,16.4-16.4,16.4c-9.2,0-16.4-7.4-16.4-16.4s7.3-16.4,16.4-16.4C414.6,335.2,421.8,342.5,421.8,351.6L421.8,351.6z"/>
				</g>
			</g>
			<g>
				<g>
					<path opacity="0.9" fill="#FF5600" stroke="#FFFFFF" stroke-miterlimit="2" enable-background="new    " d="M491.4,350.8
						c0,9.8-8,17.8-17.8,17.8s-17.8-8-17.8-17.8c0-9.8,8-17.8,17.8-17.8S491.4,340.9,491.4,350.8L491.4,350.8z"/>
				</g>
			</g>
			<g>
				<g>
					<path opacity="0.9" fill="#FFA500" stroke="#FFFFFF" stroke-miterlimit="2" enable-background="new    " d="M550.9,349.9
						c0,5.1-4.1,9.2-9.2,9.2c-5.1,0-9.2-4.1-9.2-9.2c0-5.1,4.1-9.2,9.2-9.2C546.7,340.6,550.9,344.8,550.9,349.9L550.9,349.9z"/>
				</g>
			</g>
			<g>
				<g>
					<path opacity="0.9" fill="#FF9200" stroke="#FFFFFF" stroke-miterlimit="2" enable-background="new    " d="M838.4,349.5
						c0,4.9-4,8.9-8.9,8.9s-8.9-4-8.9-8.9c0-4.8,4-8.9,8.9-8.9l0,0C834.5,340.6,838.4,344.5,838.4,349.5z"/>
				</g>
			</g>
			<g>
				<g>
					<path opacity="0.9" fill="#FF9400" stroke="#FFFFFF" stroke-miterlimit="2" enable-background="new    " d="M462.5,346
						c0,10-8.2,18.3-18.3,18.3c-10,0-18.3-8.2-18.3-18.3c0-10,8.2-18.3,18.3-18.3l0,0C454.3,327.7,462.5,335.9,462.5,346z"/>
				</g>
			</g>
			<g>
				<g>
					<path opacity="0.9" fill="#FFF200" stroke="#FFFFFF" stroke-miterlimit="2" enable-background="new    " d="M381.4,343.5
						c0,6.9-5.7,12.6-12.6,12.6s-12.6-5.7-12.6-12.6c0-6.9,5.7-12.6,12.6-12.6l0,0C375.7,330.8,381.4,336.5,381.4,343.5z"/>
				</g>
			</g>
			<g>
				<g>
					<path opacity="0.9" fill="#FFD600" stroke="#FFFFFF" stroke-miterlimit="2" enable-background="new    " d="M477.9,340.5
						c0,6.1-4.9,10.9-10.9,10.9c-6,0-10.9-4.9-10.9-10.9c0-6,4.9-10.9,10.9-10.9C473,329.6,477.9,334.4,477.9,340.5L477.9,340.5z"/>
				</g>
			</g>
			<g>
				<g>
					<path opacity="0.9" fill="#FFBE00" stroke="#FFFFFF" stroke-miterlimit="2" enable-background="new    " d="M404,340.5
						c0,9.3-7.6,17-17,17c-9.4,0-17-7.6-17-17c0-9.4,7.6-17,17-17l0,0C396.5,323.6,404,331.1,404,340.5z"/>
				</g>
			</g>
			<g>
				<g>
					<path opacity="0.9" fill="#FFBB00" stroke="#FFFFFF" stroke-miterlimit="2" enable-background="new    " d="M470,338.8
						c0,8.5-6.9,15.4-15.4,15.4c-8.5,0-15.4-6.9-15.4-15.4c0-8.5,6.9-15.4,15.4-15.4l0,0C463.1,323.4,470,330.3,470,338.8z"/>
				</g>
			</g>
			<g>
				<g>
					<path opacity="0.9" fill="#FFC300" stroke="#FFFFFF" stroke-miterlimit="2" enable-background="new    " d="M524.7,332.4
						c0,5.1-4.1,9.2-9.2,9.2c-5.1,0-9.2-4.1-9.2-9.2c0-5.1,4.1-9.2,9.2-9.2l0,0C520.5,323.2,524.7,327.3,524.7,332.4z"/>
				</g>
			</g>
			<g>
				<g>
					<path opacity="0.9" fill="#FFC600" stroke="#FFFFFF" stroke-miterlimit="2" enable-background="new    " d="M472.9,328.9
						c0,7.8-6.4,14.2-14.2,14.2c-7.8,0-14.2-6.4-14.2-14.2s6.4-14.2,14.2-14.2l0,0C466.6,314.8,472.9,321.1,472.9,328.9z"/>
				</g>
			</g>
			<g>
				<g>
					<path opacity="0.9" fill="#FF8300" stroke="#FFFFFF" stroke-miterlimit="2" enable-background="new    " d="M453.8,328.6
						c0,11.6-9.4,21.1-21.1,21.1s-21.1-9.4-21.1-21.1s9.4-21.1,21.1-21.1l0,0C444.3,307.5,453.8,316.9,453.8,328.6z"/>
				</g>
			</g>
			<g>
				<g>
					<path opacity="0.9" fill="#FFB600" stroke="#FFFFFF" stroke-miterlimit="2" enable-background="new    " d="M396.4,327.7
						c0,11-9,20.1-20.1,20.1s-20.1-9-20.1-20.1c0-11,9-20.1,20.1-20.1l0,0C387.4,307.8,396.4,316.6,396.4,327.7z"/>
				</g>
			</g>
			<g>
				<g>
					<path opacity="0.9" fill="#FFBB00" stroke="#FFFFFF" stroke-miterlimit="2" enable-background="new    " d="M661.9,323.5
						c0,4.7-3.8,8.5-8.5,8.5c-4.6,0-8.5-3.8-8.5-8.5c0-4.7,3.8-8.5,8.5-8.5C658.1,315,661.9,318.8,661.9,323.5L661.9,323.5z"/>
				</g>
			</g>
			<g>
				<g>
					<path opacity="0.9" fill="#FF8100" stroke="#FFFFFF" stroke-miterlimit="2" enable-background="new    " d="M516.2,323.5
						c0,9.6-7.8,17.5-17.5,17.5c-9.7,0-17.5-7.8-17.5-17.5c0-9.6,7.8-17.5,17.5-17.5S516.2,313.9,516.2,323.5L516.2,323.5z"/>
				</g>
			</g>
			<g>
				<g>
					<path opacity="0.9" fill="#FFFF00" stroke="#FFFFFF" stroke-miterlimit="2" enable-background="new    " d="M289,322.6
						c0,8-6.5,14.5-14.5,14.5s-14.5-6.5-14.5-14.5c0-8,6.5-14.5,14.5-14.5C282.5,308.1,289,314.6,289,322.6L289,322.6z"/>
				</g>
			</g>
			<g>
				<g>
					<path opacity="0.9" fill="#FF8A00" stroke="#FFFFFF" stroke-miterlimit="2" enable-background="new    " d="M526.7,321.7
						c0,9.2-7.5,16.7-16.7,16.7c-9.2,0-16.7-7.5-16.7-16.7c0-9.2,7.5-16.7,16.7-16.7S526.7,312.6,526.7,321.7L526.7,321.7z"/>
				</g>
			</g>
			<g>
				<g>
					<path opacity="0.9" fill="#FFBC00" stroke="#FFFFFF" stroke-miterlimit="2" enable-background="new    " d="M424.5,321.3
						c0,10.1-8.2,18.4-18.4,18.4s-18.4-8.2-18.4-18.4s8.2-18.4,18.4-18.4l0,0C416.2,302.9,424.5,311.2,424.5,321.3z"/>
				</g>
			</g>
			<g>
				<g>
					<path opacity="0.9" fill="#FFA300" stroke="#FFFFFF" stroke-miterlimit="2" enable-background="new    " d="M538.4,319.6
						c0,8.2-6.7,14.8-14.8,14.8c-8.2,0-14.8-6.7-14.8-14.8c0-8.2,6.7-14.8,14.8-14.8C531.7,304.8,538.4,311.5,538.4,319.6
						L538.4,319.6z"/>
				</g>
			</g>
			<g>
				<g>
					<path opacity="0.9" fill="#FFA300" stroke="#FFFFFF" stroke-miterlimit="2" enable-background="new    " d="M364.8,317.5
						c0,13.4-10.8,24.2-24.2,24.2s-24.2-10.8-24.2-24.2s10.8-24.2,24.2-24.2S364.8,304.1,364.8,317.5z"/>
				</g>
			</g>
			<g>
				<g>
					<path opacity="0.9" fill="#FFBD00" stroke="#FFFFFF" stroke-miterlimit="2" enable-background="new    " d="M494,314.5
						c0,8.9-7.2,16.1-16.1,16.1c-9,0-16.1-7.2-16.1-16.1c0-9,7.2-16.1,16.1-16.1l0,0C486.7,298.4,494,305.6,494,314.5z"/>
				</g>
			</g>
			<g>
				<g>
					<path opacity="0.9" fill="#FF9D00" stroke="#FFFFFF" stroke-miterlimit="2" enable-background="new    " d="M471,312.4
						c0,11.2-9.1,20.4-20.4,20.4c-11.2,0-20.4-9.1-20.4-20.4c0-11.2,9.1-20.4,20.4-20.4C462,292,471,301.2,471,312.4z"/>
				</g>
			</g>
			<g>
				<g>
					<path opacity="0.9" fill="#FFAB00" stroke="#FFFFFF" stroke-miterlimit="2" enable-background="new    " d="M543.2,310.7
						c0,7.9-6.5,14.4-14.4,14.4c-7.9,0-14.4-6.5-14.4-14.4c0-7.9,6.5-14.4,14.4-14.4l0,0C536.8,296.3,543.2,302.7,543.2,310.7z"/>
				</g>
			</g>
			<g>
				<g>
					<path opacity="0.9" fill="#FF7200" stroke="#FFFFFF" stroke-miterlimit="2" enable-background="new    " d="M480.7,307.7
						c0,13.3-10.8,24.1-24.1,24.1c-13.3,0-24.1-10.8-24.1-24.1c0-13.3,10.8-24.1,24.1-24.1C469.9,283.6,480.7,294.4,480.7,307.7
						L480.7,307.7z"/>
				</g>
			</g>
			<g>
				<g>
					<path opacity="0.9" fill="#FFA800" stroke="#FFFFFF" stroke-miterlimit="2" enable-background="new    " d="M542,298.3
						c0,9-7.2,16.2-16.2,16.2c-9.1,0-16.2-7.2-16.2-16.2s7.2-16.2,16.2-16.2l0,0C534.8,282.1,542,289.4,542,298.3z"/>
				</g>
			</g>
			<g>
				<g>
					<path opacity="0.9" fill="#FF9B00" stroke="#FFFFFF" stroke-miterlimit="2" enable-background="new    " d="M517.7,296.6
						c0,10.4-8.5,19-19,19c-10.4,0-19-8.5-19-19c0-10.4,8.5-19,19-19l0,0C509.2,277.6,517.7,286.2,517.7,296.6z"/>
				</g>
			</g>
			<g>
				<g>
					<path opacity="0.9" fill="#FFEF00" stroke="#FFFFFF" stroke-miterlimit="2" enable-background="new    " d="M488.9,296.6
						c0,7.1-5.9,13-13,13c-7.1,0-13-5.9-13-13c0-7.1,5.9-13,13-13C483.1,283.6,488.9,289.5,488.9,296.6L488.9,296.6z"/>
				</g>
			</g>
			<g>
				<g>
					<path opacity="0.9" fill="#FF7C00" stroke="#FFFFFF" stroke-miterlimit="2" enable-background="new    " d="M482.9,294.5
						c0,14.3-11.6,25.9-25.9,25.9c-14.3,0-25.9-11.6-25.9-25.9s11.6-25.9,25.9-25.9l0,0C471.2,268.6,482.9,280.2,482.9,294.5z"/>
				</g>
			</g>
			<g>
				<g>
					<path opacity="0.9" fill="#FFBE00" stroke="#FFFFFF" stroke-miterlimit="2" enable-background="new    " d="M490.6,290.2
						c0,9.8-8,17.8-17.8,17.8c-9.7,0-17.8-8-17.8-17.8c0-9.8,8-17.8,17.8-17.8l0,0C482.6,272.4,490.6,280.4,490.6,290.2z"/>
				</g>
			</g>
			<g>
				<g>
					<path opacity="0.9" fill="#FFCB00" stroke="#FFFFFF" stroke-miterlimit="2" enable-background="new    " d="M479.3,287.6
						c0,9.3-7.6,17-17,17c-9.4,0-17-7.6-17-17c0-9.4,7.6-16.9,17-16.9l0,0C471.7,270.8,479.3,278.2,479.3,287.6z"/>
				</g>
			</g>
			<g>
				<g>
					<path opacity="0.9" fill="#FFFF00" stroke="#FFFFFF" stroke-miterlimit="2" enable-background="new    " d="M494.3,284.7
						c0,7.2-5.9,13.1-13.1,13.1s-13.1-5.9-13.1-13.1c0-7.2,5.9-13.1,13.1-13.1S494.3,277.4,494.3,284.7L494.3,284.7z"/>
				</g>
			</g>
			<g>
				<g>
					<path opacity="0.9" fill="#FFB700" stroke="#FFFFFF" stroke-miterlimit="2" enable-background="new    " d="M426.1,283.5
						c0,13.8-11.1,25-24.9,25s-24.9-11.1-24.9-24.9c0-13.8,11.1-25,24.9-25l0,0C414.9,258.5,426.1,269.7,426.1,283.5z"/>
				</g>
			</g>
			<g>
				<g>
					<path opacity="0.9" fill="#FF4C00" stroke="#FFFFFF" stroke-miterlimit="2" enable-background="new    " d="M557.4,283.5
						c0,11.2-9.1,20.3-20.3,20.3c-11.2,0-20.3-9.1-20.3-20.3c0-11.2,9.1-20.3,20.3-20.3C548.4,263.1,557.4,272.2,557.4,283.5
						L557.4,283.5z"/>
				</g>
			</g>
			<g>
				<g>
					<path opacity="0.9" fill="#FFC100" stroke="#FFFFFF" stroke-miterlimit="2" enable-background="new    " d="M508,282.2
						c0,9.4-7.7,17.1-17.1,17.1c-9.4,0-17.1-7.7-17.1-17.1c0-9.4,7.7-17.1,17.1-17.1l0,0C500.3,265,508,272.7,508,282.2z"/>
				</g>
			</g>
			<g>
				<g>
					<path opacity="0.9" fill="#FF7700" stroke="#FFFFFF" stroke-miterlimit="2" enable-background="new    " d="M535.7,279.6
						c0,11.6-9.4,21.1-21.1,21.1c-11.6,0-21.1-9.4-21.1-21.1s9.4-21.1,21.1-21.1l0,0C526.1,258.6,535.7,267.9,535.7,279.6z"/>
				</g>
			</g>
			<g>
				<g>
					<path opacity="0.9" fill="#FFCF00" stroke="#FFFFFF" stroke-miterlimit="2" enable-background="new    " d="M514.3,278.3
						c0,8.6-7,15.6-15.6,15.6s-15.6-7-15.6-15.6c0-8.6,7-15.6,15.6-15.6l0,0C507.3,262.7,514.3,269.7,514.3,278.3z"/>
				</g>
			</g>
			<g>
				<g>
					<path opacity="0.9" fill="#FFE800" stroke="#FFFFFF" stroke-miterlimit="2" enable-background="new    " d="M463.4,278.3
						c0,9.2-7.5,16.9-16.9,16.9s-16.9-7.5-16.9-16.9c0-9.4,7.5-16.9,16.9-16.9S463.4,269,463.4,278.3L463.4,278.3z"/>
				</g>
			</g>
			<g>
				<g>
					<path opacity="0.9" fill="#FFC400" stroke="#FFFFFF" stroke-miterlimit="2" enable-background="new    " d="M454.5,276.2
						c0,11.4-9.2,20.7-20.7,20.7s-20.7-9.2-20.7-20.7s9.2-20.7,20.7-20.7l0,0C445.2,255.5,454.5,264.8,454.5,276.2z"/>
				</g>
			</g>
			<g>
				<g>
					<path opacity="0.9" fill="#FFDF00" stroke="#FFFFFF" stroke-miterlimit="2" enable-background="new    " d="M577.4,274.4
						c0,6.4-5.2,11.5-11.5,11.5s-11.5-5.2-11.5-11.5c0-6.3,5.2-11.5,11.5-11.5l0,0C572.2,262.9,577.4,268.1,577.4,274.4z"/>
				</g>
			</g>
			<g>
				<g>
					<path opacity="0.9" fill="#FFC700" stroke="#FFFFFF" stroke-miterlimit="2" enable-background="new    " d="M427.5,269.8
						c0,12.6-10.2,22.8-22.8,22.8s-22.8-10.2-22.8-22.8c0-12.6,10.2-22.8,22.8-22.8l0,0C417.2,246.8,427.5,257.2,427.5,269.8z"/>
				</g>
			</g>
			<g>
				<g>
					<path opacity="0.9" fill="#FFB700" stroke="#FFFFFF" stroke-miterlimit="2" enable-background="new    " d="M517.8,269.4
						c0,10.4-8.5,19.1-19.1,19.1c-10.6,0-19.1-8.5-19.1-19.1c0-10.5,8.5-19,19.1-19C509.3,250.4,517.8,258.9,517.8,269.4
						L517.8,269.4z"/>
				</g>
			</g>
			<g>
				<g>
					<path opacity="0.9" fill="#FFEB00" stroke="#FFFFFF" stroke-miterlimit="2" enable-background="new    " d="M519.8,267.7
						c0,7.4-6.1,13.5-13.5,13.5c-7.4,0-13.5-6.1-13.5-13.5s6.1-13.5,13.5-13.5C513.7,254.2,519.8,260.1,519.8,267.7L519.8,267.7z"/>
				</g>
			</g>
			<g>
				<g>
					<path opacity="0.9" fill="#FF9400" stroke="#FFFFFF" stroke-miterlimit="2" enable-background="new    " d="M522,265.5
						c0,12.8-10.3,23.2-23.2,23.2c-12.9,0-23.2-10.3-23.2-23.2c0-12.8,10.3-23.2,23.2-23.2C511.6,242.3,522,252.7,522,265.5
						L522,265.5z"/>
				</g>
			</g>
			<g>
				<g>
					<path opacity="0.9" fill="#FFCD00" stroke="#FFFFFF" stroke-miterlimit="2" enable-background="new    " d="M504.9,262.9
						c0,9.8-7.9,17.8-17.8,17.8c-9.8,0-17.8-7.9-17.8-17.8c0-9.8,7.9-17.8,17.8-17.8C497,245.2,504.9,253.1,504.9,262.9
						C504.9,263,504.9,262.9,504.9,262.9z"/>
				</g>
			</g>
			<g>
				<g>
					<path opacity="0.9" fill="#FFDB00" stroke="#FFFFFF" stroke-miterlimit="2" enable-background="new    " d="M512.1,258.3
						c0,9.2-7.5,16.8-16.8,16.8c-9.2,0-16.8-7.5-16.8-16.8c0-9.2,7.5-16.8,16.8-16.8C504.6,241.4,512.1,248.9,512.1,258.3
						L512.1,258.3z"/>
				</g>
			</g>
			<g>
				<g>
					<path opacity="0.9" fill="#FFD400" stroke="#FFFFFF" stroke-miterlimit="2" enable-background="new    " d="M551.4,257.9
						c0,8-6.5,14.5-14.5,14.5s-14.5-6.5-14.5-14.5c0-8,6.5-14.5,14.5-14.5C544.9,243.4,551.4,249.9,551.4,257.9L551.4,257.9z"/>
				</g>
			</g>
			<g>
				<g>
					<path opacity="0.9" fill="#FF0000" stroke="#FFFFFF" stroke-miterlimit="2" enable-background="new    " d="M561.8,255.7
						c0,13.4-10.8,24.2-24.2,24.2s-24.2-10.8-24.2-24.2s10.8-24.2,24.2-24.2l0,0C550.8,231.5,561.8,242.3,561.8,255.7z"/>
				</g>
			</g>
			<g>
				<g>
					<path opacity="0.9" fill="#FFAC00" stroke="#FFFFFF" stroke-miterlimit="2" enable-background="new    " d="M497.5,252.8
						c0,14.6-11.8,26.4-26.4,26.4s-26.4-11.8-26.4-26.4s11.8-26.4,26.4-26.4l0,0C485.6,226.4,497.5,238.2,497.5,252.8z"/>
				</g>
			</g>
			<g>
				<g>
					<path opacity="0.9" fill="#FFA700" stroke="#FFFFFF" stroke-miterlimit="2" enable-background="new    " d="M609.2,252.8
						c0,10.2-8.3,18.6-18.6,18.6s-18.6-8.3-18.6-18.6c0-10.2,8.3-18.6,18.6-18.6l0,0C600.9,234.2,609.2,242.5,609.2,252.8z"/>
				</g>
			</g>
			<g>
				<g>
					<path opacity="0.9" fill="#FFC300" stroke="#FFFFFF" stroke-miterlimit="2" enable-background="new    " d="M684.4,252.3
						c0,8.9-7.2,16.1-16.1,16.1c-8.9,0-16.1-7.2-16.1-16.1c0-8.9,7.2-16.1,16.1-16.1l0,0C677.2,236.2,684.4,243.5,684.4,252.3z"/>
				</g>
			</g>
			<g>
				<g>
					<path opacity="0.9" fill="#FFC400" stroke="#FFFFFF" stroke-miterlimit="2" enable-background="new    " d="M504.7,251.9
						c0,11.1-9.1,20.3-20.3,20.3c-11.2,0-20.3-9.1-20.3-20.3c0-11.1,9.1-20.3,20.3-20.3l0,0C495.7,231.7,504.7,240.7,504.7,251.9z"
						/>
				</g>
			</g>
			<g>
				<g>
					<path opacity="0.9" fill="#FF8300" stroke="#FFFFFF" stroke-miterlimit="2" enable-background="new    " d="M568.4,251
						c0,11.8-9.5,21.4-21.4,21.4c-11.8,0-21.4-9.5-21.4-21.4c0-11.8,9.5-21.4,21.4-21.4l0,0C558.9,229.6,568.4,239.2,568.4,251z"/>
				</g>
			</g>
			<g>
				<g>
					<path opacity="0.9" fill="#FFE800" stroke="#FFFFFF" stroke-miterlimit="2" enable-background="new    " d="M684.2,251
						c0,6.9-5.6,12.4-12.4,12.4c-6.9,0-12.4-5.6-12.4-12.4c0-6.8,5.6-12.4,12.4-12.4S684.2,244.2,684.2,251L684.2,251z"/>
				</g>
			</g>
			<g>
				<g>
					<path opacity="0.9" fill="#FFF100" stroke="#FFFFFF" stroke-miterlimit="2" enable-background="new    " d="M523.7,247.6
						c0,8.3-6.8,15.1-15.1,15.1c-8.3,0-15.1-6.8-15.1-15.1s6.9-15.1,15.2-15.1l0,0C516.9,232.6,523.7,239.4,523.7,247.6z"/>
				</g>
			</g>
			<g>
				<g>
					<path opacity="0.9" fill="#FFE900" stroke="#FFFFFF" stroke-miterlimit="2" enable-background="new    " d="M530.1,247.1
						c0,8.5-6.9,15.3-15.4,15.3c-8.6,0-15.4-6.9-15.4-15.3s6.9-15.4,15.4-15.4C523.3,231.9,530.1,238.7,530.1,247.1z"/>
				</g>
			</g>
			<g>
				<g>
					<path opacity="0.9" fill="#FFD500" stroke="#FFFFFF" stroke-miterlimit="2" enable-background="new    " d="M2929.5,246.3
						c0,7.4-6.1,13.5-13.5,13.5c-7.4,0-13.5-6.1-13.5-13.5c0-7.4,6.1-13.5,13.5-13.5C2923.4,232.8,2929.5,238.9,2929.5,246.3
						L2929.5,246.3z"/>
				</g>
			</g>
			<g>
				<g>
					<path opacity="0.9" fill="#FFB600" stroke="#FFFFFF" stroke-miterlimit="2" enable-background="new    " d="M549.8,245.1
						c0,10.8-8.8,19.7-19.7,19.7c-10.8,0-19.7-8.8-19.7-19.7c0-10.8,8.8-19.7,19.7-19.7C540.9,225.4,549.8,234.2,549.8,245.1
						L549.8,245.1z"/>
				</g>
			</g>
			<g>
				<g>
					<path opacity="0.9" fill="#FFAA00" stroke="#FFFFFF" stroke-miterlimit="2" enable-background="new    " d="M557.9,239.6
						c0,11.6-9.4,21.1-21.1,21.1c-11.6,0-21.1-9.4-21.1-21.1c0-11.6,9.3-21.1,21.1-21.1l0,0C548.6,218.5,557.9,228,557.9,239.6z"/>
				</g>
			</g>
			<g>
				<g>
					<path opacity="0.9" fill="#FFBA00" stroke="#FFFFFF" stroke-miterlimit="2" enable-background="new    " d="M569.1,238.3
						c0,10.2-8.4,18.7-18.7,18.7c-10.2,0-18.7-8.4-18.7-18.7c0-10.2,8.4-18.7,18.7-18.7l0,0C560.8,219.6,569.1,228,569.1,238.3z"/>
				</g>
			</g>
			<g>
				<g>
					<path opacity="0.9" fill="#FFCC00" stroke="#FFFFFF" stroke-miterlimit="2" enable-background="new    " d="M527.4,230.6
						c0,10.5-8.6,19.2-19.1,19.2c-10.5,0-19.1-8.6-19.1-19.2c0-10.5,8.6-19.2,19.1-19.2l0,0C519,211.5,527.4,220,527.4,230.6z"/>
				</g>
			</g>
			<g>
				<g>
					<path opacity="0.9" fill="#FFF700" stroke="#FFFFFF" stroke-miterlimit="2" enable-background="new    " d="M480.6,218.3
						c0,11.4-9.2,20.7-20.7,20.7s-20.7-9.2-20.7-20.7s9.2-20.7,20.7-20.7l0,0C471.2,197.6,480.6,206.8,480.6,218.3z"/>
				</g>
			</g>
			<g>
				<g>
					<path opacity="0.9" fill="#FFFB00" stroke="#FFFFFF" stroke-miterlimit="2" enable-background="new    " d="M470.8,215.7
						c0,12.4-10,22.4-22.4,22.4c-12.4,0-22.4-10-22.4-22.4s10-22.4,22.4-22.4C460.8,193.1,470.8,203.4,470.8,215.7L470.8,215.7z"/>
				</g>
			</g>
			<g>
				<g>
					<path opacity="0.9" fill="#FFCA00" stroke="#FFFFFF" stroke-miterlimit="2" enable-background="new    " d="M528.3,214.9
						c0,12.4-10,22.3-22.3,22.3c-12.3,0-22.3-10-22.3-22.3c0-12.4,10-22.3,22.3-22.3l0,0C518.4,192.4,528.3,202.5,528.3,214.9z"/>
				</g>
			</g>
			<g>
				<g>
					<path opacity="0.9" fill="#FFC000" stroke="#FFFFFF" stroke-miterlimit="2" enable-background="new    " d="M524.8,212.3
						c0,14.4-11.6,26-26,26c-14.4,0-26-11.6-26-26c0-14.4,11.6-26,26-26l0,0C513.1,186.2,524.8,197.9,524.8,212.3z"/>
				</g>
			</g>
			<g>
				<g>
					<path opacity="0.9" fill="#FF9D00" stroke="#FFFFFF" stroke-miterlimit="2" enable-background="new    " d="M579.8,210.1
						c0,14.8-11.9,26.7-26.7,26.7c-14.8,0-26.7-11.9-26.7-26.7s11.9-26.7,26.7-26.7C567.7,183.5,579.8,195.4,579.8,210.1
						L579.8,210.1z"/>
				</g>
			</g>
			<g>
				<g>
					<path opacity="0.9" fill="#FFDD00" stroke="#FFFFFF" stroke-miterlimit="2" enable-background="new    " d="M535.6,205.8
						c0,10.8-8.8,19.7-19.7,19.7c-10.8,0-19.6-8.8-19.6-19.6s8.8-19.7,19.6-19.7l0,0C526.7,186.3,535.6,195,535.6,205.8z"/>
				</g>
			</g>
			<g>
				<g>
					<path opacity="0.9" fill="#FFFF00" stroke="#FFFFFF" stroke-miterlimit="2" enable-background="new    " d="M443.2,202.1
						c0,15.3-12.4,27.8-27.8,27.8c-15.4,0-27.8-12.4-27.8-27.8s12.4-27.8,27.8-27.8l0,0C430.8,174.2,443.2,186.7,443.2,202.1z"/>
				</g>
			</g>
			<g>
				<g>
					<path opacity="0.9" fill="#FFE100" stroke="#FFFFFF" stroke-miterlimit="2" enable-background="new    " d="M506.9,199.5
						c0,13.3-10.7,24-24,24c-13.3,0-24-10.7-24-24s10.7-24,24-24C496.1,175.5,506.9,186.2,506.9,199.5L506.9,199.5z"/>
				</g>
			</g>
			<g>
				<g>
					<path opacity="0.9" fill="#FFD600" stroke="#FFFFFF" stroke-miterlimit="2" enable-background="new    " d="M549.5,180.7
						c0,12.6-10.1,22.7-22.7,22.7c-12.6,0-22.7-10.1-22.7-22.7c0-12.6,10.1-22.7,22.7-22.7l0,0C539.2,158,549.5,168.1,549.5,180.7z"
						/>
				</g>
			</g>
			<g>
				<g>
					<path opacity="0.9" fill="#FFC800" stroke="#FFFFFF" stroke-miterlimit="2" enable-background="new    " d="M577.5,178.2
						c0,12.9-10.4,23.4-23.4,23.4c-12.9,0-23.3-10.4-23.3-23.3s10.4-23.4,23.3-23.4l0,0C567,154.8,577.5,165.2,577.5,178.2z"/>
				</g>
			</g>
			<g>
				<g>
					<path opacity="0.9" fill="#FFC300" stroke="#FFFFFF" stroke-miterlimit="2" enable-background="new    " d="M627.8,162
						c0,16.2-13.1,29.3-29.3,29.3c-16.2,0-29.3-13.1-29.3-29.3s13.1-29.3,29.3-29.3C614.7,132.7,627.8,145.8,627.8,162z"/>
				</g>
			</g>
		</g>
		<path fill="none" stroke="#000000" stroke-opacity="0" d="M8,397.3h760.1"/>
		<path fill="none" stroke="#000000" stroke-opacity="0" d="M8.5,20.6v376.2"/>
		<g transform="translate(80,100)">
			<g>
				<text transform="matrix(1 0 0 1 12.5516 397.3828)" fill="#444444" font-family="'OpenSans'" font-size="11.7234">1.5</text>
			</g>
			<g>
				<text transform="matrix(1 0 0 1 143.8123 397.3828)" fill="#444444" font-family="'OpenSans'" font-size="11.7234">2</text>
			</g>
			<g>
				<text transform="matrix(1 0 0 1 265.2592 397.3828)" fill="#444444" font-family="'OpenSans'" font-size="11.7234">2.5</text>
			</g>
			<g>
				<text transform="matrix(1 0 0 1 396.5193 397.3828)" fill="#444444" font-family="'OpenSans'" font-size="11.7234">3</text>
			</g>
			<g>
				<text transform="matrix(1 0 0 1 517.9569 397.3828)" fill="#444444" font-family="'OpenSans'" font-size="11.7234">3.5</text>
			</g>
			<g>
				<text transform="matrix(1 0 0 1 649.2274 397.3828)" fill="#444444" font-family="'OpenSans'" font-size="11.7234">4</text>
			</g>
			<g>
				<text transform="matrix(1 0 0 1 770.6649 397.3828)" fill="#444444" font-family="'OpenSans'" font-size="11.7234">4.5</text>
			</g>
		</g>
		<g transform="translate(80,100)">
			<g>
				<text transform="matrix(1 0 0 1 -8.2228 368.0547)" fill="#444444" font-family="'OpenSans'" font-size="11.7234">10</text>
			</g>
			<g>
				<text transform="matrix(1 0 0 1 -8.2228 327.5898)" fill="#444444" font-family="'OpenSans'" font-size="11.7234">20</text>
			</g>
			<g>
				<text transform="matrix(1 0 0 1 -8.2228 287.1152)" fill="#444444" font-family="'OpenSans'" font-size="11.7234">30</text>
			</g>
			<g>
				<text transform="matrix(1 0 0 1 -8.2228 246.6396)" fill="#444444" font-family="'OpenSans'" font-size="11.7234">40</text>
			</g>
			<g>
				<text transform="matrix(1 0 0 1 -8.2228 206.1651)" fill="#444444" font-family="'OpenSans'" font-size="11.7234">50</text>
			</g>
			<g>
				<text transform="matrix(1 0 0 1 -8.2228 165.6992)" fill="#444444" font-family="'OpenSans'" font-size="11.7234">60</text>
			</g>
			<g>
				<text transform="matrix(1 0 0 1 -8.2228 125.2241)" fill="#444444" font-family="'OpenSans'" font-size="11.7234">70</text>
			</g>
			<g>
				<text transform="matrix(1 0 0 1 -8.2228 84.749)" fill="#444444" font-family="'OpenSans'" font-size="11.7234">80</text>
			</g>
			<g>
				<text transform="matrix(1 0 0 1 -8.2228 44.2842)" fill="#444444" font-family="'OpenSans'" font-size="11.7234">90</text>
			</g>
		</g>
	</g>
	<g>
		<g>
			<g transform="rotate(0,260,99.3)">
				<rect x="93.3" y="63" fill="#9E9E9E" fill-opacity="0" stroke="#000000" stroke-opacity="0" width="356.5" height="35.7"/>
				<text transform="matrix(1 0 0 1 94.8013 77.3687)" fill="#9E9E9E" font-family="'OpenSans'" font-size="11.9149">Size indicates sales per technician</text>
				<text transform="matrix(1 0 0 1 94.8013 92.8579)" fill="#9E9E9E" font-family="'OpenSans'" font-size="11.9149">Color indicates high (yellow) and low (red) non-warranty work %</text>
			</g>
		</g>
	</g>
</g>
<g id="Layer_2">
	<g>
		<polygon fill="#FFFF00" stroke="#B5B5B5" stroke-miterlimit="10" points="386.9,198 386.6,261.9 178.6,261.9 178.6,123.4 
			386.9,123.4 386.9,187.9 392.2,193.4 		"/>
		<text transform="matrix(1 0 0 1 182.3711 205.4116)" fill="#5B5B5B" font-family="'ArialMT'" font-size="12.7517">Total Sales $2460336</text>
		<text transform="matrix(1 0 0 1 181.3779 138.2422)" fill="#5B5B5B" font-family="'ArialMT'" font-size="13.0504">(2.756635, 76.21053)</text>
		<text transform="matrix(1 0 0 1 181.3779 155.0981)" fill="#5B5B5B" font-family="'Arial-BoldMT'" font-size="13.0504">Store 11460</text>
		<text transform="matrix(1 0 0 1 182.3721 171.7661)" fill="#5B5B5B" font-family="'Arial-ItalicMT'" font-size="13.0504">Rank 5</text>
		<text transform="matrix(1 0 0 1 182.3711 223.0698)" fill="#5B5B5B" font-family="'ArialMT'" font-size="13.0504">Technicians: 19</text>
		<text transform="matrix(1 0 0 1 182.3721 239.666)" fill="#5B5B5B" font-family="'ArialMT'" font-size="13.0504">Sales per Technician $129491</text>
		<text transform="matrix(1 0 0 1 182.3721 255.4351)" fill="#5B5B5B" font-family="'ArialMT'" font-size="13.0504">Out of Warranty Percentage 82.9%</text>
	</g>
</g>
<g>
	<text transform="matrix(1 0 0 1 376.7581 44.2442)" fill="#606060" font-family="'OpenSans'" font-size="18.2017">Dealership Performance</text>
</g>
<g>
	<text transform="matrix(1 0 0 1 374.2427 535.9024)" fill="#606060" font-family="'OpenSans'" font-size="14.7738">First Quarter Annual Growth %</text>
</g>
<g>
	
		<text transform="matrix(6.123234e-17 -1 1 6.123234e-17 52.0923 341.9795)" fill="#444444" font-family="'OpenSans'" font-size="13.9007">Performance Score</text>
</g>
</svg>
