<?xml version="1.0" encoding="utf-8"?>
<!-- Generator: Adobe Illustrator 18.0.0, SVG Export Plug-In . SVG Version: 6.00 Build 0)  -->
<!DOCTYPE svg PUBLIC "-//W3C//DTD SVG 1.1//EN" "http://www.w3.org/Graphics/SVG/1.1/DTD/svg11.dtd">
<svg version="1.1" id="Layer_1" xmlns="http://www.w3.org/2000/svg" xmlns:xlink="http://www.w3.org/1999/xlink" x="0px" y="0px"
	 viewBox="993.3 -22.4 375.4 733.8" enable-background="new 993.3 -22.4 375.4 733.8" xml:space="preserve">
<g id="Layer_1_1_">
	<rect x="993.3" y="-22.4" fill="#FFFFFF" width="375.5" height="733.8"/>
	<g>
		<g transform="translate(39,43.199999999999974)">
		</g>
	</g>
	<g>
		<rect x="1042.1" y="31.7" fill="#FFFFFF" width="290.9" height="587.5"/>
		<g transform="translate(39,43.199999999999974)">
		</g>
		<g transform="translate(39,43.199999999999974)">
		</g>
		<g>
			<g>
				<path fill="none" stroke="#0074D9" stroke-width="2" stroke-miterlimit="2" d="M1042.1-16l2.6,222.5l2.6,59.5l2.6,65.1l2.6-56.9
					l2.6,18.8l2.6-43.4l5.4,73.4l2.6-33.1l2.6,1.4l2.6,20.2l5.4,31.4l2.6-25.9l2.6-0.5l2.6-21.4l2.6-16.1l2.6,0.5l2.6-13l2.6,16.2
					l2.6,0.9l2.6-4.9l2.6-9.5l2.6,13.5l2.6-7.6l2.6,0.9l2.6,2.4l2.6-11.2l8,30.1l2.6-10.4l2.6,9.4l2.6,1.5l2.6,3.7l2.6-4.5l2.6-1.7
					l2.6-8.8l2.6,5.8l2.6,1.7l2.6,7.5l2.6-6.3l2.6,0.1l2.6,6.8l2.6-2.1l2.6,4.9l5.4,4.8l2.6-4.6l2.6-6.7l2.6,5.5l8,16.5l2.6,1.9
					l8,14l2.6-3.1l2.6-0.1l2.6,4l2.6,4.2l2.6-0.5l2.6-5.5l2.6,4.1l2.6,1.9l2.6,0.5l10.8,14.8l2.6-0.6l2.6,2.2l2.6-2.2l8,9.7l2.6,1.2
					l2.6-0.4l2.6,1.9l2.6-2.7l2.6,2.8l2.6-1l2.6,0.8l2.6-4.8l2.6,2.3l2.6,1l2.6-4.4l2.6-2.3l2.6,1.5l2.6-3.5l2.6,1.9l2.6,2.6
					l2.6-2.1l5.4,4.4l2.6-2.7l2.6,2.4l2.6-1.4l2.6-0.8l2.6,2.3l2.6-2.7l2.6,1.9l2.6-3.6l2.6,2.3l5.4,3l2.6-3.1l2.6,2.2l2.6-1.3
					l2.6-2.2l2.6,2.2l5.4,1.8l2.6,0.5l2.6-1.2l2.6,2.2l5.4,0.4l2.6-3.3l2.6-2.2l2.6,2.1l10.8,3.9l2.6,1.9l2.6,1.9l2.6-2.8l2.6,0.4
					l2.6-3.1l5.4-1l2.6,1.8l21.4,5.7l2.6-2.3l5.4-2.2l2.6,1.7l59,0.4l2.6,1.4l16,0.4l2.6-2.2l53.6-5.5l2.6,0.5l203.5,8.8l2.6-1.5
					l80.3,4.8l2.6,0.8l96.4,1.5h2.6l385.7-4.8h2.6l1371.4-7.1"/>
			</g>
			<g>
				<path fill="none" stroke="#FF4136" stroke-width="2" stroke-miterlimit="2" stroke-dasharray="3,3" d="M1042.1-16l2.6-213.6
					l2.7,218.1L1050,97l2.6-35.8l2.6,53.9l2.6-38.5l5.4,83.2l2.6-29.6l2.6,16.6l2.6,26.9l5.4,44.3l2.6-28.1l2.6,7.6l2.6-21.8
					l2.6-13.6l2.6,6.7l2.6-10.4l2.6,16.6l2.6,5.8l2.6-0.8l2.6-7.1l2.6,13.6l2.6-5.1l2.6,4.4l2.6,5.7l2.6-11.1l8,31.7l2.6-10.4
					l2.6,9.9l2.6,3.9l2.6,5.8l2.6-2.8l2.6,0.3l2.6-8.8l2.6,6.7l2.6,3.5l2.6,7.7l2.6-5.7l2.6,1.8l2.6,7.2l2.6-0.6l2.6,5.8l5.4,7.1
					l2.6-4l2.6-6.7l2.6,5.9l8,17.4l2.6,2.8l8,15.3l2.6-2.3l2.6,0.9l2.6,4.5l2.6,4.6l2.6,0.5l2.6-5.7l2.6,4.5l5.4,4l2.6,4.1l8,11.8
					l2.6,0.1l2.6,2.7l2.6-1.7l8,10.7l2.6,1.8l2.6,0.3l2.6,2.3l2.6-2.3l2.6,3.2l2.6-0.4l2.6,1.4l2.6-5l2.6,2.6l2.6,1.5l2.6-4.6
					l2.6-1.9l2.6,2.1l2.6-3.5l2.6,2.2l2.6,2.8l2.6-1.7l5.4,5l2.6-2.6l2.6,2.7l2.6-1l2.6-0.4l2.6,2.6l2.6-2.6l2.6,2.3l2.6-3.7
					l2.6,2.4l5.4,3.6l2.6-3.1l2.6,2.3l2.6-1l2.6-1.9l2.6,2.3l5.4,2.3l2.6,0.9l2.6-0.8l2.6,2.3l5.4,1l2.6-3.6l2.6-2.2l2.6,2.2
					l10.8,4.9l2.6,2.1l2.6,2.1l2.6-3l2.6,0.6l2.6-3.2l5.4-0.8l2.6,1.9l21.4,7.1l2.6-2.3l5.4-2.2l2.6,1.8l42.7,0.4l2.6-2.4l26.8,7.3
					l2.6,0.3l13.4-4.4l2.6-2.3l18.8,1l2.6-1.3l37.6,4.1l2.6-2.1l51,7l2.6-1.2l18.8,4.2l2.6,1.2l51,6.6l2.6-0.9l32.2-3.1l2.6-0.6
					l32.2-1.8l2.6-1l88.3,10.9l2.6-0.4l88.3,1.7l2.6-1.3l142.4-2.8l2.6-0.3l203.5,5l2.6-0.9l441.9-11.3l2.6,0.4l961.7,8.2"/>
			</g>
			<g>
				<path fill="none" stroke="#85144B" stroke-width="2" stroke-miterlimit="2" stroke-dasharray="3,3" d="M1042.1-16l2.6,658.4
					l2.6-99.1l2.6,21.8l2.6-78.1l2.6-16.3l2.6-48.4l5.4,63.6l2.6-36.4l2.6-13.8l2.6,13.3l2.6,6.4l2.6,12.1l2.6-23.9l2.6-8.6
					l5.4-39.4l2.6-5.8l2.6-15.6l2.6,15.8l2.6-4.1l2.6-8.9l2.6-11.8l2.6,13.4l2.6-10.3l2.6-2.4l2.6-0.6l2.6-11.3l5.4,19.2l2.6,9.7
					l2.6-10.6l2.6,9l2.6-0.9l2.6,1.8l2.6-6.3l2.6-3.7l2.6-8.8l2.6,4.6l2.6-0.1l2.6,7.1l2.6-6.8l2.6-1.5l2.6,6.7l2.6-3.5l2.6,4.1
					l2.6,1.2l2.6,1l2.6-5.4l2.6-6.7l2.6,5.1l8,15.8l2.6,0.8l8,12.9l2.6-3.9l2.6-1.2l2.6,3.6l2.6,3.9l2.6-1.4l2.6-5.4l2.6,3.7
					l2.6,1.2l2.6-0.4l10.8,13.5l2.6-1.4l2.6,1.7l2.6-2.7l8,8.8l2.6,0.5l2.6-1l2.6,1.4l2.6-3l2.6,2.6l2.6-1.5l2.6,0.1l2.6-4.4
					l2.6,1.9l2.6,0.5l2.6-4.1l2.6-2.6l2.6,1.2l2.6-3.5l2.6,1.5l2.6,2.3l2.6-2.3l5.4,3.9l2.6-3l2.6,2.3l2.6-1.8l2.6-1.2l2.6,2.3
					l2.6-2.8l2.6,1.7l2.6-3.5l2.6,2.2l5.4,2.3l2.6-3.1l2.6,2.1l2.6-1.7l2.6-2.3l2.6,2.1l2.6,1.4l2.6-0.4l5.4-1.3l2.6,1.9l5.4-0.3
					l2.6-3.2l2.6-2.3l2.6,1.9l10.8,2.7l2.6,1.8l2.6,1.8l2.6-2.7l2.6,0.1l2.6-3l5.4-1.3l2.6,1.7l21.4,4.1l2.6-2.2l5.4-2.3l2.6,1.5
					l56.3-3.6l2.6,1.4l16,1.3l2.6-0.3l21.4-8.1l2.6,0.1l13.4-0.1h2.6l16-1.4l2.6,0.4l744.6-0.6l2.6-0.9l391-17.4l2.6-0.6l586.6,1.9
					l2.6,0.1l417.7,2.4"/>
			</g>
			<g opacity="0.7">
				<path fill="none" stroke="#FF851B" stroke-width="2" stroke-miterlimit="2" d="M1042.1,566.1l2.6-66.4l2.6-13.4l2.6-40l2.6,21.1
					l2.6-1.5l2.6,14.2l5.4-59.2l2.6,14.3l2.6,5.3l2.6-10.4l2.6-4.6l2.6-13l2.6,11.3l2.6,4.2l5.4,16l2.6,2.8l2.6,5.5l2.6-12.9
					l5.4,6.3l2.6,4.4l2.6-13.4l2.6,4.1l5.4,3.2l2.6,4.8l2.6-10.9l2.6-5.3l2.6-9.5l2.6,5.1l2.6-8.1l2.6,1.7l2.6,0.3l2.6,3l2.6,2.3
					l2.6,4l2.6-2.2l2.6,1l2.6-7.5l2.6,3.1l2.6,1.5l2.6-6.6l2.6,2.2l2.6-2.3l5.4,0.8l2.6,2.4l2.6,3l2.6-4.5l8-15.6l2.6,0.5l5.4-8.5
					l2.6-4.2l5.4,3.7l2.6-3.2l2.6-4l2.6,1.5l2.6,2.6l2.6-4.1l5.4,1.3l2.6-4l8-11.3l2.6,1.5l2.6-0.5l2.6,1.9l8-9.4l2.6,0.5l2.6,1.4
					l2.6-0.4l2.6,2.1l2.6-2.7l8,4.5l2.6-1.3l2.6,0.4l2.6,2.2l2.6,1.8l2.6-0.1l2.6,1.9l2.6-0.8l2.6-2.6l2.6,1.7l2.6-0.9l2.6-2.7
					l2.6,1.8l2.6-2.6l5.4,2.6l2.6-2.6l2.6,1.7l2.6-1.3l2.6,1.9l2.6-2.3l2.6,0.1l2.6-1.3l2.6,1.7l2.6-1.8l5.4,2.7l2.6-2.3l2.6-0.9
					l2.6,0.9l5.4,1.8l2.6-2.2l10.8,4.4l2.6-2.2l10.8-0.1l2.6-2.1l5.4-0.3l2.6,0.5l8,2.4l2.6-2.1l10.8-3.2l2.6-1.8l8,1.7l2.6,1.3
					l10.8,0.9l2.6-0.3l34.8,1.3l2.6,0.6l13.4,0.4l2.6-1.5l16-0.6l2.6,0.5l37.6,7l2.6,0.4l29.4,1.3l2.6,0.3l24.2-0.6l2.6-1.3
					l29.4-1.9l2.6,0.6l675-6.4l2.6,0.1l460.7,6.1l2.6,0.3l939.9-2.2"/>
			</g>
			<g opacity="0.7">
				<path fill="none" stroke="#FFDC00" stroke-width="2" stroke-miterlimit="2" d="M1042.1,566.1l2.6-196.6l2.6,37.3l2.6-56.9
					l2.6,32.2l5.4,33l2.6-35.4l2.6-52.5l2.6,19.7l2.6,13l2.6-6.2l2.6,0.9l2.6-12.5l5.4,20.7l2.6,10.7l5.4,14.9l2.6,7.5l2.6-15.7
					l2.6,5l5.4,11.7l2.6-17.5l5.4,9.8l2.6,3.1l2.6,5.8l2.6-13.6l2.6-4.5l2.6-11.3l2.6,5.9l2.6-8.8l10.8,12.4l2.6,4.6l2.6-1.2
					l2.6,2.2l2.6-8.8l2.6,3.7l2.6,2.4l2.6-7.2l2.6,3l2.6-1.4l5.4,2.6l2.6,3.1l2.6,3.3l2.6-4.6l5.4-11.7l2.6-5l2.6,1.4l2.6-5.5
					l5.4-7.5l2.6,2.7l2.6,2.1l2.6-3.1l2.6-4.1l2.6,2.2l2.6,3l2.6-4.4l5.4,2.3l2.6-4.1l8-11.7l2.6,2.1h2.6l2.6,2.2l8-9.3l2.6,1
					l2.6,1.8l2.6,0.1l2.6,2.3l2.6-2.6l8,5.4l2.6-0.9l2.6,0.9l2.6,2.3l2.6,2.1l2.6,0.3l2.6,2.2l2.6-0.4l2.6-2.6l2.6,1.8l2.6-0.5
					l2.6-2.7l2.6,1.9l2.6-2.7l5.4,3.1l2.6-2.6l2.6,1.9l2.6-1l2.6,2.1l2.6-2.3l2.6,0.5l2.6-1.2l2.6,1.8l2.6-1.7l5.4,3.1l2.6-2.3
					l2.6-0.6l2.6,1l5.4,2.2l2.6-2.3l10.8,5.1l2.6-2.2l10.8,0.8l2.6-2.2l2.6-1.7l2.6,1.5l10.8,3.6l2.6-2.1l8-1l2.6-1.9l8-0.9l2.6,1.2
					l13.4,2.6h2.6l41.8,2.7l2.6,1.3l24.2-2.8l2.6,0.4l88.3,12.6l2.6-1.3l26.8-2.4l2.6-1.3l32.2-0.6l2.6-0.9l45.6-3.6l2.6,0.3
					l37.6,2.6l2.6,0.6l72.3,0.9l2.6-0.3l1224,12.2l2.6-0.1l667,0.8"/>
			</g>
			<g opacity="0.7">
				<path fill="none" stroke="#3D9970" stroke-width="2" stroke-miterlimit="2" d="M1042.1,566.1l2.6,63.9l2.6-64l2.6-23l2.6,10.2
					l2.6-17.1l2.6,9.5l5.4-30.5l2.6,8.9l2.6-2.6l2.6-14.7l5.4-23.7l2.6,10.3l2.6,0.3l2.6,7.9l2.6,4.8l2.6-0.3l2.6,3.6l2.6-10
					l2.6-0.1l2.6,1.7l2.6,2.7l2.6-9.3l2.6,2.4h2.6l2.6-0.8l2.6,3.9l8-22.1l2.6,4.2l2.6-7.3l2.6,0.1l2.6-1.3l2.6,2.1l2.6,1.2l2.6,3.3
					l2.6-3.2l2.6-0.1l2.6-6.3l2.6,2.3l2.6,0.5l2.6-5.8l2.6,1.3l2.6-3l5.4-1.2l2.6,1.9l2.6,2.4l2.6-4.4l8-14.4l2.6-0.3l8-12.5
					l2.6,1.8l2.6,0.9l2.6-3.5l2.6-4l2.6,1l2.6,2.3l2.6-4l2.6-0.5l2.6,0.5l10.8-14.9l2.6,1.2l2.6-1l2.6,1.7l8-9.4h2.6l2.6,1l2.6-0.9
					l2.6,1.8l2.6-2.7l5.4,1.5l2.6,2.3l2.6-1.7h2.6l5.4,3.5l2.6-0.5l2.6,1.8l2.6-1.2l2.6-2.6l2.6,1.4l2.6-1.2l2.6-2.6l2.6,1.5
					l2.6-2.6l5.4,2.2l2.6-2.4l2.6,1.5l2.6-1.5l2.6,1.8l2.6-2.3l2.6-0.1l2.6-1.5l2.6,1.5l2.6-1.9l5.4,2.3l2.6-2.3l2.6-1.2l2.6,0.6
					l5.4,1.3l2.6-2.2l10.8,3.7l2.6-2.2l10.8-1l2.6-2.1l5.4-0.4l2.6,0.3l8,2.1l2.6-1.9l10.8-3.6l2.6-1.8l8,1.2l2.6,1.2l8-0.1l2.6,0.5
					l37.6-0.1l2.6,0.5l13.4-0.1l2.6-1.5l16-1.2l2.6,0.4l34.8,6.2l2.6-0.1l72.3-2.6l2.6-1.2l37.6-4l2.6-1l66.9-5.7l2.6,0.6l83,2.7
					l2.6-0.4l216.9-4.1l2.6,0.4l117.9-1.3l2.6,0.3l324,2.6h2.6l1232.1-3.3"/>
			</g>
		</g>
		<path fill="none" stroke="#222222" d="M1040.8,619.8h293.5 M1040.8,30.8h293.5"/>
		<path fill="none" stroke="#222222" d="M1041.5,31.5V619 M1333.7,31.5V619"/>
		<g transform="translate(39,43.199999999999974)">
			<path stroke="#000000" stroke-opacity="0" d="M1027.2,575.9v-7.5 M1027.2-11.7v7.5"/>
			<path stroke="#000000" stroke-opacity="0" d="M1054.1,575.9v-7.5 M1054.1-11.7v7.5"/>
			<path stroke="#000000" stroke-opacity="0" d="M1080.9,575.9v-7.5 M1080.9-11.7v7.5"/>
			<path stroke="#000000" stroke-opacity="0" d="M1107.7,575.9v-7.5 M1107.7-11.7v7.5"/>
			<path stroke="#000000" stroke-opacity="0" d="M1134.4,575.9v-7.5 M1134.4-11.7v7.5"/>
			<path stroke="#000000" stroke-opacity="0" d="M1161.2,575.9v-7.5 M1161.2-11.7v7.5"/>
			<path stroke="#000000" stroke-opacity="0" d="M1188,575.9v-7.5 M1188-11.7v7.5"/>
			<path stroke="#000000" stroke-opacity="0" d="M1214.8,575.9v-7.5 M1214.8-11.7v7.5"/>
			<path stroke="#000000" stroke-opacity="0" d="M1241.6,575.9v-7.5 M1241.6-11.7v7.5"/>
			<path stroke="#000000" stroke-opacity="0" d="M1268.3,575.9v-7.5 M1268.3-11.7v7.5"/>
			<g>
				<text transform="matrix(1 0 0 1 1018.6339 594.6243)" fill="#444444" font-family="'OpenSans'" font-size="15.0192">10</text>
			</g>
			<g>
				<text transform="matrix(1 0 0 1 1045.418 594.6243)" fill="#444444" font-family="'OpenSans'" font-size="15.0192">20</text>
			</g>
			<g>
				<text transform="matrix(1 0 0 1 1072.2021 594.6243)" fill="#444444" font-family="'OpenSans'" font-size="15.0192">30</text>
			</g>
			<g>
				<text transform="matrix(1 0 0 1 1098.9863 594.6243)" fill="#444444" font-family="'OpenSans'" font-size="15.0192">40</text>
			</g>
			<g>
				<text transform="matrix(1 0 0 1 1125.7705 594.6243)" fill="#444444" font-family="'OpenSans'" font-size="15.0192">50</text>
			</g>
			<g>
				<text transform="matrix(1 0 0 1 1152.5558 594.6243)" fill="#444444" font-family="'OpenSans'" font-size="15.0192">60</text>
			</g>
			<g>
				<text transform="matrix(1 0 0 1 1179.3389 594.6243)" fill="#444444" font-family="'OpenSans'" font-size="15.0192">70</text>
			</g>
			<g>
				<text transform="matrix(1 0 0 1 1206.123 594.6243)" fill="#444444" font-family="'OpenSans'" font-size="15.0192">80</text>
			</g>
			<g>
				<text transform="matrix(1 0 0 1 1232.9072 594.6243)" fill="#444444" font-family="'OpenSans'" font-size="15.0192">90</text>
			</g>
			<g>
				<text transform="matrix(1 0 0 1 1255.3986 594.6243)" fill="#444444" font-family="'OpenSans'" font-size="15.0192">100</text>
			</g>
		</g>
		<g transform="translate(39,43.199999999999974)">
			<path stroke="#000000" stroke-opacity="0" d="M1003.1,544h7.5 M1294.1,544h-7.5"/>
			<path stroke="#000000" stroke-opacity="0" d="M1003.1,466.9h7.5 M1294.1,466.9h-7.5"/>
			<path stroke="#000000" stroke-opacity="0" d="M1003.1,389.9h7.5 M1294.1,389.9h-7.5"/>
			<path stroke="#000000" stroke-opacity="0" d="M1003.1,312.9h7.5 M1294.1,312.9h-7.5"/>
			<path stroke="#000000" stroke-opacity="0" d="M1003.1,235.8h7.5 M1294.1,235.8h-7.5"/>
			<path stroke="#000000" stroke-opacity="0" d="M1003.1,158.8h7.5 M1294.1,158.8h-7.5"/>
			<path stroke="#000000" stroke-opacity="0" d="M1003.1,81.8h7.5 M1294.1,81.8h-7.5"/>
			<path stroke="#000000" stroke-opacity="0" d="M1003.1,4.7h7.5 M1294.1,4.7h-7.5"/>
			<g>
				<text transform="matrix(1 0 0 1 990.7735 551.4192)" fill="#444444" font-family="'OpenSans'" font-size="15.0192">0</text>
			</g>
			<g>
				<text transform="matrix(1 0 0 1 973.5986 474.4084)" fill="#444444" font-family="'OpenSans'" font-size="15.0192">100</text>
			</g>
			<g>
				<text transform="matrix(1 0 0 1 973.5986 397.3977)" fill="#444444" font-family="'OpenSans'" font-size="15.0192">200</text>
			</g>
			<g>
				<text transform="matrix(1 0 0 1 973.5986 320.3742)" fill="#444444" font-family="'OpenSans'" font-size="15.0192">300</text>
			</g>
			<g>
				<text transform="matrix(1 0 0 1 973.5986 243.3634)" fill="#444444" font-family="'OpenSans'" font-size="15.0192">400</text>
			</g>
			<g>
				<text transform="matrix(1 0 0 1 973.5986 166.3529)" fill="#444444" font-family="'OpenSans'" font-size="15.0192">500</text>
			</g>
			<g>
				<text transform="matrix(1 0 0 1 973.5986 89.3293)" fill="#444444" font-family="'OpenSans'" font-size="15.0192">600</text>
			</g>
			<g>
				<text transform="matrix(1 0 0 1 973.5986 12.3185)" fill="#444444" font-family="'OpenSans'" font-size="15.0192">700</text>
			</g>
		</g>
	</g>
	<g>
		<rect x="1074.7" y="37" fill="#FFFFFF" fill-opacity="0.5" width="229.5" height="95.4"/>
		<g transform="translate(0,14.5)">
			<g>
				<path fill="none" stroke="#0074D9" stroke-width="2" d="M1080.2,38.6h33.3"/>
			</g>
			<text transform="matrix(1 0 0 1 1119.0304 43.7911)" fill="#444444" font-family="'OpenSans'" font-size="13.3101">Basic Monte Carlo</text>
			<rect x="1074.7" y="28" pointer-events="all" fill-opacity="0" width="223.1" height="21.1"/>
		</g>
		<g transform="translate(0,33.5)">
			<g>
				<path fill="none" stroke="#FF4136" stroke-width="2" stroke-dasharray="3,3" d="M1080.2,40.7h33.3"/>
			</g>
			<text transform="matrix(1 0 0 1 1119.0304 45.8657)" fill="#444444" font-family="'OpenSans'" font-size="13.3101">95 % confidence interval</text>
			<rect x="1074.7" y="30" pointer-events="all" fill-opacity="0" width="223.1" height="21.1"/>
		</g>
		<g transform="translate(0,52.5)">
			<g>
				<path fill="none" stroke="#FF851B" stroke-width="2" d="M1080.2,42.7h33.3"/>
			</g>
			<text transform="matrix(1 0 0 1 1119.0304 47.9399)" fill="#444444" font-family="'OpenSans'" font-size="13.3101">Truncated Basic Monte Carlo</text>
			<rect x="1074.7" y="32.1" pointer-events="all" fill-opacity="0" width="223.1" height="21.1"/>
		</g>
		<g transform="translate(0,71.5)">
			<g>
				<path fill="none" stroke="#FFDC00" stroke-width="2" d="M1080.2,44.8h33.3"/>
			</g>
			<text transform="matrix(1 0 0 1 1119.0304 50.0142)" fill="#444444" font-family="'OpenSans'" font-size="13.3101">95 % confidence interval</text>
			<rect x="1074.7" y="34.2" pointer-events="all" fill-opacity="0" width="223.1" height="21.1"/>
		</g>
	</g>
	<rect x="993.3" y="-22.4" fill="#FFFFFF" width="375.5" height="53.2"/>
	<rect x="1334.4" y="8.9" fill="#FFFFFF" width="34.4" height="689.6"/>
	<rect x="1042.1" y="620.9" fill="#FFFFFF" width="15.6" height="48.8"/>
</g>
<g id="Layer_2">
	<rect x="1237" y="207.4" opacity="0.75" fill="#FFFFFF" enable-background="new    " width="114.8" height="24.5"/>
	<rect x="1238.2" y="286.2" opacity="0.75" fill="#FFFFFF" enable-background="new    " width="114.8" height="24.5"/>
	<rect x="1229.4" y="366.4" opacity="0.85" fill="#FFFFFF" enable-background="new    " width="114.8" height="24.5"/>
	<rect x="1230.7" y="413.9" opacity="0.75" fill="#FFFFFF" enable-background="new    " width="121.7" height="24.5"/>
	<rect x="1230.7" y="462.7" opacity="0.75" fill="#FFFFFF" enable-background="new    " width="65.9" height="24.5"/>
	<g>
		<polygon fill="#FF4136" stroke="#FFFFFF" stroke-miterlimit="10" points="1150.3,219.4 1156.8,212.5 1156.8,207.4 1234.2,207.4 
			1234.2,232 1157.2,232 1156.8,225.3 		"/>
		<g>
			<text transform="matrix(1 0 0 1 1160.0029 224.3389)" fill="#FFFFFF" font-family="'ArialMT'" font-size="17.2314">502.3024</text>
		</g>
	</g>
	<g>
		<polygon fill="#4A86E8" stroke="#FFFFFF" stroke-miterlimit="10" points="1150.3,299 1156.8,291.9 1156.8,286.9 1237.9,286.9 
			1237.9,311.5 1157.2,311.5 1156.8,304.8 		"/>
		<text transform="matrix(1 0 0 1 1162.3214 304.1056)" fill="#FFFFFF" font-family="'ArialMT'" font-size="17.2314">407.1665</text>
	</g>
	<g>
		<polygon fill="#3D9970" stroke="#FFFFFF" stroke-miterlimit="10" points="1150.3,476.2 1156.8,469.3 1156.8,464.3 1229.2,464.3 
			1229.2,488.9 1157.2,488.9 1156.8,482.2 		"/>
		<text transform="matrix(1 0 0 1 1162.3214 481.4113)" fill="#FFFFFF" font-family="'ArialMT'" font-size="17.2314">169.299</text>
	</g>
	<g>
		<polygon fill="#FFDC00" stroke="#000000" stroke-miterlimit="10" points="1150.3,379 1156.8,372 1156.8,367.1 1225.5,367.1 
			1225.5,391.5 1157.2,391.5 1156.8,385 		"/>
		<text transform="matrix(1 0 0 1 1160.0029 383.9142)" font-family="'ArialMT'" font-size="14.6755">290.3002</text>
	</g>
	<g>
		<polygon fill="#FF851B" stroke="#000000" stroke-miterlimit="10" points="1150.3,425.9 1156.8,418.9 1156.8,413.9 1225.5,413.9 
			1225.5,438.5 1157.2,438.5 1156.8,431.8 		"/>
		<text transform="matrix(1 0 0 1 1160.0029 430.8486)" font-family="'ArialMT'" font-size="14.6755">229.7996</text>
	</g>
	<text transform="matrix(1 0 0 1 1238.6172 224.2902)" fill="#FF0000" font-family="'ArialMT'" font-size="17.2314">95% confide...</text>
	<text transform="matrix(1 0 0 1 1238.6172 304.1056)" fill="#4A86E8" font-family="'ArialMT'" font-size="17.2314">Basic Monte...</text>
	<text transform="matrix(1 0 0 1 1231.1064 384.4131)" fill="#FFDC00" font-family="'ArialMT'" font-size="17.2314">95% confide...</text>
	<text transform="matrix(1 0 0 1 1232.3584 430.7226)" fill="#FF851B" font-family="'ArialMT'" font-size="17.2314">Truncated Ba...</text>
	<text transform="matrix(1 0 0 1 1234.8613 480.8672)" fill="#3D9970" font-family="'ArialMT'" font-size="17.2314">Trace 5</text>
</g>
<g>
	<polygon fill="#444444" stroke="#FFFFFF" stroke-miterlimit="10" points="1150.5,620.5 1157.6,627.1 1165.1,627.1 1165.1,655.8 
		1135.5,655.8 1135.5,627.6 1144.7,627.2 	"/>
	<text transform="matrix(1 0 0 1 1140.6191 645.5694)" fill="#FFFFFF" font-family="'ArialMT'" font-size="17.2314">41</text>
</g>
</svg>
