<?xml version="1.0" encoding="utf-8"?>
<!-- Generator: Adobe Illustrator 18.0.0, SVG Export Plug-In . SVG Version: 6.00 Build 0)  -->
<!DOCTYPE svg PUBLIC "-//W3C//DTD SVG 1.1//EN" "http://www.w3.org/Graphics/SVG/1.1/DTD/svg11.dtd">
<svg version="1.1" id="Layer_1" xmlns="http://www.w3.org/2000/svg" xmlns:xlink="http://www.w3.org/1999/xlink" x="0px" y="0px"
	 viewBox="51.064 0 857.872 560" enable-background="new 51.064 0 857.872 560" xml:space="preserve">
<rect x="51.064" fill="#FFFFFF" width="857.872" height="560"/>
<g>
	<g transform="translate(80,100)">
	</g>
</g>
<g>
	<rect x="130.496" y="99.291" fill="#FFFFFF" width="608.652" height="381.277"/>
	<g transform="translate(80,100)">
		<path stroke="#EEEEEE" d="M102.426-19.574v381.277"/>
		<path stroke="#EEEEEE" d="M227.83-19.574v381.277"/>
		<path stroke="#EEEEEE" d="M357.404-19.574v381.277"/>
		<path stroke="#EEEEEE" d="M482.809-19.574v381.277"/>
		<path stroke="#EEEEEE" d="M612.383-19.574v381.277"/>
	</g>
	<g transform="translate(80,100)">
		<path stroke="#444444" d="M60.426,363.986h608.652"/>
	</g>
	<g>
		<g>
			<g>
				<path opacity="0.7" fill="#1F77B4" stroke="#FFFFFF" stroke-miterlimit="2" enable-background="new    " d="M456.667,428.936
					c0,8.241-6.652,14.894-14.894,14.894s-14.894-6.652-14.894-14.894s6.652-14.894,14.894-14.894S456.667,420.794,456.667,428.936z
					"/>
				<path opacity="0.7" fill="#1F77B4" stroke="#FFFFFF" stroke-miterlimit="2" enable-background="new    " d="M410.298,251.504
					c0,10.326-8.34,18.667-18.667,18.667s-18.667-8.34-18.667-18.667s8.34-18.667,18.667-18.667S410.298,241.277,410.298,251.504z"
					/>
				<path opacity="0.7" fill="#1F77B4" stroke="#FFFFFF" stroke-miterlimit="2" enable-background="new    " d="M522.695,196.894
					c0,12.312-10.028,22.34-22.34,22.34c-12.312,0-22.34-10.028-22.34-22.34c0-12.312,10.028-22.34,22.34-22.34
					C512.667,174.553,522.695,184.582,522.695,196.894z"/>
				<path opacity="0.7" fill="#1F77B4" stroke="#FFFFFF" stroke-miterlimit="2" enable-background="new    " d="M296.908,333.418
					c0,12.312-10.028,22.34-22.34,22.34c-12.312,0-22.34-10.028-22.34-22.34c0-12.312,10.028-22.34,22.34-22.34
					C286.879,311.078,296.908,321.106,296.908,333.418z"/>
				<path opacity="0.7" fill="#1F77B4" stroke="#FFFFFF" stroke-miterlimit="2" enable-background="new    " d="M389.348,396.17
					c0,10.326-8.34,18.667-18.667,18.667c-10.326,0-18.667-8.34-18.667-18.667s8.34-18.667,18.667-18.667
					C381.007,377.603,389.348,385.943,389.348,396.17z"/>
				<path opacity="0.7" fill="#1F77B4" stroke="#FFFFFF" stroke-miterlimit="2" enable-background="new    " d="M705.787,435.787
					c0,9.631-7.745,17.376-17.376,17.376s-17.376-7.745-17.376-17.376s7.745-17.376,17.376-17.376S705.787,426.255,705.787,435.787z
					"/>
				<path opacity="0.7" fill="#1F77B4" stroke="#FFFFFF" stroke-miterlimit="2" enable-background="new    " d="M672.525,287.05
					c0,2.78-2.184,4.965-4.965,4.965s-4.965-2.184-4.965-4.965s2.184-4.965,4.965-4.965S672.525,284.27,672.525,287.05z"/>
				<path opacity="0.7" fill="#1F77B4" stroke="#FFFFFF" stroke-miterlimit="2" enable-background="new    " d="M243.589,396.17
					c0,1.39-1.092,2.482-2.482,2.482c-1.39,0-2.482-1.092-2.482-2.482c0-1.39,1.092-2.482,2.482-2.482
					S243.589,394.879,243.589,396.17z"/>
				<path opacity="0.7" fill="#1F77B4" stroke="#FFFFFF" stroke-miterlimit="2" enable-background="new    " d="M628.241,196.894
					c0,1.39-1.092,2.482-2.482,2.482s-2.482-1.092-2.482-2.482c0-1.39,1.092-2.482,2.482-2.482S628.241,195.504,628.241,196.894z"/>
				<path opacity="0.7" fill="#1F77B4" stroke="#FFFFFF" stroke-miterlimit="2" enable-background="new    " d="M388.255,428.936
					c0,2.78-2.184,4.965-4.965,4.965s-4.965-2.184-4.965-4.965c0-2.78,2.184-4.965,4.965-4.965
					C385.972,423.972,388.255,426.255,388.255,428.936z"/>
			</g>
		</g>
		<g>
			<g>
				<path opacity="0.7" fill="#FF7F0E" stroke="#FFFFFF" stroke-miterlimit="2" enable-background="new    " d="M334.539,224.199
					c0,12.312-10.028,22.34-22.34,22.34c-12.312,0-22.34-10.028-22.34-22.34c0-12.312,10.028-22.34,22.34-22.34
					C324.511,201.858,334.539,211.887,334.539,224.199z"/>
				<path opacity="0.7" fill="#FF7F0E" stroke="#FFFFFF" stroke-miterlimit="2" enable-background="new    " d="M341.291,409.872
					c0,6.851-5.56,12.411-12.411,12.411c-6.851,0-12.411-5.56-12.411-12.411c0-6.851,5.56-12.411,12.411-12.411
					C335.73,397.461,341.291,403.021,341.291,409.872z"/>
				<path opacity="0.7" fill="#FF7F0E" stroke="#FFFFFF" stroke-miterlimit="2" enable-background="new    " d="M242.993,349.801
					c0,10.326-8.34,18.667-18.667,18.667c-10.326,0-18.667-8.34-18.667-18.667s8.34-18.667,18.667-18.667
					C234.652,331.135,242.993,339.574,242.993,349.801z"/>
				<path opacity="0.7" fill="#FF7F0E" stroke="#FFFFFF" stroke-miterlimit="2" enable-background="new    " d="M321.333,396.17
					c0,2.78-2.184,4.965-4.965,4.965c-2.78,0-4.965-2.184-4.965-4.965s2.184-4.965,4.965-4.965
					C319.149,391.206,321.333,393.489,321.333,396.17z"/>
				<path opacity="0.7" fill="#FF7F0E" stroke="#FFFFFF" stroke-miterlimit="2" enable-background="new    " d="M435.915,237.901
					c0,1.39-1.092,2.482-2.482,2.482s-2.482-1.092-2.482-2.482c0-1.39,1.092-2.482,2.482-2.482S435.915,236.511,435.915,237.901z"/>
				<path opacity="0.7" fill="#FF7F0E" stroke="#FFFFFF" stroke-miterlimit="2" enable-background="new    " d="M221.645,405.801
					c0,12.312-10.028,22.34-22.34,22.34c-12.312,0-22.34-10.028-22.34-22.34c0-12.312,10.028-22.34,22.34-22.34
					C211.617,383.461,221.645,393.489,221.645,405.801z"/>
				<path opacity="0.7" fill="#FF7F0E" stroke="#FFFFFF" stroke-miterlimit="2" enable-background="new    " d="M619.305,405.801
					c0,10.326-8.34,18.667-18.667,18.667c-10.326,0-18.667-8.34-18.667-18.667c0-10.326,8.34-18.667,18.667-18.667
					C610.964,387.135,619.305,395.475,619.305,405.801z"/>
				<path opacity="0.7" fill="#FF7F0E" stroke="#FFFFFF" stroke-miterlimit="2" enable-background="new    " d="M510.085,142.284
					c0,12.312-10.028,22.34-22.34,22.34s-22.34-10.028-22.34-22.34c0-12.312,10.028-22.34,22.34-22.34
					S510.085,129.972,510.085,142.284z"/>
				<path opacity="0.7" fill="#FF7F0E" stroke="#FFFFFF" stroke-miterlimit="2" enable-background="new    " d="M685.035,142.284
					c0,2.78-2.184,4.965-4.965,4.965s-4.965-2.184-4.965-4.965c0-2.78,2.184-4.965,4.965-4.965S685.035,139.603,685.035,142.284z"/>
				<path opacity="0.7" fill="#FF7F0E" stroke="#FFFFFF" stroke-miterlimit="2" enable-background="new    " d="M538.582,388.028
					c0,9.631-7.745,17.376-17.376,17.376s-17.376-7.745-17.376-17.376c0-9.631,7.745-17.376,17.376-17.376
					S538.582,378.397,538.582,388.028z"/>
				<path opacity="0.7" fill="#FF7F0E" stroke="#FFFFFF" stroke-miterlimit="2" enable-background="new    " d="M609.773,333.418
					c0,2.78-2.184,4.965-4.965,4.965c-2.78,0-4.965-2.184-4.965-4.965c0-2.78,2.184-4.965,4.965-4.965
					C607.589,328.454,609.773,330.638,609.773,333.418z"/>
				<path opacity="0.7" fill="#FF7F0E" stroke="#FFFFFF" stroke-miterlimit="2" enable-background="new    " d="M195.929,412.553
					c0,2.78-2.184,4.965-4.965,4.965c-2.78,0-4.965-2.184-4.965-4.965c0-2.78,2.184-4.965,4.965-4.965
					C193.745,407.589,195.929,409.872,195.929,412.553z"/>
				<path opacity="0.7" fill="#FF7F0E" stroke="#FFFFFF" stroke-miterlimit="2" enable-background="new    " d="M435.915,374.426
					c0,1.39-1.092,2.482-2.482,2.482s-2.482-1.092-2.482-2.482c0-1.39,1.092-2.482,2.482-2.482S435.915,373.035,435.915,374.426z"/>
			</g>
		</g>
	</g>
	<path fill="none" stroke="#000000" stroke-opacity="0" d="M-42.27,398.652h610.638"/>
	<path fill="none" stroke="#000000" stroke-opacity="0" d="M-41.773,15.887v382.27"/>
	<g transform="translate(80,100)">
		<g>
			<text transform="matrix(1 0 0 1 79.3564 381.5605)" fill="#444444" font-family="'OpenSans'" font-size="11.9149">Apr 2015</text>
		</g>
		<g>
			<text transform="matrix(1 0 0 1 202.9292 381.5605)" fill="#444444" font-family="'OpenSans'" font-size="11.9149">May 2015</text>
		</g>
		<g>
			<text transform="matrix(1 0 0 1 335.313 381.5605)" fill="#444444" font-family="'OpenSans'" font-size="11.9149">Jun 2015</text>
		</g>
		<g>
			<text transform="matrix(1 0 0 1 462.877 381.5605)" fill="#444444" font-family="'OpenSans'" font-size="11.9149">Jul 2015</text>
		</g>
		<g>
			<text transform="matrix(1 0 0 1 588.5352 381.5605)" fill="#444444" font-family="'OpenSans'" font-size="11.9149">Aug 2015</text>
		</g>
	</g>
	<g transform="translate(80,100)">
		<g>
			<text transform="matrix(1 0 0 1 46.6626 366.9648)" fill="#444444" font-family="'OpenSans'" font-size="11.9149">0</text>
		</g>
		<g>
			<text transform="matrix(1 0 0 1 33.5957 312.3545)" fill="#444444" font-family="'OpenSans'" font-size="11.9149">20k</text>
		</g>
		<g>
			<text transform="matrix(1 0 0 1 33.5957 257.7549)" fill="#444444" font-family="'OpenSans'" font-size="11.9149">40k</text>
		</g>
		<g>
			<text transform="matrix(1 0 0 1 33.5957 203.1445)" fill="#444444" font-family="'OpenSans'" font-size="11.9149">60k</text>
		</g>
		<g>
			<text transform="matrix(1 0 0 1 33.5957 148.5444)" fill="#444444" font-family="'OpenSans'" font-size="11.9149">80k</text>
		</g>
		<g>
			<text transform="matrix(1 0 0 1 26.7832 93.9346)" fill="#444444" font-family="'OpenSans'" font-size="11.9149">100k</text>
		</g>
		<g>
			<text transform="matrix(1 0 0 1 26.7832 39.3247)" fill="#444444" font-family="'OpenSans'" font-size="11.9149">120k</text>
		</g>
	</g>
</g>
<g>
	<g>
		<text transform="matrix(1 0 0 1 377.5693 39.7163)" fill="#444444" font-family="'OpenSans'" font-size="16.8794">Open Large Deals</text>
	</g>
	<g>
		<text transform="matrix(1 0 0 1 412.5874 529.2197)" fill="#444444" font-family="'OpenSans'" font-size="13.9007">Close Date</text>
	</g>
	<g>
		
			<text transform="matrix(6.123234e-17 -1 1 6.123234e-17 82.8369 319.4626)" fill="#444444" font-family="'OpenSans'" font-size="13.9007">Deal Amount</text>
	</g>
	<rect x="734.184" y="88.369" fill="#FFFFFF" width="145.957" height="47.66"/>
	<g transform="translate(0,14.5)">
		<g>
			<g>
				<path opacity="0.7" fill="#1F77B4" stroke="#FFFFFF" enable-background="new    " d="M759.007,88.266
					c0,2.78-2.184,4.965-4.965,4.965s-4.965-2.184-4.965-4.965s2.184-4.965,4.965-4.965S759.007,85.486,759.007,88.266z"/>
			</g>
		</g>
		<text transform="matrix(1 0 0 1 773.9004 92.9126)" fill="#444444" font-family="'OpenSans'" font-size="11.9149">Bill C</text>
		<rect x="734.184" y="78.833" pointer-events="all" fill-opacity="0" width="140.298" height="18.865"/>
	</g>
	<g transform="translate(0,33.5)">
		<g>
			<g>
				<path opacity="0.7" fill="#FF7F0E" stroke="#FFFFFF" enable-background="new    " d="M759.007,88.131
					c0,2.78-2.184,4.965-4.965,4.965s-4.965-2.184-4.965-4.965s2.184-4.965,4.965-4.965S759.007,85.351,759.007,88.131z"/>
			</g>
		</g>
		<text transform="matrix(1 0 0 1 773.9004 92.7778)" fill="#444444" font-family="'OpenSans'" font-size="11.9149">Chuck Brockerson</text>
		<rect x="734.184" y="78.699" pointer-events="all" fill-opacity="0" width="140.298" height="18.865"/>
	</g>
</g>
<g>
	<polygon fill="#131B58" stroke="#FFFFFF" stroke-miterlimit="10" points="517.131,188.195 517.572,161.302 684.983,161.302 
		684.983,226.486 517.131,226.486 517.131,201.297 510.506,194.231 	"/>
	<g>
		<text transform="matrix(1 0 0 1 522.9218 176.8032)" fill="#FFFFFF" font-family="'ArialMT'" font-size="12.4544">(June 17, 100k)</text>
		<text transform="matrix(1 0 0 1 522.9218 191.8187)" fill="#FFFFFF" font-family="'ArialMT'" font-size="12.4544">University of AZ installations</text>
		<text transform="matrix(1 0 0 1 522.9218 205.8187)" fill="#FFFFFF" font-family="'ArialMT'" font-size="12.4544">Close probability: 90.0</text>
		<text transform="matrix(1 0 0 1 522.9218 219.8187)" fill="#FFFFFF" font-family="'ArialMT'" font-size="12.4544">Stage: Negotiation/Review </text>
	</g>
</g>
<g>
	<polygon fill="#FF7F0E" stroke="#FFFFFF" stroke-miterlimit="2" enable-background="new    " points="532.131,378.195 
		532.572,351.302 691.983,351.302 691.983,416.486 532.131,416.486 532.131,391.297 525.506,384.231 	"/>
	<g>
		<text transform="matrix(1 0 0 1 537.9218 366.8032)" fill="#FFFFFF" font-family="'ArialMT'" font-size="12.4544">30k</text>
		<text transform="matrix(1 0 0 1 537.9218 381.8188)" fill="#FFFFFF" font-family="'ArialMT'" font-size="12.4544">GenePoint SLA</text>
		<text transform="matrix(1 0 0 1 537.9218 395.8188)" fill="#FFFFFF" font-family="'ArialMT'" font-size="12.4544">Close probability: 70.0</text>
		<text transform="matrix(1 0 0 1 537.9218 409.8188)" fill="#FFFFFF" font-family="'ArialMT'" font-size="12.4544">Stage: Perception Analysis</text>
	</g>
</g>
</svg>
