<?xml version="1.0" encoding="utf-8"?>
<!-- Generator: Adobe Illustrator 18.0.0, SVG Export Plug-In . SVG Version: 6.00 Build 0)  -->
<!DOCTYPE svg PUBLIC "-//W3C//DTD SVG 1.1//EN" "http://www.w3.org/Graphics/SVG/1.1/DTD/svg11.dtd">
<svg version="1.1" id="Layer_1" xmlns="http://www.w3.org/2000/svg" xmlns:xlink="http://www.w3.org/1999/xlink" x="0px" y="0px"
	 viewBox="91.37 0 780.39 560" enable-background="new 91.37 0 780.39 560" xml:space="preserve">
<rect x="94.9" y="-0.321" fill="#FFFFFF" width="776.86" height="560.321"/>
<g>
	<g transform="translate(80,100)">
	</g>
</g>
<g>
	<g transform="translate(80,100)">
	</g>
	<g transform="translate(80,100)">
	</g>
	<g>
		<g>
			<g>
				<path fill="#1F78B4" d="M91.37,166.716c0,2.567-2.086,4.653-4.653,4.653s-4.653-2.086-4.653-4.653s2.086-4.653,4.653-4.653
					C89.284,162.063,91.37,164.149,91.37,166.716z"/>
				<path fill="#A6CEE3" d="M99.473,229.054c0,2.567-2.086,4.653-4.653,4.653c-2.567,0-4.653-2.086-4.653-4.653
					c0-2.567,2.086-4.653,4.653-4.653C97.387,224.401,99.473,226.487,99.473,229.054z"/>
				<path fill="#1F78B4" d="M112.951,244.539c0,2.567-2.086,4.653-4.653,4.653s-4.573-2.086-4.573-4.653
					c0-2.567,2.086-4.653,4.653-4.653C110.865,239.966,112.951,242.052,112.951,244.539z"/>
				<path fill="#1F78B4" d="M118.808,229.054c0,2.567-2.086,4.653-4.653,4.653c-2.567,0-4.653-2.086-4.653-4.653
					c0-2.567,2.086-4.653,4.653-4.653C116.722,224.401,118.808,226.487,118.808,229.054z"/>
				<path fill="#A6CEE3" d="M132.126,306.877c0,2.567-2.086,4.653-4.653,4.653s-4.653-2.086-4.653-4.653
					c0-2.567,2.086-4.653,4.653-4.653S132.126,304.309,132.126,306.877z"/>
				<path fill="#A6CEE3" d="M140.229,166.716c0,2.567-2.086,4.653-4.653,4.653s-4.653-2.086-4.653-4.653s2.086-4.653,4.653-4.653
					S140.229,164.149,140.229,166.716z"/>
				<path fill="#1F78B4" d="M148.011,151.152c0,2.567-2.086,4.653-4.653,4.653s-4.653-2.086-4.653-4.653
					c0-2.567,2.086-4.653,4.653-4.653C145.925,146.499,148.011,148.504,148.011,151.152z"/>
				<path fill="#1F78B4" d="M151.06,260.103c0,2.567-2.086,4.653-4.653,4.653s-4.653-2.086-4.653-4.653
					c0-2.567,2.086-4.653,4.653-4.653C148.974,255.45,151.06,257.536,151.06,260.103z"/>
				<path fill="#1F78B4" d="M156.034,135.427c0,2.567-2.086,4.653-4.653,4.653c-2.567,0-4.653-2.086-4.653-4.653
					s2.086-4.653,4.653-4.653C153.948,130.774,156.034,132.94,156.034,135.427z"/>
				<path fill="#1F78B4" d="M161.169,182.281c0,2.567-2.086,4.653-4.653,4.653s-4.653-2.086-4.653-4.653s2.086-4.653,4.653-4.653
					S161.169,179.713,161.169,182.281z"/>
				<path fill="#1F78B4" d="M161.731,229.054c0,2.567-2.086,4.653-4.653,4.653s-4.653-2.086-4.653-4.653
					c0-2.567,2.086-4.653,4.653-4.653S161.731,226.487,161.731,229.054z"/>
				<path fill="#A6CEE3" d="M163.656,275.668c0,2.567-2.086,4.653-4.653,4.653s-4.653-2.086-4.653-4.653s2.086-4.653,4.653-4.653
					S163.656,273.1,163.656,275.668z"/>
				<path fill="#A6CEE3" d="M172.401,369.215c0,2.567-2.086,4.653-4.653,4.653s-4.653-2.086-4.653-4.653
					c0-2.567,2.086-4.653,4.653-4.653S172.401,366.648,172.401,369.215z"/>
				<path fill="#A6CEE3" d="M173.203,229.054c0,2.567-2.086,4.653-4.653,4.653s-4.653-2.086-4.653-4.653
					c0-2.567,2.086-4.653,4.653-4.653S173.203,226.487,173.203,229.054z"/>
				<path fill="#A6CEE3" d="M173.203,213.33c0,2.567-2.086,4.653-4.653,4.653s-4.653-2.086-4.653-4.653
					c0-2.567,2.086-4.653,4.653-4.653S173.203,210.762,173.203,213.33z"/>
				<path fill="#A6CEE3" d="M173.685,182.281c0,2.567-2.086,4.653-4.653,4.653s-4.653-2.086-4.653-4.653s2.086-4.653,4.653-4.653
					S173.685,179.713,173.685,182.281z"/>
				<path fill="#1F78B4" d="M174.166,197.765c0,2.567-2.086,4.653-4.653,4.653s-4.653-2.086-4.653-4.653
					c0-2.567,2.086-4.653,4.653-4.653S174.166,195.278,174.166,197.765z"/>
				<path fill="#1F78B4" d="M177.135,291.312c0,2.567-2.086,4.653-4.653,4.653s-4.653-2.086-4.653-4.653
					c0-2.567,2.086-4.653,4.653-4.653S177.135,288.825,177.135,291.312z"/>
				<path fill="#1F78B4" d="M177.937,213.33c0,2.567-2.086,4.653-4.653,4.653s-4.653-2.086-4.653-4.653
					c0-2.567,2.086-4.653,4.653-4.653S177.937,210.762,177.937,213.33z"/>
				<path fill="#A6CEE3" d="M180.986,244.539c0,2.567-2.086,4.653-4.653,4.653c-2.567,0-4.653-2.086-4.653-4.653
					c0-2.567,2.086-4.653,4.653-4.653C178.9,239.885,180.986,242.052,180.986,244.539z"/>
				<path fill="#A6CEE3" d="M201.444,353.65c0,2.567-2.086,4.653-4.653,4.653c-2.567,0-4.653-2.086-4.653-4.653
					s2.086-4.653,4.653-4.653S201.444,351.083,201.444,353.65z"/>
				<path fill="#1F78B4" d="M212.355,291.312c0,2.567-2.086,4.653-4.653,4.653s-4.653-2.086-4.653-4.653
					c0-2.567,2.086-4.653,4.653-4.653S212.355,288.825,212.355,291.312z"/>
				<path fill="#A6CEE3" d="M216.928,306.877c0,2.567-2.086,4.653-4.653,4.653s-4.653-2.086-4.653-4.653
					c0-2.567,2.086-4.653,4.653-4.653S216.928,304.309,216.928,306.877z"/>
				<path fill="#B15928" d="M219.255,119.943c0,2.567-2.086,4.653-4.653,4.653s-4.653-2.086-4.653-4.653
					c0-2.567,2.086-4.653,4.653-4.653S219.255,117.375,219.255,119.943z"/>
				<path fill="#B2DF8A" d="M220.699,291.312c0,2.567-2.086,4.653-4.653,4.653c-2.567,0-4.653-2.086-4.653-4.653
					c0-2.567,2.086-4.653,4.653-4.653C218.613,286.739,220.699,288.825,220.699,291.312z"/>
				<path fill="#B2DF8A" d="M228.562,229.054c0,2.567-2.086,4.653-4.653,4.653s-4.653-2.086-4.653-4.653
					c0-2.567,2.086-4.653,4.653-4.653S228.562,226.487,228.562,229.054z"/>
				<path fill="#1F78B4" d="M235.622,291.312c0,2.567-2.086,4.653-4.653,4.653s-4.653-2.086-4.653-4.653
					c0-2.567,2.086-4.653,4.653-4.653S235.622,288.825,235.622,291.312z"/>
				<path fill="#B15928" d="M235.862,369.215c0,2.567-2.086,4.653-4.653,4.653c-2.567,0-4.653-2.086-4.653-4.653
					c0-2.567,2.086-4.653,4.653-4.653C233.776,364.562,235.862,366.648,235.862,369.215z"/>
				<path fill="#1F78B4" d="M236.504,338.006c0,2.567-2.086,4.653-4.653,4.653s-4.653-2.086-4.653-4.653
					c0-2.567,2.086-4.653,4.653-4.653S236.504,335.438,236.504,338.006z"/>
				<path fill="#A6CEE3" d="M239.473,291.312c0,2.567-2.086,4.653-4.653,4.653c-2.567,0-4.653-2.086-4.653-4.653
					c0-2.567,2.086-4.653,4.653-4.653C237.387,286.659,239.473,288.825,239.473,291.312z"/>
				<path fill="#1F78B4" d="M241.478,353.65c0,2.567-2.086,4.653-4.653,4.653s-4.653-2.086-4.653-4.653s2.086-4.653,4.653-4.653
					S241.478,351.083,241.478,353.65z"/>
				<path fill="#1F78B4" d="M241.719,229.054c0,2.567-2.086,4.653-4.653,4.653c-2.567,0-4.653-2.086-4.653-4.653
					c0-2.567,2.086-4.653,4.653-4.653C239.633,224.401,241.719,226.487,241.719,229.054z"/>
				<path fill="#A6CEE3" d="M246.132,322.441c0,2.567-2.086,4.653-4.653,4.653c-2.567,0-4.653-2.086-4.653-4.653
					s2.086-4.653,4.653-4.653C244.046,317.788,246.132,319.874,246.132,322.441z"/>
				<path fill="#A6CEE3" d="M248.298,338.006c0,2.567-2.086,4.653-4.653,4.653c-2.567,0-4.653-2.086-4.653-4.653
					c0-2.567,2.086-4.653,4.653-4.653S248.298,335.438,248.298,338.006z"/>
				<path fill="#1F78B4" d="M248.779,244.539c0,2.567-2.086,4.653-4.653,4.653c-2.567,0-4.653-2.086-4.653-4.653
					c0-2.567,2.086-4.653,4.653-4.653C246.693,239.966,248.779,242.052,248.779,244.539z"/>
				<path fill="#A6CEE3" d="M250.625,338.006c0,2.567-2.086,4.653-4.653,4.653c-2.567,0-4.653-2.086-4.653-4.653
					c0-2.567,2.086-4.653,4.653-4.653C248.539,333.352,250.625,335.438,250.625,338.006z"/>
				<path fill="#1F78B4" d="M251.748,229.054c0,2.567-2.086,4.653-4.653,4.653c-2.567,0-4.653-2.086-4.653-4.653
					c0-2.567,2.086-4.653,4.653-4.653C249.662,224.401,251.748,226.487,251.748,229.054z"/>
				<path fill="#B15928" d="M255.117,400.344c0,2.567-2.086,4.653-4.653,4.653c-2.567,0-4.653-2.086-4.653-4.653
					s2.086-4.653,4.653-4.653C253.032,395.691,255.117,397.777,255.117,400.344z"/>
				<path fill="#1F78B4" d="M256.562,384.779c0,2.567-2.086,4.653-4.653,4.653c-2.567,0-4.653-2.086-4.653-4.653
					c0-2.567,2.086-4.653,4.653-4.653C254.476,380.126,256.562,382.212,256.562,384.779z"/>
				<path fill="#B15928" d="M262.017,431.553c0,2.567-2.086,4.653-4.653,4.653c-2.567,0-4.653-2.086-4.653-4.653
					s2.086-4.653,4.653-4.653C259.931,426.9,262.017,428.986,262.017,431.553z"/>
				<path fill="#1F78B4" d="M269.077,275.668c0,2.567-2.086,4.653-4.653,4.653c-2.567,0-4.653-2.086-4.653-4.653
					s2.086-4.653,4.653-4.653C266.991,271.014,269.077,273.1,269.077,275.668z"/>
				<path fill="#A6CEE3" d="M280.791,431.553c0,2.567-2.086,4.653-4.653,4.653s-4.653-2.086-4.653-4.653s2.086-4.653,4.653-4.653
					C278.705,426.9,280.791,428.986,280.791,431.553z"/>
				<path fill="#A6CEE3" d="M281.754,400.344c0,2.567-2.086,4.653-4.653,4.653c-2.567,0-4.653-2.086-4.653-4.653
					s2.086-4.653,4.653-4.653C279.668,395.691,281.754,397.777,281.754,400.344z"/>
				<path fill="#1F78B4" d="M283.438,338.006c0,2.567-2.086,4.653-4.653,4.653c-2.567,0-4.653-2.086-4.653-4.653
					c0-2.567,2.086-4.653,4.653-4.653C281.352,333.352,283.438,335.438,283.438,338.006z"/>
				<path fill="#B2DF8A" d="M285.444,384.779c0,2.567-2.086,4.653-4.653,4.653c-2.567,0-4.653-2.086-4.653-4.653
					c0-2.567,2.086-4.653,4.653-4.653C283.358,380.126,285.444,382.212,285.444,384.779z"/>
				<path fill="#1F78B4" d="M287.45,260.103c0,2.567-2.086,4.653-4.653,4.653s-4.653-2.086-4.653-4.653
					c0-2.567,2.086-4.653,4.653-4.653C285.364,255.45,287.45,257.536,287.45,260.103z"/>
				<path fill="#1F78B4" d="M287.771,338.006c0,2.567-2.086,4.653-4.653,4.653c-2.567,0-4.653-2.086-4.653-4.653
					c0-2.567,2.086-4.653,4.653-4.653S287.771,335.438,287.771,338.006z"/>
				<path fill="#B2DF8A" d="M292.264,369.215c0,2.567-2.086,4.653-4.653,4.653c-2.567,0-4.653-2.086-4.653-4.653
					c0-2.567,2.086-4.653,4.653-4.653C290.178,364.562,292.264,366.648,292.264,369.215z"/>
				<path fill="#A6CEE3" d="M292.504,431.553c0,2.567-2.086,4.653-4.653,4.653c-2.567,0-4.653-2.086-4.653-4.653
					s2.086-4.653,4.653-4.653C290.418,426.9,292.504,428.986,292.504,431.553z"/>
				<path fill="#A6CEE3" d="M295.633,431.553c0,2.567-2.086,4.653-4.653,4.653s-4.653-2.086-4.653-4.653s2.086-4.653,4.653-4.653
					C293.547,426.9,295.633,428.986,295.633,431.553z"/>
				<path fill="#B2DF8A" d="M304.619,384.779c0,2.567-2.086,4.653-4.653,4.653c-2.567,0-4.653-2.086-4.653-4.653
					c0-2.567,2.086-4.653,4.653-4.653C302.533,380.126,304.619,382.212,304.619,384.779z"/>
				<path fill="#B15928" d="M313.845,478.327c0,2.567-2.086,4.653-4.653,4.653s-4.653-2.086-4.653-4.653
					c0-2.567,2.086-4.653,4.653-4.653S313.845,475.679,313.845,478.327z"/>
				<path fill="#A6CEE3" d="M315.53,415.989c0,2.567-2.086,4.653-4.653,4.653c-2.567,0-4.653-2.086-4.653-4.653
					s2.086-4.653,4.653-4.653C313.444,411.335,315.53,413.421,315.53,415.989z"/>
				<path fill="#B2DF8A" d="M317.616,322.441c0,2.567-2.086,4.653-4.653,4.653s-4.653-2.086-4.653-4.653s2.086-4.653,4.653-4.653
					S317.616,319.874,317.616,322.441z"/>
				<path fill="#B2DF8A" d="M320.585,400.344c0,2.567-2.086,4.653-4.653,4.653s-4.653-2.086-4.653-4.653s2.086-4.653,4.653-4.653
					S320.585,397.777,320.585,400.344z"/>
				<path fill="#B2DF8A" d="M321.066,384.779c0,2.567-2.086,4.653-4.653,4.653c-2.567,0-4.653-2.086-4.653-4.653
					c0-2.567,2.086-4.653,4.653-4.653C318.98,380.126,321.066,382.212,321.066,384.779z"/>
				<path fill="#A6CEE3" d="M326.441,447.117c0,2.567-2.086,4.653-4.653,4.653c-2.567,0-4.653-2.086-4.653-4.653
					c0-2.567,2.086-4.653,4.653-4.653S326.441,444.55,326.441,447.117z"/>
				<path fill="#A6CEE3" d="M326.682,415.989c0,2.567-2.086,4.653-4.653,4.653s-4.653-2.086-4.653-4.653s2.086-4.653,4.653-4.653
					S326.682,413.421,326.682,415.989z"/>
				<path fill="#B15928" d="M330.854,369.215c0,2.567-2.086,4.653-4.653,4.653s-4.653-2.086-4.653-4.653
					c0-2.567,2.086-4.653,4.653-4.653C328.768,364.562,330.854,366.648,330.854,369.215z"/>
				<path fill="#B2DF8A" d="M335.908,400.344c0,2.567-2.086,4.653-4.653,4.653s-4.653-2.086-4.653-4.653s2.086-4.653,4.653-4.653
					S335.908,397.777,335.908,400.344z"/>
				<path fill="#B15928" d="M337.914,493.891c0,2.567-2.086,4.653-4.653,4.653c-2.567,0-4.653-2.086-4.653-4.653
					s2.086-4.653,4.653-4.653S337.914,491.324,337.914,493.891z"/>
				<path fill="#A6CEE3" d="M340.08,400.344c0,2.567-2.086,4.653-4.653,4.653c-2.567,0-4.653-2.086-4.653-4.653
					s2.086-4.653,4.653-4.653S340.08,397.777,340.08,400.344z"/>
				<path fill="#B15928" d="M341.765,415.989c0,2.567-2.086,4.653-4.653,4.653s-4.653-2.086-4.653-4.653s2.086-4.653,4.653-4.653
					S341.765,413.421,341.765,415.989z"/>
				<path fill="#B2DF8A" d="M343.45,400.344c0,2.567-2.086,4.653-4.653,4.653s-4.653-2.086-4.653-4.653s2.086-4.653,4.653-4.653
					C341.364,395.691,343.45,397.777,343.45,400.344z"/>
				<path fill="#A6CEE3" d="M345.375,415.989c0,2.567-2.086,4.653-4.653,4.653c-2.567,0-4.653-2.086-4.653-4.653
					s2.086-4.653,4.653-4.653C343.209,411.335,345.375,413.421,345.375,415.989z"/>
				<path fill="#B15928" d="M347.06,275.668c0,2.567-2.086,4.653-4.653,4.653s-4.653-2.086-4.653-4.653s2.086-4.653,4.653-4.653
					S347.06,273.1,347.06,275.668z"/>
				<path fill="#A6CEE3" d="M350.43,322.441c0,2.567-2.086,4.653-4.653,4.653s-4.653-2.086-4.653-4.653s2.086-4.653,4.653-4.653
					S350.43,319.874,350.43,322.441z"/>
				<path fill="#A6CEE3" d="M350.831,400.344c0,2.567-2.086,4.653-4.653,4.653c-2.567,0-4.653-2.086-4.653-4.653
					s2.086-4.653,4.653-4.653C348.665,395.691,350.831,397.777,350.831,400.344z"/>
				<path fill="#A6CEE3" d="M350.991,400.344c0,2.567-2.086,4.653-4.653,4.653s-4.653-2.086-4.653-4.653s2.086-4.653,4.653-4.653
					S350.991,397.777,350.991,400.344z"/>
				<path fill="#A6CEE3" d="M353.238,384.779c0,2.567-2.086,4.653-4.653,4.653s-4.653-2.086-4.653-4.653
					c0-2.567,2.086-4.653,4.653-4.653S353.238,382.212,353.238,384.779z"/>
				<path fill="#A6CEE3" d="M355.564,400.344c0,2.567-2.086,4.653-4.653,4.653c-2.567,0-4.653-2.086-4.653-4.653
					s2.086-4.653,4.653-4.653S355.564,397.777,355.564,400.344z"/>
				<path fill="#B2DF8A" d="M356.046,431.553c0,2.567-2.086,4.653-4.653,4.653c-2.567,0-4.653-2.086-4.653-4.653
					s2.086-4.653,4.653-4.653C353.96,426.9,356.046,428.986,356.046,431.553z"/>
				<path fill="#B15928" d="M357.731,431.553c0,2.567-2.086,4.653-4.653,4.653c-2.567,0-4.653-2.086-4.653-4.653
					s2.086-4.653,4.653-4.653C355.645,426.9,357.731,428.986,357.731,431.553z"/>
				<path fill="#B15928" d="M364.149,400.344c0,2.567-2.086,4.653-4.653,4.653c-2.567,0-4.653-2.086-4.653-4.653
					s2.086-4.653,4.653-4.653S364.149,397.777,364.149,400.344z"/>
				<path fill="#B2DF8A" d="M366.556,431.553c0,2.567-2.086,4.653-4.653,4.653s-4.653-2.086-4.653-4.653s2.086-4.653,4.653-4.653
					S366.556,428.986,366.556,431.553z"/>
				<path fill="#B15928" d="M371.129,447.117c0,2.567-2.086,4.653-4.653,4.653s-4.653-2.086-4.653-4.653
					c0-2.567,2.086-4.653,4.653-4.653C369.043,442.464,371.129,444.55,371.129,447.117z"/>
				<path fill="#B2DF8A" d="M374.338,384.779c0,2.567-2.086,4.653-4.653,4.653s-4.653-2.086-4.653-4.653
					c0-2.567,2.086-4.653,4.653-4.653S374.338,382.212,374.338,384.779z"/>
				<path fill="#B2DF8A" d="M385.169,415.989c0,2.567-2.086,4.653-4.653,4.653c-2.567,0-4.653-2.086-4.653-4.653
					s2.086-4.653,4.653-4.653C383.083,411.335,385.169,413.421,385.169,415.989z"/>
				<path fill="#33A02C" d="M385.971,431.553c0,2.567-2.086,4.653-4.653,4.653s-4.653-2.086-4.653-4.653s2.086-4.653,4.653-4.653
					C383.885,426.9,385.971,428.986,385.971,431.553z"/>
				<path fill="#B15928" d="M388.138,509.456c0,2.567-2.086,4.653-4.653,4.653c-2.567,0-4.653-2.086-4.653-4.653
					s2.086-4.653,4.653-4.653C386.052,504.802,388.138,506.888,388.138,509.456z"/>
				<path fill="#B2DF8A" d="M390.705,415.989c0,2.567-2.086,4.653-4.653,4.653s-4.653-2.086-4.653-4.653s2.086-4.653,4.653-4.653
					S390.705,413.421,390.705,415.989z"/>
				<path fill="#B15928" d="M390.865,493.891c0,2.567-2.086,4.653-4.653,4.653s-4.653-2.086-4.653-4.653s2.086-4.653,4.653-4.653
					S390.865,491.324,390.865,493.891z"/>
				<path fill="#B2DF8A" d="M392.791,431.553c0,2.567-2.086,4.653-4.653,4.653s-4.653-2.086-4.653-4.653s2.086-4.653,4.653-4.653
					S392.791,428.986,392.791,431.553z"/>
				<path fill="#A6CEE3" d="M395.438,415.989c0,2.567-2.086,4.653-4.653,4.653c-2.567,0-4.653-2.086-4.653-4.653
					s2.086-4.653,4.653-4.653S395.438,413.421,395.438,415.989z"/>
				<path fill="#B15928" d="M395.679,353.65c0,2.567-2.086,4.653-4.653,4.653s-4.653-2.086-4.653-4.653s2.086-4.653,4.653-4.653
					S395.679,351.083,395.679,353.65z"/>
				<path fill="#B2DF8A" d="M396.481,384.779c0,2.567-2.086,4.653-4.653,4.653s-4.653-2.086-4.653-4.653
					c0-2.567,2.086-4.653,4.653-4.653S396.481,382.212,396.481,384.779z"/>
				<path fill="#B15928" d="M402.659,384.779c0,2.567-2.086,4.653-4.653,4.653c-2.567,0-4.653-2.086-4.653-4.653
					c0-2.567,2.086-4.653,4.653-4.653C400.573,380.126,402.659,382.212,402.659,384.779z"/>
				<path fill="#A6CEE3" d="M403.461,415.989c0,2.567-2.086,4.653-4.653,4.653s-4.653-2.086-4.653-4.653s2.086-4.653,4.653-4.653
					S403.461,413.421,403.461,415.989z"/>
				<path fill="#B2DF8A" d="M404.183,400.344c0,2.567-2.086,4.653-4.653,4.653s-4.653-2.086-4.653-4.653s2.086-4.653,4.653-4.653
					S404.183,397.777,404.183,400.344z"/>
				<path fill="#B2DF8A" d="M407.633,400.344c0,2.567-2.086,4.653-4.653,4.653s-4.653-2.086-4.653-4.653s2.086-4.653,4.653-4.653
					C405.547,395.691,407.633,397.777,407.633,400.344z"/>
				<path fill="#B15928" d="M410.441,384.779c0,2.567-2.086,4.653-4.653,4.653c-2.567,0-4.653-2.086-4.653-4.653
					c0-2.567,2.086-4.653,4.653-4.653C408.355,380.126,410.441,382.212,410.441,384.779z"/>
				<path fill="#B2DF8A" d="M419.507,415.989c0,2.567-2.086,4.653-4.653,4.653s-4.653-2.086-4.653-4.653s2.086-4.653,4.653-4.653
					S419.507,413.421,419.507,415.989z"/>
				<path fill="#B2DF8A" d="M423.198,384.779c0,2.567-2.086,4.653-4.653,4.653s-4.653-2.086-4.653-4.653
					c0-2.567,2.086-4.653,4.653-4.653S423.198,382.212,423.198,384.779z"/>
				<path fill="#33A02C" d="M430.178,462.682c0,2.567-2.086,4.653-4.653,4.653s-4.653-2.086-4.653-4.653s2.086-4.653,4.653-4.653
					S430.178,460.115,430.178,462.682z"/>
				<path fill="#B15928" d="M432.986,369.215c0,2.567-2.086,4.653-4.653,4.653c-2.567,0-4.653-2.086-4.653-4.653
					c0-2.567,2.086-4.653,4.653-4.653C430.9,364.562,432.986,366.648,432.986,369.215z"/>
				<path fill="#B2DF8A" d="M433.066,431.553c0,2.567-2.086,4.653-4.653,4.653s-4.653-2.086-4.653-4.653s2.086-4.653,4.653-4.653
					C430.98,426.9,433.066,428.986,433.066,431.553z"/>
				<path fill="#B15928" d="M436.676,493.891c0,2.567-2.086,4.653-4.653,4.653s-4.653-2.086-4.653-4.653s2.086-4.653,4.653-4.653
					S436.676,491.324,436.676,493.891z"/>
				<path fill="#B2DF8A" d="M445.02,431.553c0,2.567-2.086,4.653-4.653,4.653c-2.567,0-4.653-2.086-4.653-4.653
					s2.086-4.653,4.653-4.653C442.934,426.9,445.02,428.986,445.02,431.553z"/>
				<path fill="#B15928" d="M450.476,493.891c0,2.567-2.086,4.653-4.653,4.653s-4.653-2.086-4.653-4.653s2.086-4.653,4.653-4.653
					S450.476,491.324,450.476,493.891z"/>
				<path fill="#B2DF8A" d="M452.722,447.117c0,2.567-2.086,4.653-4.653,4.653s-4.653-2.086-4.653-4.653
					c0-2.567,2.086-4.653,4.653-4.653S452.722,444.55,452.722,447.117z"/>
				<path fill="#B2DF8A" d="M453.043,447.117c0,2.567-2.086,4.653-4.653,4.653s-4.653-2.086-4.653-4.653
					c0-2.567,2.086-4.653,4.653-4.653S453.043,444.55,453.043,447.117z"/>
				<path fill="#B2DF8A" d="M458.017,400.344c0,2.567-2.086,4.653-4.653,4.653s-4.653-2.086-4.653-4.653s2.086-4.653,4.653-4.653
					S458.017,397.777,458.017,400.344z"/>
				<path fill="#B15928" d="M463.713,493.891c0,2.567-2.086,4.653-4.653,4.653c-2.567,0-4.653-2.086-4.653-4.653
					s2.086-4.653,4.653-4.653S463.713,491.324,463.713,493.891z"/>
				<path fill="#33A02C" d="M465.318,415.989c0,2.567-2.086,4.653-4.653,4.653c-2.567,0-4.653-2.086-4.653-4.653
					s2.086-4.653,4.653-4.653S465.318,413.421,465.318,415.989z"/>
				<path fill="#33A02C" d="M468.447,447.117c0,2.567-2.086,4.653-4.653,4.653c-2.567,0-4.653-2.086-4.653-4.653
					c0-2.567,2.086-4.653,4.653-4.653S468.447,444.55,468.447,447.117z"/>
				<path fill="#B15928" d="M468.688,493.891c0,2.567-2.086,4.653-4.653,4.653c-2.567,0-4.653-2.086-4.653-4.653
					s2.086-4.653,4.653-4.653C466.602,489.238,468.688,491.324,468.688,493.891z"/>
				<path fill="#B15928" d="M475.989,353.65c0,2.567-2.086,4.653-4.653,4.653s-4.653-2.086-4.653-4.653s2.086-4.653,4.653-4.653
					S475.989,351.083,475.989,353.65z"/>
				<path fill="#33A02C" d="M481.685,447.117c0,2.567-2.086,4.653-4.653,4.653c-2.567,0-4.653-2.086-4.653-4.653
					c0-2.567,2.086-4.653,4.653-4.653S481.685,444.55,481.685,447.117z"/>
				<path fill="#B15928" d="M482.166,478.327c0,2.567-2.086,4.653-4.653,4.653s-4.653-2.086-4.653-4.653
					c0-2.567,2.086-4.653,4.653-4.653S482.166,475.679,482.166,478.327z"/>
				<path fill="#B2DF8A" d="M483.209,400.344c0,2.567-2.086,4.653-4.653,4.653c-2.567,0-4.653-2.086-4.653-4.653
					s2.086-4.653,4.653-4.653S483.209,397.777,483.209,400.344z"/>
				<path fill="#B2DF8A" d="M484.172,431.553c0,2.567-2.086,4.653-4.653,4.653s-4.653-2.086-4.653-4.653s2.086-4.653,4.653-4.653
					S484.172,428.986,484.172,431.553z"/>
				<path fill="#33A02C" d="M485.215,447.117c0,2.567-2.086,4.653-4.653,4.653s-4.653-2.086-4.653-4.653
					c0-2.567,2.086-4.653,4.653-4.653S485.215,444.55,485.215,447.117z"/>
				<path fill="#B2DF8A" d="M488.183,400.344c0,2.567-2.086,4.653-4.653,4.653s-4.653-2.086-4.653-4.653s2.086-4.653,4.653-4.653
					S488.183,397.777,488.183,400.344z"/>
				<path fill="#B2DF8A" d="M489.066,447.117c0,2.567-2.086,4.653-4.653,4.653c-2.567,0-4.653-2.086-4.653-4.653
					c0-2.567,2.086-4.653,4.653-4.653C486.9,442.464,489.066,444.55,489.066,447.117z"/>
				<path fill="#33A02C" d="M516.745,447.117c0,2.567-2.086,4.653-4.653,4.653c-2.567,0-4.653-2.086-4.653-4.653
					c0-2.567,2.086-4.653,4.653-4.653C514.659,442.464,516.745,444.55,516.745,447.117z"/>
				<path fill="#33A02C" d="M517.226,400.344c0,2.567-2.086,4.653-4.653,4.653c-2.567,0-4.653-2.086-4.653-4.653
					s2.086-4.653,4.653-4.653S517.226,397.777,517.226,400.344z"/>
				<path fill="#33A02C" d="M526.854,447.117c0,2.567-2.086,4.653-4.653,4.653c-2.567,0-4.653-2.086-4.653-4.653
					c0-2.567,2.086-4.653,4.653-4.653C524.768,442.464,526.854,444.55,526.854,447.117z"/>
				<path fill="#B15928" d="M529.742,493.891c0,2.567-2.086,4.653-4.653,4.653c-2.567,0-4.653-2.086-4.653-4.653
					s2.086-4.653,4.653-4.653C527.656,489.238,529.742,491.324,529.742,493.891z"/>
				<path fill="#33A02C" d="M535.198,400.344c0,2.567-2.086,4.653-4.653,4.653c-2.567,0-4.653-2.086-4.653-4.653
					s2.086-4.653,4.653-4.653C533.112,395.691,535.198,397.777,535.198,400.344z"/>
				<path fill="#33A02C" d="M545.628,493.891c0,2.567-2.086,4.653-4.653,4.653c-2.567,0-4.653-2.086-4.653-4.653
					s2.086-4.653,4.653-4.653C543.542,489.238,545.628,491.324,545.628,493.891z"/>
				<path fill="#B2DF8A" d="M546.029,431.553c0,2.567-2.086,4.653-4.653,4.653c-2.567,0-4.653-2.086-4.653-4.653
					s2.086-4.653,4.653-4.653C543.943,426.9,546.029,428.986,546.029,431.553z"/>
				<path fill="#33A02C" d="M556.218,415.989c0,2.567-2.086,4.653-4.653,4.653c-2.567,0-4.653-2.086-4.653-4.653
					s2.086-4.653,4.653-4.653C554.292,411.335,556.218,413.421,556.218,415.989z"/>
				<path fill="#33A02C" d="M565.364,447.117c0,2.567-2.086,4.653-4.653,4.653c-2.567,0-4.653-2.086-4.653-4.653
					c0-2.567,2.086-4.653,4.653-4.653C563.278,442.464,565.364,444.55,565.364,447.117z"/>
				<path fill="#33A02C" d="M568.172,462.682c0,2.567-2.086,4.653-4.653,4.653c-2.567,0-4.653-2.086-4.653-4.653
					s2.086-4.653,4.653-4.653C566.086,458.029,568.172,460.115,568.172,462.682z"/>
				<path fill="#33A02C" d="M575.713,462.682c0,2.567-2.086,4.653-4.653,4.653c-2.567,0-4.653-2.086-4.653-4.653
					s2.086-4.653,4.653-4.653C573.628,458.029,575.713,460.115,575.713,462.682z"/>
				<path fill="#33A02C" d="M603.473,415.989c0,2.567-2.086,4.653-4.653,4.653c-2.567,0-4.653-2.086-4.653-4.653
					s2.086-4.653,4.653-4.653C601.387,411.335,603.473,413.421,603.473,415.989z"/>
				<path fill="#33A02C" d="M609.009,415.989c0,2.567-2.086,4.653-4.653,4.653c-2.567,0-4.653-2.086-4.653-4.653
					s2.086-4.653,4.653-4.653C607.083,411.335,609.009,413.421,609.009,415.989z"/>
				<path fill="#33A02C" d="M612.539,462.682c0,2.567-2.086,4.653-4.653,4.653c-2.567,0-4.653-2.086-4.653-4.653
					s2.086-4.653,4.653-4.653S612.539,460.115,612.539,462.682z"/>
				<path fill="#33A02C" d="M621.203,447.117c0,2.567-2.086,4.653-4.653,4.653c-2.567,0-4.653-2.086-4.653-4.653
					c0-2.567,2.086-4.653,4.653-4.653C619.117,442.464,621.203,444.55,621.203,447.117z"/>
				<path fill="#33A02C" d="M624.974,478.327c0,2.567-2.086,4.653-4.653,4.653c-2.567,0-4.653-2.086-4.653-4.653
					c0-2.567,2.086-4.653,4.653-4.653S624.974,475.679,624.974,478.327z"/>
				<path fill="#FB9A99" d="M631.553,447.117c0,2.567-2.086,4.653-4.653,4.653c-2.567,0-4.653-2.086-4.653-4.653
					c0-2.567,2.086-4.653,4.653-4.653S631.553,444.55,631.553,447.117z"/>
				<path fill="#FB9A99" d="M637.089,462.682c0,2.567-2.086,4.653-4.653,4.653c-2.567,0-4.653-2.086-4.653-4.653
					s2.086-4.653,4.653-4.653C635.003,458.029,637.089,460.115,637.089,462.682z"/>
				<path fill="#33A02C" d="M644.309,415.989c0,2.567-2.086,4.653-4.653,4.653c-2.567,0-4.653-2.086-4.653-4.653
					s2.086-4.653,4.653-4.653C642.224,411.335,644.309,413.421,644.309,415.989z"/>
				<path fill="#33A02C" d="M649.444,415.989c0,2.567-2.086,4.653-4.653,4.653c-2.567,0-4.653-2.086-4.653-4.653
					s2.086-4.653,4.653-4.653S649.444,413.421,649.444,415.989z"/>
				<path fill="#33A02C" d="M651.049,447.117c0,2.567-2.086,4.653-4.653,4.653c-2.567,0-4.653-2.086-4.653-4.653
					c0-2.567,2.086-4.653,4.653-4.653C648.963,442.464,651.049,444.55,651.049,447.117z"/>
				<path fill="#33A02C" d="M653.054,478.327c0,2.567-2.086,4.653-4.653,4.653c-2.567,0-4.653-2.086-4.653-4.653
					c0-2.567,2.086-4.653,4.653-4.653C650.968,473.673,653.054,475.679,653.054,478.327z"/>
				<path fill="#FB9A99" d="M656.745,462.682c0,2.567-2.086,4.653-4.653,4.653c-2.567,0-4.653-2.086-4.653-4.653
					s2.086-4.653,4.653-4.653C654.659,458.029,656.745,460.115,656.745,462.682z"/>
				<path fill="#33A02C" d="M658.269,447.117c0,2.567-2.086,4.653-4.653,4.653c-2.567,0-4.653-2.086-4.653-4.653
					c0-2.567,2.086-4.653,4.653-4.653C656.183,442.464,658.269,444.55,658.269,447.117z"/>
				<path fill="#33A02C" d="M659.072,478.327c0,2.567-2.086,4.653-4.653,4.653c-2.567,0-4.653-2.086-4.653-4.653
					c0-2.567,2.086-4.653,4.653-4.653S659.072,475.679,659.072,478.327z"/>
				<path fill="#FB9A99" d="M670.785,431.553c0,2.567-2.086,4.653-4.653,4.653c-2.567,0-4.653-2.086-4.653-4.653
					s2.086-4.653,4.653-4.653C668.699,426.9,670.785,428.986,670.785,431.553z"/>
				<path fill="#33A02C" d="M671.908,462.682c0,2.567-2.086,4.653-4.653,4.653c-2.567,0-4.653-2.086-4.653-4.653
					s2.086-4.653,4.653-4.653C669.822,458.029,671.908,460.115,671.908,462.682z"/>
				<path fill="#FB9A99" d="M677.203,400.344c0,2.567-2.086,4.653-4.653,4.653c-2.567,0-4.653-2.086-4.653-4.653
					s2.086-4.653,4.653-4.653C675.117,395.691,677.203,397.777,677.203,400.344z"/>
				<path fill="#FB9A99" d="M696.298,462.682c0,2.567-2.086,4.653-4.653,4.653c-2.567,0-4.653-2.086-4.653-4.653
					s2.086-4.653,4.653-4.653C694.212,458.029,696.298,460.115,696.298,462.682z"/>
				<path fill="#33A02C" d="M696.539,478.327c0,2.567-2.086,4.653-4.653,4.653c-2.567,0-4.653-2.086-4.653-4.653
					c0-2.567,2.086-4.653,4.653-4.653C694.453,473.673,696.539,475.679,696.539,478.327z"/>
				<path fill="#FB9A99" d="M701.513,431.553c0,2.567-2.086,4.653-4.653,4.653c-2.567,0-4.653-2.086-4.653-4.653
					s2.086-4.653,4.653-4.653C699.427,426.9,701.513,428.986,701.513,431.553z"/>
				<path fill="#FB9A99" d="M716.596,431.553c0,2.567-2.086,4.653-4.653,4.653c-2.567,0-4.653-2.086-4.653-4.653
					s2.086-4.653,4.653-4.653C714.51,426.9,716.596,428.986,716.596,431.553z"/>
				<path fill="#33A02C" d="M716.997,462.682c0,2.567-2.086,4.653-4.653,4.653s-4.653-2.086-4.653-4.653s2.086-4.653,4.653-4.653
					C714.911,458.029,716.997,460.115,716.997,462.682z"/>
				<path fill="#FB9A99" d="M722.292,447.117c0,2.567-2.086,4.653-4.653,4.653s-4.653-2.086-4.653-4.653
					c0-2.567,2.086-4.653,4.653-4.653S722.292,444.55,722.292,447.117z"/>
				<path fill="#FB9A99" d="M724.539,431.553c0,2.567-2.086,4.653-4.653,4.653c-2.567,0-4.653-2.086-4.653-4.653
					s2.086-4.653,4.653-4.653C722.453,426.9,724.539,428.986,724.539,431.553z"/>
				<path fill="#FB9A99" d="M731.84,415.989c0,2.567-2.086,4.653-4.653,4.653s-4.653-2.086-4.653-4.653s2.086-4.653,4.653-4.653
					C729.754,411.335,731.84,413.421,731.84,415.989z"/>
				<path fill="#FB9A99" d="M762.808,447.117c0,2.567-2.086,4.653-4.653,4.653c-2.567,0-4.653-2.086-4.653-4.653
					c0-2.567,2.086-4.653,4.653-4.653C760.722,442.464,762.808,444.55,762.808,447.117z"/>
				<path fill="#FB9A99" d="M766.659,447.117c0,2.567-2.086,4.653-4.653,4.653c-2.567,0-4.653-2.086-4.653-4.653
					c0-2.567,2.086-4.653,4.653-4.653C764.573,442.464,766.659,444.55,766.659,447.117z"/>
				<path fill="#33A02C" d="M779.415,493.891c0,2.567-2.086,4.653-4.653,4.653c-2.567,0-4.653-2.086-4.653-4.653
					s2.086-4.653,4.653-4.653C777.329,489.238,779.415,491.324,779.415,493.891z"/>
				<path fill="#FB9A99" d="M788.802,478.327c0,2.567-2.086,4.653-4.653,4.653c-2.567,0-4.653-2.086-4.653-4.653
					c0-2.567,2.086-4.653,4.653-4.653C786.716,473.673,788.802,475.679,788.802,478.327z"/>
				<path fill="#FB9A99" d="M790.327,431.553c0,2.567-2.086,4.653-4.653,4.653c-2.567,0-4.653-2.086-4.653-4.653
					s2.086-4.653,4.653-4.653C788.241,426.9,790.327,428.986,790.327,431.553z"/>
				<path fill="#FB9A99" d="M791.049,400.344c0,2.567-2.086,4.653-4.653,4.653c-2.567,0-4.653-2.086-4.653-4.653
					s2.086-4.653,4.653-4.653C788.963,395.691,791.049,397.777,791.049,400.344z"/>
				<path fill="#FB9A99" d="M822.097,415.989c0,2.567-2.086,4.653-4.653,4.653s-4.653-2.086-4.653-4.653s2.086-4.653,4.653-4.653
					S822.097,413.421,822.097,415.989z"/>
				<path fill="#FB9A99" d="M823.301,447.117c0,2.567-2.086,4.653-4.653,4.653c-2.567,0-4.653-2.086-4.653-4.653
					c0-2.567,2.086-4.653,4.653-4.653S823.301,444.55,823.301,447.117z"/>
				<path fill="#FB9A99" d="M864.057,291.312c0,2.567-2.086,4.653-4.653,4.653c-2.567,0-4.653-2.086-4.653-4.653
					c0-2.567,2.086-4.653,4.653-4.653C861.971,286.659,864.057,288.825,864.057,291.312z"/>
				<path fill="#FB9A99" d="M881.066,478.327c0,2.567-2.086,4.653-4.653,4.653c-2.567,0-4.653-2.086-4.653-4.653
					c0-2.567,2.086-4.653,4.653-4.653C878.98,473.673,881.066,475.679,881.066,478.327z"/>
			</g>
		</g>
		<g>
			<path fill="none" stroke="#E34A33" stroke-width="2" stroke-miterlimit="2" d="M86.716,173.215
				c3.37,3.691,6.017,6.739,8.023,8.905c3.931,4.332,9.868,10.831,13.479,14.762c2.327,2.567,3.45,3.851,5.937,6.418
				c3.61,3.691,9.387,9.948,13.318,14.04c3.049,3.129,5.375,5.536,8.103,8.344c2.648,2.648,5.777,5.937,7.862,7.862
				c1.284,1.284,1.845,1.845,3.049,3.049c1.364,1.364,3.37,3.289,4.974,4.974c1.605,1.605,4.332,4.172,5.135,4.974
				c0.241,0.241,0.241,0.241,0.481,0.481c0.481,0.481,1.123,1.123,2.086,2.006c1.845,1.845,7.301,7.06,8.745,8.344
				c0.321,0.321,0.722,0.722,0.722,0.722l0,0c0.08,0.08,0.321,0.321,0.562,0.481c0.08,0.08,0.241,0.241,0.481,0.481
				c0.562,0.562,2.407,2.166,3.049,2.888c0.321,0.321,0.321,0.321,0.722,0.722c0.722,0.562,1.524,1.524,3.049,2.808
				c3.851,3.45,14.602,13.478,20.458,18.533c4.172,3.691,8.023,7.06,10.911,9.547c1.845,1.605,3.37,2.888,4.653,4.092
				c0.963,0.802,1.605,1.364,2.327,2.006c0.562,0.481,0.722,0.562,1.364,1.123c1.524,1.284,5.375,4.493,7.862,6.579
				c2.407,2.006,6.178,5.135,6.98,5.696c0.08,0.08,0.241,0.08,0.321,0.241c0.08,0.08,0.321,0.241,0.562,0.481
				c0.562,0.481,2.086,1.605,3.049,2.407c0.722,0.562,1.605,1.284,2.006,1.605c0.08,0.08,0.08,0.08,0.241,0.241
				c0.562,0.481,3.129,2.567,4.413,3.45c0.963,0.722,1.765,1.364,2.166,1.765c0.241,0.08,0.241,0.08,0.481,0.321
				c0.321,0.321,1.364,1.043,2.006,1.524c0.481,0.321,0.722,0.481,1.123,0.802c0.802,0.562,2.407,1.845,3.37,2.567
				c0.562,0.481,0.802,0.562,1.364,1.043c1.284,0.963,3.61,2.648,5.456,4.172c2.166,1.605,4.413,3.289,6.98,5.215
				c3.37,2.407,10.109,7.301,11.713,8.504c0.481,0.321,0.562,0.321,0.963,0.722c0.481,0.321,1.123,0.802,1.765,1.284
				c0.562,0.481,1.284,0.963,2.006,1.364c0.722,0.481,1.605,1.123,2.006,1.364c0.08,0.08,0.08,0.08,0.241,0.241
				c0.562,0.481,4.092,2.808,4.493,3.129c0.08,0.08,0.08,0.08,0.241,0.08c0.321,0.241,1.845,1.284,3.129,2.166
				c2.166,1.524,5.937,4.092,8.905,6.017c3.049,2.006,7.301,4.734,9.146,5.937c0.802,0.481,1.043,0.722,1.605,1.043
				c0.722,0.481,1.364,0.802,2.086,1.284c0.963,0.562,2.407,1.524,3.049,1.845c0.241,0.08,0.241,0.08,0.481,0.241
				c0.802,0.481,4.734,2.888,5.375,3.289c0.08,0.08,0.08,0.08,0.241,0.08c0.562,0.321,2.808,1.605,4.172,2.567
				c1.605,0.963,3.851,2.327,5.135,3.049c0.802,0.481,1.284,0.722,2.006,1.123c0.722,0.481,1.524,0.963,2.166,1.284
				c0.562,0.321,1.123,0.722,1.605,0.963c0.562,0.321,1.123,0.722,1.765,1.043c0.562,0.321,1.284,0.722,1.845,1.043
				c0.562,0.321,1.043,0.562,1.765,0.963c0.963,0.562,2.808,1.524,3.37,1.845c0.241,0.08,0.241,0.08,0.321,0.241
				c0.08,0.08,0.08,0.08,0.241,0.08c0.321,0.241,1.364,0.802,2.086,1.123c0.802,0.481,1.845,1.043,2.327,1.284
				c0.241,0.08,0.321,0.08,0.562,0.241c0.481,0.241,0.963,0.562,1.765,0.963c1.524,0.802,4.734,2.567,6.418,3.37
				c1.043,0.562,1.524,0.802,2.407,1.284c1.284,0.722,3.129,1.605,4.493,2.327c1.123,0.562,1.845,0.963,3.289,1.605
				c2.567,1.284,9.146,4.493,10.67,5.215c0.481,0.241,0.481,0.241,0.802,0.481c0.562,0.241,1.364,0.722,2.166,1.043
				s2.166,1.043,2.567,1.123c0.08,0,0.08,0,0.08,0.08c0.241,0.08,1.284,0.562,2.006,0.963c0.802,0.321,2.166,1.043,2.567,1.123
				c0.08,0.08,0.241,0.08,0.321,0.08c0.241,0.08,0.481,0.241,0.802,0.321c1.043,0.481,4.974,2.166,6.017,2.808
				c0.481,0.241,0.562,0.241,0.802,0.321c0.241,0.08,0.321,0.08,0.562,0.241c0.722,0.321,2.327,1.043,3.45,1.524
				c1.043,0.481,1.605,0.722,2.888,1.284c2.166,0.963,6.739,2.808,9.066,3.691c1.524,0.562,2.166,0.963,3.691,1.524
				c2.006,0.802,5.215,2.006,6.98,2.648c1.123,0.481,2.567,0.963,2.808,1.043c0.08,0,0,0,0.08,0c0.321,0.08,2.086,0.802,3.45,1.284
				c2.166,0.802,5.937,2.086,8.344,3.049c2.006,0.722,4.092,1.364,5.456,1.845c0.963,0.321,1.845,0.562,2.166,0.722
				c0.241,0.08,0.241,0.08,0.321,0.08c0.722,0.241,3.289,1.043,4.974,1.605c1.845,0.562,4.332,1.364,5.696,1.765
				c0.722,0.241,1.043,0.321,1.605,0.481c0.963,0.241,2.648,0.802,3.129,0.963c0.08,0,0.08,0,0.241,0.08
				c0.722,0.241,4.974,1.524,7.301,2.086c2.086,0.562,4.974,1.364,5.776,1.605c0.241,0,0.241,0.08,0.481,0.08
				c0.241,0.08,0.722,0.08,1.043,0.241c0.321,0.08,0.562,0.08,0.963,0.241c0.321,0.08,0.562,0.08,1.043,0.241
				c0.802,0.241,2.327,0.562,3.049,0.802c0.321,0.08,0.321,0.08,0.802,0.241c2.808,0.722,25.513,5.696,27.759,6.178
				c0.241,0,0.241,0,0.481,0.08c1.123,0.241,7.301,1.364,9.628,1.765c1.284,0.241,1.845,0.321,2.888,0.481
				c1.524,0.241,3.37,0.562,5.456,0.802c2.888,0.481,9.307,1.284,10.43,1.364c0.241,0,0.08,0,0.321,0
				c1.043,0.08,6.98,0.802,10.35,1.123c3.129,0.321,6.98,0.722,9.146,0.963c1.123,0.08,1.605,0.08,2.808,0.241
				c1.845,0.08,4.332,0.321,7.622,0.562c6.418,0.321,21.903,0.802,27.759,0.802c2.567,0,3.931,0,5.536,0c1.284,0,2.006,0,3.37-0.08
				c2.166,0,6.418-0.08,8.745-0.241c1.524,0,2.327-0.08,3.851-0.08c1.845-0.08,4.493-0.241,6.579-0.321
				c2.006-0.08,3.61-0.241,5.536-0.321c2.166-0.08,4.894-0.321,7.06-0.562c1.845-0.08,3.931-0.321,5.215-0.481
				c0.722-0.08,1.043-0.08,1.605-0.08c0.562-0.08,1.123-0.08,2.006-0.241c1.043-0.08,2.808-0.321,3.691-0.481
				c0.562-0.08,1.043-0.08,1.524-0.08c0.321,0,0.481,0,0.963-0.08c1.605-0.241,9.868-1.284,11.713-1.605
				c0.562-0.08,0.562-0.08,1.043-0.08c1.123-0.08,3.049-0.481,5.375-0.802c4.413-0.722,17.65-3.289,19.014-3.45
				c0.241,0,0.08,0,0.241,0c0.722-0.08,2.808-0.562,4.894-1.043c3.61-0.802,13.719-3.129,15.083-3.45c0.241-0.08,0.241,0,0.321-0.08
				c0.722-0.241,3.931-1.043,5.375-1.364c0.963-0.241,1.284-0.321,2.166-0.562c1.765-0.481,4.092-1.043,7.301-2.006
				c6.739-2.006,25.673-8.023,30.969-9.788c1.845-0.562,2.086-0.722,3.851-1.364c3.049-1.043,8.905-3.289,12.917-4.734
				c3.37-1.284,7.542-3.049,9.387-3.691c0.722-0.241,1.123-0.481,1.524-0.562c0.241-0.08,0.241-0.08,0.722-0.241
				c2.648-1.123,27.84-12.275,31.129-13.96c0.562-0.241,0.481-0.241,1.123-0.562c3.851-2.006,30.086-15.564,40.756-21.501
				c4.653-2.567,10.35-5.937,17.089-10.109"/>
		</g>
	</g>
	<path fill="none" stroke="#999999" stroke-miterlimit="10" d="M37.054,86.006v445.673 M928.481,86.006v445.673"/>
	<g transform="translate(80,100)">
		<path fill="none" stroke="#999999" stroke-miterlimit="10" d="M-40.057,358.029h5.777 M850.166,358.029h-5.777"/>
		<path fill="none" stroke="#999999" stroke-miterlimit="10" d="M-40.057,280.126h5.777 M850.166,280.126h-5.777"/>
		<path fill="none" stroke="#999999" stroke-miterlimit="10" d="M-40.057,202.224h5.777 M850.166,202.224h-5.777"/>
		<path fill="none" stroke="#999999" stroke-miterlimit="10" d="M-40.057,124.401h5.777 M850.166,124.401h-5.777"/>
		<path fill="none" stroke="#999999" stroke-miterlimit="10" d="M-40.057,46.338h5.777 M850.166,46.338h-5.777"/>
		<g>
			<text transform="matrix(1 0 0 1 -51.4785 365.0128)" fill="#999999" font-family="'OpenSans'" font-size="13.928">5</text>
		</g>
		<g>
			<text transform="matrix(1 0 0 1 -59.4423 287.1085)" fill="#999999" font-family="'OpenSans'" font-size="13.928">10</text>
		</g>
		<g>
			<text transform="matrix(1 0 0 1 -59.4423 209.2041)" fill="#999999" font-family="'OpenSans'" font-size="13.928">15</text>
		</g>
		<g>
			<text transform="matrix(1 0 0 1 -59.4423 131.3013)" fill="#999999" font-family="'OpenSans'" font-size="13.928">20</text>
		</g>
		<g>
			<text transform="matrix(1 0 0 1 -59.4423 53.398)" fill="#999999" font-family="'OpenSans'" font-size="13.928">25</text>
		</g>
	</g>
</g>
<g>
	<g>
		<text transform="matrix(1 0 0 1 409.0284 594.712)" fill="#444444" font-family="'OpenSans'" font-size="11.5902">°F</text>
	</g>
	<g>
		
			<text transform="matrix(6.123234e-17 -1 1 6.123234e-17 65.5547 184.676)" fill="#444444" font-family="'OpenSans'" font-size="11.5902">kWh</text>
	</g>
</g>
<g>
	<g transform="rotate(0,310.4367588932806,77.40731070496086)">
		<rect x="189.857" y="43.673" fill-opacity="0" stroke="#000000" stroke-opacity="0" width="390.716" height="20.699"/>
		<text transform="matrix(1 0 0 1 191.1084 58.9732)" fill="#8E8E8E" font-family="'OpenSans'" font-size="20">Electricity Usage &amp; Mean Outdoor Temperature (updated daily)</text>
	</g>
</g>
<g>
	<g transform="translate(0,14.5)">
		<g>
			<g>
				<path fill="#1F78B4" d="M616.753,132.199c0,2.651-2.19,4.725-4.725,4.725c-2.535,0-4.725-2.19-4.725-4.725
					c0-2.536,2.19-4.725,4.725-4.725C614.563,127.473,616.753,129.663,616.753,132.199z"/>
			</g>
		</g>
		<text transform="matrix(1 0 0 1 635.8252 137.7939)" fill="#444444" font-family="'OpenSans'" font-size="14.2708">Recorded Data</text>
		<rect x="588.286" y="120.904" pointer-events="all" fill-opacity="0" width="211.714" height="22.589"/>
	</g>
	<g transform="translate(0,41.1)">
		<g>
			<path fill="none" stroke="#E34A33" stroke-width="2" d="M594.164,137.292h35.727"/>
		</g>
		<text transform="matrix(1 0 0 1 635.8252 152.1041)" fill="#444444" font-family="'OpenSans'" font-size="14.2708">Polynomial Fit (R</text>
		
			<text transform="matrix(1 0 0 1 746.0684 152.1041)" fill="#444444" font-family="'OpenSans'" font-size="14.2708" letter-spacing="-3">​</text>
		<text transform="matrix(1 0 0 1 746.1182 146.11)" fill="#444444" font-family="'OpenSans'" font-size="9.9896">2</text>
		
			<text transform="matrix(1 0 0 1 751.8301 152.1041)" fill="#444444" font-family="'OpenSans'" font-size="14.2708" letter-spacing="-3">​</text>
		<text transform="matrix(1 0 0 1 751.8301 152.1041)" fill="#444444" font-family="'OpenSans'" font-size="14.2708"> = 0.69)</text>
		<rect x="588.286" y="116.893" pointer-events="all" fill-opacity="0" width="211.714" height="40.683"/>
	</g>
</g>
</svg>
