<?xml version="1.0" encoding="utf-8"?>
<!-- Generator: Adobe Illustrator 18.0.0, SVG Export Plug-In . SVG Version: 6.00 Build 0)  -->
<!DOCTYPE svg PUBLIC "-//W3C//DTD SVG 1.1//EN" "http://www.w3.org/Graphics/SVG/1.1/DTD/svg11.dtd">
<svg version="1.1" id="Layer_1" xmlns="http://www.w3.org/2000/svg" xmlns:xlink="http://www.w3.org/1999/xlink" x="0px" y="0px"
	 viewBox="21.1 0 1210.4 774.6" enable-background="new 21.1 0 1210.4 774.6" xml:space="preserve">
<rect x="0" fill="#FFFFFF" width="1284" height="774.6"/>
<g>
	<g transform="translate(80,100)">
	</g>
	<g transform="translate(597,100)">
	</g>
</g>
<g>
	<rect x="105.4" y="231.2" fill="#FFFFFF" width="482.7" height="479.3"/>
	<g transform="translate(80,100)">
		<path stroke="#EEEEEE" d="M25.4,523.4h482.7"/>
		<path stroke="#EEEEEE" d="M25.4,436.2h482.7"/>
		<path stroke="#EEEEEE" d="M25.4,349.1h482.7"/>
		<path stroke="#EEEEEE" d="M25.4,262h482.7"/>
		<path stroke="#EEEEEE" d="M25.4,174.8h482.7"/>
	</g>
	<g transform="translate(80,100)">
		<path stroke="#444444" d="M25.4,610.5h482.7"/>
	</g>
	<g>
		<g shape-rendering="crispEdges">
			<g>
				<path fill="#2A594E" d="M148.9,710.4v-69.7h154.5v69.7H148.9z"/>
				<path fill="#2A594E" d="M390.2,710.4v-366h154.5v366H390.2z"/>
			</g>
		</g>
		<g shape-rendering="crispEdges">
			<g>
				<path fill="#A4D4C9" d="M148.9,640.7V361.8h154.5v278.8H148.9z"/>
				<path fill="#A4D4C9" d="M390.2,344.4v-34.9h154.5v34.9H390.2z"/>
			</g>
		</g>
		<g shape-rendering="crispEdges">
			<g>
				<path fill="#D1A732" d="M148.9,361.8v-87.1h154.5v87.1H148.9z"/>
				<path fill="#D1A732" d="M390.2,309.5v-21.8h154.5v21.8H390.2z"/>
			</g>
		</g>
	</g>
	<g transform="translate(80,100)">
		<g>
			<text transform="matrix(1 0 0 1 95.4824 623.0664)" fill="#444444" font-family="'OpenSans'" font-size="13.6937">Mothers (1965)</text>
		</g>
		<g>
			<text transform="matrix(1 0 0 1 339.8086 623.0664)" fill="#444444" font-family="'OpenSans'" font-size="13.6937">Fathers (1965)</text>
		</g>
	</g>
	<g transform="translate(80,100)">
		<g>
			<text transform="matrix(1 0 0 1 13.0244 613.9375)" fill="#444444" font-family="'OpenSans'" font-size="13.6937">0</text>
		</g>
		<g>
			<text transform="matrix(1 0 0 1 5.1933 526.7988)" fill="#444444" font-family="'OpenSans'" font-size="13.6937">10</text>
		</g>
		<g>
			<text transform="matrix(1 0 0 1 5.1933 439.6513)" fill="#444444" font-family="'OpenSans'" font-size="13.6937">20</text>
		</g>
		<g>
			<text transform="matrix(1 0 0 1 5.1933 352.5136)" fill="#444444" font-family="'OpenSans'" font-size="13.6937">30</text>
		</g>
		<g>
			<text transform="matrix(1 0 0 1 5.1933 265.3759)" fill="#444444" font-family="'OpenSans'" font-size="13.6937">40</text>
		</g>
		<g>
			<text transform="matrix(1 0 0 1 5.1933 178.2275)" fill="#444444" font-family="'OpenSans'" font-size="13.6937">50</text>
		</g>
	</g>
</g>
<g>
	<rect x="720.6" y="231.2" fill="#FFFFFF" width="482.7" height="479.3"/>
	<g transform="translate(597,100)">
		<path stroke="#EEEEEE" d="M123.6,523.4h482.7"/>
		<path stroke="#EEEEEE" d="M123.6,436.2h482.7"/>
		<path stroke="#EEEEEE" d="M123.6,349.1h482.7"/>
		<path stroke="#EEEEEE" d="M123.6,262h482.7"/>
		<path stroke="#EEEEEE" d="M123.6,174.8h482.7"/>
	</g>
	<g transform="translate(597,100)">
		<path stroke="#444444" d="M123.6,610.5h482.7"/>
	</g>
	<g>
		<g shape-rendering="crispEdges">
			<g>
				<path fill="#2A594E" d="M759.5,710.5v-183H914v183H759.5z"/>
				<path fill="#2A594E" d="M1000.8,710.5V388.1h154.5v322.4H1000.8z"/>
			</g>
		</g>
		<g shape-rendering="crispEdges">
			<g>
				<path fill="#A4D4C9" d="M759.5,527.5V370.7H914v156.9H759.5z"/>
				<path fill="#A4D4C9" d="M1000.8,388.1v-87.1h154.5v87.1H1000.8z"/>
			</g>
		</g>
		<g shape-rendering="crispEdges">
			<g>
				<path fill="#D1A732" d="M759.5,370.7v-122H914v122H759.5z"/>
				<path fill="#D1A732" d="M1000.8,300.9v-61h154.5v61H1000.8z"/>
			</g>
		</g>
	</g>
	<g transform="translate(597,100)">
		<g>
			<text transform="matrix(1 0 0 1 191.3965 626.4902)" fill="#444444" font-family="'OpenSans'" font-size="13.6937">Mothers (2011)</text>
		</g>
		<g>
			<text transform="matrix(1 0 0 1 435.7227 626.4902)" fill="#444444" font-family="'OpenSans'" font-size="13.6937">Fathers (2011)</text>
		</g>
	</g>
	<g transform="translate(597,100)">
		<g>
			<text transform="matrix(1 0 0 1 108.9375 613.9375)" fill="#444444" font-family="'OpenSans'" font-size="13.6937">0</text>
		</g>
		<g>
			<text transform="matrix(1 0 0 1 101.1094 526.7988)" fill="#444444" font-family="'OpenSans'" font-size="13.6937">10</text>
		</g>
		<g>
			<text transform="matrix(1 0 0 1 101.1094 439.6513)" fill="#444444" font-family="'OpenSans'" font-size="13.6937">20</text>
		</g>
		<g>
			<text transform="matrix(1 0 0 1 101.1094 352.5136)" fill="#444444" font-family="'OpenSans'" font-size="13.6937">30</text>
		</g>
		<g>
			<text transform="matrix(1 0 0 1 101.1094 265.3759)" fill="#444444" font-family="'OpenSans'" font-size="13.6937">40</text>
		</g>
		<g>
			<text transform="matrix(1 0 0 1 101.1094 178.2275)" fill="#444444" font-family="'OpenSans'" font-size="13.6937">50</text>
		</g>
	</g>
</g>
<g>
	<g>
		<text transform="matrix(1 0 0 1 314.8022 69.5234)" fill="#444444" font-family="'OpenSans'" font-size="20.4235">The Evolution of Parenthood: Mothers and Fathers, </text>
		<text transform="matrix(1 0 0 1 806.3735 69.5234)" fill="#444444" font-family="'OpenSans-Bold'" font-size="20.4235">1965 vs. 2011</text>
		<text transform="matrix(1 0 0 1 420.6147 96.0742)" fill="#444444" font-family="'OpenSans-Italic'" font-size="20.4235">Average number of hours per week spent on...</text>
	</g>
	<g>
		<g transform="rotate(0,549.3,573.5)">
			<rect x="333.8" y="125" fill-opacity="0" stroke="#000000" stroke-opacity="0" width="583.9" height="61.3"/>
			<text transform="matrix(1 0 0 1 335.5864 142.4326)" fill="#444444" font-family="'OpenSans'" font-size="14.4166">Note: Based on adults ages 18-64 with own child(ren) under 18 living in the household.</text>
			<text transform="matrix(1 0 0 1 336.6 161.1747)" fill="#444444" font-family="'OpenSans'" font-size="14.4166">Total figures (at the top of each bar) may not add to component parts due to rounding</text>
			
				<a xlink:href="http://workplaceflexibility.org/images/uploads/program_papers/bianchi_-_family_change_and_time_allocation_in_american_families.pdf"  xlink:show="new">
				<text transform="matrix(1 0 0 1 444.7631 179.9169)" fill="#444444" font-family="'OpenSans'" font-size="14.4166">Data: </text>
				<text transform="matrix(1 0 0 1 483.9809 179.9169)" fill="#444444" font-family="'OpenSans'" font-size="14.4166">Bianchi, et al.</text>
			</a>
			
				<a xlink:href="http://www.pewsocialtrends.org/2013/03/14/modern-parenthood-roles-of-moms-and-dads-converge-as-they-balance-work-and-family/"  xlink:show="new">
				<text transform="matrix(1 0 0 1 572.895 179.9169)" fill="#444444" font-family="'OpenSans'" font-size="14.4166">          Source: </text>
				<text transform="matrix(1 0 0 1 664.2289 179.9169)" fill="#444444" font-family="'OpenSans'" font-size="14.4166">Pew Research Center</text>
			</a>
		</g>
	</g>
</g>
<g>
	
		<text transform="matrix(6.123235e-17 -1 1 6.123235e-17 63.9769 491.7705)" fill="#AAAAAA" font-family="'OpenSans'" font-size="14.9988">Average Hours Per Week</text>
</g>
<g>
	<rect x="571.2" y="325.5" fill="#FFFFFF" fill-opacity="0" width="124.4" height="76.5"/>
	<g transform="translate(0,14.5)">
		<g>
			<g>
				<path fill="#D1A732" d="M600.9,334.3h-13.7v-13.7h13.7V334.3z"/>
			</g>
		</g>
		<text transform="matrix(1 0 0 1 616.8496 332.8388)" fill="#444444" font-family="'OpenSans'" font-size="13.6937">Child Care</text>
		<rect x="571.2" y="316.7" pointer-events="all" fill-opacity="0" width="118.3" height="21.7"/>
	</g>
	<g transform="translate(0,33.5)">
		<g>
			<g>
				<path fill="#A4D4C9" d="M600.9,337h-13.7v-13.7h13.7V337z"/>
			</g>
		</g>
		<text transform="matrix(1 0 0 1 616.8496 335.5215)" fill="#444444" font-family="'OpenSans'" font-size="13.6937">Housework</text>
		<rect x="571.2" y="319.3" pointer-events="all" fill-opacity="0" width="118.3" height="21.7"/>
	</g>
	<g transform="translate(0,52.5)">
		<g>
			<g>
				<path fill="#2A594E" d="M600.9,339.7h-13.7V326h13.7V339.7z"/>
			</g>
		</g>
		<text transform="matrix(1 0 0 1 616.8496 338.2011)" fill="#444444" font-family="'OpenSans'" font-size="13.6937">Paid Work</text>
		<rect x="571.2" y="322" pointer-events="all" fill-opacity="0" width="118.3" height="21.7"/>
	</g>
</g>
</svg>
