<?xml version="1.0" encoding="utf-8"?>
<!-- Generator: Adobe Illustrator 18.0.0, SVG Export Plug-In . SVG Version: 6.00 Build 0)  -->
<!DOCTYPE svg PUBLIC "-//W3C//DTD SVG 1.1//EN" "http://www.w3.org/Graphics/SVG/1.1/DTD/svg11.dtd">
<svg version="1.1" xmlns="http://www.w3.org/2000/svg" xmlns:xlink="http://www.w3.org/1999/xlink" x="0px" y="0px"
	 viewBox="112 137.7 642 384.3" enable-background="new 112 137.7 642 384.3" xml:space="preserve">
<g id="Layer_1">
	<rect x="32" y="8" fill="#F5F6F9" width="823" height="564"/>
	<g>
		<g transform="translate(80,100)">
		</g>
	</g>
	<g>
		<rect x="112" y="108" fill="#F5F6F9" width="642" height="384"/>
		<g transform="translate(80,100)">
			<path stroke="#FFFFFF" d="M59.3,8v384"/>
			<path stroke="#FFFFFF" d="M193.3,8v384"/>
			<path stroke="#FFFFFF" d="M327.4,8v384"/>
			<path stroke="#FFFFFF" d="M461.4,8v384"/>
			<path stroke="#FFFFFF" d="M595.5,8v384"/>
			<path stroke="#FFFFFF" d="M32,382.7h642"/>
			<path stroke="#FFFFFF" d="M32,296.5h642"/>
			<path stroke="#FFFFFF" d="M32,210.2h642"/>
			<path stroke="#FFFFFF" d="M32,124h642"/>
			<path stroke="#FFFFFF" d="M32,37.7h642"/>
		</g>
		<g transform="translate(80,100)">
		</g>
		<g>
			<g>
				<path fill="none" stroke="#FF9933" stroke-width="3" stroke-miterlimit="2" d="M112,365.6l0.7-0.5l0.2,2.2l0.2-0.9l0.2,0.7
					l0.6-0.5l0.6,2l0.2-2.3l0.7,1.1l0.2,1l0.4,1.4l0.6-1.4l0.7,2.7l0.7-2.3l0.4,0.3l0.2-0.9l0.6-0.1l0.2,1.1l1.3,3l0.2,1.6l0.2-0.9
					l0.2,0.3l0.6,0.9l1.3-4.4l0.2,0.5l0.4,0.6l0.2-1.1l0.6-1.1l0.2-2.8l0.5,1.2l0.6-0.4l0.4-2.3l0.4,1.2l0.6-0.2l0.4,0.8l0.2,0.8
					l0.2,1.3l0.5-0.7l0.2,0.4l0.2,0.8l0.2-2.6l0.7-1.1l0.2,0.4l0.2,0.5l1.3-5.4l0.2-0.5l1.1-2.8h0.4l1.1-0.6l0.2,0.8l0.6,0.3l0.2-1
					l1.1,4.6l0.2,3.3l0.2,0.8l0.4-0.3l0.6,0.9l0.2,0.4l0.2-0.9l0.2-0.1l0.2-0.4l0.7,0.7l0.2-0.1l0.2,1l1.1,0.7l0.2-0.8l0.2-3.6
					l0.6,1.8l0.2-0.5l0.2-0.1l0.2,0.9l0.9,0.8l0.2-1.2l1.1,4.3l0.2-0.1l0.2,0.3l0.2-0.4l0.6-0.9l0.4-0.4l0.9,3.5l0.2-0.5l0.2-1.7
					l0.4-0.8l0.6,1.3l0.2-1l1.3,0.9l0.2-1.2l0.4,1.8l0.6-0.8l0.7,1l0.6,0l2.6-5.2l0.2-0.4l0.2-0.9l0.2,1.8l0.2-0.2l0.5,0.4l0.6-0.2
					l0.2,1.1l0.6-0.9l0.4-1.6l0.2,0.5l0.2,2l0.6,0.6l0.2,1.4l0.2,0.6l0.2-1.8l0.7,0.5l0.2-2.5l0.6,2.4l0.6-0.7l0.5-2.6l0.2,2.2
					l0.6,0.2l1.5-1.9l0.2,0.5l0.4,0.8l0.6-0.7l1.5,4.5l0.2,0.1l0.4-1.4l0.7,0.9l0.4-0.8l0.7,2.4l0.2-1l1.1,4l0.2,0.1l0.4-2.4
					l0.2,0.9l0.6,0.4l0.4-0.9l0.2,1.6l1.1,0.9l0.2-1.5l0.2,1.1l0.6-1.8l0.4,0.4l0.2-0.5l0.2,2.4l0.6-0.4l0.2,0.3l0.2,1.4l0.4,2.8
					l0.6-0.2l0.2-0.8l0.2-2.7l0.4,1.8l0.5-1.7l0.4,0.2l0.2-0.5l0.2-1.2l0.6-0.7l0.2,1.9l0.4-0.3l0.2,0.6l0.5,0.6l0.6-0.8l0.2,0.4
					l0.5-1.8l0.2-0.6l0.2-3l0.4-1.2l0.6,0.9l0.4,0.9l0.2-1.1l0.2-0.7l0.6-0.6l0.2-1.6l1.5,1.7l0.2,1.3l0.9-4.2l0.2,0.1l0.2-0.4
					l0.2-0.7l0.6,1l0.2,0.5l0.2-2.3l0.4,3.3l0.6-1.2l0.2-0.7l0.5,0.8l0.6,0.1l0.2,0.3l0.2-2.1l0.2,0.3l0.2-0.3l0.5-1.3l0.6-1l0.2-2
					l0.7-1.3l0.2-4.2l0.2-0.1l0.2-0.9l0.9-2l0.2,0.4l0.2,1.1l0.7-2.3l0.2,0.8l0.2,0.2l0.2,0.4l0.5-1.8l0.4-0.4l0.2,0.2l0.2,1
					l0.6-0.5l0.2-1.8l0.2,0.3l0.2-0.5l0.2-0.5l0.7,1.1l0.5-0.4l0.6,2.8l0.2,0.1l0.2-0.3l0.2-0.6l0.2,1l0.6-3.4l0.2-1.4l0.6,0.9
					l0.5,0.3l1.5-3.5h0.2l0.4,1.1l0.7-0.6l0.2-2.3l0.4,0.1l0.9-0.2l1.1-4.1l0.2,1.7l0.2,0.4l0.2-1l0.7-2.2l0.6,6.9l0.6-1.4l0.7-0.5
					l0.6-1.6l0.2-1.2l0.5,0.3l0.6-1.8l0.7,2.3l0.6,0l0.2,0.4l0.2-1.4l0.2,0.4l0.2-0.1l0.7-0.5l0.2,0.4l0.2,0.9l1.5,11.3l0.5-1.4
					l0.4-3.2l0.4,1l0.5-1.2l0.2,2.1l0.6-0.8l0.6-1.1l0.4-2l0.4,0.5l0.6,0.1l0.7,1.1l0.6-1.4l0.5-2l0.7-0.1l0.2,0.2l0.2,1.9l0.4,0.3
					l0.7-3.2l0.2,3.4l0.2,0.8l0.2-0.4l0.6-0.9l0.4-9.3l0.4,0.4l0.6-1.5l0.2-1.4l0.6,0.3l0.5-0.3l0.7-4.8l0.5,0.6l0.2,1.1l0.6-4.7
					l0.6,1.4l0.2,0.5l0.4,4.1l0.2-1.8l0.7-1.1l0.2-1.5l0.4,0.6l0.6,0.5l0.2,0.6l0.2,5.1l0.2,0.9l0.2-1.9l0.6-0.2l0.2,1.3l0.4-2.2
					l0.2-1.9l0.6-0.4l0.2-1.7l0.4-0.1l0.2,3.2l0.6-1l0.6-1.3l0.2,1l0.6,0.4l0.7-6l0.6,0.1l0.5-0.5l0.2,1l0.6-1.6l1.3-10l0.2,0.3
					l0.2-2.9l0.4,3.7l0.6,1.6l0.2,5.8l0.6-1.8l0.5-3l0.4,0.8l0.2,3.4l0.7-3l0.2,1l1.1,4.2l0.2,0.3l1.1-6.6l0.2,2.2l0.6-7l0.7-2.2
					l0.4,0.9l0.2,3.1l0.6-0.4l0.2-2.3l1.1,4.2l0.2-3.2l0.6-0.2l0.6,0.8l1.3-4.2l0.2,1l0.2,2.9l0.2,1l0.2-0.9l0.5-2.2l0.4-1.3
					l0.4,1.2l0.6-0.3l0.2-2.3l0.2,5.7l0.2,1.4l0.2,3.8l0.5-1.6l0.2-2l0.4,2.8l0.2-1.4l0.5-1.6l0.4-2l0.2,3.7l0.2-1.4l0.5,1.8
					l0.2,0.4l0.2,2.5l0.4,16.2l0.5-1.8l0.2-5.7l0.2,2.8l0.4-2l0.6,3.9l0.7-2.8l0.5,3.1l0.6-8.3l0.2,3.5l0.6-1l0.5-5.8l0.2,1.3
					l0.5-0.8l0.7,5.4l0.6,1.9l1.3-10.7l0.4,0.1l1.3,10.3l0.2-0.3l0.9,11l0.2-1.1l0.4,1l0.6-7.9l0.2,1.6l0.2,0.3l0.2,0.8l0.2-3.5
					l0.7,3.3l0.2-7.3l0.2-1.2l0.2,3.6l0.5-0.7l0.7-6.1l0.6,1.7l0.5,7.8l0.2-1.4l0.5-2.8l0.4-4.9l0.4,3.4l0.7,1.8l0.5-4.6l0.5-3
					l0.4-9.6l0.4,3.9l0.6-0.6l0.2-2.2l0.2,0.5l0.2,4.3l1.1-6.9l0.2,1.8l0.2,1l0.6-0.5l0.2-4.3l0.2,2.2l0.2-2.1l0.7-1.1l0.7,6.8
					l0.5-0.9l0.2-2l0.2,2.5l0.4-1.4l0.6-0.8l0.2,0.1l0.2-0.8l0.2-3l0.2,4.2l0.5-1.9l0.2,0.2l0.2-5l0.4-5.9l0.5,0.1l0.2,1l0.2,0.1
					l0.2-0.9l1.1,5.3l0.2-4.4l0.7,2.4l0.2-1.2l0.2-2.8l0.4,0.1l1.1-6.6l0.2,1l0.6,2l0.4,4.4l0.4-0.9l0.7-4.7l0.4-3.6l0.2,0.4
					l0.6,3.1l0.5-1.7l0.2,5.3l0.7-1.5l0.2,4l0.9-5.2l0.2,2.4l0.6,3.6l0.6-1.1h0.2l0.2-1.7l0.9,9.1l0.2-1.1l0.2,0.3l0.2-0.7l0.7-3
					l0.2-3.6l0.2,5.3l0.4-2.6l0.5,0.9l1.5-12.8l0.2,0.7l0.2-0.7l0.2,2.2l0.5,3.4l0.4-3.9l0.4,3.4l0.6-1.4l0.4-3.2l0.4,0.5l0.6,3.4
					l0.2,2.1l0.4-2.6l0.2,0.9l0.5,2.7l0.4,3.2l0.2-0.7l0.2-2.9l0.7,3.7l0.2-1.3l0.2-1.8l1.3,14.5l0.2,1l1.1-7.4l0.2,0.3l0.5,5.7
					l0.2-1.3l0.2,6.9l0.4-11.2l0.5,4l0.2,1.3l0.4-7.2l0.2,1l0.5,7.5l0.2-3.8l0.2,10.4l0.2,8.2l0.9,13.8l0.2,7.8l0.4,4.2l0.6-6.8
					l0.2-2.1l0.2,8.1l0.9-6.4l0.2,5.5l0.6,10.3l0.5,3.6l0.7-20.2l0.5,0.4l0.2-1.1l0.2,5.2l0.9,8.5l0.2,1.7l0.2,4.6l0.2-6.8l0.2,5.9
					l0.5,4.3l0.2-4l0.2,6.3l0.2,6.5l1.1-15.1l0.4,0.1l0.5,7.2l0.2-4.5l0.2-1.3l0.2,4.9l0.2-4.8l0.6-6.5l0.6,6.5l0.2-2.5l0.5-0.9
					l0.2-5.5l0.5,4.4l0.6,2.3l0.4,2.3l0.4-1.2l0.5,0.1l0.7-9.4l0.5,0.9l0.2-3.7l0.4,3.1l0.2,3.8l0.6-1.6l0.2,0.6l0.2,3.3l0.4-2.6
					l0.7,4.5l0.2-14.4l0.4,3l0.6-3.2l0.2-0.1l0.2-4.8l0.9,5.9l0.2-3.9l0.4,1.6l0.2-6.5l0.6-1l0.2,5.4l0.2-2.9l0.4,2l0.7,4.9l0.2-1.3
					l0.2,4l0.2,0.2l0.6,6.8l0.4-2.3l0.2-4.7l0.2-4.7l0.5,4.6l0.2,2l0.2-2.6l0.2,3.1l0.2,2.5l0.5,3.6l0.2-5.8l1.3-8.7l0.2,1.5
					l0.2-1.1l0.2,0.2l0.5-9.5l0.4,1.1l0.2-1.3l0.2,7.1l0.6-0.6l0.2-3.6l0.4-6l0.2-2.2l0.5,1l0.2,4.3l0.4-4.5l0.7,2.7l0.4,1.7l0.2-4
					l0.7,1.5l0.2-2.9l0.2-0.4l0.2,1.7l0.7,2.3l0.2-3.1l1.1-6.5l0.2,0.5l0.5,5.9l0.5-2.2l0.2-1.6l0.2,2.6l0.2,1.9l0.2-0.5l0.5-5
					l0.2-1.4l0.2,2.2l0.2,1.9l0.2,1.4l0.7-4.8l0.2,3.2l0.4-5.1l0.6-3.2l0.5,3.1l0.2-1.4l0.6-0.4l0.5-2.9l0.2,1.8l0.5,0.9l1.6,5.3
					l0.2-3l0.9,2.5l0.2-0.7l0.2,4.8l0.7,0.1l0.2,2.2l1.1-5.3l0.2,0.6l0.2-6.1l1.1-15.2l0.2,2.3l0.9-3.2l0.2,0.5l0.2,0l0.2-0.9
					l0.2-0.1l0.6-3.1l0.5,3.1l0.2-3l0.7,2.4l0.2-2.3l0.2-0.4l0.2,1.6l0.5,2.6l0.2-1.2l0.2-1.5l0.4-2.1l0.5,0.9l0.4-0.2l0.4,2
					l0.5,0.3l0.4,3l0.4-2.1l0.7,0.5l0.2,0.6l0.2-1.4l0.2-0.6l0.7-2l0.2-3.8l0.4-0.5l0.5,0.9l0.2-0.1l0.2,1.2l0.4-0.4l0.5,2.7
					l0.4-0.4l0.2,2.6l0.2-1.7l0.6-1.1l1.6-13.3l0.2,0.6l0.2,9.8l0.5-2.2l0.2,0.4l0.5,3.8l0.5,0.4l0.6-4.3l0.2,3.5l0.5,0.1l0.2-0.9
					l0.2-0.2l0.2-2.8l1.1-7.2l0.4,0.3l0.5-1.9l0.2-0.6l0.2,0.8l0.2,1l0.2,0.9l0.5-1.9l0.4,1.4l0.4,2.5l0.5-1l0.2-2.5l0.2,1.1
					l0.4-0.1l0.6,0.3l0.2,0.4l0.2-2.5l0.9-2.4l0.2,2.2l0.2-0.4l0.2,2l2.4-8l0.2,2.6l0.7-2.4l0.2,2.5l0.4,2l0.2-2l0.5,2.1l1.5-7.3
					l0.2,6.1l0.4,7.4l0.5-1l0.2,0.6l0.2-0.9l0.2,4l0.2,2.1l0.5-3.5l0.4-1.5l0.2,4.1l0.2-0.8l0.6,1.7l0.7-3.3l0.7-1.9l0.4-4l0.2,1
					l0.6,0.5l0.2,0.6l0.2-1.8l0.2,0.8l0.2-0.1l0.6-2.2l0.2,1.8l0.2,0.8l0.4-0.6l0.6,1.3l0.2,1.3l0.2-0.1l0.2-3.1l0.9-1.7l0.2,1.4
					l0.2-1l0.2,1.1l0.5-0.4l0.2-2.2l0.6,0.2l0.5,1.1l0.4,0.5l0.9-1.7l0.2,0.6l0.4,2.1l0.2-1.8l0.5,0.6l1.3-6l0.2,4l0.2,1.1l0.4-1.6
					l0.5-1.2l0.2,3l0.5-0.3l0.6-0.9l0.7,10.7l0.6-6.5l0.2-1l0.2-9.1l1.5,14l0.2-2.6l0.6,1.5l0.2-0.1l0.2,2l0.2-5l0.2,1.8l0.7,1.5
					l0.4-5.7l0.2,4.2l0.5,1.8l0.2,0.6l0.2-0.3l0.2-6l1.3-5.2l0.2,1.3l0.5-0.8l0.2,2.1l0.2-1.3l0.2,3l0.2,1.7l0.5-2.9l0.2,6.1
					l0.5,5.1l0.7-2.5l0.4-7.1l0.2,0l0.6-1.1l0.5-3.2l0.2,4.2l0.6-2.8l0.2,5.1l0.2,2l0.2-3.5l0.2-1.4l0.9-0.1l0.2,0.6l2-7.3l0.2,0.3
					l0.2,3.2l0.9,3.2l0.2-1.1l0.2-1.5l0.4,3l0.5,1.6l0.6,5.8l0.2-3.1l0.5,2.1l0.2,0.4l0.2-4.2l0.2,1.1l0.2-4l0.7,2.6l0.4-0.6
					l0.2-2.6l2.2-7.2l0.2,1.4l0.9-5.1l0.2-1l0.2,2.1l0.2-2.4l0.6,0.6l0.7-5.7l0.5-1.3l0.4-1.1l0.2-1.8l0.2,0.7l0.5-2.8l0.2,7.6
					l0.6-2.6l0.5-0.3l1.5-6.3l0.2-0.5l0.9-4.6l0.2,0.5l0.2-0.6l0.2,1.8l0.2,2.7l0.5,0.2l0.2,2.2l0.2,0.5l0.2-3.8l0.7-1.6l0.2,3.5
					l0.2-4.2l0.4,3l0.6,1.6l0.2,2.3l0.2-4.7l0.2-1.2l0.2-0.3l0.6,0.6l0.2,1.5l0.5-1.3l0.6,0.9l0.2-2.4l0.5,1.3l0.6,0.8l0.4-2.3
					l0.2,0.1l0.7,0.9l1.5-3.7l0.2,0.9l0.2-2.6l0.2,1.2l0.5,0.5l0.2,0.6l0.2-2.9l0.2,0.4l0.2-1.9l0.7-1l0.2-8l0.2-0.2l0.2,0.5
					l0.6-6.5l0.2-2.9l0.4,0.6l0.2,2.9l1.3-7.6l0.6-1.3l0.2-3l0.4,3.1l0.2,0.4l0.7,1.6l0.2-0.9l0.2-1.3l0.2-0.9l0.7,4.6l0.2,2.8
					l0.4-3.3l0.5,0.6l0.2,3l0.4-5.6l0.2,2.6l0.5,3l0.4-9.4l0.4,5.5l0.5,1.6L488,243l0.4-4.6l0.5-2.9l0.4-2.9l0.2-0.8l0.9-4.5
					l0.2-1.1l0.2,0.8l0.2-1.9l0.5,0l0.7,0.3l0.5,0.2l0.2,1.1l0.2-1.1l0.2-1.6l0.2-2l0.6,0.4l0.2,0.9l0.2,1l0.2-5.6l0.7,1l0.2-1.3
					l0.4-3.7l0.2,0.3l0.5-2.5l0.2-1.1l0.2,3.6l0.2,3.5l0.9-4.3l0.2,1.4l0.2-4.4l0.2,3.7l0.6,1.7l0.6-2.8l0.2,0.7l0.5,3.1l0.6,1.7
					l0.2-0.5l0.7-2.3l0.6,6.2l0.5,0.5l0.5-0.1l0.2,2.6l0.5,0l0.4,1.4l0.4-3.4l0.6-0.9l0.2-1.9l0.5,1.8l0.6-4.1l0.7-11.1l0.7-1.4
					l0.2-3.7l0.4,1.9l0.6,2.4l0.2,1.5l0.4-0.3l0.2-2.1l0.6,0.4l0.2-15.9l0.2,2.5l0.4-2.4l0.5,2.4l0.4,3.8l0.4-0.8l0.6,1.8l1.3,22.1
					l0.2-7.1l0.2,13l0.4-9.1l0.5-7.7l0.6,14.7l0.2,10.1l0.6-2.3l0.2-8.6l1.1-13.3l0.2,0.2l0.2,1l1.1,10.9l0.2-3.5l0.4,9.6l0.5-1.7
					l0.2-1.6l1.3-18.1l0.2,2.7l0.2,7.1l0.2-1.2l0.5-8.3l0.5-7.5l0.2,6.9l0.5,2.5l2-27.7l0.6,6.3l0.5,15l0.2-7l0.6-1l0.2,3l0.2-2.6
					l0.2-6.3l0.2-2.5l0.5,4.5l0.2,5.3l0.4-9.6l0.2,1.5l0.7-2.6l0.2,8.1l1.1-10.5l0.2,3.4l1.6,15.4l0.5-8.3l0.2,2.1l0.2-11.4l1.3-9.8
					l0.2,4l0.2-4.8l0.5,3.8l0.2,1.7l1.1,13.3l0.2-7l0.2,9.3l0.4-5.3l0.7-0.3l0.4-2l0.2,3.7l0.7-3.9l1.3,8.1l0.2-1.6l0.4,5.1l0.7-1.3
					l0.2-1.7l0.2,0.9l0.2-12.9l0.7-5.5l0.4,1.5l0.2,0.8l0.9-3.5l0.2,1.8l0.2-3.4l0.5,1.3l0.2-0.9l0.4-0.9l0.2,1.2l0.6-0.3l0.2,0.6
					l0.4-1.3l0.2-0.7l0.7,0.1l0.2-0.8l0.4-6.3l0.5,0.4l0.2-0.7l0.2,2l0.4-3.4l0.5-3l0.2,5.5l0.5-5.4l0.5-0.6l0.7-8.1l0.6,0.5
					l0.2,2.4l0.6-2l0.5-3.7l0.2,0.9l0.4-1.8l0.2-0.6l0.7-1.4l0.2,5.6l1.1,6l0.2-0.4l0.2-4.4l0.7,4.2l0.2-7.7l0.4,12.9l0.2-0.1
					l0.5,1.6l1.5-15.2l0.2-0.1l1.5,10.7l0.2-0.9l0.5,2.8l0.4-0.5l0.2,3l0.2,3.3l0.5-3.1l0.2,1.5l0.2,1.1l0.2,0.1l0.2,2.9l0.7-3.5
					l0.2,3.1l0.9,9.8l0.2-1.1l0.6-9.7l0.5,4.3l0.7-10.7l0.5,1.3l0.2-1.1l0.2,0.3l0.2,8.8l0.2-0.5l0.6,1.4l0.4-0.2l0.2,2.6l0.2-6.8
					l0.7-0.6l0.4,1.1l1.3,19.8l0.2-4.8l0.7,3.8l0.2-7.5L578,169l0.2,4.7l0.6,2.6l0.2,0.8l0.2-1.2l0.2-4.7l0.7-4.4l0.2,1.1l0.4,2.5
					l0.2-6.6l0.5-0.4l0.2-1.9l0.2,0.1l0.2,1l0.2-1.4l0.6,0.5l0.2,1.2l0.2-0.2l0.2-4l0.2-0.6l0.6,1.2l0.5,7.8l0.2-3.4l0.5,3.4
					l0.5,3.8l0.2-2.4l0.7,0.5l0.2-0.8l0.2-6.6l0.7-3l0.2-3.8l1.1-6.3l0.2,0.1l0.2,1l1.3,4l0.2-3.1l1.1-7.5l0.2,0.2l0.2-0.3l0.6,1.3
					l0.5,6.6l0.2-3.3l0.5-1.8l0.2-3.4l0.2,16.9l0.4,11.9l0.5-1.7l0.2,5.2l0.2,0.9l0.2-1.4l0.2-2.7l0.9-2.1l0.2-4.3l0.2,6.1l0.6-1.2
					l0.2-1.5l0.6,7.5l0.5,0.7l0.4,6.1l0.4-2.4l0.5-5.6l0.2,1.9l0.2-1.8l0.4-5.3l0.6,1l0.2,2.7l0.2-1.2l0.2,0.7l0.2,2.4l0.9,2.3
					l0.2-1.7l0.9-7.4l0.2,2.1l0.4,1.9l0.5-3.1l0.2-3.4l0.5,3.7l0.6,1.7l0.4,0.7l0.2-1.2l0.2,4.7l0.5-2.8l0.4-7.9l1.3,6.6l0.2-0.9
					l0.2-2.6l0.6,3l0.4,0.1l0.2-1.7l0.9-4l0.2-14.2l0.2,0.5l0.2-0.9l0.5,0.1l0.5,3.1l0.2-3.5l1.1,7.5l0.2-3.2l1.1,3.4l0.2-2.2
					l0.7,1.1l0.2,1.7l0.4-2.9l0.5,5.9l0.2-2.7l1.1-10l0.2-2.2l0.5-6.3l0.6,0.5l0.4-3.3l0.2-6.2l0.7,4.3l0.2-0.4l0.2-2.7l0.9,7.1
					l0.2-2.6l0.2,2.4l0.2-4l0.7,1.5l0.2-3.3l0.4,5l0.2,3.1l0.7,0.3l0.2-4.6l0.2-1.5l0.2,2.5l0.5,3.5l0.2-4.5l0.4,8l0.2,28.2l0.5,3.6
					l0.2-6.2l0.2-0.2l0.2-3.7l0.2-0.6l0.6-8l0.7-8.8l0.5,2.9l0.4-4.9l0.4,0.6l0.5,3.3l0.6-3.7l0.2-6.2l0.5,1.4l0.2-1.7l0.5,4.8
					l0.7-3.4l0.2-0.2l0.2-2.4l1.1,11l0.2-1.8l0.2-4.2l0.7,3.9l0.2,4.6l0.2-4.2l0.2,2.6l0.5-1.4l0.2-3l0.2,4.9l0.2,7.6l0.7,6.3
					l0.2-2.4l0.2,0.2l0.2-1.3l0.2,7.5l0.7-0.7l0.2-2.9l0.9-2.9l0.2,6.1l1.1-4.5l0.2,0.3l0.2-1.1l0.2-5.7l0.2,7.4l0.5-0.9l0.2-1.5
					l0.5-3.9l0.5,1.9l0.4,1.9l0.2-1.3l0.2,1.1l0.5-0.6l0.2,7.5l0.6,3.7l0.5-2.1l1.3,8.1l0.2-0.5l0.2-0.5l0.4-0.9l0.5,1.1l0.4,4.3
					l0.4-0.2l0.7-2.8l0.4-0.3l0.2,1.9l0.5-3.2l1.3-13.6l0.2,1.7l0.2-3.8l0.4,7.3l0.5-1.6l1.8,11.9l0.2-0.4l0.5,3.5l0.2,5.5l0.4-10.1
					l0.2-2.3l0.6-1.4l0.2,3.9l0.2-3.4l0.2,19.8l0.7,3.3l0.2-3.5l0.4-4.7l0.2,1.6l0.5-0.8l0.2-7.9l0.6,4.8l0.5-1.7l0.2,4l0.4-5.2
					l0.2,0l0.9-5.9l0.4,0.6l0.6-2.1l0.2-1.3l0.4,1.9l0.2,4.7l0.7,6.7l0.2-2.8l0.4-1.2l0.9,6.6l0.2-0.6l0.2-2.7l0.7,0.9l0.2,3.2
					l0.4,4l0.6-8.4l0.2,3.5l0.2-4.9l0.2-2.5l0.2,0.3l0.5-3.7l1.5-8.9l0.4,3.4l0.9-7l0.2,2.9l0.2,1l0.2,0.2l0.5,5.2l0.7-9.9l0.7,2.8
					l0.5,14.7l0.5,2.9l1.5,8.4l0.2-2.3l1.6-17.5l0.7,0.8l0.2,0.4l0.2-2.2l0.2,2.5l0.5-1.1l0.2,0.4l0.4-3.4l0.2,0.1l0.5,1.5l0.7-5.8
					l0.5,2.2l0.2-0.6l0.2,0.9l0.2,3.9l0.2,2.8l0.5-6.1l0.4,1.9l0.2-5.4l0.2,2.1l0.6-2.7l0.2-11.4l0.5,7.7l0.5-3.4l0.2-3.4l0.4,3
					l0.2,1.6l1.8-10.1l0.2,1.3l0.2,1.1l0.2,10.8l0.7-3.8l0.4,0.9l0.2,2.5l0.2,1l0.5-5.9l0.4-5.6l0.2,4.9l0.2,3.5l0.5,0.3l0.2,2.1
					l0.6-2l0.5-4.2l0.2,0.6l0.2,5.9l0.2,3.8l0.2-1l0.5,0.1l0.2,3.6l0.6-1.8l0.7,2l0.2,2.9l0.4-2.2l0.5-2.3l0.2,2.2l0.4-2.7l0.2-0.7
					l0.5,0.2l0.2,3.3l0.4,5.2l0.2-2.3l0.5,0.4l0.2,0.2l0.2-2.3l1.3,4.9l0.2,0.6l1.3-13.8l0.7,0.8l0.2,1.4l0.2-2l0.4,0.7l0.5-3.1
					l0.2,2.3l0.2-6.6l0.2-0.2l0.2,0l0.5,2.8l0.6-7.4l0.2,1.4l0.5-2.3l1.8,17.6l0.2-4l1.8-4.6l0.2-1.2l0.2-0.1l0.2-1.9l0.2,1.4
					l0.6-1.3l0.2-3.1l0.4,1.7l0.2-0.5l0.7,1.3l0.2-0.7l0.2,2.2l0.2-0.9l0.6,1.8l0.2,0.3l0.2-2.6l0.4,0.4l0.5-0.9l0.2-1.9l0.2,0.3
					l0.2-1.6l0.2-0.4l0.5,1.5l0.6,7l0.2-1.8l0.5,0.7l0.2-0.3l0.2,4.5l0.2,0.4l0.2-3l0.5-0.6l0.2,5.7l0.2-6.2l0.4,5.8l0.5,4.1
					l0.2-0.5l0.2,3.5l0.4-0.5l0.5,22l0.2,10l0.2,2.4l0.4-0.5l0.5,0.4l0.7-4.3l0.6,0.1l0.4,4.3l0.4-2.3l0.6-2.4l0.2,0.3l0.2,2.4
					l0.9-3.8l0.2,3.9l0.4,2.1l0.2-0.5l0.5-2.1l0.2,0.7l0.5-0.7l0.5,1.1l0.4-5.1l0.4,2.1l0.5,2.4l0.2-1.9l0.2,4.2l0.2-1l0.2,9.7
					l0.7,6.8l0.2-0.9l0.2-9.8l1.5-8l0.5,3.1l0.2,0.8l0.2-0.7l0.4-2.8l0.9,12l0.2-5.8l0.2-1.2l0.6,4.6l0.2-0.6l0.2,1.8l0.2,2.1
					l0.2-4.4l0.7,0.3l0.2,8.3l0.4-6.5l0.6-0.9l0.4,8.2l0.4-3l0.5-2.3l0.2-6.5l0.5,1.1l0.5,1.7l0.7-8l0.7-1l0.4-5.1l0.2,0.4l0.6,1.3
					l0.2-3.3l0.4,6.8l0.2-1.8l0.9,4.3l0.2-3"/>
			</g>
			<g>
				<path fill="none" stroke="#3780BF" stroke-width="3" stroke-miterlimit="2" d="M112,411.5l0.7,0.4l0.2-0.5l0.2-1.4l0.2-0.1
					l0.6,0.6l0.2-0.7l0.4,1.2l0.2,0.4l1.8,0l0.2,1l0.6-2.1l0.7,0l1.1-1.1l0.2,0.6l1.5-4.3l0.2,1.2l0.9,0.2l0.2-1l0.2-0.5l0.2,0.7
					l0.6,0.5l0.4,0.1l0.2-1.5l0.9-0.3l0.2,0.9l0.9-0.7l0.2,0.4l0.4,1.8l0.2-0.9l0.6,0.2l0.7-1.4l0.5,1.4l0.7,1.5l0.6-0.4l1.3-1.5
					l0.2-0.1l1.1-4l0.2-0.6l0.2,0.3l0.4-0.5l0.6-0.5l0.2-0.1l0.2,1.2l0.9-2.9l0.2-0.2l1.1-2.9l0.2,1.6l0.5,2.7l0.6-0.2l0.2,2
					l0.6-1.9l0.7-0.9l1.3-4.3l0.2-0.3l0.2,1.6l0.2-2.4l0.6-1.5l0.2,0.9l0.4-0.6l0.2-1.7l0.7,0.3l0.2,2.1l0.9-2.9l0.2,0.1l0.6,0.2
					l0.6-1.8l0.2,0l0.4-0.5l0.2,0.8l0.6-0.4l0.2,3.6l0.2-0.4l0.2-2.3l0.7,4.2l0.2-1.3l0.2,1.3l0.4-2.1l0.7-0.3l0.4,0.8l0.2-1.7
					l0.6,0.7l0.6-2.6l0.2,0.8l0.6,1.8l0.7,2.4l0.5-0.8l0.6-1.8l0.2,0.4l0.5-0.1l0.6,0.8l0.2-1.7l0.9-2.4l0.2-2.6l0.2,0.9l0.6-0.6
					l0.2,0.2l1.1-2.2l0.2,1l1.5-8.2l0.2,4.8l0.2-3.9l0.6,2.7l0.2-1.9l1.8-9l0.6,0.7l0.7-6.1l0.6,6.4l0.2-2.1l0.4,2l0.2,3.2l0.5,0.5
					l0.2-1.9l0.2,4l0.4-1.8l0.7,0l0.4,4.4l0.2-1.6l0.6,0.4l1.3,5.6l0.2,7.1l0.2,0.5l0.2-2.9l0.2-0.6l0.6,2.3l0.4-3.4l0.4,0.6
					l0.6-0.5l0.4,1.3l0.2-3.4l0.7-4.6l0.4-0.5l0.2-0.9l0.2,0.7l0.6,1.1l0.7-6.6l0.6,3.3l0.4-0.1l0.4,4l0.5,1l1.7-6.2l0.2,1.1
					l0.2-0.3l0.5-0.4l0.2,0.9l0.2-1.1l0.2,2.4l0.2,0.9l0.7,1.2l0.2-0.8l0.2,2.5l0.2,0l0.6-2.4l1.5,2.6l0.2-0.8l1.1-3.3l0.2,0.9
					l1.1,7.8l0.2-0.5l0.2,2.5l0.2-0.4l0.6-1.4l0.2,2.3l0.4-1.8l0.2-1l0.7-0.4l0.2-1.8l0.4,0.6l0.6,0.6l0.4,4.8l0.4-1.1l0.5-0.4
					l0.4,0.6l0.2-1.1l0.2-1.9l0.5-1l0.2,0.9l0.2,0.1l0.2-1.4l0.2,1.1l0.6,1.8l2-7.8l0.5,0.7l0.2-0.3l0.2,1.6l0.2-3.2l0.2,0.8
					l0.6,0.5l0.5,1.5l0.2-0.8l0.6,0l1.3-3.3l0.2,0.2l0.2,0.7l0.2-2.1l0.2,0.5l0.7,0.5l0.2,1.9l0.2-0.1l0.2,1.2l0.9-0.7l0.2,0.6
					l0.2,1.9l0.5-0.1l0.2-1.3l0.4,0.7l0.2-0.5l0.7-0.6l0.6-2.1l0.9,1.6l0.4,3.6l0.5-0.5l0.2-0.6l0.4,0.4l0.2-2.6l0.7,0.3l0.2-1.1
					l0.2,0.6l0.2-1.3l0.6,0.5l0.4-2.8l0.4,0.3l0.6,0.7l0.6-2.5l0.2,1.6l0.6,0l0.7-3.1l0.6,0.8l0.7-1.2l0.7,1.8l0.5-4.2l0.6-0.6
					l0.7,7.6l0.5,1.4l0.6-2.7l0.2,0.4l0.5-0.2l0.2,1.1l0.4-0.4l0.2-1.1l0.6-0.2l0.2-0.9l0.2-1l0.4,1.2l0.6-1.2l0.4-0.4l0.4,0.5
					l0.6-0.2l0.2,0l0.2-1.7l0.2-0.1l0.7,0.6l1.3-3.2l0.2,0.7l0.4,0.8l0.2-2l0.6,0.8l0.6,2.4l0.2-1.2l0.6,0.8l0.4,0.7l0.2-1.4
					l0.2-1.2l0.7,0.5l0.2,0.7l0.2,2.5l0.2-0.8l0.5,0.3l0.2-0.5l0.2,1.6l0.2,0.9l0.2-0.8l0.6-0.3l0.6,1.6l0.2-0.3l0.7-0.2l0.2,0.6
					l0.2-1.4l0.2-1.6l0.9,0.1l0.2,2l0.9,2l0.2-0.7l1.1-1.6l0.2,1.3l1.3,1.8l0.2-1l0.2,0l0.6-1.3l0.6,1l0.2-0.9l0.6-0.7l0.7-1.1
					l0.6,0.4l0.2,0.1l0.2-1.5l0.4-1.7l0.6,0.2h0.2l0.5,3.6l0.6-0.6l0.6-0.2l0.2-1.4l0.7,0.4l0.2-0.5l0.2,2.3l0.2-1.9l0.6,0.5
					l0.2-0.1l0.2,0.3l0.2,2.5l1.1-1.2l0.2,0.2l0.2-1.4l0.6,0.2l0.2,0.7l1.8-6.6l0.6-0.4l0.2-1.6l0.6,0.9l0.6-1.7l0.6-3l0.2,0.6
					l0.6,0.1l0.2-0.1l0.2,0.6l0.2-1.2l0.7-2.1l0.2,2.7l0.2,0.8l0.2-1.7l0.2-0.9l0.5,1.5l0.2-1l0.2-0.5l0.9-3.1l0.2,0l0.2,1.1
					l0.2-2.6l0.2,0.5l0.5,1.9l1.3-6.1l0.2,1.3l0.6-4.3l0.5,0.1l0.5-4.3l0.2,0.1l0.5,6.7l0.4-3.4l0.2,4l0.2,0.3l0.6,0.9l0.2-3.9
					l0.2,0.2l0.4-3.3l0.5-0.1l0.2,2.1l0.6,4.8l0.6-1.6l0.2-1.9l0.5,1.4l0.5-2.4l0.4-0.9l0.2,3.4l0.2,0l0.6,0.7l0.7-3.4l0.5-0.1
					l1.8-9.4l0.2,0.8l0.5,0.6l0.7-6.6l0.6-1.7l0.6,5.2l0.2-1.6l0.7-1.3l0.2,0.5l0.2-3.8l1.1-3.4l0.2,1.1l0.9,6.4l0.2-2.2l0.9-4.1
					l0.2,3.5l0.4-0.7l0.2,1l1.3-7.3l0.5,1.1l1.3-7.8l0.2,3.5l0.2-4.4l0.4,2.8l0.5,0.4l0.2-0.2l0.2-1.8l0.9-3.7l0.2,4.6l0.4,11.4
					l0.7-0.3l0.4-6.4l0.4,3.3l0.5,2.5l0.2,6.1l0.6-5.9l0.6-1.6l0.2,1.4l0.2-3.3l0.2,0.9l0.2,0.8l0.5,0.3l0.2-0.9l0.2-2.8l0.4,4.6
					l0.5,0.6l0.2,0l0.2,1.8l0.2,3.5l0.2-0.1l0.5-0.7l0.5,6.4l0.2-1l0.6-2.9l0.4,0.8l0.4-2.8l0.5,0.7l0.4,3.1l0.2-3.1l0.2-3.6
					l0.6-0.5l0.2-2.6l0.2-1.8l0.4,1.3l0.7,3.2l0.2,0.4l0.2,4.5l0.7-2.5l0.2,1.9l0.4,0.7l0.2-4.5l0.6,1.9l0.2,4.2l0.2-2.5l0.4,2
					l0.5-2l0.7-3.4l0.6,3.2l0.2-0.7l0.2,0.1l0.2-5.5l1.1-4.4l0.2,1.9l0.9,2.1l0.2-1.1l0.2-3.5l0.9-4.5l0.2,3l0.4,0.5l0.6-1.6
					l0.4,7.9l0.4-1.9l0.5-0.1l1.5,9.7l0.2-1l0.4,3.8l0.6,5.7l0.4-0.7l0.2,3.8l0.2,3l0.7-4.8l0.2,0.6l0.2-3.9l0.7,2.4l0.2-0.5
					l0.4-1.6l0.2,0.8l0.7,4.3l0.4,1.4l0.2-1l0.6,0.2l0.5,10l0.2-4.3l0.5-3.5l0.2,1.3l0.2-15l0.2,4.6l0.2-5.5l0.5-5.5l0.6,4.7
					l0.2-0.3l0.5-5.1l0.5,12.5l0.2-0.5l0.6-2.9l0.6-9.7l0.2,11.5l0.6,2.1l0.2-0.4l0.2-1.9l0.4,10.5l0.5-2.2l0.2,4.3l0.4,9.3l0.2-2.7
					l0.5,0.1l0.4-3.1l0.2,2.2l0.2,2.4l0.5,0.4l0.2-7.5l0.4,5.6l0.2-0.5l0.6-1.9l0.4,6.2l0.2-3.7l0.2-2l0.9,1.8l0.2-2l0.7-12.9
					l0.2,0.1l0.2,0.8l0.4,0.1l0.5,8l0.2-2.2l0.4,2.5l0.2,1.7l0.7-3.1l0.2-5.9l1.3-9.8l0.2,2.7l0.2,2.1l0.9-1.4l0.4-3.7l0.9-1.6
					l0.4,0.5l2.2,11.1l0.2-1l0.2-4l1.1-3.2l0.2-6.8l0.6-0.7l0.2,1l0.2,1.7l0.4-6.7l0.6,4.3l0.2,0.6l0.2-1.2l0.2-1.6l0.7,3.1l0.2-3.3
					l0.4-5.1l0.2,1.1l0.7-5l0.5-4l0.6,0.1l0.7,8.8l0.5,2.9l0.4,3.3l0.2-5.2l0.2-0.5l0.5,3l0.2,4.2l0.4-5.1l0.2-0.3l0.7,2.2l0.2-5.3
					l0.2-2.2l0.2,1.3l0.5,2.6l0.7,2.4l0.6,1.2l0.4-1.8l0.2,3.9l0.7,6.1l0.2-2.5l0.2,0.2l0.2,0.5l0.7-2.7l0.7,4.6l0.5-3l0.2,0.1
					l0.2-0.8l0.4-4l0.6,1.2l0.2,2.2l0.2-1l0.2,1.8l0.2,0.6l1.3-5.2l0.5,0.5l0.7-3.2l0.5,2l0.7-6.5l0.7,0.7l0.2,0.5l0.2-1.4l0.2-3.4
					l0.6,0.8l0.2-1.1l0.5,4.6l0.6,0.3l0.4-0.5l0.2,0.3l0.2,2.6l0.5,1.8l0.2-1.4l0.2-0.7l0.9,3.1l0.2-0.7l0.2-0.9l0.2-1.5l0.2,0
					l0.5,0.4l0.2,1.5l0.2-2.1l0.2,2l0.7,0.9l0.2,0.1l0.2,2.5l1.1-2.7l0.2-2.5l0.4,0.5l0.6-2.3l0.4-0.3l0.2,0.3l0.2-0.3l0.6-0.5
					l0.4,4.3l0.4-3.7l0.6-0.9l0.4-1.6l0.2,0.3l0.2,1.5l0.7,1.7l0.2-0.3l0.2-1.3l0.7,3.6l0.2-0.8l0.2-0.8l0.2,0.4l0.2-2.4l0.5,2.3
					l0.4-0.8l0.2-0.7l1.5-7.5l0.7,0.2l0.2,0.6l0.2-1.1l0.2-1.9l0.5,1.4l0.2-1.6l0.2-1.7l0.4,2.1l0.5,0.5l0.2-2.3l0.4,3.7l0.2,0.9
					l0.7-0.8l0.2-2.4l0.2,1.7l0.2-0.8l0.6-2.5l0.5-6.6l0.2,1.4l0.6-1.2l0.2-1.2l0.4,2.4l0.2-0.5l0.5-1.8l0.6,0.5l0.2,0.7l0.9,4.8
					l0.2-3.4l0.2,0.3l0.5-2.5l0.7-6l0.5-1.3l0.2-0.3l0.2-2.1l0.2,2.4l0.2-2.6l0.5-3.3l1.5-5.4l0.2-3.3l0.4,2.7l0.5-1l0.2-3l0.2-3.1
					l0.2,0.8l0.2,8.5l0.6,1.1l0.2,3.7l0.4,0.2l0.2,2.6l0.9-3.9l0.2,7.3l0.2-2.8l0.6,3.5l0.2,1.4l0.2-0.7l0.2-3.1l0.7-0.3l0.2,1.9
					l0.2,0.9l0.2-0.7l0.7-4.3l0.2,0.2l0.2-3.1l0.2,1.2l0.2-0.9l0.5-2.6l0.2,4.1l0.5-0.6l0.7-1.1l0.6,7.5l0.5-0.5l0.2-0.1l0.2,1.8
					l0.2,0.1l0.2,0.9l0.7-5.5l0.2,0.7l0.2,7.5l0.2-0.5l0.6,1.1l1.5-9.6l0.2,0.6l0.2-1.2l0.2,0.9l0.6,0.7l0.4,3l0.2-1.6l0.2-1.9h0.6
					l0.2-2.7l0.2-1.1l0.2,1.4l0.2,0l0.6,1.6l0.2,0.3l0.2,2.2l0.2-0.2l0.2,1.1l0.5-0.7l0.2-3.5l1.1,4.6l0.2-1l0.2,3.5l0.4-4l0.5-0.3
					l0.2,1.3l0.2-1.7l0.2-2.3l0.9-1.3l0.2-2.5l0.2-0.3l0.2-1.7l0.7,1.6l0.2-0.6l0.2-1.1l0.7,4.3l0.2-0.5l0.2-1.5l0.2,0.8l0.2-2.3
					l0.5,0.8l0.7-4.5l0.6-0.6l0.2,1.5l0.2-0.4l0.2-5.9l0.7,1.6l0.2-5.3l0.2-1.3l0.4,1.8l0.5,1.7l0.2-0.2l0.2,4.9l0.4,2.4l0.6-2.8
					l1.5-5.3l0.2,0.2l0.2,3.1l0.2-2.1l0.5-4l0.6,4.4l0.2-1.8l0.6,0.7l0.7-5.6l0.5,4.2l0.7-4.1l0.5,2.9l0.4-1l0.2,8l0.2-2.5l0.7,3.4
					l0.5-3.2l0.6,1.8l0.2-1.8l0.4,0.2l0.2,2.7l0.6,1.6l0.4-0.2l0.2-1.7l0.9,5.8l0.4-1.4l0.2-2.1l0.7-0.9l0.2-1.3l0.4-1.9l0.5,0.8
					l1.8-5.2l0.2,0.7l0.5,0.3l0.2-1l0.2-1.7l0.4,0.6l0.5,0.2l0.6-2.4l0.2,0.7l0.7-1.5l0.2,0l0.2,2l0.7-0.1l0.2-4.1l0.2,0.1l0.2-1.2
					l0.2,0.2l0.6-0.6l0.7-3.1l0.6,0l0.7-3.8l0.6,0.8l0.4-5.8l0.4,0.3l0.5-1.1l0.2,0.6l0.2-3.6l0.2-1.2l0.2,1.8l0.5-1l0.6,8.3
					l0.2-0.5l0.5-1.9l0.2,0l0.2,2.4l0.4-5.4l0.5,1.2l0.2-1l0.2,1.6l0.2-7.7l0.7-3l0.2,3.8l0.4-3.6l0.2,6.9l0.9,5.7l0.2-3l0.2-0.2
					l0.6-2.2l0.2-1.6l0.2,0.4l0.4,1.9l0.6-0.7l0.2-3.3l0.4,0.4l0.2-4.9l0.6-1.8l0.2,4.5l0.2,3l0.4-1.1l0.6-1.1l0.2-0.2l0.2,2.6
					l0.2,1.5l0.2-0.7l0.6-1.6l0.2-0.4l0.2,0.5l0.2,0.7l0.7-0.6l0.2-3.8l0.4,0.3l0.2-2.9l0.5,1.2l0.7,7.6l0.5-0.9l0.4-2.3l0.2,2.4
					l0.2,2.4l0.9-1.8l0.2,4.3l0.9,1.9l0.2-1.8l0.2,5.6l0.2-4l0.6,0.7l0.5-4l0.2,0.9l0.6,0l0.2-2.5l0.5,1.4l0.6-1.1l0.7-4.2l0.7-1.5
					l0.2-2.1l0.4,0.2l0.5-0.5l0.2-4.1l0.5,1.2l0.5-0.6l0.6,3.4l0.2-0.8l0.5-1.1l0.4,4.5l0.4-3.7l0.5-1.3l0.2,0.2l0.2-2.2l0.9,3.1
					l0.2,0.6l1.6-7.4l0.2-2l0.7,3.5l0.2-0.5l0.2-3.3l1.1-4.6l0.2-0.4l0.7-0.2l0.2,0.8l0.5-10.3l0.5,3.4l0.4,4.6l0.2,7.4l0.9-7.7
					l0.2,2.4l0.2-0.1l0.2,1.7l0.7,1.5l0.2-1.5l0.2-0.1l0.2-3.2l0.5-0.6l0.2-1.3l0.4,0.6l0.2-2.6l1.1,0.3l0.2-1.2l0.7-0.3l0.2,1.1
					l0.2-1.3l0.2,2.3l0.5,2.5l0.7-3.8l0.6-0.2l0.4-1.7l0.2,4.6l0.7,4.5l0.2-0.9l0.2-1.6l0.4,3.9l0.7-4.7l1.6-11.9l0.2-1.1l0.6-2.4
					l0.2,3.3l1.1-4.6l0.2-0.7l0.2,1l0.4-1.9l0.6,1l0.7-7l0.5-9.3l0.4-12.9l0.2,6.6l0.2,1.3l0.9-7.7l0.2-5.7l0.7-11.9l0.2,11.9
					l0.2,10.4l0.4-10l0.6,6.2l0.7-16.1l0.7,0.6l0.2,10l0.4-6.3l0.5,7l0.2-3.2l0.2,2.3l0.2,4.9l0.2-2.8l0.6,4.7l0.2-4.3l0.2,3.8
					l0.2,7.8l0.7,19.8l0.2-5.3l0.2,7.6l0.9-8.2l0.2,5.7l1.1-9.7l0.2,2l0.5-2.2l0.6,1.3l0.5,8.4l0.2-3l0.6-2.6l0.7-14.8l0.5,3.9
					l0.2-0.1l0.2-2.9l0.9-10.2l0.2,2.5l0.4,4.1l0.2-4.9l0.6,1.3l0.2-0.3l0.2,3.2l0.9,13.8l0.2-3.1l0.5,3.3l0.5-5.6l0.2-0.4l0.2-5.6
					l0.9,4.8l0.2-1.5l0.2-2.1l1.5,29.4l0.2-5l0.5,0.6l0.2-3.6l0.2-0.3l0.2,1.9l0.2-0.5l0.7,2.4l0.4,7.9l0.2-2.8l0.7-6.8l0.4-3.2
					l0.2,1l0.5,1.2l0.5-6.7l0.2,1.9l0.7-2.1l1.1-4.6l0.2,2l0.5-12l0.6,1.6l0.5-5.2l0.2,5.9l0.5,0.8l0.2-4.3l0.5,4.4l0.6-0.6l0.2,0.7
					l0.2-1.7l0.2,0.2l0.2,1.1l0.7-6.3l0.4-3.4l0.2,1.4l0.5,0.9l0.2-3.1l0.2,15.9l0.2-4l0.2,0.5l0.5,1.2l0.2,5.1l0.4-4.4l0.2-1.9
					l0.5,2.3l0.2,4.8l0.2,4.7l0.4-3l0.6-0.5l0.5,3.5l0.2-3.4l0.5-4.9l0.5,5.4l0.2-1.5l0.5-1.4l0.4,9.9l0.2-1.9l0.7-1.8l0.5-5.8
					l0.2,3.2l0.6,0.7l1.3,2.4l0.2-0.4l1.1-4.4l0.2,1l0.2,1.3l0.2,2.8l0.2-0.9l0.6,0.7l0.7,9.5l0.5,3.9l0.4,3.2l0.2-5.8l0.2-3
					l0.5-0.2l0.2,4.4l0.4,1.2l0.2-2.2l0.7,2.9l0.4-1l0.2-10.2l0.9,0.5l0.2,4.7l0.9-3.4l0.2-1.1l0.9-1.4l0.2,1.3l0.4,8.9l0.2-1.1
					l0.6-1.9l0.5,4.7l0.2-7.1l0.6,0.2l0.2-4.1l1.3,9.2l0.2-1.5l0.2,0.7l0.2-2.7l0.5-0.1l0.2,1.3l0.2,0.7l0.4-1.1l0.6,1.1l0.4-4.6
					l0.2-1.9l0.2-1.3l0.5,0.2l0.2,1.6l0.4,4.1l0.2-2.4l0.5-1.3l0.4-0.3l0.2-0.9l0.2-0.3l0.6,2.1l0.2,1.5l0.4-2.5l0.2-0.3l0.6-0.9
					l0.2-2.7l0.6-5.4l0.5,1.1l0.2-0.5l0.2,1.8l0.2,0.1l0.2-6.4l0.7-0.4l0.2,0.3l0.2-1l0.2-6.1l0.6,2l0.2-1.1l0.2,0l0.2-5.8l0.2-0.8
					l0.5,2.4l0.7-2.7l0.5,1.6l0.4,2.1l0.2-4.4l0.2,0.8l0.5-0.7l0.2,0.3l0.4-2.6l0.2,1.7l0.6,1l1.3,6.4l0.2-1.9l0.2-0.2l0.2,1.3
					l1.1,6.8l0.2-2l0.2,0.2l0.9-1.6l0.4,7.3l0.6-1.1l0.2-5.3l0.2-0.3l0.2-2.6l1.1,1.5l0.2,1.8l0.2,0.4l0.5-3.4l0.2,0.8l0.2-0.3
					l0.4-3.5l0.6,0.3l0.2,1.2l0.6,4.6l0.5-0.1l0.4,3.5l0.4-1.8l0.5-1.1l0.2,0.3l0.2-0.2l0.2,2.4l0.2,0.4l0.5-0.5l0.2,4.1l0.4,4.1
					l0.2-1l0.6-0.5l0.5-0.9l0.2,1.1l0.9-4.5l0.2,3.4l0.7,3l0.2-1.9l0.2,0.1l0.2-2.6l0.2,1.6l0.6-0.8l0.2-1.8l0.2-0.2l0.2-1.2
					l0.2,0.4l0.7-1l1.1,5.8l0.2-1.2l0.2-2.1l0.4,1.3l0.5-0.9l0.2,0.1l0.2-0.7l1.5,7l0.2,4.5l0.7,0.7l0.2,6.7l1.1-8.2l0.2,2.8
					l0.9,3.9l0.2-0.1l0.2-1.5l0.4,0.9l0.6-0.5l0.2-2.1l0.6,0.3l0.5-2.4l0.5-1.5l0.2,1.2l0.5,0.5l0.4-0.2l0.2,1.6l0.7-0.4l0.5,7.6
					l0.2-4.3l0.5,1.1l0.2-2l0.2,4.5l0.2-0.5l0.2,12.2l0.5,21.8l0.5-5.2l0.2-2l2-12.6l0.2,2.9l0.9-1.8l0.2,3.1l0.2-3.6l0.4,4.9l0.5,2
					l0.6,7.5l0.2,5.2l0.5-7l0.2,3.9l0.2,1.6l0.2-4.6l0.2,1.5l0.7,0.5l0.4-5.5l0.2,4.8l0.5-4.5l0.7,5.6l0.5-1.1l0.2,1.2l0.2-1.7
					l0.2,0.9l0.2-1.2l0.5,1.1l0.2,2.8l0.4,14.7l0.2-2.5l0.6,1.9l0.2,0.8l0.2,8.9l0.2,4l0.2-5.5l0.6-3.5l0.7,5.2l0.5-2.5l0.5-8.2
					l0.7,0.1l0.2-1.2l0.2,2.7l0.4-3.1l0.5-6.4l0.2-1.5l0.2,3.9l0.4-2.2l0.5,0.5l1.3,4.8l0.2,3l0.2-0.3l0.2-4.7h0.2l0.5-3.9l0.2,2.4
					l0.2-2.2l0.2-4.6l0.2-1.5l0.5,1l0.2-0.8l0.2,0.7l0.2-1.3l0.2-3.6l0.5-0.9l0.2-2.2l0.2,0.1l0.2,1.5l0.2,2.1l0.7-3.1l0.4,7.3
					l0.2-3.4l0.5,0.4l1.3,12.9l0.2-0.1l0.2-9.5l0.4,7l0.5,0.7l0.2-0.2l0.2-2l0.2,1.7l0.2-2l0.5,1.4l0.2,6.2l0.5-3.3l0.5-1.9l0.4,2.6
					l0.2,3.2l0.2,2.9l0.6-0.4l0.2-1.5l0.2,0.3l0.2-6.7l0.2,1l0.5-0.2l0.2-4.1l0.2,1.1l0.2-2.1l0.2-1l0.5-0.2l0.2,1.4l0.2,0.3
					l0.2,3.2l0.9,2l0.2-1.1l1.1,8.2l0.2-0.7l0.2-2.4l0.2-0.1l0.6,2.4l0.2-0.1l0.2,4.9l0.4,0.4l0.5-0.9l0.4,1.7l0.4-2.1l0.5,5.4
					l0.2-0.7l0.2-3.5l0.2,2.9l0.2-0.4l0.5-2l0.2-3.6l0.4,6.1l0.2-1.9l0.6-0.5l0.2,1.8l0.4,6.6l0.2-1.9l0.5,0.6l0.7-2.7l0.5,3
					l1.3-7.1l0.2,1.2l0.2,1.2l0.2-0.6l0.2-3.1l0.5-1.3l0.2,1.9l0.2,0.4l0.2-0.2l0.2-2l0.9,3l0.2-4.5l0.2-0.9l0.5,2.3l0.2,0l0.2-2.6
					l0.2,4.7l0.2-0.5l0.6-2.1l0.2,0.6l0.4-0.4l0.2-1.6l0.5-1.3l0.2-2.5l0.2-0.1l0.2-1.8l0.9-3.3l0.2,1.9l1.1-5.1l0.2,1.9l0.2-0.1
					l0.2,1l0.5-4.6l0.6,0.2l0.2,1.9l0.5-0.1l0.2-1.3l0.5-5.6l0.5,2.5l1.3,9.4l0.2-0.4l1.3,5.2l0.2-1.6l0.2,0.7l0.2-2.9l0.5,1.1
					l0.2-2l1.1-3l0.2,4.1l0.2-0.1l0.2,1.4l1.1,1.7l0.2-1.4l0.2-1.5l0.5,1l0.2,0l0.4,1.8l0.2-2.2l0.5-2l0.2,0.4l0.2,3.1l0.4,0.1
					l0.5-1.4l0.2,0.6l0.2-2.1l0.4,2.3l0.5-0.1l0.2-0.2l0.2,0.5l0.4-0.2l0.7,4.6l1.1,3.7l0.2-0.5l0.2,0.4l0.2-1.5l0.7,0l0.2-1.3
					l0.2,0l0.2-2.1l0.2-0.6l0.5,0.9l0.2,0.2l0.2-0.7l0.2-7.4l0.2,0.8l0.6-0.6l0.2-0.2l0.5,0.6l0.5-2.4l1.3,1.8l0.2-0.1l0.6-2.9
					l0.5,5.3l0.2,2.1l0.2-0.8l0.2-3.7l0.9,2.3l0.2,0.2l0.2,2.2l0.2-2.5l0.5,0.4l0.5,3.8l0.2-1.7l0.5,0.7l0.2,0.2l0.2-3.1l0.4-0.9
					l0.5,0.4l0.5-0.6l0.2,1.4l0.9,2.2l0.2,2.3l0.2-0.5l0.6,0.8l0.5-2.2l0.2,0.2l0.7,3.8l0.2-0.9l0.2,1.2l0.2-1l0.6,2.3l0.2-0.2
					l0.2,1.1l0.4,3.2l0.5-0.5l0.2-0.3l0.5,3l0.5,0.4l0.2-1.3l0.5,0.9l0.5,0l0.7,4.2l0.5-2.5l1.8-5.5l0.2,0.4l0.7-1.8l0.2,1.2
					l0.2,1.4l0.9,0.7l0.2,2.9l1.3,11.4l0.2-0.2l0.2-5.3l0.6,4.3l0.4-1.8l0.2-0.3l0.9-5.8l0.2,2.4l0.4-2.9l0.5,0.5l0.2-0.5l0.2,0.4
					l0.4,5.3l0.5-7.7l0.5,1.2l0.2,2.5l0.5-2.3l0.2-4.2l0.6,1.4l0.5,5.2l0.4,0.2l0.2-1.5l0.2,0.7l0.5,3.8l0.4-0.4l0.4-3.5l0.5,2
					l0.2-2.6l0.2,2.8l0.4-0.9l0.5-3l0.7-2.5l0.6-2.2l0.4,1l0.2-5.1l1.1-5.7l0.2-1.7l0.7,3.9l0.2-2.4l0.4,6.3l0.2-4.6l0.5,1.8
					l0.7,6.5l0.5-0.9l0.4,3.6l0.4-1.6l0.7,3.4l0.2-0.6l0.2,0.7l0.2,1.1l0.9-0.7l0.2-0.6l0.2-0.2l0.5,0.8l0.5,1.2"/>
			</g>
			<g>
				<path fill="none" stroke="#32AB60" stroke-width="3" stroke-miterlimit="2" d="M112,406.8l0.9-2.9l0.2-1.4l0.2-0.1l0.6,0.9
					l0.6,3.2l0.2-1l0.6-0.3l0.4,0.3l0.2-0.4l0.2,1.1l0.7-0.3l0.2-1.8l0.2-2.5l0.2,1.4l0.7-0.5l0.5-3l0.6,1l0.2,0.9l0.4-0.8l0.2-1.7
					l1.1-1.8l0.2,1.6l1.1-1.3l0.2,1.7l0.6,1.5l0.2,2.7l0.4,2.7l0.2-1.4l0.6,1.5l0.2-1.2l0.4,1.7l0.2-0.7l0.6-0.3l0.6,5.1l0.2-0.2
					l0.6-2.1l0.2-0.5l0.2,1.4l0.2,0.9l1.3-4.1l0.2,0.9l1.3,1.5l0.6-0.2l0.2,0.3l0.2-1.1l0.2-0.3l1.1-3.5l0.4-0.3l0.9,2.9l0.2-1.8
					l0.2,0.4l0.6-0.6l0.2-0.3l0.2,0.9l0.2-0.6l0.2,1.3l0.7-0.8l0.2-1.1l1.5,3.9h0.2l0.7,1.7l0.6-0.4l0.7-3.2l0.2-0.1l0.2,0.4
					l0.2-1.6l0.7-0.6l0.2-0.6l0.2,0.9l0.2-1.8l0.7-0.8l0.6,1.4l0.6-0.9l0.5,1.7l0.2-1.9l0.6-2.5l0.4,1.6h0.2l1.5,3.1l0.6-0.2
					l0.4-0.2l0.2-0.7l0.9-0.7l0.2,0.7l0.4-0.2l0.7,1.5l0.2-1.4l0.4-0.9l0.6,1.4l0.6,1.5l0.2-0.4l0.5-0.6l0.6-2.8l0.2,0.8l0.5,0.6
					l1.3-0.9l0.2,0.5l0.2-0.5l0.4,0.6l0.6-0.2l0.4-1.6l0.4,1.2l0.6-0.9l0.2-0.1l0.2,0.8l0.9-0.8l0.2-2.1l0.6-2.1l0.6,0.8l0.5,2.8
					l0.2-0.9l0.6-0.5l0.2-1.7l0.4,1.9l0.2-1l0.6,0.4l0.4-0.7l0.2,0.6l0.2,1.7l0.7,0.4l0.2,2.5l0.2,0.4l0.2-0.8l0.5-0.4l0.4,0.9
					l0.2-2l0.2-0.1l0.7,2l0.6-2l0.6,2.2l0.2-0.5l0.2,2.2l0.2-1l0.2,1.1l0.6,0.8l0.2,2.2l0.4-3.5l0.2,0.5l0.7,2l0.2-0.9l0.2,0.1
					l0.7-1.2l0.2-1.1l0.4-3.8l0.2,1.4l0.6-1.1l0.6-1.9l0.2,0.9l0.6-0.3l0.7-2.6l0.6,1.3l0.4-0.9l0.4,1l0.5-2l2-4.7l0.5-0.8l0.6-0.6
					l0.2-0.5l0.7,1.5l0.2,1.6l1.5-4.4l0.2,0.4l0.7,1.4l0.2,1.6l0.2,0.9l0.2-0.6l0.7-0.5l1.3,5.3l0.2-0.9l0.4,1l0.6-2.3l0.4,3.1
					l0.4-1.1l0.6-0.2l0.6-3.4l0.2,0.5l0.6,0.2l0.2,2.2l0.4-2.7l0.2-0.3l0.9,1.4l0.2-1.6l0.7-3.1l0.4,0.9l0.2-0.8l0.2,0.3l0.6-0.5
					l0.2,0l0.2-1.6l0.2-0.9l0.2,0.2l0.6,0.9l1.3-2.9l0.2,0.5l0.4-3.4l0.2,0.3l0.6,0l0.4-0.5l0.2,3l0.2-0.6l0.6,0.9l0.2-1.4l0.5,1.4
					l0.6-0.1l1.3-7.5l0.2-0.4l0.6,3.6l0.5,0.2l0.6-4.8l0.2,2l0.5,2.5l0.2-2.1l0.6,2.2l0.7-0.9l0.4-1.8l0.2,1l0.9,3.6l0.9,2.1
					l0.2,0.8l0.4,1.6l0.2-2.4l0.7,1.5l0.6-2.7l0.6,0.9l0.4-2.8l0.4,1.8l0.6,0.6l0.7-3.3l0.6-0.2l1.3,1l0.2-1.2l0.2-0.2l0.4,0.4
					l0.7,0.6l0.2,0.1l0.4-0.6l0.6-0.3l0.7,7.7l0.5,0l0.6-2.7l0.2,1.1l0.5,0.3l0.4-0.2l0.4,1.6l0.6-1.8l1.5-6.6l0.2,0.2l0.4,0.1
					l0.6-1l0.2-0.9l0.4-0.6l0.7,0.6l0.2-1.1l0.5,0.2l0.6-1.1l0.2-0.3l0.2,0.3l0.2,1l0.2-3.3l0.6,0.8l0.2,0.9l0.4-2.8l0.2,0.3
					l0.6,1.4l1.7-2.9l0.2,2.4l0.7-2.7l0.2,0.2l0.2-0.5l0.9-3l0.2,1.2l0.4,0.7l0.2-1.8l0.7,1.3l0.6-2.3h0.6l0.2-0.1l0.2,0.9l0.2,2.4
					l0.2-1l0.6-0.5l0.2,1.5l0.2-1.9l0.2-2l0.7-2.3l0.2,0.7l0.2,4.3l0.2-2.1l0.2,2.5l0.6,0.2l0.2,0.8l0.2-2.4l0.2-0.2l2-5.5l0.4,0.2
					l0.2-3.3l0.2-1l0.6,0.9l0.2,0.9l1.1-6.2l0.2,3.7l0.2-2.8l0.2,6.5l0.2,3.8l0.6-0.6l0.2,1.3l0.2-1l0.2,1l0.2,4.4l0.7-5.2l0.2-3.1
					l0.9,6.6l0.2-0.3l0.4,3.5l0.2-5l0.6-0.6l0.2,2l0.4-0.9l0.2-2.8l0.6,0.8l0.2,3l0.6-3.9l0.7-2.2l0.4-0.4l0.2,2.5l0.6,1.3l0.2-3
					l1.8-7.7l0.6,0.8l1.3-3.2l0.2,2.5l0.4,1.9l0.2-0.6l0.5,1l0.7-4l0.6-1.9l0.4,0l0.2-0.3l0.2,4.2l0.5,1.8l0.2-0.6l0.2-1.1l0.2,0.8
					l0.2-0.9l0.5-2l0.7,8.2l0.5,0.4l0.2-3.9l0.2,4.1l0.2-3.2l0.2,3.7l0.5,3.3l0.2-3.4l0.2,0.8l0.9,3.2l0.2-5.4l0.5-0.7l0.5,3.8
					l0.2-1l0.6-4l0.6,0.5l0.2,1l0.2-2.6l0.2-2.2l0.7-0.8l0.2,2.5l0.4-3.5l0.2,2.2l0.6,1.9l0.7-5.1l0.5-0.3l0.7-1.9l0.6,1.9l0.4,0.3
					l0.2-0.5l0.2,2.5l0.7,2.9l0.2-2.2l0.2-0.1l0.2,2l0.6-0.8l0.2,2.6l0.4,7.4l0.2-1.7l0.7,3.8l0.4-5.1l0.2,3l0.5-1.7l0.4-0.2
					l0.2-0.6l0.2-0.4l0.6,0.7l0.4,5.8l0.4-0.9l0.5-2.2l0.6-3.4l0.2,0.3l0.7-2.4l0.4,0.1l0.7-3.2l0.2-1.1l0.6,4.2l0.6-1.1l1.3,7.7
					l0.2-6.1l0.4-0.5l0.2,1.6l0.6,0.2l0.2-3.9l0.2,5.8l0.2-0.8l0.7-1.4l0.4-0.5l0.4,1.5l0.5,0.9l0.7-6l0.6-0.3l0.4-1.1l0.2,0.2
					l0.2,1.3l0.7-3.1l0.2-3l1.1-2.2l0.2,0.2l0.9,2.6l0.2,0.9l0.2-1.8l0.2,4.9l0.2,0.1l0.6,0.1l0.2-0.8l0.2,1.8l0.4-0.6l0.5-0.5
					l1.5-7.8l0.2,1.3l0.2,1.7l0.9,3.9l0.2-0.9l1.1,6.9l0.2-0.1l0.2-5.2l0.2,3.7l0.6-3.3l0.2,1.7l0.2-1l0.2,2.2l0.2-1.9l0.5,0.5
					l0.2-0.9l0.2,1.1l0.2,3l0.2,1.3l0.6-4.1l0.5,1.9l0.2-0.2l0.5-2.3l0.2-0.3l0.2,1.4l0.2-1.3l0.7,1.9l0.4,3.8l0.4-1.7l0.5,0.1
					l0.5,7.4l0.2-1.8l0.6-2.1l0.2,0.2l0.2,2.7l0.2,0.3l0.2-1.3l0.5,1.5l0.2-0.3l0.2-5.1l0.9,11.3l0.2-2.6l0.2,0l0.2,1.3l0.2-1.9
					l0.6,0.2l0.2,1.9l0.2-1.9l0.4,1.6l0.5,0.8l0.6-5.6l0.2,0.1l0.5,2.3l0.6-3.6l0.2,1.7l0.7,3.9l0.2-1l0.2,2.8l0.2,0.8l0.6-1.7
					l0.2,5.1l0.5-6.2l0.5,6.2l0.7-9.3l0.5,1l0.2,1.7l0.2-0.5l0.2-3.8l0.2,0l0.5,9.6l0.4-6.6l0.4,0.9l0.6,0.9l0.2,1.8l0.2-1.3
					l0.2,13.1l0.2,8.2l0.6-15.7l0.2,0.9l0.2,14.8l0.9-18.4l0.2,5.1l0.2,10.1l0.4-6.5l0.5,4.3l0.5-13.1l0.2,1.4l0.5-0.3l0.2-4.7
					l0.2,5.5l0.2,5.5l0.7-6.6l0.2,2l0.2,5.5l0.2-9.5l0.2,2.5l0.5,0.5l0.2-4.4l0.2,4.3l0.2,7.2l0.7-15.1l0.2,1l0.2-4.1l0.4,1.1
					l0.5,8.6l0.4-6.8l0.4,3.4l0.6-4.4l0.2,2.1l0.2-2.8l0.2,0.1l0.2-0.6l0.5,0.7l0.2-4.7l1.1,12.1l0.2-0.3l0.2-1l2.2-8.6l0.2,2l0.5,4
					l0.6,1.5l0.4,2.1l0.4-4.4l0.7,2.7l0.2-4.4l0.4,1.8l0.6-0.8l0.4-1l0.2,3.3l0.2,0.8l0.6-0.3l0.2-2.1l0.2,0.7l0.2-3.1l0.2-1.4
					l0.6,1.3l0.2,4.9l1.3,7.2l0.2-1l0.2-0.3l0.2,1.4l0.6,2.9l0.2-4.1l0.2,0.1l0.2,1.6l0.9,9.7l0.2-2l0.2,5.1l0.2-2.7l0.5-0.8
					l0.2-4.2l0.6,0.3l0.5,0.3l0.4-3.3l0.2,1.2l0.2,3.3l1.1-7.6l0.2,1.9l0.7,2.8l0.2-1.7l0.2-1.5l0.2-0.3l0.5,0.6l0.2,2l0.4-1.7
					l0.7,2.7l0.4-0.2l1.3,5l0.2-1.4l0.2-1.3l0.6,0.7l0.2-1.4l0.2-2l0.2,2.6l0.2-2l0.5-0.3l0.2,0.8l0.2-1.4l0.2-0.5l0.9-3.4l0.2,1.5
					l0.2,0l0.2,1l0.7-2.1l0.2,1.4l0.2,1.8l0.9-2.1l0.2,2.2l1.6-6.9l0.6-0.3l0.2,0.1l0.2-1.1l0.2-0.3l0.2,0.4l0.5,1.5l1.3,5.9
					l0.2-0.2l0.2,0.7l0.2-2.1l0.2,1.2l0.5-2.3l2,8.1l0.6-0.9l2.6-10.5l0.2,1.3l0.5,2.2l0.6-0.4l0.2,0.1l1.3,3.1l0.2-1.5l1.1,3.9
					l0.2-2.3l1.3-5l0.2,0.8l1.1,4l0.2-0.1l0.2-1.4l1.1-2.2l0.2,1l0.5,0l0.2,0.8l0.2-1.3l0.4,0.5l0.5,0.6l0.2-0.4l0.2,1.2l0.2,0.1
					l0.2,0.3l0.5-1.3l0.7,4.5l0.6-1.5l0.7-2.5l0.6-1.3l0.2-0.2l0.2-2.4l0.9-2.7l0.2,0.9l0.4-2.1l0.2,1.3l0.5,0.5l0.2-2.5l0.4,1.4
					l0.2,3.4l0.5-0.7l0.2,0.6l0.2,0.7l0.9-2.9l0.2,0.4l0.2-0.5l0.2,1.5l1.1-5.1l0.4,1.4l0.5-2l0.4-1.2l0.4,2.4l0.5-0.3l0.2-1.5
					l1.1,3.4l0.2,1.2l0.4,0.8l0.2-0.6l0.6,4.7l0.7,2.2l0.6-0.5l1.6-0.4l0.2,0.9l2-3.2l0.2,0.5l0.5,1.3l0.7-0.2l1.1,5.1l0.2-0.1
					l0.6,2.2l0.5-2.6l0.2-1.2l0.2,0.6l0.2,2.8l0.7-0.1l0.2-1.3l0.5,0.6l0.7-2.2l0.2,0.8l0.4-0.2l0.6,0.7l0.4-0.2l0.4,0.8l0.6-0.6
					h0.5l0.2-1.6l0.7-0.5l0.2-0.7l0.4,0.6l0.5,0.8l0.6-1.6l0.2,0.5l0.5,0.1l0.4,0.7l0.2,0.3l2-2.8l0.2,0.4l0.2,0.8l0.2-0.8l0.2-1.3
					l1.1,0.7l0.2,0.5l0.5-0.4l0.2-1.1l0.4,0.6l0.2-1l0.5-0.1l0.2,1.5l0.2-1.4l0.4,2.1l0.6-0.1l0.7,6.3l0.6-2.3l0.4-0.2l1.3,3.8
					l0.2,3.2l0.2-0.8l0.6,1l0.4,1.3l0.2-3.3l0.9,3.4l0.2-2.3l0.2-1.2l0.2,3.1l0.5,0.3l0.6-4l0.2,0.1l0.6,0.7l0.7-2.6l0.5,0l1.6,9.2
					l0.2,0.7l0.2,0.1l0.7-1.4l0.4-2.1l0.2,0.1l0.6-0.2l0.2-0.7l0.4,0.2l0.2,2l0.7-1.5l0.2,1.2l1.1-4l0.2-0.2l0.4,1.9l0.5-3.4
					l0.6-1.2l0.2,1.1l0.5-0.7l1.3,3.3l0.2-1.5l0.6,3l0.5-0.9l0.6,1.6l0.2-2l0.5,1.2l0.2-0.2l0.2-2.8l0.4-0.6l0.7,1.2l1.1-0.7l0.2,0
					l0.5,0.4l0.6-1.2l0.5,0.6l0.2-0.9l1.1-0.1l0.2-1.1l0.6,0.5l0.2-1.6l1.1-2l0.2-0.2l1.1-2.4l0.2,1.8l0.6-1.9l0.5,0.2l0.4,0.8
					l0.4-1.3l0.5-0.7l1.8-8.2l0.2,1.3l0.5,0.8l0.2,2.4l0.2-0.1l0.2-2l0.2-0.4l0.6,0.6l0.2,1.9l0.2-1.4l0.4,1l0.6-0.4l0.2-0.2
					l0.2-2.7l0.9,0l0.2-0.2l1.1-1.4l0.2,0.3l0.2,0.5l0.4-0.5l0.6-0.1l0.5-1.5l0.7,0.3l1.5-2.9l0.2,0.3l1.7-4.9l0.7-1.4l0.4,1.5
					l0.2-1.9l0.6,0.6l0.2-0.1l0.2-1.5l0.2-0.4l0.2,1.4l0.6-2.6l0.2-5l0.5,1l0.6-1l0.4,1.4l0.4-0.4l0.6-3.2l0.2,3l0.5-2.4l0.7-1.5
					l0.2-2.5l0.4,2.7l0.5-0.3l0.2,1.1l0.4-1.6l0.2,1.1l0.5,0.5l0.4,0.5l0.2,4.7l0.7-1.6l0.2,1.5l0.2,3.2l0.4-2.4l0.5-3.1l0.4,0.4
					l0.2-0.2l0.2-1.4l0.7,0.6l0.2-1.9l0.2,0.6l0.2-0.9l0.5-0.3l0.7-1.7l0.5,1.2l0.4,3.1l0.4-1.7l0.6,1.8l0.5-5.1l0.7,0.2l0.7-2.7
					l0.5,1.6l0.6,6.7l0.2-0.1l0.5-0.8l0.2-0.3l0.2,2.8l1.1,1.1l0.2-2.1l0.2-0.9l0.2,1.2l0.5,1.4l1.5-4.4l0.2,2.2l1.1,3.2l0.2-1.2
					l0.2-0.7l0.2,2.2l0.5,0.9l0.2-1.8l0.2,2.7l0.4-0.5l0.6-1.1l0.2-1.4l0.2,1.2l0.2,2.2l0.2,2.6l0.6-1.8l0.2-2.7l0.6-3.7l0.7,0.6
					l0.2,0l0.2-1.2l0.2-0.1l0.6,0.8l0.2,0l0.2-0.9l0.2,0.4l0.2-1.2l0.6,0.5l0.7-4l0.5,1l0.4,2l0.2,2.9l1.3,11.9l0.2-1.5l0.9,9.9
					l0.2-5.6l0.7-4.3l0.4,0.2l0.2,5l0.2,1.8l0.6-0.6l0.2-5.5l0.2,0.2l0.2,2.8l0.7-3.7l0.4,0.2l0.2,0.8l0.9,3.7l0.2-3.9l0.4,4.1
					l0.5-1.3l0.2,0.3l0.5-4.6l0.6,1.3l0.2-0.5l0.2,3.2l0.2,4.3l0.2-0.1l0.5-3.8l0.5-3.4l0.2,1.9l0.5,2.3l1.3-8.1l0.2,0l0.5-2.9
					l0.6,1l0.7-4.2l0.6,0l0.2,1.1l0.2-2.5l0.2-1.3l0.2,0.6l0.5,5.3l0.2,3.4l0.4-4.6l0.2,0.5l0.7-2.7l0.2,3.7l0.4-3.7l0.6,1.2
					l0.2-0.2l1.8,8.2l0.5-3.1l0.4-7.3l0.4,1l0.6-1l0.4-1l0.2,1.9l0.2-2.3l0.5,2l0.2-0.8l0.2,1.7l0.4-1.1l0.5,1l0.7-9l0.7-0.1
					l0.2,1.7l0.4-0.9l0.7-2l0.4,0.4l0.2,1l0.7-0.9l0.2,1l0.2,0.5l0.2-0.2l0.7-1.3l1.1-2.8l0.2,0.5l0.2-0.1l0.2,0.7l0.2,1.5l0.6,0.5
					l0.2,2.8l0.2-0.4l0.2,0.7l0.2-2.2l0.7-2.2l0.2,0.9l0.2,0.7l0.2,1.7l0.6-1l0.2-0.4l0.2,0.9l0.2-2l0.2-0.3l1.8-2.5l0.2,0.1
					l0.6,1.3l0.5-1.1l0.7,4.3l0.5-2l0.2-2.1l0.5,0.6l0.6-0.9l0.5,2.6l0.2-0.4l0.5-2.4l0.4,1.9l0.4-1.4l0.5-0.6l0.6,3.6l0.7,1.5
					l0.2,2.7l0.5-1.2l0.6-1.7l0.4-2.8l0.4,0.7l0.5-0.6l0.4-1.8l0.4,1.2l0.5-0.4l0.2-1.1l0.4,2.2l0.2,1.7l0.7,0.9l0.2,1.1l0.4-0.6
					l0.5,1.6l0.7,1l0.5-0.9h0.4l0.2-0.9l1.3,6.4l0.2,1.1l0.7,0.5l0.2-4.1l0.4-1l0.5,0.9l0.7-4.7l0.5,0.2l0.4-3l0.2,4.6h0.2l0.6,1.4
					l0.2-1.9l1.3-6.2l0.4,1.1l0.9,3.9l0.2-2l0.2,0.4l0.2-2.2l0.5,0.7l0.2-1.1l0.4-0.8l0.2,0.4l0.6,1.2l0.2,1l0.2-1.1l0.2-2l0.7-1.7
					l0.2,1.1l0.2-0.1l0.2,1.6l0.9-3.3l0.2-0.6l0.4-1.2l0.6,0.5l0.2-0.1l0.4-0.8l0.9,2l0.2-0.4l0.2,0.7l0.2-1.2l0.5,0.5l0.2-0.6
					l0.2,0.3l0.2,1.1l1.1-0.2l0.2-2.7l0.2-1.5l0.6,0.7l0.2-0.2l0.2,0.1l0.2-2.7l0.2-1.7l0.5,0.6l0.2,0.4l0.2,1.7l0.4-2.2l0.5,0.1
					l0.4,1l0.4-0.3l0.5-0.6l0.4,0.2l0.2-0.8l0.7-0.7l0.2,0.9l0.6,1.8l0.5-0.8l0.5-3.2l0.2,2.1l0.5-0.1l0.4,3.7l0.4-1.2l0.9-0.9
					l0.2-0.7l0.2,2.1l0.6-0.6l0.2-1.6l0.2,4.6l0.2,1.8l0.7-0.4l0.2,1.4l0.2,0.7l0.4-0.6l0.5-2l0.2,0.3l0.2-0.8l0.4-1.7l0.6,0.8
					l0.2,2l0.6-1.3l0.5,0.9l0.2,0.7l0.4-1.3l0.2-1l0.5,0.3l0.2-0.9l0.2-0.7l0.2,1.4l0.2,0.8l0.7-2.4l0.2,1.8l0.2-0.7l0.2,2.7
					l1.1,0.6l0.2,2.9l1.3-6.3l0.5,1.7l1.3-2.7l0.2,0.1l0.2,0.1l0.2-1.2l0.9-1.2l0.2,0.4l0.4-1.7l0.5,1l0.2-1l0.2,1.8l0.2,1.1
					l0.2-0.1l0.5,1.4l0.4-1l0.2,1.6l0.2-0.6l0.6,0.5l1.5-1.7l0.2,0.6l0.4-0.4l0.5,2.4l0.2-1.3l0.4-1.7l0.2,0.2l0.6,0.8l0.2-1.1
					l0.4,1.5l0.2-0.4l0.6-0.3l0.4-0.2l0.2-0.9l1.3,2.7l0.2-1.8l0.5,0.4l0.2-1.8l0.2-0.8l0.2,0.8l0.7-1.1l0.5,1.6l0.2,1.2l0.9,0.5
					l0.2-0.9l0.2,0.4l0.5,4.1l0.4,0.7l0.2-0.9l0.2-1.4l0.5-1l0.2-2l0.2-0.2l0.2,2.2l0.7-0.2l0.2-1.3l0.2,2.4l0.4-4.1l0.5-0.9
					l0.4-1.8l0.4,1.5l0.5,0.1l0.7-2.7l0.5-1.2l0.2-0.5l0.2,1l0.2,0.6l0.2,0.4l0.7-1.4l0.4,0.5l0.2,2.7l0.5-1.6l0.2,1.1l0.2,1.9
					l0.4-3l0.5,0.6l0.2,1.1l0.2,1.2l0.2-2.6l0.2,1.2l0.5-1.5l0.2-0.7l0.2,1.5l0.2,3.2l0.2-0.7l0.6,1.6l0.7-3.1l0.6,0.1l2-5.1
					l0.6,0.2l0.4-0.3l0.2-1.5l0.9-1.3l0.2,0.3l0.4,0.3l0.5,1.3l0.6,2.1l0.2,1.3l1.3,1l0.5,1.4l1.7,5.7l0.2-0.9l0.2-0.9l0.5,0.7
					l0.2,0.4l0.2-3.3l0.4,2.8l0.7,0l0.2-1l0.4,0.8l0.5-1.3l0.2,0.4l0.2-1.7l0.2,1.4l0.2-0.7l0.6-0.4l0.4-1.5l0.2,0.5l0.2,1l2.4,5.2
					l0.2-1.4l0.9,1.9l0.2-1.5l0.7-2.6l0.2,1.4l0.6-1.3l0.5,0.5l0.5-2l0.2,0.7l0.5-0.4l2-8.5l0.5-0.4l0.4,0.6l0.2-1l0.2-3.4l0.7-0.3
					l0.2,1.2l0.9-0.7l0.2,1.4l0.6,1.3l0.5-0.1l0.7-3.6l0.5-0.3l0.2,0.2l0.2,2.4l1.3-8.8l0.2,0.2l0.2,1.3l0.5,0.3l0.2-1.2l0.5-3.8
					l0.5,2l0.2-1.5l0.4,2.4l0.2,0.4l0.5-0.3l0.2-2.3l1.1,4.2l0.4-0.4l0.2-0.3l0.2-0.4l0.7,1.1l0.5,6.1l0.5-0.1l0.2-1.2l0.5,5.8
					l0.6,3.5l0.4,0.8l0.2-1.4l0.2-1.3l0.5,1.8l0.7-7.7l0.7,0.1l0.2,0.2l0.2-2.4l0.2,0.6l0.5-2.4l0.5,1l0.2-0.7l0.5,1.3l0.2-1.7
					l0.4,4.6l0.2-2.1l0.5-0.9l0.7,3.4l0.5-1.4l0.2-0.6l0.2,1.6l0.4-1l0.6-0.5l0.2-0.5l0.2,0.3l0.2-2.6l0.9-2.5l0.2-0.4l0.2,0l0.2,1
					l0.5,1l0.2-1.1l0.2,0.2l0.4,1l0.5-1.9l1.3-5.1l0.2,0.9l0.4,0.6l0.7-1.9l0.2-0.5l0.2-1.6l0.2,1.7l0.2-1l0.5-1.5l0.4-0.3l0.2,1.3
					l0.2-0.6l0.5-0.5l0.4-0.1l0.2,2.5l0.9,0.2l0.2-2.3l0.4,1.2l0.7-0.1l1.1,2.4l0.4-0.2l0.2-0.9l0.2-1.8l0.5,0.1l0.2,0.1l1.1-2.5
					l0.2,0.8l1.1-3.3l0.2,2.8l1.1,3.5l0.2-1.1l1.5-3.7l0.2,1.7l0.2,1.4l0.5-1.6l0.2,0.5l0.2-2.3l0.2,2.5l0.2-0.7l0.5-0.6l0.6-2
					l0.2,1.9l0.5-2l0.2,1.4l0.2,0.5l0.4,7.5l0.5-2.2l0.2,3.3l0.6-2.6l0.5,0.6l0.2,0.4l0.2-1h0.2l0.2,0.1l0.5-0.8l0.5,0.4l0.2,1.3
					l0.6-0.4l0.2-1.5l1.3,2l0.2-1l0.4-0.3l0.9,4.2l0.2-0.4l0.2,2.1l0.5-0.9l0.2-1.9l1.7,5.4l0.2-2l0.9,4.4l0.2-0.8l0.2-1l0.5-1
					l0.2,1.9l0.2-2.1l0.2,4.7l0.2,0.4l0.9,2.3l0.2-0.7l0.2-1l0.5-0.9l0.2-3.2l0.2,0.9l0.2-1.7l0.2-0.6l0.5,1.3l0.2-2.4l0.4,1.1
					l0.2-3.8l0.7,3.7l0.2-0.9l0.2-2l0.2-1.8l0.6,0.5l0.2-0.2l0.4,3l0.2-0.8l0.5,0l0.2,0.4l0.2-1.3l0.2-0.4l0.2-1.7l0.5,1.9l0.7,8.9
					l0.5-3.1l0.4-4.5l0.4,1.9l0.5,3.6l0.2,0.5l0.2,4.6l0.2-0.9l0.2,4.5l0.5-0.5l0.2,0.8l0.2-4.5l1.1-9.5l0.2,1.4l1.3,2.3l0.4-0.6
					l0.7,5.2l0.2-1.6l0.2-2.6l0.2,0.2l0.6,3l0.5,2.3l0.2-3.7l0.7,0l0.2-1.3l0.2-1.7l0.2,3.4l0.6-1.5l0.7,7.4l0.5-3.7l0.5-4.8
					l0.2,0.3l0.5-0.1l0.4,1.7l0.2-3.1l0.2-1.7l0.7,0.6l1.1,7l0.2-0.7l0.2-0.3l0.2,1.6l0.9,1.8l0.2,0.8l0.2,0.8"/>
			</g>
			<g>
				<path fill="none" stroke="#6432AB" stroke-width="3" stroke-miterlimit="2" d="M112,476.7l1.1-0.2l0.2-0.5l1.1-0.1l0.2,0.1
					l3.5-0.7l0.2-0.3l0.7-0.4l0.2,0.1l0.2,0.3l2.4-0.9l0.2,0.6l0.9-0.8l0.2,0.2l0.2,0.2l1.3,0.8l0.2-1l2.6-0.4l0.2,0.2l1.1-1.7
					l0.2,0.1l0.6,0.2l0.7-0.3l0.6,0l2-1.8l0.6-0.1l0.4,0.4l0.2-0.9l0.2-0.2l1.1-0.3l0.2-0.1l1.1,0.5l0.2,0.3l3.7-0.8l0.2-0.4
					l0.6,0.1l0.2-1.1l0.6-1.1l0.7,0.2l1.7,2.9l0.2,0.1l0.9-0.8l0.2,0.8l0.2,0.1l0.6,1.1l0.4-0.3l0.2,0.9l1.1-1l0.2-0.3l1.5-0.2
					l0.6,0.1l0.7,0.8l0.6,0.5l0.4,0l0.2,0.4l0.2,0.2l0.7-1l0.4,0.7l0.2-0.1l1.8,1.2l0.2,0.2l0.6-0.9l0.6,0l0.2,0.3l0.2-1.4l0.2-0.9
					l0.2,0.3l0.6,0.3l1.6,0.7l0.2-0.5l0.9,0.3l0.2-0.4l1.3-0.7l0.2,0l0.7-0.2l0.2,0.2l0.2,0.1l1.1,1.3l0.2,0l0.9,0.4l0.2,0.1
					l0.6-0.1l0.7,0.5l0.2,0.3l0.2-0.6l0.2,0.1l0.6,0.4l2.8,0.6l0.2-0.1l0.9-0.2l0.2,0.4l0.2,0.3l0.2-0.7l0.2,0.4l0.6-0.1l2.6,1.3
					l0.2-0.1l1.8-3l0.6-0.5l0.7-0.1l0.5,0.2l0.7,0.8l0.5-0.1l0.7-0.9l0.6,0.3l0.7-0.5l0.6,0.4l0.7-0.3l0.7-0.7l0.2,0.3l0.2-0.6
					l0.2,0.1h0.6l2.6-0.8l0.2-0.4l1.3,0.8l0.2-0.3l1.3,0.5l0.2-0.5l1.1,0.2l0.2-1l1.3-0.8l0.2,0.4l2,0l0.2-0.5l1.7-0.8l0.6-0.1
					l0.7-1.2l0.6,0.5l0.7-0.4l0.6,0.1l0.4,0.3l0.2,0.6l0.7-0.4l0.2,0.6l0.2-0.7l0.4,0.3l0.5,0.5l0.2-0.2l0.2,0.4l0.2,0.4l1.3,0.5
					l0.2-0.9l1.8-0.1l0.2-1.6l0.2-1l0.4,0.6l0.7-0.6l1.3,2.6l0.2-0.2l2.4,0.6l0.2-0.5l2.4,0l0.2-0.8l0.9,0.2l0.2,1.1l1.7-0.9l0.2,0
					l3.3-1.7l0.2,0.5l1.5-0.3l0.7,0.2l0.2-0.1l0.4,0.5l0.2,0.4l2.2-1.2l0.2-0.8l1.1-0.4h0.2l0.9-1.1l0.2-0.4l2.2-1.2l0.2-0.4
					l0.4,0.7l0.2-0.7l0.7-0.2l0.4-1.6l0.2,0.7l0.6-0.7l0.7-0.8l0.6,1l0.7-0.1l0.6-1.1l0.4,0.8l0.4-0.3l0.6,0.1l0.2,0.6l0.5-0.6
					l0.6,0.2l0.6-2.7l0.2,0.1l0.6,0.5l1.5-2l0.2,0.2l0.9-1.3l0.2,2l0.4-2.6l0.2,0.5l0.6,0.5l0.7,2.2l0.5-0.8l0.4,0.3l0.2,1.8
					l0.2,0.3l0.6-0.7l0.6,2.5l0.2-1.2l0.6,0l0.7-3l0.6,0.7l0.2,1.3l0.4-2.2l0.2-0.5l0.7-1.3l0.2,1.7l0.4,1.1l0.6-1.1l0.2,0.3
					l0.4-0.4l0.2-0.4l1.1-0.4l0.2-0.9l2-3.3l0.2,0.1l0.2,0.4l0.9-2.7l0.2,0.2l0.2,1.1l1.1-2.5l0.2-0.2l0.2,0.7l0.5-0.9l0.2-2.7
					l0.5,0.3l0.5-0.1l0.4-1.1l0.4,0.5l0.5,0.4l0.2-1.3l0.2,1.3l0.2,2.5l0.7,5l0.2-3.8l0.4,1.3l0.2-0.5l0.6,0.6l0.7-1.8l0.5-0.2
					l0.6-2.7l0.2,0.5l0.6,0.8l0.4-1.6l0.2-1l0.7-1l0.2,1.3l0.4-0.8l0.2,0.3l0.6,1.4l0.4,0.3l0.2-0.9l0.7-2.7l0.4,0l1.5,0.9l0.2,3.5
					l0.5,0.6l0.2,1.5l0.2-1.9l0.4,1.5l0.6-1.4l0.4,4.4l0.4-0.4l0.7,1.3l0.5,6h0.5l0.6-1.2l0.2,0.4l0.6,0.5l0.5,2.4l0.2-1l0.5-0.9
					l0.7,1.1l0.7,0.6l0.2-0.4l0.2,0.5l0.2,0.5l0.7,0.1l0.2-0.9l0.2-1.6l0.2,1.1l0.6,0.8l0.4-0.7l0.2,0.8l0.2-0.3l0.5,0.6l0.5-1.9
					l0.2,0.3l0.6,0l0.6-1.5l0.7-1.4l0.4-1.3l0.4,0.5l0.5-0.1l0.7-2.2l0.6-0.6l0.7,2l0.5-0.1l0.2-0.1l0.2-1.2l0.2-0.2l0.2-1.5
					l0.5-1.7l0.2,1.9l1.8-4.8l0.6-0.9l0.2-0.4l0.2,0.9l0.2-0.6l0.2,0.4l1.1-1.5l0.2,0.5l0.6,0.9l0.2-0.5l0.2,1.8l0.2,0.3l0.2-1
					l0.7-1.2l0.5-0.5l0.6,0.6l0.4,0.2l0.2-1l1.5,4l0.5-1l0.2-1.1l0.4,0.1l0.2,1.3l0.7,0.5l0.2-1l0.9,2.3l0.2-1.7l0.2,1.5l0.2-0.5
					l0.7-1.2l0.2-1l0.2,1.2l0.2-0.6l0.2,0.9l0.5-0.3l0.2,1l0.2-0.8l0.2,0.2l0.2,1.5l0.6-0.3l0.2,1l0.2-1l0.2,1.7l0.2-0.7l0.5,1.8
					l0.4-1.3l0.4,0.7l0.6,0.8l0.7-3.8l0.6-0.9l0.5-1.3l0.2,0.8l0.5,0.1l0.2,0.4l0.4-0.2l0.2-0.6l2,2.5l0.2-0.2l1.1,3.5l0.2,0
					l0.2-0.2l0.2,0.9l0.5,2l0.2,0.1l0.2,2.8l0.4-3l0.5,2.3l0.6-0.2l1.5,8.1l0.6-0.2l0.6,2.2l0.2-1.9l0.6-3.1l0.7,3l0.5-0.2l0.2,1.6
					l0.6-1.1l0.5,1l0.5-4.4l0.2,0.8l0.5,0.1l0.2-0.9l0.2,1.8l0.2,1l1.1,2.1l0.2-1.5l0.7,1.9l0.2-0.4l0.2,0.9l0.2,1.3l0.2-0.5
					l0.6-2.4l0.2,0.5l0.2-1l0.4,0.5l0.5,0.9l1.3-2.5l0.2-0.1l1.1,1.2l0.2-0.1l0.2,1.5l0.4-0.2l0.6,1l1.3-0.2l0.2,0.1l0.2,0.2
					l0.4-1.3l0.5-0.9l0.6,0.4l0.2,0.5l1.3,1.9l0.7,1l1.1-2.7l0.2-0.3l0.2-0.8l0.4,0.9l0.6-0.3l1.3-2.6l0.2,1.1l0.4-0.3l2,2.9
					l0.2-0.8l0.2-0.2l0.4,0.4l0.5,0.3l0.4-0.8l0.2,0.6l0.2,0.8l0.5,0.5l0.2-1.3l0.4-1.8l0.2,0.1l0.5,0.1l0.7-1.4l0.5-1.4l0.6-0.5
					l0.7,1.3l0.2-0.1l1.1-3.1l0.2,0.8l1.1-1.2l0.2,0.5l0.2,0.2l0.2-0.9l0.2-0.5l0.5,0.7l1.3-1l0.2,0.2l1.5-2l0.2,0.8l0.7-0.1
					l0.2,1.2l0.2,1.2l0.4-0.7l0.5-1l0.2-0.2l0.2,0.4l0.2,0.4l0.2,0.4l0.7-1.9l1.8-3.2l0.6,0.2l1.8,1.8l0.2-0.8l0.7,1.3l0.2-0.5
					l0.2-0.8l0.9-0.6l0.2-0.1l1.1,1.7l0.2-0.4l0.2,0.2l0.2-0.5l0.6-0.9l0.2,0l0.2-1.1l0.9-1.4l0.2,0.3l0.2-1.2l1.1-0.8h0.2l0.9-1.5
					l0.2,0.2l0.2,0.1l1.1,0.5l0.2-0.6l0.2-0.7l0.2,0.4l0.5,1.7l0.7-2.2l0.5,0l1.3,0.2l0.2,0.7l0.4-0.3l0.2-0.9l2-1.1l0.2-1.6
					l0.4-0.7l0.5,0.2l0.2-0.1l0.6,0.5l0.5-0.9l0.2,0.2h0.2l0.2,1l1.1-2.2l0.2,0.2l1.1-0.5l0.2,0.2l0.2,0.6l0.5-0.4l0.2-2.1l0.4-1.5
					l0.2,0.3l0.5,0.3l0.7,3.2l0.5-0.2l0.2,0.1l0.2-0.5l0.2-0.8l0.2-0.1l0.5-1.6l1.5-1.3l0.2,0.2l0.4,1.4l0.5-1.4l2.6,3.9l0.2-0.2
					l0.2-1.8l1.1,0.8l0.2-0.2l0.2,0.7l0.2-0.8l0.6-0.7l1.3-3.1l0.2,0.6l1.1-1.1l0.2-0.1l0.4,0.9l0.2-0.3l0.5,0.4l0.4-0.1l0.4,1.1
					l0.7-2.1l0.6,4l0.5-1.2l0.4-1.1l0.2,2l0.2,1.7l0.5-0.6l0.2-0.3l0.2-0.8l0.2,1.7l0.2-0.8l0.6,0.3l1.5-2.1l0.2,0.2l0.4,0.2
					l0.6,0.3l0.2,0.8l0.4-1.2l0.2-0.6l1.1-1.4l0.2-1.9l0.6,0l0.2-0.9l0.5-0.8l0.5,0.6l1.5-1l0.2-0.2l0.2,0.6l0.2-1l0.5-0.3l0.6-0.9
					l0.7-0.6l1.8-2.4l0.2,0.4l0.5,0.1l0.2,0.6l0.2-3.4l0.4-2.7l0.5,0.3l0.2,1.7l0.2,0.1l0.2-1.6l0.9,2.3l0.2,0.6l0.4,4.7l0.6-4.2
					l0.4-1.9l0.2,0.9l0.2,1l0.7,0.3l0.2,1l0.2,2.5l0.2-1.1l0.6-1l0.4,0.6l0.2-2.2l1.1-2.5l0.2,0.2l0.2,1.7l0.9,3l0.2-1.7l1.5-5.5
					l0.5,0.9l0.2-0.8l0.4,1.1l0.2,0.5l0.5-0.4l0.2,2.8l0.5,2.1l0.7-0.4l0.5-2.5l0.6,0.5l0.7,1.7l0.6,1l0.7-3.4l0.6,0.2l0.2-1.1
					l0.4,1.4l0.2,0.2l0.9-1.3l0.2,0.3l0.2,0.4l0.5-0.4l0.2,0.5l0.2,2.2l0.2-0.4l0.2,0.6l0.5,0.4l0.4-1.3l0.4,0.8l0.5,0.9l0.2,1.4
					l0.6-0.4l0.5-0.2l0.2-0.1l0.2-1.7l0.4-2l0.7,0.2l0.6-1.3l0.5-0.9l0.4-0.7l0.2-1.5l0.2,0.3l0.6-1.8l0.4-1l0.2-0.3l0.2-0.8
					l0.6,0.3l0.2,1l0.2-0.1l0.2,0.8l0.7,1.2l0.2-2.4l0.4-0.1l0.2-1.1l0.7-1l0.2-0.4l0.2-0.5l0.2-2.9l0.5-0.8l0.2,2l0.2-0.2l0.4,0.7
					l0.5-0.3l0.6,0.8l0.2,1l0.7-2l0.2-0.8l0.9-1.3l0.2,0.6l0.2-0.5l0.2,0.3l0.2,2l0.5,0.2l0.2,1.3l0.2,0.2l0.2-1.8l0.2,0.4l0.6-1.6
					l0.2,1.1l0.2-1.4l0.4-0.1l0.6-0.4l0.2,1.3l0.4-1.6l0.2,0.2l0.6-0.6l0.2,0.5l0.2-0.6l0.4,0.1l0.6-0.3l0.7,0.3l0.6-0.4l0.4-0.7
					l0.2,0.4l0.7-0.2l0.4-0.1l0.2,0.4l0.2,0.2l2.6-6l0.7,1.8l0.4,1.9l0.2,1.4l0.9-4l0.2,0.1l0.2,1.6l1.8-3.7l0.2-0.8l0.2-0.7
					l0.2,0.9l0.2-0.6l0.6-0.5l0.4-0.9l0.2,1.1l0.9,4.6l0.2-0.9l0.2-0.1l0.7-2.4l0.2,0.9l0.2-0.6l0.4-1.8l0.5,1.1l0.2-0.1l0.2,0.8
					l0.2,1.4l0.2-1.2l0.5-0.4l0.4,5.5l0.4-0.2l0.5-2l1.5-2.7l0.2,0.5l0.2,0l0.2,0.9l1.8,3.2l0.2-0.4l0.2-0.9l0.4,2l0.6-1l0.2-1.4
					l1.1-3.5l0.2,0.6l0.4,0.9l0.2-0.8l1.3,0.8l0.5-0.2l0.2-0.4l0.4,0.7l0.2,1.4l0.6,1.7l0.2-0.7l0.2-0.9l0.2-0.1l0.2,1.2l0.7,0.7
					l0.2-1.1l0.2,0.4l0.2-0.6l0.7-2.4l2.4,4.9l0.2-1.4l1.1,4l0.2-2.3l0.2,0.6l0.2-2l0.2,1.1l0.6-1.3l2-6.4l0.6,1.3l0.2,0l0.2-1
					l0.2,0l0.2-1.7l2-8.9l0.2,2.5l0.4,0.5l0.6-1.5l1.3,10.1l0.2-4.8l0.2,2.4l0.4-3.1l0.5-1.5l0.6,4l0.2,2.3l0.6-0.1l0.2-4l1.3-3.8
					l0.2,1.2l0.4,2.5l0.7-1.3l0.4-1l0.2,1.5l0.5-0.6l1.5-7.8l0.2,0.3l0.2,2.4l0.2-0.6l0.5,0.3l0.2,0.9l0.4,2l0.2,2.2l1.3,2.7
					l0.5-4.4l0.7-7.7l0.6,0.5l0.2-0.5l0.2,5.5l0.4,1.3l0.6-3l0.2,1.9l0.6-1.7l0.5,0.1l0.2,1.9l0.5-0.9l0.5,0.1l0.2-1.5l0.2,2.6
					l0.2,2.3l0.7,1.4l0.2-2.2l1.1,4.6l0.2-1.8l0.5,3l0.5-2.9l0.2,0.7l0.2-2.1l0.2-1.3l0.7-1.2l0.2,0.5l0.2,0.4l0.4-1l0.5,0.4
					l0.2,0.7l0.4,2.3l0.2-0.5l0.5-0.3l0.7-4.9l0.7-0.8l0.2,0.9l0.4-0.5l0.7-1.4l1.3-2.8l0.2,0.2l0.4,0.6l0.7-1.1l0.2-1l0.4,2
					l0.6-1.6l0.2,1.6l0.2-6.1l0.2,0.5l0.2-0.6l0.6-1.3l1.6-5.5l0.2-3.8l0.2-0.1l0.6-2.1l0.2-1.6l0.2,2.7l0.4-1l0.7-3l0.2,0.4
					l0.2-0.8l0.2-1.4l0.5-0.8l0.2-2.2l0.6-2.3l0.5,2.8l0.2,0.7l0.2-0.1l0.2-2.6l0.9-6.1l0.2-5l0.4,0.9l0.6-3.6l0.2-1.1l0.4,1.5
					l0.2,0.8l0.9-5l0.2,1.8l0.2,2.4l1.1-7.9l0.7-0.6l1.3,13l0.2-6.9l0.2,0.3l0.2,4.9l0.9,6.3l0.2-11.6l0.4,1.6l0.5,4.4l0.4-0.5
					l0.2,1l0.2,3.9l1.1-1.2l0.2,0.9l0.9,4.8l0.2,3.7l0.2-0.1l0.5-7.2l0.2,1l0.2-3.2l0.2,1.2l0.2,0.7l0.9-3.9l0.2,0.3l0.2,3.9
					l0.6-0.8l0.2,0.3l0.2-2l0.2-0.1l0.2-2l1.1,2l0.2-0.6l0.7-3.1l0.2,0.4l0.2,1.9l0.2-1l0.6,2.6l0.4-0.9l0.2,1.3l0.9-7.1l0.4-2.5
					l0.2,1l0.5-1.9l0.6,3.5l0.2-1.4l0.5-0.5l0.4,0.2l0.2-1.9l1.3,9.2l0.2-2.4l1.8-8.7l0.2,0.4l0.2,0.2l1.7-7.2l0.6-4l0.2,2.1l0.2-3
					l0.4,1.3l0.5-2.9l0.4,0.5l0.2,2.2l1.3-2.9l0.2-1l0.7,4.6l0.2-2.1l0.2-3.1l1.1-4.4l0.2,0.8l0.2-0.3l0.5,2.2l0.4,6l0.4-0.4
					l0.5,1.8l0.4-2.8l0.2,1.1l0.2,3.3l1.1,5.7l0.2-0.4l0.5-1.2l0.2-3.5l0.4,4l0.2,5.3l0.5-5.6l0.2,4.8l0.2-0.8l1.3,5l0.2-0.3
					l0.2,4.6l0.6-1.8l0.2,0.4l0.4,10l0.2-2.2l0.5,1l0.2,0l0.2,1.4l0.2,2.6l0.2-0.5l0.5-8.9l0.2,1.1l0.2-0.2l0.4-2.3l1.1-4.2l0.2,1
					l0.5-0.2l0.2,2.4l0.6,10l0.5,0.8l0.2-2.7l0.4,2.7l0.2,4.7l0.7-5.7l0.2,1.8l0.2,1.1l1.5,2.8l0.5-5.3l0.4-4l0.2,1.6l0.2,3.6
					l0.5,0.7l0.2-0.3l0.2,1.9l0.2-1.5l0.2,0.8l0.6,4.3l0.2,3.7l0.2-4.7l0.4,1.4l0.7-1.1l0.2-2.2l0.2,14.9l0.2,2.5l0.5-2.3l0.2-2
					l0.5,1.1l0.5,2.7l0.7-8.3l0.6-1.2l0.7,4.7l0.7,0l0.4,3.3l0.2-1.1l0.5,1.9l0.2-1.4l0.4,1.8l0.2,2.6l0.6,2.5l0.2-2.6l0.2,1.3
					l0.4-1.4l0.6-1.5l0.4,2.2l0.2-1l0.2-2.6l1.3-4.3l0.5-0.4l0.4,2.7l0.2,2.2l1.5,4.6l0.5-0.7l0.2-0.2l0.2-2.1l0.4,1.4l0.5,2.4
					l0.2-1.5l0.2,5.5l0.4,2.9l0.5-1.9l1.8-11.1l0.2-1.1l0.9-3.3l0.2,1l0.2,0.9l0.5-0.4l0.2,2.6l0.2,3.6l0.4-1.1l0.5-2.3l0.2,0.8
					l0.4-0.6l0.2-0.7l0.7,0.9l0.2-0.9l0.2-1.6l1.3,3.1l0.2-0.8l0.5,0.7l0.7,2.1l0.5-0.5l0.2,0.1l0.2,2.1l1.5,6.9l0.2-0.6l0.9-5.8
					l0.4,0.8l0.5,0.6l0.5-2.9l0.2,0.2l0.6-0.2l0.5-1l0.2,1.6l0.5-0.3l0.2,1.7l0.5-5.2l0.5-1.6l1.3-5.1l0.2,1l0.4,0.3l0.2,1.6
					l0.5-3.1l0.2-5.3l1.1-4.3l0.2,1.6l1.1-0.5l0.2,3.4l0.4-0.7l0.2,1.1l0.7-0.3l0.2-2.4l0.4,0.1l0.5-1.9l1.3,13.4l0.2-1.2l1.1-8.4
					l0.2,0.4l0.2,1.8l0.2-1.1l0.2,0.8l0.5,1.4l0.4-3.1l0.4,1.6l0.5-1.1l0.2,1.6l0.4-2.1l0.2-0.8l1.1-2.8l0.2-1.1l1.1-5.5l0.2,1.4
					l0.5-1l0.2,3.2l0.6-0.8l0.5-1.6l0.4,0.7l0.2,2l0.2-2l0.7,0.1l0.2-0.2l0.2-1.8l0.2,0.8l0.6,1.5l0.2-0.2l0.2,1.1l1.7-9.9l0.5,1.2
					l0.6-4l0.2,1.9l0.5-1.5l0.5,1.4l0.2,1.5l0.6-0.7l0.2,0.6l0.2,1l0.2,1.5l0.2-1.1l0.5-5.1l1.3,3.7l0.2-1.6l1.3,5.1l0.2-0.8
					l0.4,2.5l0.5-0.7l0.2-2.6l0.2-2.6l0.4,4l0.7-2l0.4-1.7l0.2,2.4l0.5-1.1l0.2,10.6l0.4,1.6l0.2-0.2l0.6-0.2l1.8-11.1l0.2,0.1
					l0.7-0.5l0.2,2.1l1.3,4.9l0.2-2.5l0.2,0.4l0.5-0.4l0.2-0.8l0.2-0.3l0.4,0.5l0.5-0.1l0.4-1.4l0.2,1.4l0.2,1.5l1.3-2l0.6-1.5
					l0.2-1.4l0.4,1.8l0.2,0.1l0.5,0l0.2-1.2l0.2-0.2l0.2,0.9l0.2,1.7l0.7,2l0.2-1.7l0.4,2.6l0.5-0.5l0.2,0.9l0.4-1.7l0.7-1.5
					l0.2-0.1l0.2,1.7l0.9-16.8l0.2,0.4l0.2,0.5l0.4-0.6l0.5-2l0.7,2.9l0.5-1.8l0.4-0.2l0.2,1.2l1.1-4.3l0.2-0.2l1.3-6.9l0.2,0.6
					l0.5,1.1l0.2-2.2l1.3-5.4l0.2,0.6l0.4,4.4l0.5-1.6l0.2,0.2l0.2-0.2l0.2,0.5l0.2,1.6l0.6,0.1l0.2,1l0.4-1.1l0.2-1.8l1.8-6.8
					l0.4,1l0.2,0.6l0.7-2.4l0.2,1.9l0.4,3.8l0.2-2.3l0.5,0.8l1.3-8.7l0.2,1.1l0.2,0.4l0.2,4.3l0.2-0.9l0.5,0.9l0.2,0.8l0.4,0.3
					l0.2-0.4l0.5-2.1l0.2,0l0.2-2.2l0.9-3.3l0.2-2.3l0.4-0.1l0.2-1.3l0.6-0.4l0.2,1.1l0.5-2.8l0.7-1.4l0.4,8.9l0.2-1.5l0.6,1.1
					l0.2,0.6l0.2-5.2l0.9-1.1l0.2,1.3l0.4-1.6l0.2,1.4l0.5-0.2l0.2-2.7l0.2,1.5l0.2,6.6l0.9-4.9l0.2,2.7l0.2-1.2l0.2,0.5h0.5
					l0.2,1.5l0.2-3.5l0.2-0.4l0.9,3.9l0.2,2.1l0.2,2.2l0.2-2.4l0.5-3.6l0.7-9.3l0.5,0.2l0.7-4.9l0.6-2.4l0.2,1.4l0.5-1.5l0.6,0.3
					l1.5-11.4l0.2,1.4l0.9-6.8l0.2,1.8l0.2-2.4l0.4,0.1l0.5,6.6l0.4-1.5l0.9,6l0.2-2.9l1.3,12.7l0.2-4.6l0.9-6.1l0.2,0.7l0.2,0.9
					l0.4-3.4l0.5,0.1l0.2,2.4l1.1,10.8l0.2,0l0.2-2.6l0.4-7.3l0.6,4.8l0.2-1.7l0.2,0.7l0.2,5.1l0.2,1.4l0.7-4.7l1.1-7.5l0.2,6.8
					l0.4-16.8l0.2,3l0.5-2.5l0.2,0l0.2-1.6l0.2-1.5l0.2,1.8l0.5-1.4l0.7-12.7l0.7-1.3l1.1-8.9l0.2,1.4l0.2,5.8l0.2-2.8l0.2,3.4
					l0.5-1.1l0.2-0.5l0.2,1.4l0.2,3.7"/>
			</g>
			<g>
				<path fill="none" stroke="#DB4052" stroke-width="3" stroke-miterlimit="2" d="M112,448l1.3,1l0.6-0.2l0.7,0.6l0.6-0.3l1.3-0.3
					l0.2,0l0.2-0.3l0.4,0.5l0.7,0l1.8,1.3l0.6,0.1l1.5,0.9l0.2-0.5l0.2-0.4l0.2,0.3l0.6,0.3l0.7,1.3l0.6,0.2l1.3-0.1l0.2,0l0.2-0.7
					l0.4,0.4l0.6-0.5l0.5,0.3l0.2-0.9l0.7-0.6l0.2-0.7l0.4-0.3l0.6-0.5l1.6-1.1l0.2-0.3l1.1,0.1l0.4,0.2l3.1,0.4l0.2,0.5l3.1,1.4
					l0.7-1l0.6-0.1l0.6,0.1l0.7-0.4l0.7,0.3l1.5,0.8l0.2-0.1l0.9-2.3l0.2,0.1l1.5,1.9l0.2,0l0.6,0.4l0.2-0.4l0.2-0.4l1.6,0.4
					l0.6-0.6l0.7,0.2l0.6,0l0.7-0.4l0.5,0.1l1.3-1.1l0.2,0.2l0.2,0.8l0.2,0.4l0.2-0.2h0.5l0.7-0.3l0.6-0.5l0.4-0.3l0.2,0.3l0.2,0.4
					h3.7l0.2,4.4l0.7,0.2l0.2,1.2l0.9-0.8l0.2,0.2l0.2-0.2l0.2,0.8l0.2,0.1l1.1,0.4l0.2,0.4l0.9-1.3l0.2-0.3l0.9,0.8l0.2,0.7
					l0.4-0.1l0.6,0.4l0.7,0.8l0.6,0.3l0.2,0.3l0.4-0.8l0.2,0l0.9-1.4l0.2,0.3l0.2,0.5l1.8-1.7l0.4,0.5l0.9-0.2l0.2,0.6l0.4,1.2
					l0.2-0.1l0.6-0.2l1.7-2.7l0.2,0.7l0.2-0.5l0.6,0.2l0.2,0.1l0.6-0.4l0.5,0.1l1.8-0.8l0.2-1.6l0.6-0.5l0.4,0.6l0.2-0.1l1.1-0.1
					l0.2,0.1l0.2-0.2l0.7,0.3l1.3-0.5l0.2-0.1l1.3-1.7l0.2,0.4l0.2,0.4l0.6-0.4l0.2-0.4l0.5-0.2l0.6,0l0.2,0l0.2-0.8l1.3,0.6l0.2-1
					l1.1-0.4l0.2,0.3l0.7-0.2l0.2,0.2l0.2-0.1l4.2-1.7l0.6-0.7l0.7,0.2l0.6,0.4l1.8,0.9l0.2-0.8l1.1-1l0.2-0.2l1.3,0.8l0.7-0.5
					l1.7,0.3l0.2,0.2l0.7-0.5l0.2,0.4l0.2-1.5l0.9-0.7l0.2,0.1l1.1,0.5l0.2-0.5l0.9,0.8l0.2,0.1l0.2-0.5l0.4,0.9l0.6,0.8l1.3,0.9
					l0.2-0.2l0.2-0.6l0.2-0.1l0.2,1l1.8-0.5l0.2,1.7l0.2-0.4l0.4,0.6l0.5,0.3l0.2-0.4l0.4,0.7l0.2,0l0.5-0.2l0.2,1l0.2-1l0.4,0.1
					l0.6-0.7l0.2,0l0.2-1l1.3,1.3l0.2-0.1l2-1.2l0.2,0.2l0.2,0.4l0.4-0.7l0.6-0.2l1.3-0.1h0.2l1.6-3.1l0.2,0.6l0.5-0.2l2.6-0.6
					l0.2,0.5l0.4,0.7l0.2-0.4l0.7-0.4l0.2-0.5l0.4,0.7l0.6-0.2l0.5,1.6l0.2-0.6l0.6,0.1l0.2,0.2l0.2-0.8l0.2-0.2l1.3,0.4l0.2,1.1
					l1.8-0.4l0.2-0.4l1.1,0.2l0.2,0.8l1.5-2.3l0.2-0.8l1.5,3l0.6,0l0.6-0.2l0.2,0.8l0.5-0.8l0.4-0.7l0.2,1l1.1,1.6l0.2,0.4l0.7-0.6
					l0.2,0.3l1.1-0.6l0.2,0.8l0.6-1.1l0.7-0.1l0.4-0.1l0.2,0.7l0.6-0.1l0.6-1l0.2,0.2l0.6,0.4l0.2-0.3l0.4,0.7l0.2-0.3l0.6-0.6
					l0.2-0.7l0.6,0.2l0.5-0.5l0.7-0.1h0.5l0.7-0.5l0.6,0.2l0.6-1.6l0.2,1.4l0.9-1.5l0.2-1.1l0.9-5.1l0.2-1.8l0.4-0.4l0.5,0.5
					l0.5,2.9l0.2,1.5l0.5,0.5l0.2-1.7l0.4,1l0.2-0.5l0.6,0.2l0.2-0.9l0.5,0.7l0.5,1.6l0.7-0.9l0.6,1l0.2,0.2l0.2-2l0.9-0.9l0.2,0.9
					l0.5-1.7l0.6,1.3l1.6-3.2l0.2,0.9l0.2-0.2l0.6,0.8l1.3,1.4l0.2,1.7l0.2-1.4l0.4,0.8l0.6-0.7l1.7,3.5l0.2-1.9l1.1,1.5l0.2-0.6
					l1.1,5.9l0.2,0.6l0.2-0.6l0.5,0.5l0.2-0.2l0.2-0.9l0.4,0.8l0.7,0.2l0.4,0.1l0.2,0.6l0.9-0.8l0.2,0.5l0.2,1l0.6,0.3l0.2-0.9
					l0.2-0.8l0.4,0.4l0.5-0.3l0.2-1.8l0.5,1.9l0.6-0.5l0.2-1.6l0.4,0.4l0.7,0l0.4,0.9l0.2,0.7l0.2,0.2l0.5-0.7l0.2-1.6l0.6,0.5h0.6
					l0.7,1.3l0.5,0.3l0.6-1.7l0.2-1.1l0.5-0.6l0.2,0.2l0.2-1.7l0.2-0.5l0.2,2.8l0.9,1.9l0.2-1.3l0.7,0.5l0.2-0.9l0.2,0.7l0.4-0.2
					l0.5-0.9l0.4-0.1l0.2-0.8l1.5,3.5l0.7-0.6l1.3,1.6l0.2-0.3l0.2-1.1l0.2,1.2l0.6-0.3l0.2-0.3l0.2,1.1l0.4-2.8l0.5,0.2l0.2,0.2
					l0.4-0.2l0.9,1.7l0.2-0.9l1.3,3.6l0.2-0.1l0.7-0.1l1.3,1.3l0.2-1.5l0.4-2l0.2,2.4l0.6,0.3l0.4-1.1l0.2,1.4l0.9-1l0.2-0.2
					l0.9,1.4l0.2-1.4l0.5-2.8l0.6,0.3l0.2-0.3l1.5,1l0.2,0.2l0.2-1l0.5,0.3l0.2,0.6l0.4-1l0.2,1l0.7,0.3l0.6,2.1l0.6-0.7l0.4-0.5
					l0.2-1.3l0.2-0.4l0.5,1.2l0.4,3.3l0.4-0.9l0.5-0.3l0.4-0.5l0.2-1.3l0.2-1.1l0.5,3.5l0.2-2.4l0.5,0.5l0.6,2.1l0.7,5l0.6-5.8
					l0.4,4.1l0.4-1.9l0.5-1.2l0.4,4.7l0.4-0.6l0.5,1.1l0.2-2.8l0.5,1.1l0.5-0.4l0.2-1.3l0.2,2.1l0.2,1.7l0.2-0.9l0.6,0.3l0.2,0.1
					l0.4-0.1l0.7,2.8l0.2-0.6l0.4,3.1l0.2-3.2l0.6-1.5l1.3,3.1l0.2-0.8l0.4,0.1l0.7-2.8l0.2,0.6l0.2,0l0.2,1.7l0.7,0.6l0.2-1.6
					l1.1,1.4l0.2-0.1l1.1,0.5l0.2-0.6l0.2-0.1l0.4-1.3l0.7-0.6l0.2,1.8l0.2-0.9l0.2,0.9l0.6,0.1l0.4,0.6l0.4-0.9l0.7,1.8l0.2-1.3
					l0.2,3.3l0.2-0.1l0.9-1.2l0.2,0.6l0.2,0.7l1.3-3.7l0.6,0.3l0.2,1l0.4-0.7l0.2,0.2l0.7,1.3l0.5,0.1l0.6,1.2l0.4,0.4l0.2,0.8
					l0.7,0.9l0.2-0.1l0.2-0.4l0.9,1.5l0.2-2l0.2-0.9l0.4,0.7l0.5,0.6l1.3-3.1l0.2,0.6l0.2,0.1l0.2-1.4l0.7,2l0.2-1.3l0.2-1.4
					l0.4,0.8l0.5,0l0.4-0.6l0.2-0.7l0.9,0.5l0.2,0.8l0.2-1.4l0.2,0.8l0.5,0.9l0.5-0.5l0.2-2.9l0.7,1.4l0.6-0.4l0.5,0.1l0.5,1.3
					l0.2-0.1l0.5,0.1l0.7-1.3l0.5-0.5l0.7,1.1l0.7-0.9l0.2,0.3l0.2-0.5l0.2-0.6l3.5-4.2l0.2,0.3l0.2-0.9l0.5,1.2l1.7-1.1l0.2,1
					l0.7,0.2l0.2,1l0.6,0.2l0.6-1.2l0.2,0.2l0.2-1.5l1.1-1.1l0.2,0.1l0.2-1.1l0.2,3.1l0.6,0.5l0.5-1l0.2,0.4l0.6-0.5l1.5,1l0.2-0.6
					l0.2-0.1l0.2-0.1l0.5,0.7l1.3-2.3h0.2l1.5,1.2l0.2-0.4l0.2-0.8l4.8-1.6l0.2,1.3l1.1-0.3l0.2-0.9l0.7-0.1l0.2-0.1l0.4-1.3
					l0.2,0.3l0.5,0.2l0.6-0.3l0.2-2.1l0.5-1l0.2,0.1l0.2,0.9l0.2-0.3l0.2,0.7l0.5-0.2l0.2,0.5l0.2-0.8l0.2-0.6l1.1-1l0.2-0.4
					l1.1-1.3l0.2,0.5l0.7-0.2l0.2,0l1.1,0.8l0.2-0.9l0.4,0.3l0.2-0.2l0.6,0.3l0.2,0.3l0.5-0.4l0.6-0.4l0.5,0.8l0.2-1.1l2-1.6
					l0.2,0.7l0.2,0.7l0.9-0.7l0.2,0.3l0.2,0.5l0.2-0.3l0.5,0.6l0.2,0.3l0.2-0.4l0.2-0.9l0.2,0.2l0.7-0.4l0.6,3.2l0.5-0.5l0.2-0.3
					l0.2-0.3l0.2,0.8l0.2,1.5l0.9-0.7l0.2,1.2l0.9-0.2l0.2,0l1.5-1.7l0.2,0.3l0.6,0l0.2,0.6l0.5-0.5l0.6-0.5l0.4,0.8l0.4-0.2l0.6,0
					l1.8-1.5l0.2,0l2-0.3l0.2,0.7l0.9,0l0.2-0.1l0.2,0l0.2-0.9l1.1-1.4l0.2-0.1l0.2,0.3l0.5-0.6l0.5-0.5l0.2,0.6l0.5-0.2l0.7,0.9
					l0.6-0.5l0.7,4l0.6-1.1l0.2,0.1l0.2-0.9l1.3,1.6l0.2,1.7l1.1,3.2l0.2-1.5l0.9,0.2l0.2-0.9l0.2-0.6l0.2,1.6l0.5,0.8l0.4,0.8
					l0.2-0.3l0.2-1l0.6,0.2l0.2-1.6l1.8,3.1l0.5,0.3l0.4,2l0.4-0.4l0.7-0.9l1.3-2l0.2-0.5l0.2-0.1l0.2,0.9l2.4-1.7l0.2,0.3l0.5-0.8
					l0.2,0.3l0.2,0.6l0.2,0.5l0.2-0.3l0.5-0.1l0.7,1.8l0.5-0.1l0.4-0.7l0.2,0.6l0.2,0.3l0.9,0.2l0.2,0.4l0.7,0.3l0.2,0.3l0.5-1.2
					l0.7,0.5l0.6,0.1l0.5-1.9l0.7-0.2l0.6-0.3l0.5,1.5l0.2-0.5l0.6,0.1l0.7,0.5l0.6,0.7l0.7-1l0.5,0l1.3-1.9l0.2,1.1l0.6-0.4
					l0.5,0.3l0.7-2.3l0.5-0.4l0.2-0.7l0.4,0.4l0.2,0.4l1.1,0.3l0.2,0.6l1.8,0.6l0.2,1l0.2-0.4l0.4,0.2l0.6-0.1l0.2,0.1l0.2-1.2
					l0.4-1.5l0.6,0.3l0.2,0l0.5-0.7l0.6,0.1l0.5-1.1l0.2,0.1l0.6,0.1l0.5-0.8l0.7,0.3l1.3,0.1l0.2-0.2l0.2,0.1l0.2-1.3l1.3,1
					l0.2-0.2l0.7-0.6l0.4,0.5l0.2,0.5l1.1-1.3l0.2,1.7l1.3,0l0.6-0.7l0.2-0.1l0.2,0.5l0.2,0.7l0.9,0.6l0.2-0.1l0.2-0.3l0.2,0.2
					l0.7,0.7l1.1,0l0.2,0.6l1.6,1.2l0.2-0.4h0.5l0.7,1.4l0.5-0.8l0.4-0.3l0.2-0.4l0.7,0.6l0.2-0.1l0.2-0.2l0.2,0.3l0.2-0.1l0.5-0.1
					l0.5-1l0.2,0.2l0.5,0.1l1.3,1.4l0.2-0.1l0.2-1l0.2,0.4l0.7-0.1l0.5-1.7l0.2,1.2l0.5,0.4l0.4-0.6l0.4,0.3l0.5,0.1l2,1.8l0.5,0.5
					l0.4,0l0.2-0.8l0.9-0.5l0.2,0.9l0.9,0.7l0.2-0.1l0.6,0.6l0.5-0.5l0.4,0.5l1.1-1.6l0.2,0.2l0.4,0.6l0.6-1.4l0.7-1.3l0.7,0
					l0.5-1.4l0.6,0.5l1.3,0l0.2-1.5l0.2,0.8l0.4-0.7l0.5-0.6l0.2-0.3l0.2,1.2l0.2-0.6l0.2,0.5l0.6,0.2l1.3,4.3l0.2-1.7l0.2,2.2
					l0.4-1.4l0.5-0.6l0.4,0.2l0.2,0.9l0.7,1.1l0.2-1.2l0.4,0.2l1.1-3.2l0.2,0.6l0.2,0.6l0.7,0.4l0.2-0.8l0.2-0.3l0.2,0.7l0.5-0.2
					l0.2-0.2l1.1-1.8l0.2,0.4l0.5,3l0.5-0.6l0.2-0.4l0.4,0.4l0.2,0.9l0.5,0.6l0.2-1.3l1.3-2.6l0.2,0.1l0.4-0.5l0.6,0.4l0.2-0.5
					l0.6,0.2l0.6,0l0.4,0.9l0.4-0.6l0.5,0.6l0.4,1l0.4-0.4l0.5-0.9l0.2-0.6l0.2,1.5l0.2-0.1l0.9-1l0.2,1.1l1.3,2.5l0.4,0.3l1.8-2.2
					l0.2,0.1l1.1,0.2l0.2-0.4l1.1,0.4l0.2-0.8l0.2,0.4l0.4-0.4l0.7,0l0.2,0.3l0.4-0.2l0.7-1.3l0.6-2.1l0.5,0.6l1.6-0.8l0.2,0.2
					l0.7-2.5l0.2,0.6l0.2-0.3l0.4,0.5l0.6-0.6l0.2,0.1l0.2-0.6l0.2-0.1l1.3-1.3l0.2,0.4l0.9,0.4l0.2-2l2-0.1l0.2-0.8l0.2,0.2
					l0.2-0.9l0.2,0.3l0.5,0.5l0.2,0.4l0.4-0.7l0.2,0l0.5-0.1l0.2-1l0.4-0.3l0.2,0.4l0.6,0.6l0.7,0.3l0.5-0.9l1.5,1l0.2,1.2l0.2-0.5
					l0.7,0.7l0.4,1.2l0.4-0.7l0.6-0.4l0.7-2.1l0.5,0.5l0.2,0.3l0.2-0.5l0.4,0.4l0.5-0.1l0.6,0.4l0.2,1.2l1.1,0.4l0.2-0.6l1.3,2.7
					l0.5-0.8l0.2,0l0.2,1l0.4,0.1l0.7-0.8l1.3,1.7l0.2-1.3l0.4-0.5l0.5,1.2l0.4-0.4l0.2-0.3l1.1-2.5l0.2,1.3l0.2-0.9l0.6,1.3
					l1.5-1.4l0.4,0.1l1.3,3.3l0.2-1.2l0.7-0.4l0.2-1.3l0.2-0.3l0.2,0.9l0.6,1.3l0.4,0.7l0.2-0.5l0.2-1l1.1,0.9l0.2-0.9l2.4-2
					l0.2-0.2l1.1,1l0.2-0.5l0.5-0.2l0.5,0.6l0.2-0.8l0.9,0.7l0.2-1.5l0.7,1l0.2-0.1l0.2,0l1.1-0.6l0.2,0.2l0.2-0.6l0.2,0.4l0.5,0.7
					l1.3,2.1l0.2-0.3l0.4-0.6l0.2,0.3l0.6,0.1l0.5,1.3l0.2-0.4l0.5-0.5l0.5,0l0.2,1.4l1.1,1.2l0.2-0.5l0.9-0.5l0.2-1.6l0.9-0.5
					l0.2,1.2l1.6,3.8l0.5-0.3l0.4-0.4l0.4-1.2l2,2.1l0.2-0.5l0.2-0.1l0.2,0.4l0.5-0.8l0.2-0.6l0.4,0.3l0.2,0.5l1.1-1.4l0.2,0.4
					l0.6,0.6l1.3,0.5l0.4-1.5l1.1,1.7l0.2-0.2l0.2,0.4l0.2-0.6l0.6-0.1l0.7-0.6l0.7,0.1l0.6-1.2l0.5,0l0.2-0.2l0.2,0.2l0.2,0.7
					l0.2-0.8l0.5,0.8l0.2-0.1l0.4,0.4l0.2-0.4l0.6-0.5l1.7-0.4l0.2,0.6l0.2-0.4l0.5,0.6h0.2l1.1-1.3l0.2-0.3l1.1,0.8l0.2-0.1
					l2.8-0.7l0.2-0.4l2,0l0.2-1.7l0.2-1.1l0.2,2.2l0.2,0.2h1.1l0.2-1.6l2-5.4l0.2,0.6l0.9-1.7l0.2,0.7l0.5,1l0.5-0.6l1.3-3.7
					l0.2,0.4l0.4,1.1l0.2-0.2l0.7-1.2l0.6,0.2l0.5-1.1l0.4,1.3l0.2-0.3l0.2-1.2l0.5,0.4l0.2,1l0.2-0.3l0.2,0.5l0.2,0.5l0.7-1
					l0.2,0.6l0.2,1.8l0.2,0.4l0.6-0.7l0.2,0.1l0.2-1.1l0.2-0.4l0.2,0.1l0.6,0.3l0.2,0.7l0.5-0.4l0.5-0.2l0.4-0.6l0.2-1.6l0.2,0
					l0.6-0.8l0.2-0.2l0.2,0.9l0.2,0.5l0.2,6.6l0.9-0.9l0.2,0.9l1.1-0.7l0.2,0.3l0.2-0.4l0.5,0.3l0.2,0.2l1.1-2.1l0.2,0.7l0.2-0.2
					l0.2,0.9l0.2,0l0.5,0.7l0.4-0.4l0.2-1.3l0.2-3.9l0.5,1l0.2,1.5l0.4-0.5l1.5,4l0.5-0.9l0.7-2.3l0.6,0.4l0.5-1.4l0.2,1.4l1.1,0
					l0.2-0.8l0.7-0.5l0.2-0.6l0.9,1l0.2,0.5l0.2-0.1l0.2-1.1l1.3-1.9l0.2,0l0.7,0.6l0.2,1.4l0.2,0.1l0.2-3.3l1.3,0.3l0.5-0.7
					l0.4-3.7l0.4,0.7l0.5,0.3l0.2,0.4l0.2-1.3l1.1,1.9l0.2-0.6l0.2-0.5l0.7-0.4l0.2,0.5l1.5-2.6l0.2,1.5l0.7-1.2l0.2,1l1.3,2.6
					l0.2-0.1l0.2,0.6l0.2-0.9l0.5,0.3l0.5-1.4l0.2,0.2h0.5l0.2-0.2l0.4,0.4l0.2,0.4l1.8,3.2l0.2-1.3l0.4-1.9l0.2,0.9l0.7,0.3
					l0.2,0.4l0.2-0.2l0.2-1.3l0.5,1.3l0.4-1l0.2-0.3l0.2-1.6l0.6,2.3l0.4,1.1l0.2-0.6l0.2-0.6l3.1-2.4l0.2,0.3l0.2,0.1l0.2-0.6
					l0.2-0.8l0.5,0.9l0.4-0.6l0.2-0.1l0.7,0.5l0.2-0.3l0.2-0.4l0.4,0.9l0.5-0.6l0.6-3.8l0.2,0.3l0.6-0.6l0.5,1.9l0.2-1.6l0.7-1.9
					l0.4,0.7l0.2,1.9l0.7,0.1l0.2-1.1l0.9,2.2l0.2-1l0.2-1.1l0.2,0.7l0.7,0.1l0.7,0.1l0.5-1.6l1.5,3.1l0.2-0.6l1.1-2.2l0.2,0.3
					l0.2,1.1l0.7-0.3l0.2,0.1l0.2-1.1l0.4,0.4l0.7-0.1l0.2,0.3l0.2-0.6l0.2-1l0.9,1.1l0.2-1.5l0.2-0.5l0.5,0.4l0.2,0.3l0.4,0.9
					l0.2-1.1l0.5-0.5l1.3-0.8l0.2,0.4l0.5-0.9l0.5,0.9l0.4-0.3l0.2,0.2l0.7-0.3l0.5,0.5l0.2-0.7l0.5-0.1l0.4-3.3l0.2-0.8l1.1-0.6
					l0.2,0.8l0.2-0.2l0.5,0.9l0.4,0.7l0.2,0.7l0.2,0.5l0.5-0.9l0.4,1.1l0.4-0.8h0.5l1.5-4.1l0.4,0.2l0.2,0.1l1.1,0.5l0.2-0.9
					l0.9,0.8l0.2-0.5l0.2-1.1l1.1-1.9l0.2,0.5l0.5,0.8l0.7-2.2l0.5,0.8l0.6,1.7l0.2-0.6l0.5-0.1l0.5,1.2l0.2-0.6h0.5l0.4-1.2
					l1.5,6.9l0.2-1.5l1.1-2.4l0.2-1.9l0.5,0.4l0.2-1l0.2-0.2l0.2,1l1.1-3.1l0.2-1.4l1.1-0.1l0.2-1.4l0.9,1l0.2,0.9l0.2-0.8l0.2,1.2
					l0.5,0.7l0.2,0.2l0.2-0.5l0.4-0.1l1.1-1.8l0.2,0.7l1.8,3l0.2,2.6l1.3-5.6l0.2,0.5l1.1,1.9l0.2,1l0.4-0.5l0.5,0.7l0.2,1.2l0.2-1
					l0.2-2.3l1.3,3.6l0.2-1.3l0.7-0.2l0.2,0.8l0.4-2.2l0.6,0.3l0.7,11.3l0.5-1.5l0.5-2l0.2,0.1l0.5,0.1l1.5-2.6l0.2,0.1l0.4-0.6
					l0.6-0.5l1.3,0.5l0.2,1l0.4,0.3"/>
			</g>
			<g>
				<path fill="none" stroke="#8DD3C7" stroke-width="3" stroke-miterlimit="2" d="M112,376.6l0.9-0.1l0.2-0.8l0.9-1.6l0.2,0.7
					l0.9-0.7l0.2-0.5l1.3-1.3l0.2-1l1.3,2.5l0.2-0.1l0.2-0.4l0.6,0.8l0.2-0.6l0.2,0.4l0.2,0.9l0.2,0.7l0.6-0.2l0.2-0.3l0.2-1l0.4,1
					l0.6,0.5l0.4-0.9l0.2,0.5l0.2,0.4l0.6,0.9l0.2-0.4l0.2-0.5l0.2,0.4l0.2-0.4l0.6,0.1l1.5,1.8l0.2,0l0.4-1.3l0.6,0.9l0.4,1.7
					l0.4-0.4l0.5-0.2l0.4,0.6l0.2,0.7l0.7-0.2l0.2-1l0.2,1.1l0.4-1.4l0.6,0.8l0.6-2.1l0.2,0.5l0.6-0.3l1.3-0.7l0.2,1l1.1,0.7
					l0.2-1.1l0.4-0.3l0.7,1.1l0.2-0.4l0.5-1.2l0.6-0.1l0.4,0.3l0.2-0.9l0.9-1.6l0.2,0.3l0.2-0.3l0.9,0.4l0.2-0.3l1.3,1.4l0.2-0.7
					l0.2-0.6l1.8-0.4l0.2,0.5l0.6,1.7l0.6,0.1l1.3-1.2l0.2,0.5l1.3,0.7l0.2-0.3l0.2,0l0.2-0.9l0.7,0.2l0.2-0.8l0.9,0.6l0.2-0.6
					l1.5,3l0.2,0l0.7,0.5l0.2-0.7l0.2,0.6l0.2-1l0.2,0.3l0.5-0.2l0.6,0.7l0.2-0.8l0.5,0.4l0.7,2.3l0.6,0l0.6,0.8l0.2,1l0.7-0.6
					l0.2,0.6l0.2,0.7l0.9-0.6l0.2,0.7l0.2,0.1l0.7-1l0.2,1.3l1.7,0.9l0.2-0.6l1.1,0.3l0.2,0.9l0.7-1.2l0.2,0.7l0.2-1.4l1.1-0.5
					l0.2,0.4l1.3,0.3l0.2-1.4l0.9-0.4l0.2-0.2l0.9-0.7l0.2,1.1l1.1,1.2l0.2,0l0.9,1l0.2-0.5l0.2,0.6l0.2-0.3l0.2-1l0.6,0.1l0.4,0.9
					l1.3-1.8l0.2-0.4l0.7-0.2l0.2,0.9l0.4-1.3l0.2,0.2l0.5,0l0.2,0.3l0.4-0.2l0.2-0.6l1.1-0.6l0.2-0.7l0.9,0.5l0.2,0.2l0.7,0.7
					l0.2-0.9l1.1-1.4l0.2,0l1.8-1.3l0.7,0.7l0.5-0.2l0.6,0.1l0.4-0.6l0.4,0.3l0.6,0.2l1.3-3.8l0.2,0.5l0.5,0.7l0.6-0.3l0.2,0.1
					l0.2-0.8l1.3,2.9l0.2-0.1l0.2,0.6l0.5-0.5l0.2-0.1l0.2-0.2l0.4,0.3l0.6,0.4h0.2l0.2-0.9l1.3-3.1l0.2,0.5l0.2,1.4l0.5-0.3
					l0.2-0.5l1.3-1.3l0.2,0.4l0.2,0.5l0.2-0.6l0.6-0.2l1.5-1.3l0.2,0.3l0.9-1.3l0.2,0.5l0.6,1.2l0.5-0.5l0.2-0.2l0.4,1.5l0.2-0.1
					l0.5,0l0.7,0.5l0.7-0.3l0.6,1.2l0.9-0.8l0.2-0.7l0.2,0.5l0.5-0.2l0.4,0.5l0.2,0.7l0.2,0.5l0.7-0.2l0.6,0.3l0.6-0.3l0.7,1.7
					l0.6,0.2l1.5-1.9l0.2-0.3l0.2-0.1l0.2,0.6l0.6,0.3l0.2,0.2l0.2-1.1l1.1-1l0.2,0.2l0.2,0.6l0.2-0.8l0.6-0.8l0.7-1.4l0.5-0.2
					l0.7,1.2l0.5-0.5l0.2-0.7l0.6,0.6l0.6,0.2l0.4-0.1l0.2,0.9l1.3,0.8l0.2,0.2l1.1,0.3l0.7,0.7l0.5-0.3l0.2,0.3l0.6-0.6l0.4-1.2
					l0.4,0.5l0.6-0.4l0.2-0.4l0.2,0.4l0.2,0.8l0.2,0l0.6-1.2l1.5-0.3l0.2,0.5l0.2-0.3l0.2,0.4l0.5,0.3l0.6,0.6l0.2,0.7l0.6-0.3
					l0.2,0.6l0.2,0.3l1.3-0.1l0.2,0.2l0.9,0.8l0.2,0l1.1,4l0.2-1.3l0.2,0.3l0.2-0.8l0.6,0.2l0.2-1l0.4,1.4l0.2-0.7l0.6-0.6l0.6-0.1
					l0.2-1.1l0.6-0.6l0.2,0.7l0.4,1.2l0.2,0.5l0.6-0.4l0.2-1.9l0.4,1.5l0.2-0.3l0.6-1.1l0.2,0.2l0.4-0.4l0.2-1l0.9-0.5l0.2-0.9
					l1.5-1.6l0.5,0.8l0.2,0.1l0.2,1.4l1.1-0.5l0.2,0.4l0.2-1.2l0.7,0.4l0.2-0.6l0.2,0.2l0.2-0.4l0.2-0.6l2.2-2.4l0.2,0.3l0.2-1.7
					l0.7-0.9l0.2,0.5l0.2,1.1l0.7-0.7l0.2,0.9l0.4,3.3l0.2-1l0.6-0.3l0.2,0.4l0.4-0.9l0.2-0.3l1.1-1.2l0.2,1.3l2,0.8l0.2-1.3
					l0.9-2.4l0.2,0.2l0.2-0.9l0.4,0.7l0.5-0.5l0.2,0.1l0.2,1.1l0.9-1.9l0.2,0.6l2.6-3.1l0.2-0.7l0.4-0.4l0.5-2.5l0.4,2.1l0.4-0.5
					l0.6-1l0.2,0l0.2,1.5l0.9,3.2l0.2-2.4l0.5,3.2l0.6-1.1l0.4-2.4l0.2,0.3l0.2,1.8l0.9,1.7l0.2-1.3l1.1-4.5l0.2,0.2l1.1-0.7
					l0.2,1.7l1.3-3.6l0.2,0.9l0.7-1.4l0.2,0.3l0.2,2.6l0.2-2.1l0.5,0.5l0.2,0.9l0.2,0.8l0.4-1.7l0.6,1.3l0.2-1l0.2,0.4l0.2,2.8
					l0.7-2l0.2,0.7l0.4,3.2l0.2-0.9l0.7,1.2l0.4-2.1l0.2,0.7l0.5,1.3l0.4-0.1l0.2-2.2l0.2-1.9l0.6,0.3l0.2,1.2l0.2,1.5l0.4-0.8
					l0.5-1.8l0.2,1.1l0.2-2.4l0.2,1l0.2-1.6l0.6-1l0.2,0.5l0.2-2.1l0.2-0.3l0.7,2.5l0.2-0.5l0.2,0.5l0.2,0.9l0.7-1.7l0.2,2.1
					l0.6-1.7l0.6,0.7l0.2,0.5l0.2-1.4l0.2,0.5l0.2-0.9l0.5,0.8l0.2,1.6l0.6,1.6l0.5-0.5l0.2-0.4l0.2,0.4l0.2,1.1l0.2,0.8l0.5-0.4
					l0.2-0.5l0.4-0.9l0.2,1.6h0.6l0.2,0.9l0.4-1.7l0.2-0.5l0.5,0.2l0.2,1.4l0.2-0.1l0.2-1.1l0.7,0.4l0.2-0.7l0.2,0l0.2,1.5l0.2-0.5
					l0.7,0.8l0.4,2l0.2-0.8l0.6-0.5l0.2-0.9l0.4,1.9l0.2-1.6h0.6l1.3,2.6l0.2-0.2l0.6-1l0.6-0.3l1.3-3.2l0.2,0.3l0.2-0.7l0.2,0.3
					l0.7-0.6l0.5-1.4l0.2,1.8l0.7-1.1l0.2,2.3l1.1,1.2l0.2,0.3l0.9-1.2l0.2,0.5l0.2-0.1l0.2-1.2l0.7,0l0.2,0.9l0.2,0.5l0.2-2
					l0.2-0.3l0.6,1.2l0.7-2.6l0.5-0.5l0.7,0.4l0.5-1.3l1.5-1l0.2-0.6l1.1-2.8l0.2,0.8l0.2,0.1l0.2,1.7l0.9-4.9l0.2,2l0.2,4.3
					l1.1,0.2l0.2-1l1.3-4.4l0.6-2.5l0.4,2.4l0.2,1.1l1.5,3.9l0.5-1.1l0.6-4.4l0.2,1.4l0.5-0.1l0.7,5.5l0.5-0.4l0.4-4l0.4,1.8
					l0.6-0.6l0.4-1.2l0.2,3.2l1.3-15.5l0.2,2.1l0.6,2.2l0.7-6.2l0.5-5.6l0.5-4.1l0.2,2.5l0.6,0.4l0.2-3.1l0.2,0.4l0.4-0.3l0.5-1.8
					l0.7-12.1l0.6,1.3l0.4,0.6l0.4-0.5l0.5,0.2l0.2-1.6l0.2,3.6l0.4,4.2l0.7,5.8l0.5-0.7l0.6-1.7l0.2-0.1l0.2-2.7l0.2-0.3l0.2,2.5
					l0.7,0l0.2,5.1l0.9,5.5l0.2-3.5l0.5,7.8l0.6-2.7l0.7,4.4l0.6-0.5l0.4-5.1l0.4,5.4l0.7-4.5l0.4,3.8l0.2-1.4l0.6-1.4l0.2,0.2
					l0.2,1.7l0.4,2.4l0.5-2.4l0.4,1.6l0.2-4l0.9,4.7l0.2-1.5l0.2-0.7l0.9,3.8l0.2-5.4l0.2-0.2l0.2,0.8l0.5,1.3l0.4,0.6l0.4-2.8
					l0.6-0.6l0.4-2.4l0.2,1.9l0.2,3l0.5,0.6l0.2-0.4l0.2-1.3l0.2,1.8l0.7-1.3l0.2-0.8l0.4,1.4l0.2,1.6l0.5-2.2l0.2,1.4l0.2,0.9
					l0.2,0l0.2,1.4l0.6-0.6l0.2,2.3l0.6,2.7l0.5-0.5l0.4,0.5l0.2,3.4l0.9-2.7l0.2-1.5l0.4-0.5l0.5,2.1l0.4-0.7l0.2,3.5l0.2,1.5
					l0.9,4.3l0.2-1.9l0.2-3.4l0.6,3.9l0.4-1.9l0.2,2.7l1.1,3.4l0.2-1.4l0.9-4.6l0.2,0.7l0.2,2l0.9-4.6l0.2,1.3l0.9-2.9l0.2,0.2
					l0.2,0.3l0.2-0.3l0.7,0.3l0.4-3.4l0.4,0.4l0.6,0.8l0.7,6.4l0.6-0.7l0.2-2.6l0.4,3.6l0.2-0.6l0.6,1.5l0.2-1.1l0.2-0.7l0.4-4.5
					l0.6,2.1l0.2,1l0.5,2.6l0.6-1.6l1.3-4.4l0.2,0.8l0.4-2.2l0.2,2.8l0.5-2.4l0.7-1.5l0.5-0.1l0.2,0.3l0.2-2l1.3,4.4l0.2-2.5
					l0.2-0.8l0.5,1.4l0.2,0.7l0.2-0.2l0.2-1.7l0.2,1.2l0.5-0.3l0.2-0.3l1.1-3.8l0.4,0.3l0.2-1.9l0.9,2.4l0.2-1.7l0.4,4.8l0.6-0.2
					l0.2-0.7l0.4,2.7l0.2-1.1l0.5-1.1l0.2-0.8l0.4,1.5l0.2,1l0.5,1.8l0.2-1.8l0.2-0.7l0.2,1.5l0.2-2l0.5,0.6l0.6,2.6l0.2-0.1
					l0.5-0.2l0.2,0.2l0.2-0.6l0.2,0.2l0.2-0.6l0.7-2.3l0.6,0.6l0.5,0.2l0.7-2l0.5-0.3l0.7,4.3l0.6-0.2l0.2-0.2l0.2,0.6l0.2,1.5
					l1.1,0.6l0.2-2.2l2,5.4l0.2-0.9l0.2-0.9l0.2,0.6l0.7,0.1l0.2-0.9l0.2,1.8l0.2-0.2l0.2,0l0.5,0.7l0.2-2.2l0.2,1.5l0.4-2.6
					l0.7,0.4l0.4-2l0.2,0.2l0.5,0.6l0.5,0.1l0.2-1.2l0.9,2.4l0.2-2.1l0.7-0.5l0.2,1.4l0.4,2l0.2-0.6l0.7-0.2l0.4,2l0.2-0.7l0.6,0.5
					l0.7-3.8l0.6,0.1l0.4,0.5l0.2-0.7l0.2,1.8l0.9,1l0.2-0.5l0.2-0.8l0.5,0.2l0.2-1.1l0.2-0.6l0.4,0.3l0.5-0.1l1.3,4l0.2-0.4
					l0.2-0.9l0.2,0.3l0.7,2.2l0.2-0.2l0.2-1.7l0.9-1.1l0.2-0.4l0.2,0.9l0.4-1.1l0.5,0.3l0.4-1.6l0.4,0.9l0.5-0.1l0.7-2.8l0.6,0.2
					l0.5-7.5l0.2,1.8l0.6,2.9l0.4,1.4l0.2-0.9l0.2-2.4l0.5,0.5l0.2-2.1l0.2-0.5l0.2-3l0.9-0.4l0.2,0.4l0.2,3.3l0.9-1.7l0.2,1.4
					l0.2,1.1l0.2-3.8l0.5-1.1l0.4,0.9l0.2,2.6l0.2-1.8l0.6,0.8l0.2,0.6l0.4-2l0.2,0.2l0.5,0.4l0.4-2.7l0.4,0.3l0.5-1.4l0.5-2.9
					l0.2,1.2l0.7-1.2l1.1,3.6l0.2,1.3l0.5-3.7l0.6,0.9l0.2-0.2l0.2-2.5l1.1,5l0.2-0.5l0.2,0l0.2-2.3l0.9,2.4l0.2-0.7l0.2-1.6
					l0.5,0.6l0.2-0.3l0.2-2l0.2,0.4l0.2-1.9l1.1-5.8l0.2,0.2l0.5,0l0.6-3.5l0.2,4.6l0.7-4.8l0.2,3.3l0.4,3.6l0.7-3.2l0.6,5.1
					l0.5-0.8l0.2-1.5l0.4,3.8l0.2-0.6l0.6-0.9l0.5-4l0.2,2.1l0.6-2.7l0.2-1.1l0.4,0.8l0.2,0.8l0.6-0.4l0.2,0.9l0.2-2l0.4,2l0.5,0
					l0.7,6l0.5-1.2l0.2-0.9l0.2-0.3l0.2,1.8l0.7-1.5l0.2,2.4l0.2,1.3l0.4-1.8l0.5,0.6l0.2-2l0.2,3.1l0.2-1.1l0.2,2.6l0.5-0.7
					l0.2,3.3l0.4-0.1l0.2,0.8l0.5,3l0.2-3.5l0.2,0.8l0.4-1.5l0.6-0.6l0.2-0.7l0.2,2.6l1.1-4l0.2,3.3l0.4,1.5l0.6-2l0.7,4.7l0.6-0.5
					l0.4,3.9l0.4-3.5l0.6,0.2l0.2-1l0.4,1.3l0.7-1.3l0.2,2.8l0.4-2.3l0.2-1.6l0.5,1.1l0.2-0.2l0.2,3.1l0.9-2.1l0.2,0.8l0.2,1.1
					l0.2-1.2l0.2,0.9l0.7,0.7l0.2-1l0.2,1.9l0.2-1.1l0.6-0.1l0.2-1.3l0.2,2.1l0.4-1.4l0.6,1.1l1.5,3.7l0.2-1.2l0.2,1.6l0.2-1.9
					l0.6-0.1l0.2-0.6l0.5,0.7l0.7-2l1.3-2.8l0.2,2.2l0.2,1.4l0.2-1.1l0.5,0.9l0.2,0.9l0.2-1.3l0.2-2.3l0.7,0.9l0.2-2.1l0.2-1.6
					l0.4,0.7l0.5,0.8l0.2-0.5l0.2,0.2l0.2,1.1l0.9,1.2l0.2-1.1l0.2,0.3l0.2-0.7l0.5-0.1l1.3,3.6l0.2-1.5l1.3-3.6l0.2,0.9l0.2,0.1
					l0.7-0.5l0.4,0.1l0.4-1.5l0.5-0.2l0.6-2.9l0.2,0.7l0.5,0.1l0.6,1.1l0.2-1.3l0.6-0.8l0.2-1.5l0.4,2l0.2-0.1l2-2.1l0.2-2l0.9,3.1
					l0.2-0.7l0.6-1.7l0.5,0.8l0.2,2.3l0.4-3.4l0.2,0.7l0.9,0.4l0.2-1.1l1.5,5.3l0.7-0.3l1.5-5.5l0.2,2.1l0.2-0.2l0.6,1.4l0.2-3.1
					l0.5,1.8l0.5,1.6l1.7-11l0.2-5.6l0.2,4.7l0.5-5l0.2-0.5l0.2-4.9l0.2,8.5l0.2-3.2l0.5,1.7l0.7-10.4l0.6,0.4l0.2,2.4l0.2,4.8
					l0.4-3.4l0.6,2.3l1.5-11l0.2,3.4l0.9-3.6l0.2,2.5l0.4,1.2l0.7-4.6l0.2-0.7l0.4-12.9l0.2,3.6l0.5,3l0.4,2.9l0.2-1.2l0.2-4.6
					l0.5-5.2l0.2,2.5l0.2,1.4l1.3,10.8l0.2-1.8l0.2,2.6l0.6-3.1l0.7,4.4l0.6-0.3l0.2-4.5l0.4,9.2l0.2-1.8l0.5-6.9l0.2-6.1l0.5,4.7
					l0.5-1.2l0.4-1.4l0.4,3.9l0.6-2.9l0.2,0.2l0.2-1.7l1.3-6.5l0.4,2.8l0.5,0.1l0.2,1.5l0.4,3.9l0.2-2.6l0.6,0.4l0.5-1.2l0.2,3.9
					l0.5-2l1.3-9.2l0.2,4.9l0.5,3.9l0.7-0.9l0.5-4.4l0.7,2.9l0.4,2.6l0.2-1.5l0.5,0.3l0.2,0.3l0.2-2.4l0.2,0.3l0.2-1.9l0.7-0.9
					l0.2,2.3l0.9,5.9l0.2-0.3l0.2,0.4l1.1-7.4l0.2,2.2l0.2,0.1l0.2,4.1l0.5-1.8l0.2,2.3l0.2-0.1l0.2,1.4l0.9-3.6l0.2,0.3l1.1,3.6
					l0.2-2.3h0.2l0.2-1.2l0.5-1.7l0.2,0.6l0.2,1.1l0.2,1.8l0.2-1.7l0.5,1.5l0.2-2.2l0.4,3l0.2-0.4l0.5,0l0.2,3.2l0.2,4.5l0.4-0.6
					l0.6,2.1l0.7-4.9l0.5,0.9l0.5-2.4l0.2,3.1l0.5-1l0.2,3.1l1.3-10l0.2,2.2l0.2,0.8l0.2-3l0.7,0.4l0.2-0.5l0.2-0.2l0.2,0l0.5-1.4
					l0.4,2.3l0.4-1.3l0.5,0l0.2,1l0.2-1.3l0.2,0.1l0.2-1.5l0.6,0l0.2-1l0.2-0.1l0.2,0.6l0.2-1.6l1.3-7.5l0.5,0.4l0.2,2.2l0.5-1.3
					l0.7,0.6l0.5-12.1l0.6,1.6l0.2,2.8l0.2,4.1l0.4-0.3l0.5-0.9l0.2,1.9l0.2-2l0.2,0.3l0.2-1.1l0.5-1.1l0.2,2.7l0.5,0.6l0.6-2.9
					l0.2,0.8l0.4-0.8l0.2,2.6l2.4-7.3l0.2,0.5l0.5-1l0.6,2l0.2-2.5l0.9-3.4l0.2,1.9l0.2,4l0.5-1.5l0.2-0.4l0.4-0.1l1.3,7.1l0.2-1
					l0.6,0.3l0.2,2.7l0.4,4.5l0.2-0.9l0.6-0.4l1.5-6.4l0.2,0.9l0.4-3.9l0.7,0.2l1.6,9.3l0.2,5.2l2.2-10.8l0.4,1.3l0.5-0.8l0.4,0.2
					l0.2,2.5l0.2,2.6l0.6-1.6l0.2,0.4l0.6-3.3l0.5,0.4l0.2,2.8l0.4,3l0.2-2.6l0.5,1.3l0.2-2.8l0.4,3l0.2-2.9l0.9-1.2l0.4,1.8
					l0.6-1.1l0.2,1.9l0.2-3.6l0.2-3l1.1-1.4l0.4,0.6l0.5,1.1l0.7,2.4l0.6-1l0.2-0.8l0.6,0.8l0.5-0.2l0.5-1.5l0.2,1.9l0.5-0.9
					l0.2,1.5l0.2,2.3l0.4-1.6l0.5,3l0.2,2l0.4-0.7l0.2-2.1l0.6,0.4l0.4-0.7l0.4-1.8l0.5,3.5l0.5,5.2l0.2-0.7l0.5-0.1l0.7-2.3
					l0.6,0.5l0.4-1.3l0.2,2l0.2-1.5l0.7-0.4l0.4,1l0.2,2.7l0.9,2.1l0.2-0.9l0.2,2.5l1.3-2.6l0.6,0.2l0.4,2l0.2-1.7l0.9,1.5l0.2-0.6
					l0.2-1.1l0.2-0.1l0.5-3.8l0.4,1.7l0.4-1.4l0.6,1l0.5,3.8l0.2,2l0.6-0.2l0.2-1.4l0.4,0.8l0.2-0.9l0.5-1.4l0.2-1.3l0.2,2.1l0.4-2
					l0.5,0.2l0.2-0.2l0.2-1.6l0.2,1l0.7-1.4l0.2,0.8l0.2-1.7l0.2-2.3l0.2-4l0.5,1.5l0.2,0.5l0.2,2.7l0.4-3.3l0.5-1.7l0.2,1.6
					l0.4-1.8l0.2,0.4l0.5-0.1l0.5,1.1l0.2-1.8l0.7,0.6l0.2-2.1l0.2,0.3l0.2,4.8l1.1,1.5l0.2,2.1l0.7,3.6l0.2-1.3l0.2-2l0.7,2.7
					l0.2-1.5l0.2,2.9l0.4-1.2l0.7,4.9l0.2-2.1l0.4,1.1l0.5-1l0.4-0.9l0.4,3.5l0.5,0.9l0.4,0.5l0.2-2.9l0.2,0.5l0.5,1l0.2-0.1
					l0.2,1.9l1.1,6.9l0.2-1.1l0.9-3.4l0.2,0.1l0.2,0.5l0.4,6.2l0.5-1.7l0.2-0.2l0.2,1.4l0.2-2l0.2,0.1l0.6-0.9l0.4-0.9l0.2,2.2
					l0.7-3l0.2,0.8l0.4,2.3l0.2-1.1l0.5,1.3l0.2,0.1l0.2-0.6l0.2,3.4l0.2-1.9l0.5,1.3l0.2-0.5l0.6-2.1l0.5,1.2l0.7,5.2l0.5,1.5
					l0.4,0.6l1.1-6.6l0.2,1.4l0.2-1.4l0.2,0.2l0.7,2.5l0.2,0.4l0.2,2.4l0.7-0.9l0.2,1.2l0.5-1.9l0.6,1.1l0.4-3.5l0.4,0.1l0.5-1.3
					l0.4-2.2l0.4,0.8l0.5,0.3l0.7,0.7l0.5-0.7l0.2-0.1l0.2,1.4l0.4-0.2l0.6,1.4l0.2,0.1l0.2-2.2l1.1-3.4l0.2-0.7l0.9,0.6l0.2-0.2
					l1.3,4.6l0.2-0.1l0.2-1.5l0.7,4.9l0.2-0.8l0.2-0.6l0.9-2.5l0.2,1.3l0.2,3l0.4-1.9l0.5-0.5l0.2-0.6l0.6,0.2l0.5,1.4l0.2-0.6
					l0.2,1.6l0.2,0.5l0.9-2.5l0.2,1.3l0.2,0.6l0.2-0.8l0.6,0.6l0.5,0.3l0.2-2.6l0.5,1l0.7,2.5l0.5-1.2l0.2,1.1l0.6-0.5l0.5-0.7
					l0.5-1l0.2-2.1l0.5-0.9l0.2,0.8l0.2,0.2l0.4-1.9l0.7-0.1l0.2,0.4l0.2-2.5l0.2-1.2l0.5,1.3l0.2-0.4l1.1-4.4l0.2,2l0.4,2.4
					l0.2-0.1l0.5-0.5l0.4,2l0.4-1.1l0.7-0.4l0.4,1.2l0.2-0.9l0.5,0.5l1.3-4.8l0.2,2.7l0.2-0.4l0.2,1.8l0.2,1.1l0.5-0.3l0.2-0.5
					l0.5-3.7l0.5,1.4l0.2-0.6l0.2,1.4l0.2,0.3l1.1-4l0.2-0.9l1.1,4.1l0.2-0.8l0.2-1.2l1.1-2.3l0.2-1.5l0.5,0.5l0.2-1.2l0.2-0.2
					l0.2,2.1l0.9-0.5l0.2-1.1l0.4-0.6l0.5,0.9l0.2,0.2l0.2-0.8l0.2-2l0.2-1.2l0.5,1.1l0.2-0.8l1.1,2.9l0.2-1.6l0.4-3.5l0.2,0.5
					l0.5,1.4l0.2-0.4l0.2,1.2l0.2,0.3l1.1-4.5l0.2,1l0.2,0.1l1.3,3.8l0.5,0.3l0.2,0.7l0.2-0.3l0.2-1.7l0.7-0.4l0.2,1.5l0.2-1.4
					l0.2,2.4l0.2-1.4l0.6,0.6l0.5-3.3l0.2,0.3l0.5-0.5l0.5,4.3l0.7-1.4l0.7-3.5l0.5,0.8l0.2,0.4l0.2-1l0.2-2.4l0.2,0.6l0.5-1
					l0.2-0.4l0.2,0.3l0.2,1.5l0.9-2.7l0.2,2.7l0.2,0.6l0.2-1.5l0.5,0.5l0.5-2.5l0.2,0.4l0.5,0l0.2,1.3l0.2-1.3l0.2-1.6l0.2-2.2
					l0.5,2l0.2,0.6l0.2,0.3l0.2-1.1l0.2-1.1l0.6-0.7l0.2,0.6l0.2-1.7l0.4-1.2l0.7,3.5l0.2-1.1l0.2,2.4l0.2,0.4l0.7,0.1l0.2,1.2
					l1.3,3.7l0.2-0.6l0.9-3.9l0.2,1.1l0.9-3.6l0.2,1.1l0.2-3.8l0.4,0.9l0.5-0.1l0.7-3.9l0.5-1.2l0.4-3l0.4,2.5l0.5-0.8l0.5,3.3
					l0.2-0.2l0.5-0.4l0.2,1.3l0.5-0.1h0.6l0.2-0.6l0.2,0.3l0.2,1.3l0.2-2.3l0.6,1.9l0.2-0.1l0.2,0.2l0.2-0.5l0.2-1l0.5,0.5l0.2-0.6
					l0.2,1.3l1.7-6.4l0.5,1.2l0.2,2l0.4-2.5l0.2,1.2l0.5-2.5l1.5-8.6l0.2,2l0.2,3.9l0.2-2.9l0.5-0.3l0.2,4.3l0.6-1.9l0.5-1.6
					l0.7-3.4l0.5-3.4l0.2-4l0.5,1l0.6-1.3h0.2l0.2-1.7l0.2-3.6l0.2,3l0.7-3.1l0.4,3.5l0.2-3.2l0.6,0.7l0.2-0.4l0.2-3.8l0.2,1.6
					l0.2-4.1l0.5,0.9l0.7,11.2l0.5,0.4l1.5,7.7l0.2-1.3l0.2,1.5l0.2-0.6l0.6-2.5l0.4-3.9l0.4,1.2l0.5,4.2l0.5,1"/>
			</g>
			<g>
				<path fill="none" stroke="#FFFF65" stroke-width="3" stroke-miterlimit="2" d="M112,371.5l2.2-0.3l0.2-0.1l2,0l0.2-0.2l0.6-0.6
					l0.7,0.2l1.8,0.2l0.6,0l2,0.2l0.6,0l6.4,0.1l0.2-0.1l1.1,0.1l0.2-0.1l1.5-0.3l0.4-0.1l44.6-2.1l0.2-0.1l1.5-0.3l0.5,0l2.8-0.4
					l0.2,0l2.9-0.4l0.6,0l3.1-0.6l0.2,0.1h2.4l0.2,0l13.8-1.3l0.2,0.1l4.6-0.1l0.2,0.1l2.9-0.4l0.2,0.1l3.1-0.6l0.2-0.3l1.3-0.2
					l0.2-0.1l8.6-0.5l0.2-0.1l2.8,0.1l0.2-0.1l2.6,0.1l0.2-0.1l4.4,0.1l0.2-0.2l0.5-0.1l0.6-0.1l1.8,0l0.2,0l7.1-1.8l0.2-0.2
					l1.1-0.7l0.2,0.2l0.2,0.1l0.7,0.1l0.2-0.3l0.6,0h0.7l1.1-0.6l0.2,0.2l1.5-0.1l0.2,0.3l1.5-0.4l0.5,0l1.3-0.1l0.2,0.3l1.7-0.6
					l0.2-0.3l2.4-0.3l0.2-0.2l1.3-0.5l0.5-0.3l0.4,0.3l0.4-0.4l0.6-0.4l0.7-0.2l0.5-0.4l0.4,0.5l0.4-0.3l0.6-0.3l1.8,0.5l0.2,0.3
					l1.8-0.4l0.4,0.1l1.7-1.3l0.5,0.1l2-1.1l0.7-0.6l1.5,0.2l0.2-0.1l1.5-0.6l0.5,0l1.5,0.2l0.2,0.1l0.2-0.4l0.2,0.1l0.5,0.2
					l1.8-1.4l0.2,0.1l2.4-0.1l0.7,0.6l1.3-0.6l0.2,0.5l1.3,0.1l0.2-0.2l2.6,0.8l0.2,0.4l4.9-0.3l0.2,0.4l0.9-0.1l0.2,0.2l0.9-0.4
					l0.2-0.2l1.1,0.7l0.2,0.3l0.2-0.2l0.2,0.6l0.2-0.1l0.5-0.1l0.7-0.4l0.6,0.1l1.5-0.8l0.2,0l1.3-0.6l0.2,0.2l0.7,0l0.2-0.2
					l1.5,0.7l0.2-0.4l1.1,0l0.2-0.3l6.6-0.9l0.6,0.1l1.6-1.6l0.2,0.4l0.2,0.8l2.2-0.9l0.2-0.3l0.9-0.7l0.2,0.6l0.4-0.3l0.6,0.6
					l6.8-2.2l0.2-0.2l0.9,0.5l0.2-0.4l4.2-0.5l0.6,0.3l1.6-0.6l0.4,0.7l2.6-0.5l0.7-0.1l1.1,0.4l0.2-0.1l2.8,0.3l0.2-0.2l0.2,0.2
					l0.7-0.3l1.1,0.2l0.2,0.1l0.6,0.1l0.5-0.3l1.6,0.3l0.2,0l2-0.3l0.2,0.2l1.1-0.3l0.2-0.2l2.6,0.2l0.2-0.1l1.1,0.2h0.2h1.3
					l0.2-0.1l1.5,0.2l0.5-0.2l4.4,0l0.2,0.9l1.1,0l0.2-0.1l7.3-1.1l0.2,0.3l1.5-0.1l0.6,0.2l1.3,0.2l0.2-0.2l4.4-0.8l0.7,0l8.1-0.3
					l0.2,0.2l1.3-0.4l0.5,0l2.6-0.4l0.2,0l6.6,0.3l0.2,0.2h2.6l0.2-0.1l7.5-0.5l0.2,0.1l5-0.1l0.2,0.1l8.6-0.6l0.2-0.3l2.4-0.1
					l0.2-0.2l1.5,0.1h0.7l1.1-0.1l0.2,0l28.6-1.1h0.2l3.8-0.1l0.6-0.1l1.3,0.4l0.2,0.1l2.6,0.2l0.2-0.4l1.7-0.1l0.5-0.1l1.8,0.2
					l0.2,0l8.6,0l0.2-0.1l2.8,0.2l0.5,0.1l2.6,0l0.2-0.2l4-0.6l0.2,0l26.6-1.1l0.2,0.1l3.9-0.1l0.2,0l2.4-0.1l0.2,0l47.3-0.4l0.2,0
					l5.3,0.2h0.6l81.1-0.6l0.2,0l4.2-0.1l0.5,0.1l3.3,0.2l0.5,0l2.6,0h0.2l1.1-0.1l0.2,0l1.8-0.1l0.5,0l46.2-0.5l0.2-0.1l1.5-0.5
					l0.2,0.1l2.4,0.3l0.2-0.1h4l0.5,0l4.2,0.2l0.2,0.1l1.5,0.2l0.5-0.1l4.6-0.7l0.6,0.1l1.8-0.1l0.2,0.4l5-0.1"/>
			</g>
		</g>
		<path fill="none" stroke="#000000" stroke-opacity="0" d="M-47,409.5h644"/>
		<path fill="none" stroke="#000000" stroke-opacity="0" d="M-46.5,24v385"/>
	</g>
	<g>
		<g>
			<text transform="matrix(6.123234e-17 -1 1 6.123234e-17 66 316.8828)" fill="#4D5663" font-family="'OpenSans'" font-size="14">price in $</text>
		</g>
	</g>
	<g>
		<rect x="871" y="59.7" fill="#F5F6F9" width="76" height="143"/>
		<g transform="translate(0,14.5)">
			<g>
				<path fill="none" stroke="#FF9933" stroke-width="3" d="M876,59.7h30"/>
			</g>
			<text transform="matrix(1 0 0 1 911 64.38)" fill="#4D5663" font-family="'OpenSans'" font-size="12">IBM</text>
			<rect x="871" y="50.2" pointer-events="all" fill-opacity="0" width="70.3" height="19"/>
		</g>
		<g transform="translate(0,33.5)">
			<g>
				<path fill="none" stroke="#3780BF" stroke-width="3" d="M876,59.7h30"/>
			</g>
			<text transform="matrix(1 0 0 1 911 64.38)" fill="#4D5663" font-family="'OpenSans'" font-size="12">GLD</text>
			<rect x="871" y="50.2" pointer-events="all" fill-opacity="0" width="70.3" height="19"/>
		</g>
		<g transform="translate(0,52.5)">
			<g>
				<path fill="none" stroke="#32AB60" stroke-width="3" d="M876,59.7h30"/>
			</g>
			<text transform="matrix(1 0 0 1 911 64.38)" fill="#4D5663" font-family="'OpenSans'" font-size="12">XOM</text>
			<rect x="871" y="50.2" pointer-events="all" fill-opacity="0" width="70.3" height="19"/>
		</g>
		<g transform="translate(0,71.5)">
			<g>
				<path fill="none" stroke="#6432AB" stroke-width="3" d="M876,59.7h30"/>
			</g>
			<text transform="matrix(1 0 0 1 911 64.38)" fill="#4D5663" font-family="'OpenSans'" font-size="12">AAPL</text>
			<rect x="871" y="50.2" pointer-events="all" fill-opacity="0" width="70.3" height="19"/>
		</g>
		<g transform="translate(0,90.5)">
			<g>
				<path fill="none" stroke="#DB4052" stroke-width="3" d="M876,59.7h30"/>
			</g>
			<text transform="matrix(1 0 0 1 911 64.38)" fill="#4D5663" font-family="'OpenSans'" font-size="12">MSFT</text>
			<rect x="871" y="50.2" pointer-events="all" fill-opacity="0" width="70.3" height="19"/>
		</g>
		<g transform="translate(0,109.5)">
			<g>
				<path fill="none" stroke="#8DD3C7" stroke-width="3" d="M876,59.7h30"/>
			</g>
			<text transform="matrix(1 0 0 1 911 64.38)" fill="#4D5663" font-family="'OpenSans'" font-size="12">TLT</text>
			<rect x="871" y="50.2" pointer-events="all" fill-opacity="0" width="70.3" height="19"/>
		</g>
		<g transform="translate(0,128.5)">
			<g>
				<path fill="none" stroke="#FFFF65" stroke-width="3" d="M876,59.7h30"/>
			</g>
			<text transform="matrix(1 0 0 1 911 64.38)" fill="#4D5663" font-family="'OpenSans'" font-size="12">SHY</text>
			<rect x="871" y="50.2" pointer-events="all" fill-opacity="0" width="70.3" height="19"/>
		</g>
	</g>
	<g transform="translate(80,100)">
		<g>
			<text transform="matrix(1 0 0 1 45.2013 403.2803)" fill="#4D5663" font-family="'OpenSans'" font-size="12">2006</text>
		</g>
		<g>
			<text transform="matrix(1 0 0 1 179.1414 403.2803)" fill="#4D5663" font-family="'OpenSans'" font-size="12">2008</text>
		</g>
		<g>
			<text transform="matrix(1 0 0 1 313.2614 403.2803)" fill="#4D5663" font-family="'OpenSans'" font-size="12">2010</text>
		</g>
		<g>
			<text transform="matrix(1 0 0 1 447.2113 403.2803)" fill="#4D5663" font-family="'OpenSans'" font-size="12">2012</text>
		</g>
		<g>
			<text transform="matrix(1 0 0 1 581.3313 403.2803)" fill="#4D5663" font-family="'OpenSans'" font-size="12">2014</text>
		</g>
	</g>
	<g transform="translate(80,100)">
		<g>
			<text transform="matrix(1 0 0 1 22.7227 386.0003)" fill="#4D5663" font-family="'OpenSans'" font-size="12">0</text>
		</g>
		<g>
			<text transform="matrix(1 0 0 1 15.8613 299.7503)" fill="#4D5663" font-family="'OpenSans'" font-size="12">50</text>
		</g>
		<g>
			<text transform="matrix(1 0 0 1 9 213.5003)" fill="#4D5663" font-family="'OpenSans'" font-size="12">100</text>
		</g>
		<g>
			<text transform="matrix(1 0 0 1 9 127.2503)" fill="#4D5663" font-family="'OpenSans'" font-size="12">150</text>
		</g>
		<g>
			<text transform="matrix(1 0 0 1 9 41.0003)" fill="#4D5663" font-family="'OpenSans'" font-size="12">200</text>
		</g>
	</g>
</g>
<g id="Layer_2">
	<rect x="522.3" y="436.3" opacity="0.75" fill="#FFFFFF" width="39" height="19.6"/>
	<g>
		<polygon fill="#DB4052" stroke="#FFFFFF" stroke-miterlimit="10" points="483.3,445.9 488.6,440.3 488.6,436.3 522.3,436.3 
			522.3,455.9 488.9,455.9 488.6,450.5 		"/>
		<text transform="matrix(1 0 0 1 492.9117 450.0124)" fill="#FFFFFF" font-family="'ArialMT'" font-size="13.7682">24.2</text>
	</g>
	<g>
		<polygon fill="#444444" stroke="#FFFFFF" stroke-miterlimit="10" points="481.5,484.7 487.1,490 509.9,490 509.9,509.3 
			453.8,509.3 453.8,490.3 476.9,490 		"/>
		<text transform="matrix(1 0 0 1 457.4004 503.6787)" fill="#FFFFFF" font-family="'Arial-BoldMT'" font-size="11.726">Feb 2011</text>
	</g>
	<text transform="matrix(1 0 0 1 523 450.4326)" fill="#DB4052" font-family="'ArialMT'" font-size="13.2329">MSFT</text>
	<rect x="522.3" y="397.3" opacity="0.75" fill="#FFFFFF" width="39" height="19.6"/>
	<g>
		<polygon fill="#6432AB" stroke="#FFFFFF" stroke-miterlimit="10" points="483.3,406.9 488.6,401.3 488.6,397.3 522.3,397.3 
			522.3,416.9 488.9,416.9 488.6,411.5 		"/>
		<text transform="matrix(1 0 0 1 492.9117 411.0124)" fill="#FFFFFF" font-family="'ArialMT'" font-size="13.7682">48.4</text>
	</g>
	<text transform="matrix(1 0 0 1 523 411.4326)" fill="#6432AB" font-family="'ArialMT'" font-size="13.2329">AAPL</text>
	<rect x="535.3" y="248.3" opacity="0.75" fill="#FFFFFF" width="32.4" height="19.6"/>
	<g>
		<polygon fill="#3780BF" stroke="#FFFFFF" stroke-miterlimit="10" points="483.3,257.9 488.6,252.3 488.6,248.3 534.3,248.3 
			534.3,267.9 488.9,267.9 488.6,262.5 		"/>
		<text transform="matrix(1 0 0 1 489.9117 262.0124)" fill="#FFFFFF" font-family="'ArialMT'" font-size="13.7682">132.95</text>
	</g>
	<text transform="matrix(1 0 0 1 536 262.4326)" fill="#3780BF" font-family="'ArialMT'" font-size="13.2329">GLD</text>
	<rect x="529.3" y="339.3" opacity="0.75" fill="#FFFFFF" width="26.4" height="19.6"/>
	<g>
		<polygon fill="#8DD3C7" stroke="#000000" stroke-miterlimit="10" points="483.3,348.9 488.6,343.3 488.6,339.3 527.3,339.3 
			527.3,358.9 488.9,358.9 488.6,353.5 		"/>
		<text transform="matrix(1 0 0 1 492.9117 353.0124)" font-family="'ArialMT'" font-size="13.7682">79.11</text>
	</g>
	<text transform="matrix(1 0 0 1 530 353.4326)" fill="#8DD3C7" font-family="'ArialMT'" font-size="13.2329">TLT</text>
	<rect x="537.3" y="220.3" opacity="0.75" fill="#FFFFFF" width="26.4" height="19.6"/>
	<g>
		<polygon fill="#FF9933" stroke="#000000" stroke-miterlimit="10" points="483.3,229.9 488.6,224.3 488.6,220.3 534.3,220.3 
			534.3,239.9 488.9,239.9 488.6,234.5 		"/>
		<text transform="matrix(1 0 0 1 490.9117 234.0124)" font-family="'ArialMT'" font-size="13.7682">150.71</text>
	</g>
	<text transform="matrix(1 0 0 1 538 234.4326)" fill="#FF9933" font-family="'ArialMT'" font-size="13.2329">IBM</text>
	<rect x="529.3" y="317.3" opacity="0.75" fill="#FFFFFF" width="29.4" height="19.6"/>
	<g>
		<polygon fill="#FFFF65" stroke="#000000" stroke-miterlimit="10" points="483.3,343.9 488.6,321.3 488.6,317.3 527.3,317.3 
			527.3,336.9 488.9,336.9 488.6,331.5 		"/>
		<text transform="matrix(1 0 0 1 490.9117 331.0124)" font-family="'ArialMT'" font-size="13.7682">82.13</text>
	</g>
	<text transform="matrix(1 0 0 1 530 331.4326)" fill="#FFFF65" font-family="'ArialMT'" font-size="13.2329">SHY</text>
	<rect x="522.3" y="360.3" opacity="0.75" fill="#FFFFFF" width="39" height="19.6"/>
	<text transform="matrix(1 0 0 1 523 374.4326)" fill="#32AB60" font-family="'ArialMT'" font-size="13.2329">XOM</text>
	<g>
		<polygon fill="#32AB60" stroke="#FFFFFF" stroke-miterlimit="10" points="483.3,355.9 488.6,364.3 488.6,360.3 522.3,360.3 
			522.3,379.9 488.9,379.9 488.6,374.5 		"/>
		<text transform="matrix(1 0 0 1 492.9117 374.0124)" fill="#FFFFFF" font-family="'ArialMT'" font-size="13.7682">76.4</text>
	</g>
</g>
</svg>
