<?xml version="1.0" encoding="utf-8"?>
<!-- Generator: Adobe Illustrator 18.0.0, SVG Export Plug-In . SVG Version: 6.00 Build 0)  -->
<!DOCTYPE svg PUBLIC "-//W3C//DTD SVG 1.1//EN" "http://www.w3.org/Graphics/SVG/1.1/DTD/svg11.dtd">
<svg version="1.1" xmlns="http://www.w3.org/2000/svg" xmlns:xlink="http://www.w3.org/1999/xlink" x="0px" y="0px"
	 viewBox="0 0 960 560" enable-background="new 0 0 960 560" xml:space="preserve">
<g id="Layer_1">
	<rect x="0" y="-24.5" fill="#FFFFFF" width="960" height="584.1"/>
	<g>
		<g transform="translate(80,100)">
		</g>
	</g>
	<g>
		<rect x="82.8" y="79.1" fill="#FFFFFF" width="794.3" height="397.7"/>
		<g transform="translate(80,100)">
			<path stroke="#EEEEEE" d="M64.9-20.9v397.7"/>
			<path stroke="#EEEEEE" d="M192.4-20.9v397.7"/>
			<path stroke="#EEEEEE" d="M319.9-20.9v397.7"/>
			<path stroke="#EEEEEE" d="M447.4-20.9v397.7"/>
			<path stroke="#EEEEEE" d="M574.9-20.9v397.7"/>
			<path stroke="#EEEEEE" d="M702.5-20.9v397.7"/>
			<path stroke="#EEEEEE" d="M2.8,356.9h794.3"/>
			<path stroke="#EEEEEE" d="M2.8,316.2h794.3"/>
			<path stroke="#EEEEEE" d="M2.8,275.5h794.3"/>
			<path stroke="#EEEEEE" d="M2.8,234.8h794.3"/>
			<path stroke="#EEEEEE" d="M2.8,194h794.3"/>
			<path stroke="#EEEEEE" d="M2.8,153.3h794.3"/>
			<path stroke="#EEEEEE" d="M2.8,112.6h794.3"/>
			<path stroke="#EEEEEE" d="M2.8,71.9h794.3"/>
			<path stroke="#EEEEEE" d="M2.8,31.2h794.3"/>
			<path stroke="#EEEEEE" d="M2.8-9.6h794.3"/>
		</g>
		<g transform="translate(80,100)">
		</g>
		<g>
			<g>
				<path fill="none" stroke="#131B58" stroke-width="3" stroke-miterlimit="2" d="M-3298.3,461l510.1-8.2l63.8-149.9l63.8-44
					l63.8-141.3l127.5,8.9l63.8,55l63.8,94.4l63.8,43.6l191.3,141.3h63.8h701.4l63.8-22.4l63.8-116.5l63.8,4l63.8-149l63.8-53.3
					l63.8-20.8l63.8,88.8l63.8,36.2l63.8,76.9l127,137.8l63.8,18.3h765.1l63.8-48.9l63.8-87.1l63.8-51.7l63.8-142.1l63.8,16.7
					l63.8-4l63.8,40.3l63.8,64.3l63.8,86l63.8,45.6l63.8,48.1"/>
			</g>
			<g>
				<path fill="none" stroke="#00A78D" stroke-width="3" stroke-miterlimit="2" d="M-3298.3,461l510.1-8.2l63.8-208.9l63.8,24.4
					l63.8-16.3l127.5,170.3l63.8,12.6l63.8-66l63.8,41.1l63.8,50.8l63.8-6.9l191.3,6.9h63.8h573.8l63.8-28.9l63.8-153.5l63.8,56.5
					l63.8-65.6l63.8,68.3l63.8,121.4l63.8-99.3l63.8,61.1l63.8,11.4l63.8,16.7l63.8-1.7l63.8,13.5h63.8h701.4l63.8-87.1l63.8-89.6
					l63.8-1.2l63.8-26.1l63.8,68.9l63.8,73.7l63.8-28.9l63.8,20l63.8,10.6l63.8,39.5l63.8,20.4"/>
			</g>
			<g>
				<path fill="none" stroke="#FCB925" stroke-width="3" stroke-miterlimit="2" d="M-3298.3,461h573.8l63.8-42.4l63.8,17.1
					l63.8-129.4l63.8-94.4l63.8-42.4l63.8,89.2l63.8,18.3l63.8,2.5l63.8,122.9l63.8,58.6h63.8h828.9l63.8-71.2l63.8-3.2l63.8-78.2
					l63.8-107.1l63.8-8.9l63.8-21.1l63.8,65.6l63.8,76.9l63.2,125.7l63.8,21.5h63.8h828.9l63.8-53.7l63.8,17.5l63.8-124.2l63.8-82.6
					l63.8-36.2l63.8,29.7l63.8,94l63.8,26.5l63.8,49.7"/>
			</g>
			<g>
				<path fill="none" stroke="#EC3330" stroke-width="3" stroke-miterlimit="2" d="M-3298.3,461l510.1-7.4l63.8-109.9l191.3-104.7
					l63.8-3.6l63.8,15.4l63.8,50.1l127.5,67.2l63.8,59.9l63.8,32.9h63.8h701.4l63.8-19.6l63.8-87.5l63.8-4.5l63.8-86.8l63.8-26.9
					l63.8-8.2l63.8,15.1l63.8,23.6l63.8,54.2l63.8,55.8l63.8,67.2l63.8,17.5h63.8h701.4l63.8-41.9l63.8-64.3l63.8-40.3l63.8-70
					l63.8-4l63.8-5.3l63.8,2.5l62.9,41.3l63.8,67.2l63.8,35.8l63.8,40.7"/>
			</g>
			<g>
				<path fill="none" stroke="#C169A6" stroke-width="3" stroke-miterlimit="2" d="M-3298.3,461l510.1-7.4l63.8-36.2l63.8-39
					l63.8,64.3l63.8-41.9l63.8-1.7l127.5-72.5l63.8,26.1l127.5,75.7l63.8,32.5h765.2l63.8-15.8l127.5-69.6l63.8,17.9l127.5,39.5
					l63.8-123.3l127.6,39l63.8,37.9l63.8,57l63.8,17.5H209l63.8-22.4l63.8-26.5l63.8-36.2l63.8,61.5l63.8-51.3l63.8-3.6l63.8-68
					l63.8,8.5l63.8,37.9l63.8,29.7l63.8,33.8"/>
			</g>
		</g>
		<path fill="none" stroke="#222222" d="M82.8,477.8h796.4 M82.8,79.1h796.4"/>
		<path fill="none" stroke="#222222" d="M83.4,79.1v397.7 M878.7,79.1v397.7"/>
		<g transform="translate(80,100)">
			<path stroke="#444444" d="M65.9,377.3v-5.2 M65.9-20.4v5.2"/>
			<path stroke="#444444" d="M193.4,377.3v-5.2 M193.4-20.4v5.2"/>
			<path stroke="#444444" d="M321,377.3v-5.2 M321-20.4v5.2"/>
			<path stroke="#444444" d="M448.5,377.3v-5.2 M448.5-20.4v5.2"/>
			<path stroke="#444444" d="M575.9,377.3v-5.2 M575.9-20.4v5.2"/>
			<path stroke="#444444" d="M703.5,377.3v-5.2 M703.5-20.4v5.2"/>
			<g>
				<text transform="matrix(1 0 0 1 33.9277 392.8154)" fill="#444444" font-family="'OpenSans'" font-size="12.4272">Sep 28 06h</text>
				<text transform="matrix(1 0 0 1 51.6733 408.9707)" fill="#444444" font-family="'OpenSans'" font-size="12.4272">2002</text>
			</g>
			<g>
				<text transform="matrix(1 0 0 1 161.4619 392.8154)" fill="#444444" font-family="'OpenSans'" font-size="12.4272">Sep 28 08h</text>
			</g>
			<g>
				<text transform="matrix(1 0 0 1 288.9854 392.8154)" fill="#444444" font-family="'OpenSans'" font-size="12.4272">Sep 28 10h</text>
			</g>
			<g>
				<text transform="matrix(1 0 0 1 416.5088 392.8154)" fill="#444444" font-family="'OpenSans'" font-size="12.4272">Sep 28 12h</text>
			</g>
			<g>
				<text transform="matrix(1 0 0 1 544.0322 392.8154)" fill="#444444" font-family="'OpenSans'" font-size="12.4272">Sep 28 14h</text>
			</g>
			<g>
				<text transform="matrix(1 0 0 1 671.5566 392.8154)" fill="#444444" font-family="'OpenSans'" font-size="12.4272">Sep 28 16h</text>
			</g>
		</g>
		<g transform="translate(80,100)">
			<path stroke="#444444" d="M4.9,356.4h5.2 M799.2,356.4H794"/>
			<path stroke="#444444" d="M4.9,315.7h5.2 M799.2,315.7H794"/>
			<path stroke="#444444" d="M4.9,275h5.2 M799.2,275H794"/>
			<path stroke="#444444" d="M4.9,234.3h5.2 M799.2,234.3H794"/>
			<path stroke="#444444" d="M4.9,193.5h5.2 M799.2,193.5H794"/>
			<path stroke="#444444" d="M4.9,152.8h5.2 M799.2,152.8H794"/>
			<path stroke="#444444" d="M4.9,112.1h5.2 M799.2,112.1H794"/>
			<path stroke="#444444" d="M4.9,71.4h5.2 M799.2,71.4H794"/>
			<path stroke="#444444" d="M4.9,30.7h5.2 M799.2,30.7H794"/>
			<path stroke="#444444" d="M4.9-10.1h5.2 M799.2-10.1H794"/>
			<g>
				<text transform="matrix(1 0 0 1 -5.2935 362.5761)" fill="#444444" font-family="'OpenSans'" font-size="12.4272">0</text>
			</g>
			<g>
				<text transform="matrix(1 0 0 1 -5.2935 321.8564)" fill="#444444" font-family="'OpenSans'" font-size="12.4272">1</text>
			</g>
			<g>
				<text transform="matrix(1 0 0 1 -5.2935 281.1474)" fill="#444444" font-family="'OpenSans'" font-size="12.4272">2</text>
			</g>
			<g>
				<text transform="matrix(1 0 0 1 -5.2935 240.4277)" fill="#444444" font-family="'OpenSans'" font-size="12.4272">3</text>
			</g>
			<g>
				<text transform="matrix(1 0 0 1 -5.2935 199.708)" fill="#444444" font-family="'OpenSans'" font-size="12.4272">4</text>
			</g>
			<g>
				<text transform="matrix(1 0 0 1 -5.2935 158.9883)" fill="#444444" font-family="'OpenSans'" font-size="12.4272">5</text>
			</g>
			<g>
				<text transform="matrix(1 0 0 1 -5.2935 118.2783)" fill="#444444" font-family="'OpenSans'" font-size="12.4272">6</text>
			</g>
			<g>
				<text transform="matrix(1 0 0 1 -5.2935 77.5586)" fill="#444444" font-family="'OpenSans'" font-size="12.4272">7</text>
			</g>
			<g>
				<text transform="matrix(1 0 0 1 -5.2935 36.8388)" fill="#444444" font-family="'OpenSans'" font-size="12.4272">8</text>
			</g>
			<g>
				<text transform="matrix(1 0 0 1 -5.2935 -3.8809)" fill="#444444" font-family="'OpenSans'" font-size="12.4272">9</text>
			</g>
		</g>
	</g>
	<g>
		<g>
			
				<text transform="matrix(6.123234e-17 -1 1 6.123234e-17 48.6733 289.0889)" fill="#939393" font-family="'OpenSans'" font-size="14.4984">KW</text>
		</g>
	</g>
	<g>
		<rect x="267.2" y="109.5" fill="#FFFFFF" fill-opacity="0.5" width="108.7" height="108.7"/>
		<g transform="translate(0,14.5)">
			<g>
				<path fill="none" stroke="#131B58" stroke-width="3" d="M272.4,110.1h31.1"/>
			</g>
			<text transform="matrix(1 0 0 1 308.6084 114.9033)" fill="#444444" font-family="'OpenSans'" font-size="12.4272">Roof</text>
			<rect x="267.2" y="100.2" pointer-events="all" fill-opacity="0" width="103.4" height="19.7"/>
		</g>
		<g transform="translate(0,33.5)">
			<g>
				<path fill="none" stroke="#00A78D" stroke-width="3" d="M272.4,110.7h31.1"/>
			</g>
			<text transform="matrix(1 0 0 1 308.6084 115.5795)" fill="#444444" font-family="'OpenSans'" font-size="12.4272">East Wall</text>
			<rect x="267.2" y="100.9" pointer-events="all" fill-opacity="0" width="103.4" height="19.7"/>
		</g>
		<g transform="translate(0,52.5)">
			<g>
				<path fill="none" stroke="#FCB925" stroke-width="3" d="M272.4,111.4h31.1"/>
			</g>
			<text transform="matrix(1 0 0 1 308.6084 116.2563)" fill="#444444" font-family="'OpenSans'" font-size="12.4272">West wall</text>
			<rect x="267.2" y="101.6" pointer-events="all" fill-opacity="0" width="103.4" height="19.7"/>
		</g>
		<g transform="translate(0,71.5)">
			<g>
				<path fill="none" stroke="#EC3330" stroke-width="3" d="M272.4,112.1h31.1"/>
			</g>
			<text transform="matrix(1 0 0 1 308.6084 116.9326)" fill="#444444" font-family="'OpenSans'" font-size="12.4272">South Wall</text>
			<rect x="267.2" y="102.2" pointer-events="all" fill-opacity="0" width="103.4" height="19.7"/>
		</g>
		<g transform="translate(0,90.5)">
			<g>
				<path fill="none" stroke="#C169A6" stroke-width="3" d="M272.4,112.8h31.1"/>
			</g>
			<text transform="matrix(1 0 0 1 308.6084 117.6089)" fill="#444444" font-family="'OpenSans'" font-size="12.4272">North Wall</text>
			<rect x="267.2" y="102.9" pointer-events="all" fill-opacity="0" width="103.4" height="19.7"/>
		</g>
	</g>
	<g>
		<text transform="matrix(1 0 0 1 385.1528 50.0971)" fill="#939393" font-family="'OpenSans'" font-size="17.6052">Solar Radiation on Wall</text>
	</g>
	<g>
		<text transform="matrix(1 0 0 1 463.3462 536.8291)" fill="#939393" font-family="'OpenSans'" font-size="14.4984">Time</text>
	</g>
	<rect x="879.2" y="193.4" fill="#FFFFFF" width="90.8" height="304.6"/>
</g>
<g id="Layer_2">
	<g>
		<polygon fill="#444444" stroke="#FFFFFF" stroke-miterlimit="10" points="339.2,478.4 344.8,483.7 359.5,483.7 359.5,503 
			318.5,503 318.5,484 334.5,483.7 		"/>
		<text transform="matrix(1 0 0 1 324.0671 497.3454)" fill="#FFFFFF" font-family="'Arial-BoldMT'" font-size="12">09:00</text>
	</g>
	<rect x="382.5" y="313.9" opacity="0.75" fill="#FFFFFF" width="32.4" height="19.6"/>
	<g>
		<polygon fill="#131B58" stroke="#FFFFFF" stroke-miterlimit="10" points="340.4,323.5 345.7,317.9 345.7,313.9 380.5,313.9 
			380.5,333.5 346,333.5 345.7,328.2 		"/>
		<text transform="matrix(1 0 0 1 349.0153 327.679)" fill="#FFFFFF" font-family="'ArialMT'" font-size="13.7682">3.34</text>
	</g>
	<text transform="matrix(1 0 0 1 383.1036 328.0993)" fill="#131B58" font-family="'ArialMT'" font-size="13.2329">Roof</text>
	<rect x="382.6" y="343.3" opacity="0.75" fill="#FFFFFF" width="67.4" height="19.6"/>
	<g>
		<polygon fill="#EC3330" stroke="#FFFFFF" stroke-miterlimit="10" points="340.6,352.9 345.9,347.3 345.9,343.3 380.6,343.3 
			380.6,362.9 346.2,362.9 345.9,357.5 		"/>
		<text transform="matrix(1 0 0 1 349.1952 357.0124)" fill="#FFFFFF" font-family="'ArialMT'" font-size="13.7682">2.61</text>
	</g>
	<text transform="matrix(1 0 0 1 383.2835 357.4326)" fill="#EC3330" font-family="'ArialMT'" font-size="13.2329">South Wall</text>
	<rect x="375.1" y="400.9" opacity="0.75" fill="#FFFFFF" width="63.9" height="19.6"/>
	<g>
		<polygon fill="#C169A6" stroke="#000000" stroke-miterlimit="10" points="339,410.5 344.3,404.9 344.3,400.9 372.1,400.9 
			372.1,420.5 344.6,420.5 344.3,415.2 		"/>
		<text transform="matrix(1 0 0 1 347.6584 414.679)" font-family="'ArialMT'" font-size="13.7682">1.2</text>
	</g>
	<text transform="matrix(1 0 0 1 375.7467 415.0993)" fill="#C169A6" font-family="'ArialMT'" font-size="13.2329">North Wall</text>
	<rect x="363.3" y="449.3" opacity="0.75" fill="#FFFFFF" width="63.9" height="19.6"/>
	<g>
		<polygon fill="#FCB925" stroke="#000000" stroke-miterlimit="10" points="338.3,458.9 343.6,453.3 343.6,449.3 360.3,449.3 
			360.3,468.9 343.9,468.9 343.6,463.5 		"/>
		<text transform="matrix(1 0 0 1 346.9117 463.0124)" font-family="'ArialMT'" font-size="13.7682">0</text>
	</g>
	<g>
		<text transform="matrix(1 0 0 1 365 463.4326)" fill="#FCB925" font-family="'ArialMT'" font-size="13.2329">West Wall</text>
	</g>
	<rect x="383.5" y="273.3" opacity="0.75" fill="#FFFFFF" width="58.8" height="19.6"/>
	<g>
		<polygon fill="#00A78D" stroke="#FFFFFF" stroke-miterlimit="10" points="340.4,282.9 345.7,277.3 345.7,273.3 378.5,273.3 
			378.5,292.9 346,292.9 345.7,287.5 		"/>
		<text transform="matrix(1 0 0 1 348.0153 287.0124)" fill="#FFFFFF" font-family="'ArialMT'" font-size="13.7682">4.24</text>
	</g>
	<text transform="matrix(1 0 0 1 384.1036 287.4326)" fill="#00A78D" font-family="'ArialMT'" font-size="13.2329">East Wall</text>
</g>
</svg>
