<?xml version="1.0" encoding="utf-8"?>
<!-- Generator: Adobe Illustrator 18.0.0, SVG Export Plug-In . SVG Version: 6.00 Build 0)  -->
<!DOCTYPE svg PUBLIC "-//W3C//DTD SVG 1.1//EN" "http://www.w3.org/Graphics/SVG/1.1/DTD/svg11.dtd">
<svg version="1.1" id="Layer_1" xmlns="http://www.w3.org/2000/svg" xmlns:xlink="http://www.w3.org/1999/xlink" x="0px" y="0px"
	 viewBox="-22 -54 592 793" enable-background="new -22 -54 592 793" xml:space="preserve">
<rect x="-22" y="-54" fill="#FFFFFF" width="592" height="793"/>
<g>
	<g transform="translate(60,60)">
	</g>
	<g transform="translate(60,60)">
	</g>
</g>
<g>
	<rect x="58" y="56" fill="#F2F2F2" width="454" height="364"/>
	<g transform="translate(60,60)">
		<path stroke="#DDDDDD" d="M0,294.55h450"/>
		<path stroke="#DDDDDD" d="M0,229.09h450"/>
		<path stroke="#DDDDDD" d="M0,163.64h450"/>
		<path stroke="#DDDDDD" d="M0,98.18h450"/>
		<path stroke="#DDDDDD" d="M0,32.73h450"/>
	</g>
	<g>
		<g transform="translate(60,60)">
			<path stroke="#EEEEEE" d="M0,294.55h450"/>
			<path stroke="#EEEEEE" d="M0,229.09h450"/>
			<path stroke="#EEEEEE" d="M0,163.64h450"/>
			<path stroke="#EEEEEE" d="M0,98.18h450"/>
			<path stroke="#EEEEEE" d="M0,32.73h450"/>
		</g>
	</g>
	<g transform="translate(60,60)">
	</g>
	<g>
		<g transform="translate(60,60)">
			<path stroke="#444444" d="M0,360h450"/>
		</g>
	</g>
	<g>
		<g shape-rendering="crispEdges">
			<g>
				<path fill="#254F81" d="M73.75,420v-0.07h15.5V420H73.75z"/>
				<path fill="#254F81" d="M104.14,420v-0.33h15.49V420H104.14z"/>
				<path fill="#254F81" d="M134.52,420v-0.72h15.5V420H134.52z"/>
				<path fill="#254F81" d="M164.91,420v-0.98h15.49V420H164.91z"/>
				<path fill="#254F81" d="M195.29,420v-1.57h15.5V420H195.29z"/>
				<path fill="#254F81" d="M225.68,420v-1.77h15.49V420H225.68z"/>
				<path fill="#254F81" d="M256.06,420v-2.49h15.5V420H256.06z"/>
				<path fill="#254F81" d="M286.44,420v-3.8h15.5v3.8H286.44z"/>
				<path fill="#254F81" d="M316.83,420v-5.37h15.5V420H316.83z"/>
				<path fill="#254F81" d="M347.21,420v-10.73h15.5V420H347.21z"/>
				<path fill="#254F81" d="M377.6,420v-16.1h15.49V420H377.6z"/>
				<path fill="#254F81" d="M407.98,420v-19.9h15.5V420H407.98z"/>
				<path fill="#254F81" d="M438.37,420v-32.33h15.49V420H438.37z"/>
				<path fill="#254F81" d="M468.75,420v-51.84h15.5V420H468.75z"/>
			</g>
		</g>
		<g shape-rendering="crispEdges">
			<g>
				<path fill="#5986BD" d="M73.75,419.93v-0.13h15.5v0.13H73.75z"/>
				<path fill="#5986BD" d="M104.14,419.67v-0.19h15.49v0.19H104.14z"/>
				<path fill="#5986BD" d="M134.52,419.28v-0.59h15.5v0.59H134.52z"/>
				<path fill="#5986BD" d="M164.91,419.02v-1.77h15.49v1.77H164.91z"/>
				<path fill="#5986BD" d="M195.29,418.43v-2.1h15.5v2.1H195.29z"/>
				<path fill="#5986BD" d="M225.68,418.23v-3.34h15.49v3.34H225.68z"/>
				<path fill="#5986BD" d="M256.06,417.51v-4.38h15.5v4.38H256.06z"/>
				<path fill="#5986BD" d="M286.44,416.2v-6.08h15.5v6.08H286.44z"/>
				<path fill="#5986BD" d="M316.83,414.63v-13.09h15.5v13.09H316.83z"/>
				<path fill="#5986BD" d="M347.21,409.27v-13.95h15.5v13.95H347.21z"/>
				<path fill="#5986BD" d="M377.6,403.9v-22.19h15.49v22.19H377.6z"/>
				<path fill="#5986BD" d="M407.98,400.1v-54.39h15.5v54.39H407.98z"/>
				<path fill="#5986BD" d="M438.37,387.67V317.5h15.49v70.17H438.37z"/>
				<path fill="#5986BD" d="M468.75,368.16v-72.79h15.5v72.79H468.75z"/>
			</g>
		</g>
		<g shape-rendering="crispEdges">
			<g>
				<path fill="#96ACCA" d="M104.14,419.48v-0.2h15.49v0.2H104.14z"/>
				<path fill="#96ACCA" d="M134.52,418.69v-0.13h15.5v0.13H134.52z"/>
				<path fill="#96ACCA" d="M164.91,417.25v-0.2h15.49v0.2H164.91z"/>
				<path fill="#96ACCA" d="M195.29,416.33v-0.13h15.5v0.13H195.29z"/>
				<path fill="#96ACCA" d="M225.68,414.89v-0.06h15.49v0.06H225.68z"/>
				<path fill="#96ACCA" d="M286.44,410.12v-0.59h15.5v0.59H286.44z"/>
				<path fill="#96ACCA" d="M316.83,401.54v-1.05h15.5v1.05H316.83z"/>
				<path fill="#96ACCA" d="M347.21,395.32v-3.79h15.5v3.79H347.21z"/>
				<path fill="#96ACCA" d="M377.6,381.71v-17.48h15.49v17.48H377.6z"/>
				<path fill="#96ACCA" d="M407.98,345.71v-51.32h15.5v51.32H407.98z"/>
				<path fill="#96ACCA" d="M438.37,317.5V199.48h15.49V317.5H438.37z"/>
				<path fill="#96ACCA" d="M468.75,295.37V109.03h15.5v186.34H468.75z"/>
			</g>
		</g>
	</g>
	<g>
		<g>
			<g>
				<path fill="none" stroke="#073763" stroke-width="2" stroke-miterlimit="2" d="M81.5,95.89l30.38-10.8l30.39,2.29l30.38,40.58
					l30.39,9.17l30.38,17.34h30.39h30.38l30.39,9.82l30.38,4.58l30.39,54l30.38,34.04l30.39,36.65l30.38,25.86"/>
				<g>
					<path fill="#073763" d="M85.5,99.89h-8v-8h8V99.89z"/>
					<path fill="#073763" d="M115.88,89.09h-8v-8h8V89.09z"/>
					<path fill="#073763" d="M146.27,91.38h-8v-8h8V91.38z"/>
					<path fill="#073763" d="M176.65,131.96h-8v-8h8V131.96z"/>
					<path fill="#073763" d="M207.04,141.13h-8v-8h8V141.13z"/>
					<path fill="#073763" d="M237.42,158.47h-8v-8h8V158.47z"/>
					<path fill="#073763" d="M267.81,158.47h-8v-8h8V158.47z"/>
					<path fill="#073763" d="M298.19,158.47h-8v-8h8V158.47z"/>
					<path fill="#073763" d="M328.58,168.29h-8v-8h8V168.29z"/>
					<path fill="#073763" d="M358.96,172.87h-8v-8h8V172.87z"/>
					<path fill="#073763" d="M389.35,226.87h-8v-8h8V226.87z"/>
					<path fill="#073763" d="M419.73,260.91h-8v-8h8V260.91z"/>
					<path fill="#073763" d="M450.12,297.56h-8v-8h8V297.56z"/>
					<path fill="#073763" d="M480.5,323.42h-8v-8h8V323.42z"/>
				</g>
			</g>
		</g>
	</g>
	<path fill="none" stroke="#000000" stroke-opacity="0" d="M57,222.5h456"/>
	<path fill="none" stroke="#000000" stroke-opacity="0" d="M57.5-143v365"/>
	<g>
		<path fill="none" stroke="#000000" stroke-opacity="0" d="M60-140"/>
		<path fill="none" stroke="#000000" stroke-opacity="0" d="M512.5-143v366"/>
	</g>
	<g transform="translate(60,60)">
		<g>
			<text transform="matrix(0.7071 0.7071 -0.7071 0.7071 18.4597 365.8978)" font-family="'Helvetica-Bold'" font-size="12">2000</text>
		</g>
		<g>
			<text transform="matrix(0.7071 0.7071 -0.7071 0.7071 48.8395 365.8981)" font-family="'Helvetica-Bold'" font-size="12">2001</text>
		</g>
		<g>
			<text transform="matrix(0.7071 0.7071 -0.7071 0.7071 79.2292 365.8978)" font-family="'Helvetica-Bold'" font-size="12">2002</text>
		</g>
		<g>
			<text transform="matrix(0.7071 0.7071 -0.7071 0.7071 109.6091 365.8978)" font-family="'Helvetica-Bold'" font-size="12">2003</text>
		</g>
		<g>
			<text transform="matrix(0.7071 0.7071 -0.7071 0.7071 139.9997 365.8978)" font-family="'Helvetica-Bold'" font-size="12">2004</text>
		</g>
		<g>
			<text transform="matrix(0.7071 0.7071 -0.7071 0.7071 170.3796 365.8978)" font-family="'Helvetica-Bold'" font-size="12">2005</text>
		</g>
		<g>
			<text transform="matrix(0.7071 0.7071 -0.7071 0.7071 200.7692 365.8981)" font-family="'Helvetica-Bold'" font-size="12">2006</text>
		</g>
		<g>
			<text transform="matrix(0.7071 0.7071 -0.7071 0.7071 231.1491 365.8976)" font-family="'Helvetica-Bold'" font-size="12">2007</text>
		</g>
		<g>
			<text transform="matrix(0.7071 0.7071 -0.7071 0.7071 261.5397 365.8978)" font-family="'Helvetica-Bold'" font-size="12">2008</text>
		</g>
		<g>
			<text transform="matrix(0.7071 0.7071 -0.7071 0.7071 291.9196 365.8978)" font-family="'Helvetica-Bold'" font-size="12">2009</text>
		</g>
		<g>
			<text transform="matrix(0.7071 0.7071 -0.7071 0.7071 322.3093 365.8981)" font-family="'Helvetica-Bold'" font-size="12">2010</text>
		</g>
		<g>
			<text transform="matrix(0.7071 0.7071 -0.7071 0.7071 353.0016 366.2111)" font-family="'Helvetica-Bold'" font-size="12">2011</text>
		</g>
		<g>
			<text transform="matrix(0.7071 0.7071 -0.7071 0.7071 383.0798 365.8978)" font-family="'Helvetica-Bold'" font-size="12">2012</text>
		</g>
		<g>
			<text transform="matrix(0.7071 0.7071 -0.7071 0.7071 413.4597 365.8978)" font-family="'Helvetica-Bold'" font-size="12">2013</text>
		</g>
	</g>
	<g transform="translate(60,60)">
		<g>
			<text transform="matrix(1 0 0 1 -10.6738 364.27)" font-family="'Helvetica'" font-size="12">0</text>
		</g>
		<g>
			<text transform="matrix(1 0 0 1 -30.6953 298.82)" font-family="'Helvetica'" font-size="12">1000</text>
		</g>
		<g>
			<text transform="matrix(1 0 0 1 -30.6953 233.36)" font-family="'Helvetica'" font-size="12">2000</text>
		</g>
		<g>
			<text transform="matrix(1 0 0 1 -30.6953 167.91)" font-family="'Helvetica'" font-size="12">3000</text>
		</g>
		<g>
			<text transform="matrix(1 0 0 1 -30.6953 102.45)" font-family="'Helvetica'" font-size="12">4000</text>
		</g>
		<g>
			<text transform="matrix(1 0 0 1 -30.6953 37)" font-family="'Helvetica'" font-size="12">5000</text>
		</g>
	</g>
	<g>
		<g transform="translate(60,60)">
		</g>
		<g transform="translate(60,60)">
			<g>
				<text transform="matrix(1 0 0 1 454 364)" font-family="'Helvetica'" font-size="12">0</text>
			</g>
			<g>
				<text transform="matrix(1 0 0 1 454 298.55)" font-family="'Helvetica'" font-size="12">2</text>
			</g>
			<g>
				<text transform="matrix(1 0 0 1 454 233.09)" font-family="'Helvetica'" font-size="12">4</text>
			</g>
			<g>
				<text transform="matrix(1 0 0 1 454 167.64)" font-family="'Helvetica'" font-size="12">6</text>
			</g>
			<g>
				<text transform="matrix(1 0 0 1 454 102.18)" font-family="'Helvetica'" font-size="12">8</text>
			</g>
			<g>
				<text transform="matrix(1 0 0 1 454 36.73)" font-family="'Helvetica'" font-size="12">10</text>
			</g>
		</g>
	</g>
</g>
<g>
	<g transform="translate(0,-5)">
	</g>
	<g>
		<g transform="rotate(0,226,50.00000000000001)">
			<rect x="64.935" fill-opacity="0" stroke="#000000" stroke-opacity="0" width="421" height="19"/>
			<text transform="matrix(1 0 0 1 59.5085 14.5)" fill="#073763" font-family="'Helvetica-Bold'" font-size="14">FIGURE: U.S. PV Installations and Average System Price, 2000-2013</text>
		</g>
	</g>
</g>
<g>
	<g transform="translate(1,15.5)">
		<g>
			<path fill="none" stroke="#073763" stroke-width="2" d="M73,152h30"/>
		</g>
		<g>
			<g>
				<path fill="#073763" d="M92,156h-8v-8h8V156z"/>
			</g>
		</g>
		<text transform="matrix(1 0 0 1 108 156.68)" font-family="'Helvetica'" font-size="12">Price</text>
		<rect x="68" y="142.5" pointer-events="all" fill-opacity="0" width="125.797" height="19"/>
	</g>
	<g transform="translate(1,34.5)">
		<g>
			<g>
				<path fill="#96ACCA" d="M94,158H82v-12h12V158z"/>
			</g>
		</g>
		<text transform="matrix(1 0 0 1 108 156.68)" font-family="'Helvetica'" font-size="12">Utility</text>
		<rect x="68" y="142.5" pointer-events="all" fill-opacity="0" width="125.797" height="19"/>
	</g>
	<g transform="translate(1,53.5)">
		<g>
			<g>
				<path fill="#5986BD" d="M94,158H82v-12h12V158z"/>
			</g>
		</g>
		<text transform="matrix(1 0 0 1 108 156.68)" font-family="'Helvetica'" font-size="12">Non-Residential</text>
		<rect x="68" y="142.5" pointer-events="all" fill-opacity="0" width="125.797" height="19"/>
	</g>
	<g transform="translate(1,72.5)">
		<g>
			<g>
				<path fill="#254F81" d="M94,158H82v-12h12V158z"/>
			</g>
		</g>
		<text transform="matrix(1 0 0 1 108 156.68)" font-family="'Helvetica'" font-size="12">Residential</text>
		<rect x="68" y="142.5" pointer-events="all" fill-opacity="0" width="125.797" height="19"/>
	</g>
</g>
<g>
	<text transform="matrix(6.123234e-17 -1 1 6.123234e-17 12 321.0352)" fill="#6B6B6B" font-family="'Helvetica'" font-size="12">Annual PV Installations (MW)</text>
</g>
<g>
	<text transform="matrix(6.123234e-17 -1 1 6.123234e-17 544 349.1875)" fill="#6B6B6B" font-family="'Helvetica'" font-size="12">Weighted Average System Price ($/W)</text>
</g>
</svg>
