<?xml version="1.0" encoding="utf-8"?>
<!-- Generator: Adobe Illustrator 18.0.0, SVG Export Plug-In . SVG Version: 6.00 Build 0)  -->
<!DOCTYPE svg PUBLIC "-//W3C//DTD SVG 1.1//EN" "http://www.w3.org/Graphics/SVG/1.1/DTD/svg11.dtd">
<svg version="1.1" id="Layer_1" xmlns="http://www.w3.org/2000/svg" xmlns:xlink="http://www.w3.org/1999/xlink" x="0px" y="0px"
	 viewBox="0 160.98 864.55 539.02" enable-background="new 0 160.98 864.55 539.02" xml:space="preserve">
<rect y="160.98" fill="#FFFFFF" width="864.55" height="539.02"/>
<g>
	<g transform="translate(80,448.4)">
	</g>
	<g transform="translate(80,276.79999999999995)">
	</g>
	<g transform="translate(80,100)">
	</g>
</g>
<g>
	<rect x="82.142" y="492.198" fill="#FFFFFF" width="595.583" height="138.927"/>
	<g transform="translate(80,448.4)">
		<path stroke="#D9D9D9" d="M151.037,43.798v138.927"/>
		<path stroke="#D9D9D9" d="M448.829,43.798v138.927"/>
		<path stroke="#D9D9D9" d="M2.142,162.347h595.583"/>
		<path stroke="#D9D9D9" d="M2.142,105.951h595.583"/>
		<path stroke="#D9D9D9" d="M2.142,49.562h595.583"/>
	</g>
	<g transform="translate(80,448.4)">
		<path stroke="#CCCCCC" stroke-width="2" d="M299.933,43.798v138.927"/>
	</g>
	<g>
		<g>
			<path fill="none" stroke="#B30000" stroke-width="3" stroke-miterlimit="2" d="M82.142,551.922l29.779-11.674l14.89-2.17
				l14.89,6.784l14.89,8.42l14.89-2.987l14.89-4.072l14.89,2.283l14.89,5.214l14.89,0.648l14.89,1.627l14.89-1.028l14.89,3.206
				l14.89,15.747l14.89-5.87l14.89-4.283l14.89-6.954l14.89,4.615l14.89-4.453l14.89-4.777l14.89-0.542l14.89-2.769l14.89,8.849
				l14.89-0.105l14.89,9.772l14.89,3.797l14.89-1.085l14.89-10.857l14.89,1.36l14.89,3.255l14.89-0.818l14.89,7.06l14.89-0.267
				l14.89-7.173l14.89,2.558l14.89,1.028l14.89-1.028l14.89-1.635h14.89l14.89-7.869"/>
		</g>
		<g>
			<path fill="none" stroke="#E34A33" stroke-width="3" stroke-miterlimit="2" d="M82.142,551.922l14.89,1.158l14.89,4.315
				l14.89,4.671l14.89-3.238l14.89,4.105l14.89-2.445h14.89l14.89-8.274l29.779-24.668l14.89,0.146h14.89l14.89,0.931l14.89,7.554
				l14.89,6.04l14.89,11.942l14.89-7.91l14.89,2.874l14.89,1.724l14.89-6.614l14.89,5.967l14.89,13.164l14.89,21.357l14.89,0.364
				l14.89-3.595l14.89,2.874l14.89-6.477l14.89,4.315l14.89-3.23l14.89-7.554l14.89-3.238l14.89,5.756l14.89,3.595l14.89,3.449
				l14.89-3.805l14.89,1.433h14.89l14.89,1.797l14.89-7.91l14.89,0.364"/>
		</g>
		<g>
			<path fill="none" stroke="#FC8D59" stroke-width="3" stroke-miterlimit="2" d="M82.142,551.922l14.89-0.332l14.89-3.7
				l14.89,0.874l14.89-0.332l14.89,2.688l14.89,4.032h14.89l14.89,26.215l14.89,14.119l14.89-8.404l14.89-2.688l14.89,3.562
				l14.89-12.978l14.89,0.34l14.89,13.31l14.89-5.246l14.89-5.044l14.89-15.123l14.89,1.684l14.89-1.886l14.89,6.258l14.89,13.439
				l14.89-1.344l14.89-0.138l14.89,2.963l14.89,9.278l14.89,14.111l14.89-2.688l14.89-15.463l14.89,6.655l14.89,1.077l14.89,6.525
				l14.89-8.072l14.89-1.814h14.89l14.89,3.7l14.89-5.716l14.89-1.012l14.89,1.482l14.89,0.202"/>
		</g>
		<g>
			<path fill="none" stroke="#FDCC8A" stroke-width="3" stroke-miterlimit="2" d="M82.142,551.922l14.89,3.554l14.89-9.213
				l14.89-7.626l14.89,3.352l14.89,12.703l14.89-2.502l14.89-3.489l14.89-1.117l14.89-7.57l14.89,5.262l14.89-12.824l14.89,3.481
				l14.89,1.255l14.89,6.776l14.89-2.696l14.89-11.318l14.89-0.526l14.89-1.911l14.89,0.461l14.89-10.994l29.779,3.821l14.89-1.846
				l29.779,10.792l14.89,1.716l14.89-4.08l14.89,0.915l14.89-8.226l14.89-2.105l14.89-5.594l14.89-3.352l14.89,1.247l14.89,2.963
				l14.89-2.761l14.89-6.849l14.89,5.861l14.89-4.939l14.89-7.829l14.89,2.631"/>
		</g>
		<g>
			<path fill="none" stroke="#FEF0D9" stroke-width="3" stroke-miterlimit="2" d="M82.142,551.922l14.89-6.639l14.89,0.146
				l14.89-0.955l14.89-6.274l14.89-2.218l14.89,9.82l14.89,1.846l14.89-1.554l14.89-3.838l14.89,2.437l14.89,0.073l14.89-5.975
				l14.89,14.241l14.89,4.137l14.89-8.193l14.89,3.392l14.89,1.919l14.89,7.748l14.89,3.028l14.89,19.859l14.89,2.137l14.89-3.174
				l14.89-8.047l14.89,9.748l14.89,15.569l14.89,5.683l14.89,4.509l14.89,10.403l14.89-8.12l14.89,5.756l14.89-6.938l14.89,2.583
				l29.779,2.809l14.89-14.395l14.89,9.157l14.89-5.91l14.89-8.339l14.89-0.073l14.89,2.801"/>
		</g>
		<g>
			<path fill="none" stroke="#000000" stroke-width="3" stroke-miterlimit="2" stroke-dasharray="3,3" d="M82.142,551.922
				l14.89-1.668l14.89-2.809l14.89-1.028l14.89,0.032l14.89,5.141l14.89,1.15l14.89-1.142l14.89,3.514l14.89-0.882l14.89-2.445
				l14.89-2.736l14.89,0.024l14.89,1.206l14.89,6.898l14.89,0.526l14.89-1.15l14.89-3.732l14.89-0.413l14.89,0.486l14.89-0.802
				l14.89,3.182l14.89,4.477l14.89,3.765l14.89,3.101l14.89,5.951l14.89,4.704l14.89,1.49l14.89,0.478l14.89-6.809l14.89,1.271
				l14.89-3.101l14.89,3.789l29.779-0.721l14.89-3.789l14.89,1.838l14.89-1.498l29.779-5.619l14.89-0.389"/>
		</g>
	</g>
	<path fill="none" stroke="#000000" stroke-opacity="0" d="M82.142,631.53h597.765"/>
	<path fill="none" stroke="#000000" stroke-opacity="0" d="M82.687,491.388v139.737"/>
	<g transform="translate(80,448.4)">
		<g>
			<text transform="matrix(1.3473 0 0 1 -7.9941 194.059)" fill="#444444" font-family="'OpenSans'" font-size="9.7152">−20</text>
		</g>
		<g>
			<text transform="matrix(1.3473 0 0 1 140.9023 194.059)" fill="#444444" font-family="'OpenSans'" font-size="9.7152">−10</text>
		</g>
		<g>
			<text transform="matrix(1.3473 0 0 1 297.2812 194.059)" fill="#444444" font-family="'OpenSans'" font-size="9.7152">0</text>
		</g>
		<g>
			<text transform="matrix(1.3473 0 0 1 442.4355 194.059)" fill="#444444" font-family="'OpenSans'" font-size="9.7152">10</text>
		</g>
		<g>
			<text transform="matrix(1.3473 0 0 1 591.332 194.059)" fill="#444444" font-family="'OpenSans'" font-size="9.7152">20</text>
		</g>
	</g>
	<g transform="translate(80,448.4)">
		<g>
			<text transform="matrix(1.3473 0 0 1 -13.918 167.2055)" fill="#444444" font-family="'OpenSans'" font-size="9.7152">95</text>
		</g>
		<g>
			<text transform="matrix(1.3473 0 0 1 -21.4024 110.808)" fill="#444444" font-family="'OpenSans'" font-size="9.7152">100</text>
		</g>
		<g>
			<text transform="matrix(1.3473 0 0 1 -21.4024 54.4193)" fill="#444444" font-family="'OpenSans'" font-size="9.7152">105</text>
		</g>
	</g>
</g>
<g>
	<rect x="82.142" y="353.27" fill="#FFFFFF" width="595.583" height="138.927"/>
	<g transform="translate(80,276.79999999999995)">
		<path stroke="#D9D9D9" d="M151.037,76.47v138.927"/>
		<path stroke="#D9D9D9" d="M448.829,76.47v138.927"/>
		<path stroke="#D9D9D9" d="M2.142,201.521h595.583"/>
		<path stroke="#D9D9D9" d="M2.142,186.892h595.583"/>
		<path stroke="#D9D9D9" d="M2.142,172.27h595.583"/>
		<path stroke="#D9D9D9" d="M2.142,157.641h595.583"/>
		<path stroke="#D9D9D9" d="M2.142,143.011h595.583"/>
		<path stroke="#D9D9D9" d="M2.142,128.39h595.583"/>
		<path stroke="#D9D9D9" d="M2.142,113.761h595.583"/>
		<path stroke="#D9D9D9" d="M2.142,99.131h595.583"/>
		<path stroke="#D9D9D9" d="M2.142,84.502h595.583"/>
	</g>
	<g transform="translate(80,276.79999999999995)">
		<path stroke="#CCCCCC" stroke-width="2" d="M299.933,76.47v138.927"/>
	</g>
	<g>
		<g>
			<path fill="none" stroke="#0868AC" stroke-width="3" stroke-miterlimit="2" d="M83.233,433.307l14.89,6.08l14.89,8.315
				l29.779,19.196l14.89-5.756l14.89,2.558l14.89-2.558h14.89l14.89-15.358l14.89-4.477l14.89-2.882h14.89l14.89-2.558l14.89-3.522
				l14.89-4.793l14.89-13.124l14.89,15.042l14.89-12.16l14.89,6.72l14.89-0.64l14.89,9.918l14.89,4.161l14.89-28.474l14.89-3.846
				l14.89,4.801l29.779,0.324l14.89-3.198l14.89-13.439l14.89,1.595l14.89,7.359l14.89,2.882l14.89-0.963l14.89-8.954l14.89-9.602
				l14.89,12.16l14.89-16.313l14.89-2.243l14.89-3.198l14.89-17.277"/>
		</g>
		<g>
			<path fill="none" stroke="#43A2CA" stroke-width="3" stroke-miterlimit="2" d="M83.233,433.307l14.89,2.21l14.89-0.818
				l14.89-2.34l14.89-1.579l14.89,2.842l14.89,0.502l14.89-1.449l14.89,1.077l14.89-0.761l14.89-4.42l14.89-5.691l14.89-0.316
				l14.89-2.332l14.89,1.7l14.89,4.113l14.89-5.06l14.89-0.437l14.89,0.882l14.89-4.234l14.89,10.112l14.89-5.691h14.89l14.89,1.903
				l14.89-1.708l29.779,0.818l14.89,1.579l14.89,0.259l14.89-1.903l14.89,0.64l14.89-1.077l14.89,0.567l14.89-1.198l29.779-0.826
				l14.89-1.579l14.89-3.157h14.89l14.89-2.655l14.89,0.51"/>
		</g>
		<g>
			<path fill="none" stroke="#7BCCC4" stroke-width="3" stroke-miterlimit="2" d="M83.233,433.307l14.89,9.335l14.89,6.849
				l14.89,0.98l14.89,5.594l29.779-7.286l14.89,6.849l14.89-7.651l14.89,3.287l14.89-4.89l14.89-2.485l14.89-2.494l14.89,2.494
				l14.89,8.355l14.89-2.04l14.89,3.999l14.89-2.048l14.89-6.752l14.89,7.019l14.89-4.623l14.89,6.315l14.89-1.603l14.89-9.246
				l14.89,16.807l14.89-3.295l14.89-3.821l14.89-0.534l14.89-7.019l14.89-13.164l14.89,3.028l14.89,6.307l14.89-3.821l14.89-13.512
				l14.89,6.574l14.89,20.985l14.89-9.068l14.89-4.979l14.89,6.76l14.89-6.671l14.89,0.445"/>
		</g>
		<g>
			<path fill="none" stroke="#F0F9E8" stroke-width="3" stroke-miterlimit="2" d="M83.233,433.307l14.89,3.19l14.89-1.028
				l14.89-4.631l14.89-6.477l14.89-1.239l14.89-7.715l14.89-0.818l14.89,13.164l14.89,8.436l14.89,11.618l14.89-14.913l14.89,2.364
				l29.779-6.064l14.89,7.918h14.89l14.89,4.218l14.89,0.51l14.89,21.811l14.89-0.105l14.89,14.71l14.89,5.862l14.89-1.951
				l14.89-17.9l14.89-9.667l29.779-3.392l14.89,3.489l14.89,5.764l14.89-20.264l14.89,2.267l14.89,0.202l29.779-4.42l14.89,8.744
				l14.89-6.687l14.89-2.364l14.89,10.492l14.89,0.405l14.89,4.323"/>
		</g>
		<g>
			<path fill="none" stroke="#B6D7A8" stroke-width="3" stroke-miterlimit="2" d="M83.233,433.307l14.89-12.435l14.89-4.153
				l14.89-1.012l14.89-1.724l14.89,10.096l14.89-8.768l14.89-8.679l14.89-11.342l14.89-0.866l14.89,8.533l14.89-4.696l14.89,2.655
				l14.89,4.072l14.89,0.081l14.89-0.081l14.89-2.267l14.89,10.792l14.89,1.959l14.89-7.829l14.89-3.36l14.89,12.905l14.89,4.93
				l14.89,1.02l14.89,7.667l14.89,5.942l14.89,11.504l14.89,9.464l14.89,3.757l14.89-5.165l14.89,2.113l14.89,8.209l14.89-2.574
				l14.89,2.34l14.89-3.279l14.89,9.076l14.89-3.368l14.89,0.551l14.89,5.084l14.89,6.023l14.89-4.615"/>
		</g>
		<g>
			<path fill="none" stroke="#000000" stroke-width="3" stroke-miterlimit="2" stroke-dasharray="9,9" d="M83.233,433.307
				l29.779,3.53l14.89,0.599l14.89,1.069l14.89,0.356l14.89-3.336l14.89-1.312l29.779-2.064l14.89,1.214l14.89-6.153l14.89,0.429
				l14.89-0.316l14.89,0.761l14.89,1.004l14.89-3.263l14.89,5.457l14.89-3.133l14.89,4.76l14.89,0.251l14.89,7.651l14.89,2.68
				l14.89-7.359l14.89,0.105l14.89-0.372l14.89,1.255l14.89,1.781l14.89-0.526l14.89-5.538l14.89-2.664l14.89,4.623l14.89-0.575
				l14.89-3.117l14.89-1.684l14.89,5.91l14.89-1.838l14.89-5.173l14.89,4.08l14.89-1.158l14.89-3.222"/>
		</g>
	</g>
	<path fill="none" stroke="#000000" stroke-opacity="0" d="M80.505,351.813V491.55"/>
	<g transform="translate(80,276.79999999999995)">
	</g>
	<g transform="translate(80,276.79999999999995)">
		<g>
			<text transform="matrix(1.3473 0 0 1 -16.0996 205.7303)" fill="#444444" font-family="'OpenSans'" font-size="9.7152">97</text>
		</g>
		<g>
			<text transform="matrix(1.3473 0 0 1 -16.0996 191.1014)" fill="#444444" font-family="'OpenSans'" font-size="9.7152">98</text>
		</g>
		<g>
			<text transform="matrix(1.3473 0 0 1 -16.0996 176.4793)" fill="#444444" font-family="'OpenSans'" font-size="9.7152">99</text>
		</g>
		<g>
			<text transform="matrix(1.3473 0 0 1 -23.584 161.8504)" fill="#444444" font-family="'OpenSans'" font-size="9.7152">100</text>
		</g>
		<g>
			<text transform="matrix(1.3473 0 0 1 -23.584 147.2205)" fill="#444444" font-family="'OpenSans'" font-size="9.7152">101</text>
		</g>
		<g>
			<text transform="matrix(1.3473 0 0 1 -23.584 132.5994)" fill="#444444" font-family="'OpenSans'" font-size="9.7152">102</text>
		</g>
		<g>
			<text transform="matrix(1.3473 0 0 1 -23.584 117.9695)" fill="#444444" font-family="'OpenSans'" font-size="9.7152">103</text>
		</g>
		<g>
			<text transform="matrix(1.3473 0 0 1 -23.584 103.3406)" fill="#444444" font-family="'OpenSans'" font-size="9.7152">104</text>
		</g>
		<g>
			<text transform="matrix(1.3473 0 0 1 -23.584 88.7108)" fill="#444444" font-family="'OpenSans'" font-size="9.7152">105</text>
		</g>
	</g>
</g>
<g>
	<rect x="82.142" y="210.7" fill="#FFFFFF" width="595.583" height="143.137"/>
	<g transform="translate(80,100)">
		<path stroke="#D9D9D9" d="M151.037,110.7v143.137"/>
		<path stroke="#D9D9D9" d="M448.829,110.7v143.137"/>
		<path stroke="#D9D9D9" d="M2.142,228.157h595.583"/>
		<path stroke="#D9D9D9" d="M2.142,184.236h595.583"/>
		<path stroke="#D9D9D9" d="M2.142,140.315h595.583"/>
	</g>
	<g transform="translate(80,100)">
		<path stroke="#CCCCCC" stroke-width="2" d="M299.933,110.7v143.137"/>
	</g>
	<g>
		<g>
			<path fill="none" stroke="#000000" stroke-width="3" stroke-miterlimit="2" stroke-dasharray="9,9" d="M82.142,240.315
				l29.779,10.598l14.89,1.814l14.89,3.206l14.89,1.069l14.89-10.031l14.89-3.918l29.779-6.218l14.89,3.643l14.89-18.459
				l14.89,1.287l14.89-0.963l14.89,2.283l14.89,3.028l14.89-9.796l14.89,16.378l14.89-9.408l14.89,14.306l14.89,0.753l14.89,22.968
				l14.89,8.047l14.89-22.102l14.89,0.324l14.89-1.133l14.89,3.781l14.89,5.343l14.89-1.587l14.89-16.621l14.89-7.991l14.89,13.885
				l14.89-1.741l14.89-9.343l14.89-5.06l14.89,17.73l14.89-5.505l14.89-15.544l14.89,12.265l14.89-3.497l14.89-9.675"/>
		</g>
		<g>
			<path fill="none" stroke="#000000" stroke-width="3" stroke-miterlimit="2" stroke-dasharray="3,3" d="M82.142,240.315
				l14.89-6.509l14.89-10.946l14.89-4.016l14.89,0.154l14.89,20.013l14.89,4.469l14.89-4.445l14.89,13.682l14.89-3.417l14.89-9.537
				l14.89-10.662l14.89,0.097l14.89,4.712l14.89,26.838l14.89,2.056l14.89-4.461l14.89-14.532l14.89-1.627l14.89,1.894l14.89-3.101
				l14.89,12.371l14.89,17.455l14.89,14.654l14.89,12.055l14.89,23.187l14.89,18.329l14.89,5.797l14.89,1.854l14.89-26.522
				l14.89,4.955l14.89-12.079l14.89,14.743l14.89-1.984l14.89-0.81l14.89-14.743l14.89,7.165l14.89-5.837l14.89-11.011l14.89-10.889
				l14.89-1.506"/>
		</g>
	</g>
	<path fill="none" stroke="#000000" stroke-opacity="0" d="M81.051,355.052h597.765"/>
	<path fill="none" stroke="#000000" stroke-opacity="0" d="M81.596,210.7v143.947"/>
	<g transform="translate(80,100)">
	</g>
	<g transform="translate(80,100)">
		<g>
			<text transform="matrix(1.3473 0 0 1 -15.0078 233.8232)" fill="#444444" font-family="'OpenSans'" font-size="9.7152">98</text>
		</g>
		<g>
			<text transform="matrix(1.3473 0 0 1 -15.0078 189.9023)" fill="#444444" font-family="'OpenSans'" font-size="9.7152">99</text>
		</g>
		<g>
			<text transform="matrix(1.3473 0 0 1 -22.4922 145.9824)" fill="#444444" font-family="'OpenSans'" font-size="9.7152">100</text>
		</g>
	</g>
</g>
<g>
	<g>
		<text transform="matrix(1 0 0 1 151.7001 82.5786)" fill="#444444" font-family="'OpenSans'" font-size="17">GBP USD during UK general elections by winning party</text>
	</g>
</g>
<g>
	<g>
		<g>
			<path stroke="#444444" stroke-width="2" stroke-dasharray="87.8022,91.0022" d="M500.875,668.905l186.336,0.636"/>
			<path fill="#444444" d="M678.962,665.089l4.329,4.027l-0.006,0.8l-4.388,3.973l1.732,1.611l6.582-5.96l-6.494-6.04
				L678.962,665.089z"/>
			<path fill-opacity="0" stroke="#000000" stroke-width="8" stroke-opacity="0" d="M690.481,672.541h-6.538v-6h6.538V672.541z
				 M500.875,668.905 M687.211,669.541"/>
		</g>
	</g>
	<g>
		<g transform="rotate(0,145.453237410072,678.9756097560976)">
			<rect x="70.5" y="659.5" fill-opacity="0" stroke="#000000" stroke-opacity="0" width="107.879" height="20"/>
			<text transform="matrix(1.0897 0 0 1 72.1465 674)" fill="#444444" font-family="'OpenSans'" font-size="12">Pre-election days</text>
		</g>
		<g>
			<path stroke="#444444" stroke-width="2" d="M178.873,669.976h191.703"/>
			<path fill-opacity="0" stroke="#000000" stroke-width="8" stroke-opacity="0" d="M375.688,672.976h-10.224v-6h10.224V672.976z
				 M370.576,669.976H178.873"/>
		</g>
	</g>
	<g transform="rotate(0,481.03597122302153,677.9756097560976)">
		<rect x="384.279" y="659.5" fill-opacity="0" stroke="#000000" stroke-opacity="0" width="113.327" height="20"/>
		<text transform="matrix(1.0897 0 0 1 385.915 674)" fill="#444444" font-family="'OpenSans'" font-size="12">Post-election days</text>
	</g>
</g>
<g>
	<path stroke="#444444" stroke-width="2" d="M502.51,668.976h183.089"/>
	<path fill-opacity="0" stroke="#000000" stroke-width="8" stroke-opacity="0" d="M690.481,671.976h-9.765v-6h9.765V671.976z
		 M685.598,668.976H502.51"/>
</g>
<g>
	<g transform="translate(-8.7998046875,0)">
		
			<text transform="matrix(6.123234e-17 -1 1 6.123234e-17 -126.493 573.1992)" fill="#353535" font-family="'OpenSans'" font-size="14">Conservative</text>
		
			<text transform="matrix(6.123234e-17 -1 1 6.123234e-17 -108.293 564.7656)" fill="#353535" font-family="'OpenSans'" font-size="14">party wins</text>
	</g>
	<g transform="translate(-8.806640625,0)">
		
			<text transform="matrix(6.123234e-17 -1 1 6.123234e-17 -126.493 382.6562)" fill="#353535" font-family="'OpenSans'" font-size="14">Labour</text>
		
			<text transform="matrix(6.123234e-17 -1 1 6.123234e-17 -108.293 393.166)" fill="#353535" font-family="'OpenSans'" font-size="14">party wins</text>
	</g>
	<g transform="translate(-8.802734375,0)">
		
			<text transform="matrix(6.123234e-17 -1 1 6.123234e-17 -126.493 225.0889)" fill="#353535" font-family="'OpenSans'" font-size="14">Comparison</text>
		
			<text transform="matrix(6.123234e-17 -1 1 6.123234e-17 -108.293 215.6445)" fill="#353535" font-family="'OpenSans'" font-size="14">of means</text>
	</g>
</g>
<g>
	<g transform="translate(0,14.5)">
		<g>
			<path fill="none" stroke="#000000" stroke-width="3" stroke-dasharray="9,9" d="M705.211,271.561h30"/>
		</g>
		<text transform="matrix(1 0 0 1 740.2115 276.2403)" fill="#444444" font-family="'OpenSans'" font-size="12">Labour Mean</text>
		<rect x="700.211" y="262.061" pointer-events="all" fill-opacity="0" width="146.969" height="19"/>
	</g>
	<g transform="translate(0,33.5)">
		<g>
			<path fill="none" stroke="#B6D7A8" stroke-width="3" d="M705.211,271.561h30"/>
		</g>
		<text transform="matrix(1 0 0 1 740.2115 276.2403)" fill="#444444" font-family="'OpenSans'" font-size="12">2005-05-05</text>
		<rect x="700.211" y="262.061" pointer-events="all" fill-opacity="0" width="146.969" height="19"/>
	</g>
	<g transform="translate(0,52.5)">
		<g>
			<path fill="none" stroke="#F0F9E8" stroke-width="3" d="M705.211,271.561h30"/>
		</g>
		<text transform="matrix(1 0 0 1 740.2115 276.2403)" fill="#444444" font-family="'OpenSans'" font-size="12">2001-06-07</text>
		<rect x="700.211" y="262.061" pointer-events="all" fill-opacity="0" width="146.969" height="19"/>
	</g>
	<g transform="translate(0,71.5)">
		<g>
			<path fill="none" stroke="#7BCCC4" stroke-width="3" d="M705.211,271.561h30"/>
		</g>
		<text transform="matrix(1 0 0 1 740.2115 276.2403)" fill="#444444" font-family="'OpenSans'" font-size="12">1997-05-01</text>
		<rect x="700.211" y="262.061" pointer-events="all" fill-opacity="0" width="146.969" height="19"/>
	</g>
	<g transform="translate(0,90.5)">
		<g>
			<path fill="none" stroke="#43A2CA" stroke-width="3" d="M705.211,271.561h30"/>
		</g>
		<text transform="matrix(1 0 0 1 740.2115 276.2403)" fill="#444444" font-family="'OpenSans'" font-size="12">1974-10-10</text>
		<rect x="700.211" y="262.061" pointer-events="all" fill-opacity="0" width="146.969" height="19"/>
	</g>
	<g transform="translate(0,109.5)">
		<g>
			<path fill="none" stroke="#0868AC" stroke-width="3" d="M705.211,271.561h30"/>
		</g>
		<text transform="matrix(1 0 0 1 740.2115 276.2403)" fill="#444444" font-family="'OpenSans'" font-size="12">1974-02-28</text>
		<rect x="700.211" y="262.061" pointer-events="all" fill-opacity="0" width="146.969" height="19"/>
	</g>
	<g transform="translate(0,128.5)">
		<g>
			<path fill="none" stroke="#000000" stroke-width="3" stroke-dasharray="3,3" d="M705.211,271.561h30"/>
		</g>
		<text transform="matrix(1 0 0 1 740.2115 276.2403)" fill="#444444" font-family="'OpenSans'" font-size="12">Conservative Mean</text>
		<rect x="700.211" y="262.061" pointer-events="all" fill-opacity="0" width="146.969" height="19"/>
	</g>
	<g transform="translate(0,147.5)">
		<g>
			<path fill="none" stroke="#FEF0D9" stroke-width="3" d="M705.211,271.561h30"/>
		</g>
		<text transform="matrix(1 0 0 1 740.2115 276.2403)" fill="#444444" font-family="'OpenSans'" font-size="12">2010-05-06</text>
		<rect x="700.211" y="262.061" pointer-events="all" fill-opacity="0" width="146.969" height="19"/>
	</g>
	<g transform="translate(0,166.5)">
		<g>
			<path fill="none" stroke="#FDCC8A" stroke-width="3" d="M705.211,271.561h30"/>
		</g>
		<text transform="matrix(1 0 0 1 740.2115 276.2403)" fill="#444444" font-family="'OpenSans'" font-size="12">1992-04-09</text>
		<rect x="700.211" y="262.061" pointer-events="all" fill-opacity="0" width="146.969" height="19"/>
	</g>
	<g transform="translate(0,185.5)">
		<g>
			<path fill="none" stroke="#FC8D59" stroke-width="3" d="M705.211,271.561h30"/>
		</g>
		<text transform="matrix(1 0 0 1 740.2115 276.2403)" fill="#444444" font-family="'OpenSans'" font-size="12">1987-06-11</text>
		<rect x="700.211" y="262.061" pointer-events="all" fill-opacity="0" width="146.969" height="19"/>
	</g>
	<g transform="translate(0,204.5)">
		<g>
			<path fill="none" stroke="#E34A33" stroke-width="3" d="M705.211,271.561h30"/>
		</g>
		<text transform="matrix(1 0 0 1 740.2115 276.2403)" fill="#444444" font-family="'OpenSans'" font-size="12">1983-06-09</text>
		<rect x="700.211" y="262.061" pointer-events="all" fill-opacity="0" width="146.969" height="19"/>
	</g>
	<g transform="translate(0,223.5)">
		<g>
			<path fill="none" stroke="#B30000" stroke-width="3" d="M705.211,271.561h30"/>
		</g>
		<text transform="matrix(1 0 0 1 740.2115 276.2403)" fill="#444444" font-family="'OpenSans'" font-size="12">1979-05-03</text>
		<rect x="700.211" y="262.061" pointer-events="all" fill-opacity="0" width="146.969" height="19"/>
	</g>
</g>
</svg>
