<?xml version="1.0" encoding="utf-8"?>
<!-- Generator: Adobe Illustrator 18.0.0, SVG Export Plug-In . SVG Version: 6.00 Build 0)  -->
<!DOCTYPE svg PUBLIC "-//W3C//DTD SVG 1.1//EN" "http://www.w3.org/Graphics/SVG/1.1/DTD/svg11.dtd">
<svg version="1.1" xmlns="http://www.w3.org/2000/svg" xmlns:xlink="http://www.w3.org/1999/xlink" x="0px" y="0px"
	 viewBox="0 27.6 600 380.4" enable-background="new 0 27.6 600 380.4" xml:space="preserve">
<g id="Layer_1">
	<rect fill="#FFFFFF" width="600" height="600"/>
	<g>
		<g transform="translate(80,100)">
		</g>
	</g>
	<g>
		<rect x="131.1" y="93.6" fill="#FFFFFF" width="304.4" height="290.5"/>
		<g transform="translate(80,100)">
		</g>
		<g transform="translate(80,100)">
		</g>
		<g>
			<g>
				<g>
					<path opacity="0.6" fill="#B20A1C" stroke="#FFFFFF" stroke-miterlimit="2" enable-background="new    " d="M250.7,338.9
						c0,7.7-6.3,14-14,14c-7.7,0-14-6.3-14-14c0-7.7,6.3-14,14-14l0,0C244.4,324.9,250.7,331.2,250.7,338.9z"/>
					<path opacity="0.6" fill="#F1C7A8" stroke="#FFFFFF" stroke-miterlimit="2" enable-background="new    " d="M328.5,348.5
						c0,5.9-4.7,10.6-10.6,10.6c-5.9,0-10.6-4.7-10.6-10.6c0-5.9,4.7-10.6,10.6-10.6C323.8,337.9,328.5,342.6,328.5,348.5
						L328.5,348.5z"/>
					<path opacity="0.6" fill="#B20A1C" stroke="#FFFFFF" stroke-miterlimit="2" enable-background="new    " d="M257.8,356
						c0,8.3-6.7,15.1-15.1,15.1c-8.3,0-15.1-6.7-15.1-15.1s6.7-15.1,15.1-15.1l0,0C251.1,340.9,257.8,347.7,257.8,356z"/>
					<path opacity="0.6" fill="#B20A1C" stroke="#FFFFFF" stroke-miterlimit="2" enable-background="new    " d="M259.4,271.3
						c0,6.8-5.5,12.3-12.3,12.3c-6.8,0-12.3-5.5-12.3-12.3c0-6.8,5.5-12.3,12.3-12.3C253.9,259,259.4,264.5,259.4,271.3
						C259.4,271.3,259.4,271.3,259.4,271.3z"/>
					<path opacity="0.6" fill="#C53431" stroke="#FFFFFF" stroke-miterlimit="2" enable-background="new    " d="M393.1,237.9
						c0,3.9-3.1,7-7,7c-3.9,0-7-3.1-7-7c0-3.9,3.1-7,7-7c0,0,0,0,0,0C390,230.9,393.1,234,393.1,237.9z"/>
					<path opacity="0.6" fill="#B20A1C" stroke="#FFFFFF" stroke-miterlimit="2" enable-background="new    " d="M282.9,352.6
						c0,11.3-9.1,20.4-20.4,20.4c-11.3,0-20.4-9.1-20.4-20.4c0-11.3,9.1-20.4,20.4-20.4l0,0C273.8,332.2,282.9,341.3,282.9,352.6z"
						/>
					<path opacity="0.6" fill="#DCDCDC" stroke="#FFFFFF" stroke-miterlimit="2" enable-background="new    " d="M231.2,308.9
						c0,3.9-3.2,7.1-7.1,7.1s-7.1-3.2-7.1-7.1s3.2-7.1,7.1-7.1S231.2,304.9,231.2,308.9z"/>
					<path opacity="0.6" fill="#F1C7A8" stroke="#FFFFFF" stroke-miterlimit="2" enable-background="new    " d="M319,311.2
						c0,3.7-3,6.7-6.7,6.7s-6.7-3-6.7-6.7s3-6.7,6.7-6.7l0,0C315.9,304.5,319,307.5,319,311.2z"/>
					<path opacity="0.6" fill="#F1C7A8" stroke="#FFFFFF" stroke-miterlimit="2" enable-background="new    " d="M307.5,304.8
						c0,3.9-3.2,7.1-7.1,7.1s-7.1-3.2-7.1-7.1c0-3.9,3.2-7.1,7.1-7.1c0,0,0,0,0,0C304.3,297.7,307.5,300.9,307.5,304.8z"/>
					<path opacity="0.6" fill="#DCDCDC" stroke="#FFFFFF" stroke-miterlimit="2" enable-background="new    " d="M202.7,287.2
						c0,4.7-3.8,8.5-8.5,8.5s-8.5-3.8-8.5-8.5c0-4.7,3.8-8.5,8.5-8.5l0,0C198.9,278.7,202.7,282.5,202.7,287.2z"/>
					<path opacity="0.6" fill="#C53431" stroke="#FFFFFF" stroke-miterlimit="2" enable-background="new    " d="M389.2,352.4
						c0,6.2-5,11.3-11.3,11.3s-11.3-5-11.3-11.3s5-11.3,11.3-11.3c0,0,0,0,0,0C384.1,341.1,389.2,346.2,389.2,352.4z"/>
					<path opacity="0.6" fill="#F1C7A8" stroke="#FFFFFF" stroke-miterlimit="2" enable-background="new    " d="M306.8,318.7
						c0,2-1.6,3.5-3.5,3.5c-2,0-3.5-1.6-3.5-3.5c0-2,1.6-3.5,3.5-3.5C305.2,315.1,306.8,316.7,306.8,318.7
						C306.8,318.7,306.8,318.7,306.8,318.7z"/>
					<path opacity="0.6" fill="#B20A1C" stroke="#FFFFFF" stroke-miterlimit="2" enable-background="new    " d="M282.9,335.1
						c0,5.6-4.6,10.2-10.2,10.2s-10.2-4.6-10.2-10.2s4.6-10.2,10.2-10.2S282.9,329.5,282.9,335.1L282.9,335.1z"/>
					<path opacity="0.6" fill="#B20A1C" stroke="#FFFFFF" stroke-miterlimit="2" enable-background="new    " d="M261.5,347
						c0,3.8-3.1,6.8-6.8,6.8s-6.8-3.1-6.8-6.8s3.1-6.8,6.8-6.8l0,0C258.5,340.2,261.5,343.2,261.5,347z"/>
					<path opacity="0.6" fill="#EA875C" stroke="#FFFFFF" stroke-miterlimit="2" enable-background="new    " d="M373.5,182.6
						c0,4.3-3.5,7.8-7.8,7.8s-7.8-3.5-7.8-7.8s3.5-7.8,7.8-7.8S373.5,178.2,373.5,182.6L373.5,182.6z"/>
					<path opacity="0.6" fill="#B20A1C" stroke="#FFFFFF" stroke-miterlimit="2" enable-background="new    " d="M268.4,326
						c0,4.7-3.8,8.5-8.5,8.5s-8.5-3.8-8.5-8.5s3.8-8.5,8.5-8.5c0,0,0,0,0,0C264.6,317.5,268.4,321.3,268.4,326z"/>
					<path opacity="0.6" fill="#F1C7A8" stroke="#FFFFFF" stroke-miterlimit="2" enable-background="new    " d="M330.8,297.6
						c0,7.1-5.8,12.9-12.9,12.9s-12.9-5.8-12.9-12.9s5.8-12.9,12.9-12.9c0,0,0,0,0,0C325,284.7,330.8,290.5,330.8,297.6z"/>
					<path opacity="0.6" fill="#D75D47" stroke="#FFFFFF" stroke-miterlimit="2" enable-background="new    " d="M316.1,164.9
						c0,7.8-6.3,14.2-14.2,14.2c-7.8,0-14.2-6.3-14.2-14.2s6.3-14.2,14.2-14.2C309.8,150.7,316.1,157.1,316.1,164.9L316.1,164.9z"/>
					<path opacity="0.6" fill="#B20A1C" stroke="#FFFFFF" stroke-miterlimit="2" enable-background="new    " d="M281.3,334.3
						c0,5.1-4.1,9.2-9.2,9.2s-9.2-4.1-9.2-9.2s4.1-9.2,9.2-9.2S281.3,329.2,281.3,334.3C281.3,334.3,281.3,334.3,281.3,334.3z"/>
					<path opacity="0.6" fill="#B20A1C" stroke="#FFFFFF" stroke-miterlimit="2" enable-background="new    " d="M258.3,276.4
						c0,4.5-3.6,8.1-8.1,8.1c-4.5,0-8.1-3.6-8.1-8.1s3.6-8.1,8.1-8.1C254.7,268.3,258.3,271.9,258.3,276.4L258.3,276.4z"/>
					<path opacity="0.6" fill="#C53431" stroke="#FFFFFF" stroke-miterlimit="2" enable-background="new    " d="M460.2,277
						c0,3.5-2.9,6.4-6.4,6.4c-3.5,0-6.4-2.9-6.4-6.4c0-3.5,2.9-6.4,6.4-6.4c0,0,0,0,0,0C457.4,270.7,460.2,273.5,460.2,277z"/>
					<path opacity="0.6" fill="#DCDCDC" stroke="#FFFFFF" stroke-miterlimit="2" enable-background="new    " d="M221.6,336.7
						c0,9.2-7.5,16.6-16.6,16.6c-9.2,0-16.6-7.5-16.6-16.6S195.8,320,205,320C214.2,320,221.6,327.5,221.6,336.7
						C221.6,336.7,221.6,336.7,221.6,336.7z"/>
					<path opacity="0.6" fill="#DCDCDC" stroke="#FFFFFF" stroke-miterlimit="2" enable-background="new    " d="M191.2,246.7
						c0,3.9-3.2,7.1-7.1,7.1c-3.9,0-7.1-3.2-7.1-7.1s3.2-7.1,7.1-7.1c0,0,0,0,0,0C188,239.6,191.2,242.8,191.2,246.7z"/>
					<path opacity="0.6" fill="#F1C7A8" stroke="#FFFFFF" stroke-miterlimit="2" enable-background="new    " d="M328.6,333
						c0,6.2-5,11.2-11.2,11.2c-6.2,0-11.2-5-11.2-11.2s5-11.2,11.2-11.2C323.5,321.8,328.6,326.8,328.6,333z"/>
					<path opacity="0.6" fill="#D75D47" stroke="#FFFFFF" stroke-miterlimit="2" enable-background="new    " d="M271.3,141.7
						c0,2.6-2.1,4.7-4.7,4.7s-4.7-2.1-4.7-4.7c0-2.6,2.1-4.7,4.7-4.7S271.3,139.2,271.3,141.7C271.3,141.7,271.3,141.7,271.3,141.7z
						"/>
					<path opacity="0.6" fill="#F1C7A8" stroke="#FFFFFF" stroke-miterlimit="2" enable-background="new    " d="M336.5,336.7
						c0,8-6.5,14.6-14.6,14.6s-14.6-6.5-14.6-14.6s6.5-14.6,14.6-14.6c0,0,0,0,0,0C330,322.1,336.5,328.7,336.5,336.7z"/>
					<path opacity="0.6" fill="#D75D47" stroke="#FFFFFF" stroke-miterlimit="2" enable-background="new    " d="M326.3,207.9
						c0,3.5-2.8,6.3-6.3,6.3c-3.5,0-6.3-2.8-6.3-6.3s2.8-6.3,6.3-6.3c0,0,0,0,0,0C323.5,201.7,326.3,204.5,326.3,207.9z"/>
					<path opacity="0.6" fill="#F1C7A8" stroke="#FFFFFF" stroke-miterlimit="2" enable-background="new    " d="M305.9,326.4
						c0,5.2-4.2,9.4-9.4,9.4c-5.2,0-9.4-4.2-9.4-9.4s4.2-9.4,9.4-9.4c0,0,0,0,0,0C301.7,317,305.9,321.2,305.9,326.4z"/>
					<path opacity="0.6" fill="#EA875C" stroke="#FFFFFF" stroke-miterlimit="2" enable-background="new    " d="M371.7,139.5
						c0,6.1-5,11.1-11.1,11.1s-11.1-5-11.1-11.1c0-6.1,5-11.1,11.1-11.1c0,0,0,0,0,0C366.7,128.3,371.7,133.3,371.7,139.5z"/>
					<path opacity="0.6" fill="#F1C7A8" stroke="#FFFFFF" stroke-miterlimit="2" enable-background="new    " d="M319.2,331.9
						c0,5.9-4.8,10.6-10.6,10.6c-5.9,0-10.6-4.8-10.6-10.6s4.8-10.6,10.6-10.6C314.5,321.3,319.2,326,319.2,331.9
						C319.2,331.9,319.2,331.9,319.2,331.9z"/>
					<path opacity="0.6" fill="#F1C7A8" stroke="#FFFFFF" stroke-miterlimit="2" enable-background="new    " d="M326.6,352.1
						c0,7.3-5.9,13.2-13.2,13.2c-7.3,0-13.2-5.9-13.2-13.2s5.9-13.2,13.2-13.2C320.6,338.8,326.6,344.7,326.6,352.1L326.6,352.1z"/>
					<path opacity="0.6" fill="#DCDCDC" stroke="#FFFFFF" stroke-miterlimit="2" enable-background="new    " d="M191,270.1
						c0,3.7-3,6.7-6.7,6.7s-6.7-3-6.7-6.7c0-3.7,3-6.7,6.7-6.7S191,266.4,191,270.1L191,270.1z"/>
					<path opacity="0.6" fill="#EA875C" stroke="#FFFFFF" stroke-miterlimit="2" enable-background="new    " d="M376.1,242
						c0,8.3-6.7,15-15,15s-15-6.7-15-15c0-8.3,6.7-15,15-15l0,0C369.3,226.9,376.1,233.7,376.1,242z"/>
					<path opacity="0.6" fill="#EA875C" stroke="#FFFFFF" stroke-miterlimit="2" enable-background="new    " d="M339.9,98.9
						c0,7.2-5.8,13-13,13c-7.2,0-13-5.8-13-13c0-7.2,5.8-13,13-13c0,0,0,0,0,0C334.1,85.9,339.9,91.7,339.9,98.9z"/>
					<path opacity="0.6" fill="#DCDCDC" stroke="#FFFFFF" stroke-miterlimit="2" enable-background="new    " d="M215.3,284.5
						c0,4.6-3.7,8.3-8.3,8.3s-8.3-3.7-8.3-8.3s3.7-8.3,8.3-8.3S215.3,279.9,215.3,284.5C215.3,284.5,215.3,284.5,215.3,284.5z"/>
					<path opacity="0.6" fill="#F1C7A8" stroke="#FFFFFF" stroke-miterlimit="2" enable-background="new    " d="M342.5,281.3
						c0,4.3-3.5,7.8-7.8,7.8s-7.8-3.5-7.8-7.8c0-4.3,3.5-7.8,7.8-7.8S342.5,277,342.5,281.3L342.5,281.3z"/>
					<path opacity="0.6" fill="#C53431" stroke="#FFFFFF" stroke-miterlimit="2" enable-background="new    " d="M429.2,299.4
						c0,2.5-2,4.5-4.5,4.5c-2.5,0-4.5-2-4.5-4.5c0-2.5,2-4.5,4.5-4.5c0,0,0,0,0,0C427.2,294.9,429.2,296.9,429.2,299.4z"/>
					<path opacity="0.6" fill="#C53431" stroke="#FFFFFF" stroke-miterlimit="2" enable-background="new    " d="M433.1,285
						c0,8.3-6.8,15.1-15.1,15.1s-15.1-6.8-15.1-15.1s6.8-15.1,15.1-15.1S433.1,276.6,433.1,285L433.1,285z"/>
					<path opacity="0.6" fill="#F1C7A8" stroke="#FFFFFF" stroke-miterlimit="2" enable-background="new    " d="M324.2,353.6
						c0,7.9-6.4,14.4-14.4,14.4s-14.4-6.4-14.4-14.4s6.4-14.4,14.4-14.4S324.2,345.7,324.2,353.6
						C324.2,353.6,324.2,353.6,324.2,353.6z"/>
					<path opacity="0.6" fill="#DCDCDC" stroke="#FFFFFF" stroke-miterlimit="2" enable-background="new    " d="M230.8,187.2
						c0,4.8-3.9,8.7-8.7,8.7s-8.7-3.9-8.7-8.7s3.9-8.7,8.7-8.7c0,0,0,0,0,0C226.9,178.5,230.8,182.4,230.8,187.2z"/>
					<path opacity="0.6" fill="#D75D47" stroke="#FFFFFF" stroke-miterlimit="2" enable-background="new    " d="M302.2,227
						c0,4.4-3.5,7.9-7.9,7.9c-4.4,0-7.9-3.5-7.9-7.9s3.5-7.9,7.9-7.9C298.6,219.1,302.2,222.7,302.2,227L302.2,227z"/>
					<path opacity="0.6" fill="#B20A1C" stroke="#FFFFFF" stroke-miterlimit="2" enable-background="new    " d="M281,268
						c0,6.9-5.6,12.6-12.6,12.6s-12.6-5.6-12.6-12.6s5.6-12.6,12.6-12.6c0,0,0,0,0,0C275.4,255.4,281,261,281,268z"/>
					<path opacity="0.6" fill="#DCDCDC" stroke="#FFFFFF" stroke-miterlimit="2" enable-background="new    " d="M228.8,273.2
						c0,4.6-3.7,8.4-8.4,8.4s-8.4-3.7-8.4-8.4s3.7-8.4,8.4-8.4l0,0C225.1,264.8,228.8,268.6,228.8,273.2z"/>
					<path opacity="0.6" fill="#B20A1C" stroke="#FFFFFF" stroke-miterlimit="2" enable-background="new    " d="M244,296.4
						c0,5.6-4.6,10.2-10.2,10.2s-10.2-4.6-10.2-10.2s4.6-10.2,10.2-10.2S244,290.8,244,296.4C244,296.4,244,296.4,244,296.4z"/>
					<path opacity="0.6" fill="#DCDCDC" stroke="#FFFFFF" stroke-miterlimit="2" enable-background="new    " d="M214,209.4
						c0,2.4-2,4.4-4.4,4.4c-2.4,0-4.4-2-4.4-4.4c0-2.4,2-4.4,4.4-4.4C212,205,214,206.9,214,209.4C214,209.4,214,209.4,214,209.4z"
						/>
					<path opacity="0.6" fill="#DCDCDC" stroke="#FFFFFF" stroke-miterlimit="2" enable-background="new    " d="M192.3,284.5
						c0,7.1-5.8,12.9-12.9,12.9s-12.9-5.8-12.9-12.9s5.8-12.9,12.9-12.9l0,0C186.6,271.6,192.3,277.4,192.3,284.5z"/>
					<path opacity="0.6" fill="#C53431" stroke="#FFFFFF" stroke-miterlimit="2" enable-background="new    " d="M400.4,248.4
						c0,3.1-2.5,5.5-5.5,5.5c-3.1,0-5.5-2.5-5.5-5.5s2.5-5.5,5.5-5.5C397.9,242.9,400.4,245.4,400.4,248.4L400.4,248.4z"/>
					<path opacity="0.6" fill="#D75D47" stroke="#FFFFFF" stroke-miterlimit="2" enable-background="new    " d="M301.7,251.1
						c0,3-2.4,5.4-5.4,5.4s-5.4-2.4-5.4-5.4c0-3,2.4-5.4,5.4-5.4l0,0C299.3,245.6,301.7,248.1,301.7,251.1z"/>
					<path opacity="0.6" fill="#DCDCDC" stroke="#FFFFFF" stroke-miterlimit="2" enable-background="new    " d="M226.5,305.1
						c0,6.3-5.1,11.5-11.5,11.5s-11.5-5.1-11.5-11.5c0-6.3,5.1-11.5,11.5-11.5l0,0C221.3,293.6,226.5,298.7,226.5,305.1z"/>
					<path opacity="0.6" fill="#DCDCDC" stroke="#FFFFFF" stroke-miterlimit="2" enable-background="new    " d="M199,271.5
						c0,8.5-6.9,15.5-15.5,15.5s-15.5-6.9-15.5-15.5S175,256,183.6,256l0,0C192.1,256,199,263,199,271.5z"/>
					<path opacity="0.6" fill="#B20A1C" stroke="#FFFFFF" stroke-miterlimit="2" enable-background="new    " d="M272.2,288.9
						c0,3.7-3,6.7-6.7,6.7s-6.7-3-6.7-6.7s3-6.7,6.7-6.7c0,0,0,0,0,0C269.2,282.2,272.2,285.2,272.2,288.9z"/>
					<path opacity="0.6" fill="#DCDCDC" stroke="#FFFFFF" stroke-miterlimit="2" enable-background="new    " d="M195.7,237.6
						c0,4.9-4,8.9-8.9,8.9c-4.9,0-8.9-4-8.9-8.9c0-4.9,4-8.9,8.9-8.9C191.7,228.7,195.7,232.7,195.7,237.6L195.7,237.6z"/>
					<path opacity="0.6" fill="#D75D47" stroke="#FFFFFF" stroke-miterlimit="2" enable-background="new    " d="M269.2,194.9
						c0,2.6-2.1,4.8-4.8,4.8s-4.8-2.1-4.8-4.8s2.1-4.8,4.8-4.8S269.2,192.3,269.2,194.9C269.2,194.9,269.2,194.9,269.2,194.9z"/>
					<path opacity="0.6" fill="#B20A1C" stroke="#FFFFFF" stroke-miterlimit="2" enable-background="new    " d="M275.2,287
						c0,3.4-2.8,6.2-6.2,6.2c-3.4,0-6.2-2.8-6.2-6.2c0-3.4,2.8-6.2,6.2-6.2C272.5,280.9,275.2,283.6,275.2,287
						C275.2,287,275.2,287,275.2,287z"/>
				</g>
			</g>
			<g>
				<polygon fill="#D75D47" stroke="#FFFFFF" stroke-miterlimit="10" points="265,141.3 260.5,146.1 260.5,153.7 165.5,153.7 
					165.5,129.8 260.2,129.8 260.5,137.2 				"/>
				<g>
					<text transform="matrix(1 0 0 1 169.8584 139.6509)" enable-background="new    "><tspan x="0" y="0" fill="#FFFFFF" font-family="'ArialMT'" font-size="8.4601">(-2.40478, 8.587861)</tspan><tspan x="0" y="10.2" fill="#FFFFFF" font-family="'ArialMT'" font-size="8.4601">Harbor East / Little Italy</tspan></text>
				</g>
			</g>
			<g>
				<g>
					<path fill="#DCDCDC" d="M201.2,272.3l2.9,2.9l2.9-2.9l-2.9-2.9l2.9-2.9l-2.9-2.9l-2.9,2.9l-2.9-2.9l-2.9,2.9l2.9,2.9l-2.9,2.9
						l2.9,2.9L201.2,272.3z"/>
					<path fill="#F1C7A8" d="M312.8,327.6l2.9,2.9l2.9-2.9l-2.9-2.9l2.9-2.9l-2.9-2.9l-2.9,2.9l-2.9-2.9l-2.9,2.9l2.9,2.9l-2.9,2.9
						l2.9,2.9L312.8,327.6z"/>
					<path fill="#EA875C" d="M353.5,168.7l2.9,2.9l2.9-2.9l-2.9-2.9l2.9-2.9l-2.9-2.9l-2.9,2.9l-2.9-2.9l-2.9,2.9l2.9,2.9l-2.9,2.9
						l2.9,2.9L353.5,168.7z"/>
					<path fill="#D75D47" d="M290.6,200.9l2.9,2.9l2.9-2.9l-2.9-2.9l2.9-2.9l-2.9-2.9l-2.9,2.9l-2.9-2.9l-2.9,2.9l2.9,2.9l-2.9,2.9
						l2.9,2.9L290.6,200.9z"/>
					<path fill="#C53431" d="M409.2,286.3l2.9,2.9l2.9-2.9l-2.9-2.9l2.9-2.9l-2.9-2.9l-2.9,2.9l-2.9-2.9l-2.9,2.9l2.9,2.9l-2.9,2.9
						l2.9,2.9L409.2,286.3z"/>
					<path fill="#B20A1C" d="M256.6,316.6l2.9,2.9l2.9-2.9l-2.9-2.9l2.9-2.9l-2.9-2.9l-2.9,2.9l-2.9-2.9l-2.9,2.9l2.9,2.9l-2.9,2.9
						l2.9,2.9L256.6,316.6z"/>
				</g>
			</g>
		</g>
		<path fill="none" stroke="#000000" stroke-opacity="0" d="M-48.8,364.4h305.7"/>
		<path fill="none" stroke="#000000" stroke-opacity="0" d="M-48.4,72.8V364"/>
		<g transform="translate(80,100)">
		</g>
		<g transform="translate(80,100)">
		</g>
	</g>
	<g>
		<g>
			<text transform="matrix(1 0 0 1 177.7852 50.4761)" fill="#444444" font-family="'OpenSans'" font-size="10.8136">Baltimore Vital Signs PCA w/ K-Means Clustering </text>
			<text transform="matrix(1 0 0 1 244.7754 64.5342)" fill="#444444" font-family="'OpenSans'" font-size="10.8136">Number of Clusters: 7</text>
		</g>
	</g>
</g>
<g id="Layer_2" display="none">
	<g display="inline">
		<polygon fill="#D75D47" stroke="#FFFFFF" stroke-miterlimit="10" points="263.7,200 257.1,206.9 257.1,217.9 119.8,217.9 
			119.8,183.4 256.7,183.4 257.1,194.1 		"/>
		<g>
			<text transform="matrix(1 0 0 1 126.0969 197.628)" enable-background="new    "><tspan x="0" y="0" fill="#FFFFFF" font-family="'ArialMT'" font-size="12.2308">(-2.40478, 8.587861)</tspan><tspan x="0" y="14.7" fill="#FFFFFF" font-family="'ArialMT'" font-size="12.2308">Harbor East / Little Italy</tspan></text>
		</g>
	</g>
</g>
</svg>
