<?xml version="1.0" encoding="utf-8"?>
<!-- Generator: Adobe Illustrator 21.0.2, SVG Export Plug-In . SVG Version: 6.00 Build 0)  -->
<svg version="1.1" id="Layer_1" xmlns="http://www.w3.org/2000/svg" xmlns:xlink="http://www.w3.org/1999/xlink" x="0px" y="0px"
	 viewBox="0 0 18 18" style="enable-background:new 0 0 18 18;" xml:space="preserve">
<style type="text/css">
	.st0{fill:#FFFFFF;stroke:#FFFFFF;stroke-linecap:round;stroke-linejoin:round;}
	.st1{fill:none;stroke:#FFFFFF;stroke-linecap:round;stroke-linejoin:round;}
</style>
<title>ic_chart_18</title>
<g id="Ebene_2">
	<g id="artwork">
		<path class="st0" d="M8,5.5h2c0.3,0,0.5,0.2,0.5,0.5v8.5l0,0h-3l0,0V6C7.5,5.7,7.7,5.5,8,5.5z"/>
		<path class="st0" d="M15,2.5h-2c-0.3,0-0.5,0.2-0.5,0.5v11.5h3V3C15.5,2.7,15.3,2.5,15,2.5z"/>
		<path class="st0" d="M5,8.5H3C2.7,8.5,2.5,8.7,2.5,9v5.5h3V9C5.5,8.7,5.3,8.5,5,8.5z"/>
		<line class="st1" x1="16" y1="16.5" x2="2" y2="16.5"/>
	</g>
</g>
</svg>
