<?xml version="1.0" encoding="utf-8"?>
<!-- Generator: Adobe Illustrator 18.0.0, SVG Export Plug-In . SVG Version: 6.00 Build 0)  -->
<!DOCTYPE svg PUBLIC "-//W3C//DTD SVG 1.1//EN" "http://www.w3.org/Graphics/SVG/1.1/DTD/svg11.dtd">
<svg version="1.1" id="Layer_1" xmlns="http://www.w3.org/2000/svg" xmlns:xlink="http://www.w3.org/1999/xlink" x="0px" y="0px"
	 viewBox="-156 0 950 560" enable-background="new -156 0 950 560" xml:space="preserve">
<rect x="-156" fill="#FFFFFF" width="950" height="560"/>
<g>
	<g transform="translate(80,100)">
	</g>
</g>
<g>
	<rect x="7.571" y="69.571" fill="#FFFFFF" width="640" height="431.429"/>
	<g transform="translate(80,100)">
		<path stroke="#E5E5E5" d="M-47.536-30.429V401"/>
		<path stroke="#E5E5E5" d="M24.793-30.429V401"/>
		<path stroke="#E5E5E5" d="M97.121-30.429V401"/>
		<path stroke="#E5E5E5" d="M169.457-30.429V401"/>
		<path stroke="#E5E5E5" d="M241.786-30.429V401"/>
		<path stroke="#E5E5E5" d="M314.114-30.429V401"/>
		<path stroke="#E5E5E5" d="M386.443-30.429V401"/>
		<path stroke="#E5E5E5" d="M458.779-30.429V401"/>
		<path stroke="#E5E5E5" d="M531.107-30.429V401"/>
		<path stroke="#E5E5E5" d="M-72.429,326.114h640"/>
		<path stroke="#E5E5E5" d="M-72.429,242.371h640"/>
		<path stroke="#E5E5E5" d="M-72.429,158.629h640"/>
		<path stroke="#E5E5E5" d="M-72.429,74.886h640"/>
		<path stroke="#E5E5E5" d="M-72.429-8.857h640"/>
	</g>
	<g transform="translate(80,100)">
	</g>
	<g>
		<g>
			<path fill="none" stroke="#F8766D" stroke-width="2" stroke-miterlimit="2" d="M55.321,74.714h1.443v8.05h2.893v16.107h1.45v8.05
				h8.679v8.057h4.343v16.1h4.336v16.107h11.571v8.05h2.893v8.05h1.45v8.057h1.45v8.05h2.893V195.5h2.893v8.05h13.014v8.05H129.1
				v8.057h14.464l0,0h5.786v8.293h2.893v8.3h4.343v8.293h2.893v8.3h1.443v8.293h1.45l0,0h4.336v8.607h2.893l0,0h1.45l0,0h1.443l0,0
				h8.686l0,0h1.443l0,0h1.45l0,0h2.893v11.771h2.893v11.771h4.336v12.507h1.45l0,0h4.336V319.2h1.45l0,0h4.336v14.521h5.793l0,0
				H213l0,0h15.914l0,0h15.914l0,0h27.486l0,0h10.121v31.943h14.471v31.943h92.579l0,0h13.021l0,0h231.457l0,0"/>
		</g>
		<g>
			<path fill="none" stroke="#00BFC4" stroke-width="2" stroke-miterlimit="2" d="M55.321,74.714h1.443v14.957h2.893v14.95h1.45
				v14.957h1.443v29.907h4.343v14.957h5.786v15.664h1.45v15.664h7.229v15.664h7.236v15.671h4.336v15.664h1.45v15.664h4.343v15.671
				h17.357v15.664h20.25v15.664h8.679V321.1h7.236l0,0h2.893v17.236h10.129l0,0h40.5v38.771h11.579v23.264h24.593v23.264h67.986l0,0
				h7.236v34.9h72.329l0,0"/>
		</g>
		<g>
			<g>
				<path fill="none" stroke="#FF0000" stroke-miterlimit="2" d="M143.564,224.657v-10 M148.564,219.657h-10"/>
				<path fill="none" stroke="#FF0000" stroke-miterlimit="2" d="M162.371,266.136v-10 M167.371,261.136h-10"/>
				<path fill="none" stroke="#FF0000" stroke-miterlimit="2" d="M169.6,274.743v-10 M174.6,269.743h-10"/>
				<path fill="none" stroke="#FF0000" stroke-miterlimit="2" d="M171.05,274.743v-10 M176.05,269.743h-10"/>
				<path fill="none" stroke="#FF0000" stroke-miterlimit="2" d="M172.493,274.743v-10 M177.493,269.743h-10"/>
				<path fill="none" stroke="#FF0000" stroke-miterlimit="2" d="M181.179,274.743v-10 M186.179,269.743h-10"/>
				<path fill="none" stroke="#FF0000" stroke-miterlimit="2" d="M182.621,274.743v-10 M187.621,269.743h-10"/>
				<path fill="none" stroke="#FF0000" stroke-miterlimit="2" d="M184.071,274.743v-10 M189.071,269.743h-10"/>
				<path fill="none" stroke="#FF0000" stroke-miterlimit="2" d="M189.857,298.286v-10 M194.857,293.286h-10"/>
				<path fill="none" stroke="#FF0000" stroke-miterlimit="2" d="M195.643,310.793v-10 M200.643,305.793h-10"/>
				<path fill="none" stroke="#FF0000" stroke-miterlimit="2" d="M201.429,324.2v-10 M206.429,319.2h-10"/>
				<path fill="none" stroke="#FF0000" stroke-miterlimit="2" d="M205.764,338.721v-10 M210.764,333.721h-10"/>
				<path fill="none" stroke="#FF0000" stroke-miterlimit="2" d="M211.557,338.721v-10 M216.557,333.721h-10"/>
				<path fill="none" stroke="#FF0000" stroke-miterlimit="2" d="M213,338.721v-10 M218,333.721h-10"/>
				<path fill="none" stroke="#FF0000" stroke-miterlimit="2" d="M228.914,338.721v-10 M233.914,333.721h-10"/>
				<path fill="none" stroke="#FF0000" stroke-miterlimit="2" d="M244.829,338.721v-10 M249.829,333.721h-10"/>
				<path fill="none" stroke="#FF0000" stroke-miterlimit="2" d="M272.314,338.721v-10 M277.314,333.721h-10"/>
				<path fill="none" stroke="#FF0000" stroke-miterlimit="2" d="M389.486,402.607v-10 M394.486,397.607h-10"/>
				<path fill="none" stroke="#FF0000" stroke-miterlimit="2" d="M402.507,402.607v-10 M407.507,397.607h-10"/>
				<path fill="none" stroke="#FF0000" stroke-miterlimit="2" d="M633.964,402.607v-10 M638.964,397.607h-10"/>
				<path fill="none" stroke="#FF0000" stroke-miterlimit="2" d="M66.893,169.443v-10 M71.893,164.443h-10"/>
				<path fill="none" stroke="#FF0000" stroke-miterlimit="2" d="M152.243,326.1v-10 M157.243,321.1h-10"/>
				<path fill="none" stroke="#FF0000" stroke-miterlimit="2" d="M165.264,343.336v-10 M170.264,338.336h-10"/>
				<path fill="none" stroke="#FF0000" stroke-miterlimit="2" d="M205.764,382.107v-10 M210.764,377.107h-10"/>
				<path fill="none" stroke="#FF0000" stroke-miterlimit="2" d="M309.921,428.636v-10 M314.921,423.636h-10"/>
				<path fill="none" stroke="#FF0000" stroke-miterlimit="2" d="M389.486,463.536v-10 M394.486,458.536h-10"/>
			</g>
		</g>
	</g>
	<path fill="none" stroke="#7F7F7F" d="M7.571,500.643H649"/>
	<path fill="none" stroke="#7F7F7F" d="M7.929,68.143v432.143"/>
	<g transform="translate(80,100)">
		<path stroke="#000000" d="M-46.821,401v3.571"/>
		<path stroke="#000000" d="M25.507,401v3.571"/>
		<path stroke="#000000" d="M97.836,401v3.571"/>
		<path stroke="#000000" d="M170.171,401v3.571"/>
		<path stroke="#000000" d="M242.5,401v3.571"/>
		<path stroke="#000000" d="M314.829,401v3.571"/>
		<path stroke="#000000" d="M387.157,401v3.571"/>
		<path stroke="#000000" d="M459.493,401v3.571"/>
		<path stroke="#000000" d="M531.821,401v3.571"/>
		<g>
			<text transform="matrix(1 0 0 1 -48.7814 412.1424)" font-family="'OpenSans'" font-size="6.8571">0</text>
		</g>
		<g>
			<text transform="matrix(1 0 0 1 21.5868 412.1424)" font-family="'OpenSans'" font-size="6.8571">50</text>
		</g>
		<g>
			<text transform="matrix(1 0 0 1 91.955 412.1424)" font-family="'OpenSans'" font-size="6.8571">100</text>
		</g>
		<g>
			<text transform="matrix(1 0 0 1 164.2908 412.1424)" font-family="'OpenSans'" font-size="6.8571">150</text>
		</g>
		<g>
			<text transform="matrix(1 0 0 1 236.619 412.1424)" font-family="'OpenSans'" font-size="6.8571">200</text>
		</g>
		<g>
			<text transform="matrix(1 0 0 1 308.9477 412.1424)" font-family="'OpenSans'" font-size="6.8571">250</text>
		</g>
		<g>
			<text transform="matrix(1 0 0 1 381.2762 412.1424)" font-family="'OpenSans'" font-size="6.8571">300</text>
		</g>
		<g>
			<text transform="matrix(1 0 0 1 453.6122 412.1424)" font-family="'OpenSans'" font-size="6.8571">350</text>
		</g>
		<g>
			<text transform="matrix(1 0 0 1 525.9403 412.1424)" font-family="'OpenSans'" font-size="6.8571">400</text>
		</g>
	</g>
	<g transform="translate(80,100)">
		<path stroke="#000000" d="M-72.429,325.4H-76"/>
		<path stroke="#000000" d="M-72.429,241.657H-76"/>
		<path stroke="#000000" d="M-72.429,157.914H-76"/>
		<path stroke="#000000" d="M-72.429,74.171H-76"/>
		<path stroke="#000000" d="M-72.429-9.571H-76"/>
		<g>
			<text transform="matrix(1 0 0 1 -86.3801 328.8289)" font-family="'OpenSans'" font-size="6.8571">0.2</text>
		</g>
		<g>
			<text transform="matrix(1 0 0 1 -86.3801 245.0859)" font-family="'OpenSans'" font-size="6.8571">0.4</text>
		</g>
		<g>
			<text transform="matrix(1 0 0 1 -86.3801 161.3427)" font-family="'OpenSans'" font-size="6.8571">0.6</text>
		</g>
		<g>
			<text transform="matrix(1 0 0 1 -86.3801 77.6)" font-family="'OpenSans'" font-size="6.8571">0.8</text>
		</g>
		<g>
			<text transform="matrix(1 0 0 1 -80.6348 -6.1428)" font-family="'OpenSans'" font-size="6.8571">1</text>
		</g>
	</g>
</g>
<g>
	<g>
		<text transform="matrix(1 0 0 1 176.6785 42.6021)" fill="#444444" font-family="'OpenSans'" font-size="15.1833">Lifespans of different tumor DNA profile</text>
	</g>
</g>
<g>
	<text transform="matrix(6.123235e-17 -1 1 6.123235e-17 -19.2783 311.0723)" font-family="'OpenSans'" font-size="14.6144">Survival</text>
</g>
<g>
	<text transform="matrix(1 0 0 1 304.5264 538.7051)" font-family="'OpenSans'" font-size="14.3891">Time</text>
</g>
</svg>
