<?xml version="1.0" encoding="utf-8"?>
<!-- Generator: Adobe Illustrator 18.0.0, SVG Export Plug-In . SVG Version: 6.00 Build 0)  -->
<!DOCTYPE svg PUBLIC "-//W3C//DTD SVG 1.1//EN" "http://www.w3.org/Graphics/SVG/1.1/DTD/svg11.dtd">
<svg version="1.1" id="Layer_1" xmlns="http://www.w3.org/2000/svg" xmlns:xlink="http://www.w3.org/1999/xlink" x="0px" y="0px"
	 viewBox="156.1 98 706.9 388" enable-background="new 156.1 98 706.9 388" xml:space="preserve">
<rect x="156.1" y="98" fill="#FFFFFF" width="706.9" height="388"/>
<g>
	<g transform="translate(158.10000000000002,100)">
	</g>
	<g transform="translate(158.10000000000002,100)">
	</g>
	<g transform="translate(158.10000000000002,100)">
	</g>
</g>
<g>
	<rect x="156.1" y="98" fill="#FFFFFF" width="706.9" height="388"/>
	<g>
		<line fill="none" stroke="#EAEAEA" stroke-miterlimit="10" x1="155.1" y1="146" x2="895" y2="146"/>
		<line fill="none" stroke="#EAEAEA" stroke-miterlimit="10" x1="155.1" y1="206" x2="895" y2="206"/>
		<line fill="none" stroke="#EAEAEA" stroke-miterlimit="10" x1="155.1" y1="266" x2="895" y2="266"/>
		<line fill="none" stroke="#EAEAEA" stroke-miterlimit="10" x1="155.1" y1="326" x2="895" y2="326"/>
		<line fill="none" stroke="#EAEAEA" stroke-miterlimit="10" x1="155.1" y1="386" x2="895" y2="386"/>
		<line fill="none" stroke="#EAEAEA" stroke-miterlimit="10" x1="155.1" y1="446" x2="895" y2="446"/>
	</g>
	<g transform="translate(158.10000000000002,100)">
	</g>
	<g>
		<g transform="translate(158.10000000000002,100)">
		</g>
		<g transform="translate(158.10000000000002,100)">
		</g>
	</g>
	<g transform="translate(158.10000000000002,100)">
	</g>
	<g>
		<g transform="translate(158.10000000000002,100)">
		</g>
		<g transform="translate(158.10000000000002,100)">
		</g>
	</g>
	<path fill="none" stroke="#666666" d="M155.1,486.5H864 M155.1,97.5H864"/>
	<path fill="none" stroke="#666666" d="M155.6,98v388 M863.5,98v388"/>
	<g>
		<defs>
			<rect id="SVGID_1_" x="156.1" y="98" width="706.9" height="388"/>
		</defs>
		<clipPath id="SVGID_2_">
			<use xlink:href="#SVGID_1_"  overflow="visible"/>
		</clipPath>
		<g clip-path="url(#SVGID_2_)">
			<g>
				<g>
					<path fill="none" stroke="#00A78D" stroke-width="3" stroke-miterlimit="2" d="M89.6,158l1,76.7l20.8-62.8l9.5-45.7l1.5,25
						l16.6,5.4l3.8-12.6l4.9,10.7l51.6,1.5l15.1,62.1l8.7,7.2l0.2-30.3l-0.5,25.4l27.4,7.6l13-24.6l11,81.2l43.3-55.6L328,308
						l16.2,72.1L363,263.6l30.8,26.9l21,169.4l23.6,11.9l22.1-85.7l7.4,54.5l0.3,29L494.7,368l35.6,37.4l27.6,18.5l31.2,6.4
						l27.7-4.5l38.2,1.6l26.1-3.2l31-2.9l28.9-8.2l39.2-20.7l51.2-29.9l29.8-19.1"/>
				</g>
			</g>
			<g>
				<g>
					<g>
						<path fill="none" stroke="#131B58" stroke-width="3" stroke-miterlimit="2" d="M91.6,211.4l1,145.2l20.8-200.4l9.5,50.1
							l1.5-37.6l16.6-22.5l3.8,30.1l4.9,12.5l51.6-37.6l15.1,22.5l8.7-30.1l-0.3,82.6l0,0l27.4-100.2l13,40.1l11-17.5l43.3,80.1
							l10.7,5l16.2,45.1L365,166.3l30.8,50.1l0,0l21,162.8l23.6,75.1l22.1-167.8l7.7,185.3l26.4-245.4l35.6,12.5l27.6,5H591
							l27.7,2.5l38.2-17.5l26.1-7.5l31-2.5l28.9-10l39.2-5l51.2-12.5l29.8-15"/>
					</g>
				</g>
				<g>
					<g>
						<path fill="none" stroke="#FCB925" stroke-width="3" stroke-miterlimit="2" d="M91.6,432.8l1-19.5l20.8-59.4l9.5,10.2
							l1.5-13.1l16.6-11.5l3.8-4.9l4.9-1.1l51.6-51.1l15.1-12.2l8.7-2.1l0.2-5.3l-0.5,3.4l27.4-16l13-9.6l11-0.3l43.3-17.7l10.7-7.2
							l16.2,1.7l18.7-31.9l30.8-2.8l21-21.8l23.6-6.9l22.1-9.4l7.4-18.1l0.3,0.3l26.4,345.3l35.6-12.4l27.6-11.1l31.2-15.1
							l27.7-12.4l38.2-15.2l26.1-12.5l59.9-32.1l39.2-18.9l51.2-22.9L863,307"/>
					</g>
				</g>
			</g>
		</g>
	</g>
</g>
<g>
	<rect x="748" y="17.5" fill="#FFFFFF" fill-opacity="0.5" stroke="#000000" width="104" height="68"/>
	<g transform="translate(1,15.5)">
		<g>
			<path fill="none" stroke="#131B58" stroke-width="3" d="M752.5,17h30"/>
		</g>
		<text transform="matrix(1 0 0 1 787.5 21.68)" font-family="'Helvetica'" font-size="12">Inclination</text>
		<rect x="747.5" y="7.5" pointer-events="all" fill-opacity="0" width="97.5" height="19"/>
	</g>
	<g transform="translate(1,34.5)">
		<g>
			<path fill="none" stroke="#00A78D" stroke-width="3" d="M752.5,17h30"/>
		</g>
		<text transform="matrix(1 0 0 1 787.5 21.68)" font-family="'Helvetica'" font-size="12">Eccentr.</text>
		<rect x="747.5" y="7.5" pointer-events="all" fill-opacity="0" width="97.5" height="19"/>
	</g>
	<g transform="translate(1,53.5)">
		<g>
			<path fill="none" stroke="#FCB925" stroke-width="3" d="M752.5,17h30"/>
		</g>
		<text transform="matrix(1 0 0 1 787.5 21.68)" font-family="'Helvetica'" font-size="12">M Motion</text>
		<rect x="747.5" y="7.5" pointer-events="all" fill-opacity="0" width="97.5" height="19"/>
	</g>
</g>
<g>
	<rect x="558.6" y="236.3" opacity="0.75" fill="#FFFFFF" width="64.4" height="19.6"/>
	<g>
		<polygon fill="#131B58" stroke="#FFFFFF" stroke-miterlimit="10" points="494.5,245.9 499.8,240.3 499.8,236.3 557.6,236.3 
			557.6,255.9 500.1,255.9 499.8,250.6 		"/>
		<text transform="matrix(1 0 0 1 503.1287 250.089)" fill="#FFFFFF" font-family="'ArialMT'" font-size="13.7682">40.5166</text>
	</g>
	<text transform="matrix(1 0 0 1 559.217 250.5093)" fill="#131B58" font-family="'ArialMT'" font-size="13.2329">Inclination</text>
</g>
<rect x="538.6" y="364.3" opacity="0.75" fill="#FFFFFF" width="55.7" height="19.6"/>
<g>
	<g>
		<polygon fill="#00A78D" stroke="#FFFFFF" stroke-miterlimit="10" points="494.5,373.9 499.8,368.3 499.8,364.3 537.6,364.3 
			537.6,383.9 500.1,383.9 499.8,378.6 		"/>
		<text transform="matrix(1 0 0 1 503.1287 378.089)" fill="#FFFFFF" font-family="'ArialMT'" font-size="13.7682">3644</text>
	</g>
	<text transform="matrix(1 0 0 1 539.217 378.5093)" fill="#00A78D" font-family="'ArialMT'" font-size="13.2329">Eccentr.</text>
</g>
<rect x="567.6" y="456.3" opacity="0.75" fill="#FFFFFF" width="59.6" height="19.6"/>
<g>
	<polygon fill="#FCB925" stroke="#000000" stroke-miterlimit="10" points="494.5,465.9 499.8,460.3 499.8,456.3 564.6,456.3 
		564.6,475.9 500.1,475.9 499.8,470.6 	"/>
	<text transform="matrix(1 0 0 1 503.1287 470.089)" font-family="'ArialMT'" font-size="13.7682">15.20965</text>
</g>
<text transform="matrix(1 0 0 1 568.217 470.5093)" fill="#FCB925" font-family="'ArialMT'" font-size="13.2329">M Motion</text>
</svg>
